<svg xmlns="http://www.w3.org/2000/svg"><svg xmlns="http://www.w3.org/2000/svg" xmlns:xlink="http://www.w3.org/1999/xlink" xml:space="preserve" fill-rule="evenodd" stroke-linejoin="round" stroke-miterlimit="2" baseProfile="tiny-ps" version="1.2" viewBox="0 0 600 600"><g id="SvgjsG1014"><g id="SvgjsG1013"><g id="SvgjsG1012"><path id="SvgjsPath1011" fill="#D03808" fill-rule="nonzero" d="m257.318 325.866-.214 5.668-41.185 23.846-4.814-8.234L252.29 323.3l5.028 2.566Z"/><path id="SvgjsPath1010" fill="#D03808" fill-rule="nonzero" d="m76.532 424.565 4.707 8.234 43.645-25.13-4.707-8.233-43.645 25.129Z"/><path id="SvgjsPath1009" fill="#D03808" fill-rule="nonzero" d="m145.102 385.428 4.814 8.233 41.078-23.846-4.707-8.233-41.185 23.846Z"/><path id="SvgjsPath1008" fill="#D03808" fill-rule="nonzero" d="m384.082 355.38 4.814-8.234-41.185-23.846-5.028 2.566.214 5.668 41.185 23.846Z"/><path id="SvgjsPath1007" fill="#D03808" fill-rule="nonzero" d="m475.117 407.669 4.707-8.233 43.645 25.129-4.707 8.234-43.645-25.13Z"/><path id="SvgjsPath1006" fill="#D03808" fill-rule="nonzero" d="m408.9 369.815 4.814-8.233 41.185 23.846-4.814 8.233-41.185-23.846Z"/><path id="SvgjsRect1005" fill="#D03808" d="M294.652 126.117h9.52v47.585h-9.52z"/><path id="SvgjsPath1004" fill="#D03808" d="m299.466 251.762-4.814-1.924v-47.585h9.52v47.585l-4.706 1.924Z"/><path id="SvgjsRect1003" fill="#D03808" d="M294.652 47.201h9.52v50.365h-9.52z"/></g></g><g id="SvgjsG1002"><path id="SvgjsPath1001" fill="#3B3B3B" fill-rule="nonzero" d="M310.537 5.988 549.41 143.824l8.023 4.598 2.567 1.497v299.945l-2.567 1.497-8.023 4.598-119.49 68.971-101.196 58.495-7.703 4.385v-48.655l2.568-1.497 85.15-49.192 85.259-49.189 23.641-13.58V198.573L321.021 312.028V587.81l-2.567 1.497-16.046 9.196-2.567 1.497-2.568-1.497-16.046-9.196-2.567-1.497v-39.794l-.001-235.988L82.148 198.466v227.338l15.297 8.768 133.184 76.995 45.463 26.198 2.568 1.497v48.548l-7.702-4.385L169.76 524.93 50.484 455.959l-8.023-4.598L40 449.864V150.026l2.568-1.497 8.023-4.598A273559.745 273559.745 0 0 1 289.463 6.095l8.024-4.598L300.054 0l2.567 1.497 7.916 4.491ZM103.115 162.109l196.832 113.562 196.832-113.562L316.421 58.064l-16.474-9.624-32.52 18.82-2.247 1.283c-54.021 31.118-108.043 62.342-162.065 93.566Z"/></g></g></svg><style>@media (prefers-color-scheme:light){:root{filter:none}}@media (prefers-color-scheme:dark){:root{filter:invert(100%)}}</style></svg>
