<?xml version="1.0"?>
<svg xmlns="http://www.w3.org/2000/svg" viewBox="0 0 64 64" width="512" height="512"><g id="database"><path d="M6,54H8a2,2,0,0,1,2-2V50A4,4,0,0,0,6,54Z"/><path d="M13,43a6.892,6.892,0,0,0,.587,2.794l1.831-.8A4.927,4.927,0,0,1,15,43a5.006,5.006,0,0,1,5-5V36A7.008,7.008,0,0,0,13,43Z"/><path d="M62,31V27a1,1,0,0,0-.76-.97l-1.29-.32.69-1.15a1.014,1.014,0,0,0-.15-1.22l-2.83-2.83a1.014,1.014,0,0,0-1.22-.15l-1.15.69-.32-1.29A1,1,0,0,0,54,19H50a1,1,0,0,0-.97.76l-.32,1.29-1.15-.69a1.014,1.014,0,0,0-1.22.15l-2.83,2.83a1.014,1.014,0,0,0-.15,1.22l.44.73A13.714,13.714,0,0,0,41,25c-.34,0-.67.02-1,.04V7h-.24C38.28,3.72,29.6,2,21,2,11.56,2,2,4.06,2,8V38c0,2.51,3.64,3.96,7.01,4.76,0,.08-.01.16-.01.24a10.957,10.957,0,0,0,.42,3.02A8,8,0,0,0,10,62H54a8,8,0,0,0,0-16h-.88A13.88,13.88,0,0,0,55,39c0-.26-.02-.51-.03-.76l.32-1.29,1.15.69a1.014,1.014,0,0,0,1.22-.15l2.83-2.83a1.014,1.014,0,0,0,.15-1.22l-.69-1.15,1.29-.32A1,1,0,0,0,62,31ZM21,4C32,4,38,6.64,38,8s-6,4-17,4S4,9.36,4,8,10,4,21,4ZM4,10.82C7.29,12.91,14.16,14,21,14s13.71-1.09,17-3.18V18c0,1.36-6,4-17,4S4,19.36,4,18Zm0,10C7.29,22.91,14.16,24,21,24s13.71-1.09,17-3.18v4.52a14.036,14.036,0,0,0-8.73,6.08A56.2,56.2,0,0,1,21,32C10,32,4,29.36,4,28ZM28.11,33.6a14.527,14.527,0,0,0-.52,1.44,11.815,11.815,0,0,0-1.58-1.24C26.73,33.74,27.43,33.68,28.11,33.6ZM9.23,40.75C5.42,39.81,4,38.62,4,38V30.82c2.19,1.39,5.95,2.34,10.26,2.82A11.023,11.023,0,0,0,9.23,40.75ZM54,48a6,6,0,0,1,0,12H10a6,6,0,0,1,0-12h.84a1.013,1.013,0,0,0,.84-.45,1.034,1.034,0,0,0,.08-.95A8.747,8.747,0,0,1,11,43a9,9,0,0,1,16.33-5.22.991.991,0,0,0,1.05.39,1,1,0,0,0,.75-.83A12.031,12.031,0,0,1,41,27c.34,0,.67.02,1,.04V31a1,1,0,0,0,.76.97l1.29.32-.69,1.15a1.014,1.014,0,0,0,.15,1.22l2.83,2.83a1.014,1.014,0,0,0,1.22.15l1.15-.69.32,1.29A1,1,0,0,0,50,39h3a11.818,11.818,0,0,1-2.56,7.38A1,1,0,0,0,51.23,48Zm6-17.78-1.84.46a1.045,1.045,0,0,0-.69.59,1.023,1.023,0,0,0,.07.9l.98,1.62-1.73,1.73-1.62-.98a1.023,1.023,0,0,0-.9-.07,1.045,1.045,0,0,0-.59.69L53.22,37H50.78l-.46-1.84a1.045,1.045,0,0,0-.59-.69,1.023,1.023,0,0,0-.9.07l-1.62.98-1.73-1.73.98-1.62a1.023,1.023,0,0,0,.07-.9,1.045,1.045,0,0,0-.69-.59L44,30.22V27.78l1.84-.46a1.045,1.045,0,0,0,.69-.59,1.023,1.023,0,0,0-.07-.9l-.98-1.62,1.73-1.73,1.62.98a1.023,1.023,0,0,0,.9.07,1.045,1.045,0,0,0,.59-.69L50.78,21h2.44l.46,1.84a1.045,1.045,0,0,0,.59.69,1.023,1.023,0,0,0,.9-.07l1.62-.98,1.73,1.73-.98,1.62a1.023,1.023,0,0,0-.07.9,1.045,1.045,0,0,0,.69.59l1.84.46Z"/><path d="M52,25a4,4,0,1,0,4,4A4,4,0,0,0,52,25Zm0,6a2,2,0,1,1,2-2A2,2,0,0,1,52,31Z"/></g></svg>
