<svg xmlns="http://www.w3.org/2000/svg" width="512" height="512"><g xmlns="http://www.w3.org/2000/svg"><path d="M307.2 119.58a8.53 8.53 0 008.54-8.53 8.54 8.54 0 018.53-8.54 8.53 8.53 0 100-17.06 25.63 25.63 0 00-25.6 25.6 8.53 8.53 0 008.53 8.53z" data-original="#000000"/><path d="M503.6 240.43l-20.22-30.62c-1.98-3-1.88-6.91.25-9.8l18.07-24.55a17.09 17.09 0 00-11.68-27.12l-23.72-2.96a31.14 31.14 0 00-12.07.64l-59.89 13.56a228.74 228.74 0 00-22.11 6.21l-22.36 7.55v-8.4a59.79 59.79 0 10-73.1-17.82l-55.28-10.25c-4.26-.68-8.63.24-12.26 2.57l-61.07 40.14c-1.45 1-2.76 2.19-3.88 3.54l-15.72 19.57a27.08 27.08 0 0014.22 43.09c1 .26 1.96.7 2.83 1.27l3.29 7.67a8.52 8.52 0 002.13 2.98 25.71 25.71 0 0024.63 5.55c8.42-2.4 14.99-9 17.35-17.44l5.12-15.7a25.92 25.92 0 0113.84-15.52l13.12-5.82V225a17.12 17.12 0 009.38 15.2l28.64 14.53-48.63 18.5c-.46.15-.77.28-.7.3a7.8 7.8 0 00-1.26.52l-25.1 12.8a17.63 17.63 0 01-11.41 1.54l-16.9-3.41a51.83 51.83 0 00-37 6.44l-27.69 16.81-46.19 26.85a25.67 25.67 0 00-11.06 31.53l3.75 9.52a8.54 8.54 0 01-6.64 11.53l-12.83 2.21a25.48 25.48 0 00-16.68 10.4A25.22 25.22 0 00.35 419.2l3.32 20.24A25.57 25.57 0 0029 460.9h27.4a25.5 25.5 0 0020.6-10.38l16.48-22.35a18.38 18.38 0 016.11-5.14l17.79-9.02a17.48 17.48 0 0114.31-.57l61.64 24.97a16.92 16.92 0 0015.93-1.6 17.17 17.17 0 007.65-14.3v-2.05c.07-3.06-.78-6.06-2.43-8.64l-4.56-7.93 3.16 2.14c9.63 6.5 18.1 14.6 25.03 23.92l7.33 9.98a25.48 25.48 0 0026.33 9.76l54.07-12.13a25.73 25.73 0 0019.51-20.13l1.62-8.16a20.8 20.8 0 0120.48-16.71 21.5 21.5 0 0112.32 3.92l43.85 31.73a29.3 29.3 0 0023.18 5.05 29.27 29.27 0 0017.14-46.82l-7.8-10.02 38.54-34.11a51.13 51.13 0 0017.33-38.4v-35.33c.02-10.01-2.9-19.8-8.4-28.16zM324.26 68.38a42.67 42.67 0 110 85.33 42.67 42.67 0 010-85.33zm8.53 102.4v102.4a8.53 8.53 0 11-17.07 0v-102.4h17.07zm162.13 133.13c.02 9.8-4.2 19.13-11.55 25.6l-38.77 34.33a17.23 17.23 0 00-1.88 23.25l7.81 9.94a11.89 11.89 0 011.9 11.7 12.13 12.13 0 01-9.18 7.82c-3.37.68-6.87-.1-9.63-2.14l-43.92-31.78a38.73 38.73 0 00-22.27-7.13 37.86 37.86 0 00-37.21 30.5l-1.63 8.16a8.67 8.67 0 01-6.55 6.77L268 433.06a8.5 8.5 0 01-8.8-3.23l-7.37-10.03a120.08 120.08 0 00-29.2-27.9l-3.2-2.17a16.93 16.93 0 00-21.43 1.8 16.65 16.65 0 00-2.89 20.93l4.74 8-.04 2.17-61.65-24.98a34.23 34.23 0 00-28.45 1.13l-17.86 9.06a35.37 35.37 0 00-12.03 10.12l-16.52 22.4a8.55 8.55 0 01-6.9 3.49h-27.4a8.57 8.57 0 01-8.48-7.19l-3.33-20.25a8.55 8.55 0 017.1-9.72l12.86-2.21a25.6 25.6 0 0019.68-34.58l-3.76-9.54a8.53 8.53 0 013.68-10.5l46.4-26.96 27.8-16.88c7.45-4.45 16.28-5.99 24.8-4.32l16.8 3.4a35 35 0 0022.47-2.97l24.94-12.72.15-.07.18-.07 49-18.63a17 17 0 0010.87-15.2 16.8 16.8 0 00-9.3-15.97L242.16 225v-16.22a17.1 17.1 0 00-23.82-15.8l-13.5 6.1a43.44 43.44 0 00-22.92 25.74l-5.26 16.13a8.4 8.4 0 01-5.83 5.94 8.7 8.7 0 01-7.1-.93l-3.24-7.52a8.5 8.5 0 00-1.93-2.8 26.14 26.14 0 00-11.42-6.36 9.78 9.78 0 01-6.92-6.5 9.91 9.91 0 011.67-9.42l15.7-19.55 61-40.12 80.08 14.9v104.6a25.6 25.6 0 0051.2 0v-81.84l27.75-9.37a215.43 215.43 0 0120.47-5.75l60.15-13.62a14.6 14.6 0 015.77-.31l23.97 3.03-18.06 24.52a25.66 25.66 0 00-.8 29.35l20.23 30.63a34 34 0 015.59 18.76v35.33z" data-original="#000000"/><path d="M23.8 284.33l-5.84 11.8a8.52 8.52 0 003.8 11.4l12.87 6.5a16.91 16.91 0 0016.47-.64l35.62-21.56a17.02 17.02 0 007.76-10.54l7.67-30.97a8.53 8.53 0 00-4.44-9.68l-14.53-7.32-5.39-10.89L84.44 209c2.09-4.2.39-9.3-3.8-11.4l-13.92-7.02L61.25 174a17.04 17.04 0 00-16.2-11.75H34.14a17.13 17.13 0 00-17.07 17.14v51.65c0 2.25.89 4.41 2.47 6l6.06 6.13v3.1l-7.64 15.42a8.45 8.45 0 00-.9 3.79v8.5c0 2.23.88 4.37 2.44 5.96l4.3 4.4zm10.33-16.85l7.65-15.43c.59-1.18.9-2.48.89-3.8v-8.6c0-2.25-.9-4.4-2.48-6l-6.05-6.12V179.3l10.9.04 6.6 19.93a8.55 8.55 0 004.25 4.95l9.5 4.79-4.76 9.62a8.53 8.53 0 00-.01 7.58l8.53 17.22c.82 1.65 2.16 3 3.8 3.83l11 5.54-6.07 24.42-35.56 21.56-5.31-2.68 4.77-9.63a8.52 8.52 0 00-1.55-9.75l-6.1-6.23v-3.02z" data-original="#000000"/></g></svg>