<?xml version="1.0" encoding="iso-8859-1"?>
<!-- Generator: Adobe Illustrator 21.0.0, SVG Export Plug-In . SVG Version: 6.00 Build 0)  -->
<svg xmlns="http://www.w3.org/2000/svg" xmlns:xlink="http://www.w3.org/1999/xlink" version="1.1" id="Capa_1" x="0px" y="0px" viewBox="0 0 512 512" style="enable-background:new 0 0 512 512;" xml:space="preserve" width="512" height="512">
<g>
	<g>
		<path style="fill:rgb(0,0,0);" d="M509.767,141.589c-0.902-1.113-22.595-27.561-64.813-53.798    C406.179,63.693,341.951,35.242,256,36.482c-85.932-1.23-150.18,27.21-188.954,51.309c-42.218,26.238-63.91,52.686-64.813,53.798    c-2.978,3.671-2.978,8.927,0,12.599c0.903,1.113,22.595,27.561,64.813,53.799c34.521,21.455,89.255,46.347,161.479,50.673v45.28    c0,12.449-10.128,22.577-22.577,22.577H75.265c-23.477,0-42.577,19.1-42.577,42.577v88.388c0,23.477,19.1,42.577,42.577,42.577    h367.17c23.478,0,42.577-19.1,42.577-42.577v-88.388c0-23.477-19.1-42.577-42.577-42.577H263.358c-5.522,0-10,4.477-10,10    s4.478,10,10,10h179.078c12.449,0,22.577,10.128,22.577,22.577v88.388c0,12.449-10.128,22.577-22.577,22.577H75.265    c-12.449,0-22.577-10.128-22.577-22.577v-88.388c0-12.449,10.128-22.577,22.577-22.577h130.683    c23.477,0,42.577-19.1,42.577-42.577v-44.615c2.474,0.013,4.963,0.007,7.475-0.029c1.826,0.026,3.628,0.04,5.435,0.04    c83.206-0.002,145.569-27.762,183.52-51.348c42.218-26.238,63.91-52.686,64.813-53.799    C512.744,150.516,512.744,145.261,509.767,141.589z M256,239.166c-2.517,0-5.009-0.107-7.475-0.308v-64.537    c2.378,0.674,4.884,1.042,7.475,1.042c15.149,0,27.475-12.325,27.475-27.475S271.15,120.414,256,120.414    s-27.475,12.325-27.475,27.474v87.05c-36.946-11.687-63.803-46.289-63.803-87.05c0-50.331,40.947-91.278,91.278-91.278    c50.331,0,91.278,40.947,91.278,91.278S306.331,239.166,256,239.166z M248.526,147.889c0-4.121,3.353-7.474,7.475-7.474    c4.121,0,7.475,3.353,7.475,7.474c0,4.122-3.354,7.475-7.475,7.475C251.879,155.363,248.526,152.01,248.526,147.889z     M23.494,147.889c8.685-9.035,27.148-26.458,54.831-43.559c24.669-15.239,60.351-32.338,105.91-41.411    c-24.149,20.428-39.512,50.936-39.512,84.97c0,34.037,15.366,64.548,39.52,84.976c-45.571-9.072-81.243-26.175-105.917-41.418    C50.642,174.346,32.179,156.923,23.494,147.889z M434.398,191c-24.813,15.421-60.72,32.736-106.651,41.875    c24.161-20.428,39.532-50.944,39.532-84.986c0-34.033-15.362-64.54-39.511-84.969c45.56,9.073,81.238,26.171,105.907,41.41    c27.697,17.11,46.166,34.542,54.842,43.569C479.952,156.827,461.81,173.963,434.398,191z"/>
		<path style="fill:rgb(0,0,0);" d="M124.462,383.393c3.761,0,7.437,0.649,10.925,1.929c5.187,1.902,10.931-0.759,12.833-5.944    c1.902-5.185-0.759-10.93-5.944-12.833c-5.702-2.092-11.695-3.152-17.813-3.152c-28.515,0-51.714,23.199-51.714,51.714    s23.199,51.714,51.714,51.714c24.459,0,45.767-17.37,50.664-41.302c1.107-5.411-2.381-10.695-7.792-11.802    c-5.412-1.109-10.695,2.381-11.802,7.792c-3.001,14.667-16.068,25.312-31.07,25.312c-17.487,0-31.714-14.227-31.714-31.714    S106.975,383.393,124.462,383.393z"/>
		<path style="fill:rgb(0,0,0);" d="M442.77,388.66c0-5.523-4.478-10-10-10H216.296c-5.523,0-10,4.477-10,10s4.477,10,10,10H432.77    C438.292,398.66,442.77,394.183,442.77,388.66z"/>
		<path style="fill:rgb(0,0,0);" d="M255.354,419.544c-5.523,0-10,4.477-10,10s4.477,10,10,10h61.69c5.522,0,10-4.477,10-10    s-4.478-10-10-10H255.354z"/>
		<path style="fill:rgb(0,0,0);" d="M185.244,372.054c-3.517-4.26-9.82-4.86-14.078-1.344l-43.454,35.882l-6.047-7.369    c-3.503-4.269-9.804-4.892-14.074-1.387c-4.27,3.503-4.891,9.804-1.387,14.074l12.41,15.124c1.686,2.054,4.12,3.354,6.765,3.61    c0.322,0.031,0.645,0.047,0.966,0.047c2.313,0,4.567-0.803,6.367-2.289l51.188-42.27    C188.159,382.615,188.76,376.312,185.244,372.054z"/>
		<path style="fill:rgb(0,0,0);" d="M224.61,423.99c-2.313-3.534-6.846-5.195-10.906-4.1c-4.055,1.094-7.036,4.685-7.381,8.87    c-0.328,3.978,1.867,7.86,5.408,9.676c3.72,1.907,8.339,1.254,11.4-1.59C226.671,433.558,227.28,427.997,224.61,423.99z"/>
		<path style="fill:rgb(0,0,0);" d="M110.86,54.482c5.523,0,10-4.477,10-10V31.941h14.679c5.523,0,10-4.477,10-10s-4.477-10-10-10    H110.86c-5.523,0-10,4.477-10,10v22.541C100.86,50.005,105.337,54.482,110.86,54.482z"/>
		<path style="fill:rgb(0,0,0);" d="M377.936,31.941h14.679v12.541c0,5.523,4.478,10,10,10s10-4.477,10-10V21.941    c0-5.523-4.478-10-10-10h-24.679c-5.522,0-10,4.477-10,10S372.413,31.941,377.936,31.941z"/>
		<path style="fill:rgb(0,0,0);" d="M392.615,254.566l-0.001,11.54h-14.679c-5.522,0-10,4.477-10,10s4.478,10,10,10h24.679    c5.522,0,10-4.477,10-10l0.001-21.539c0-5.523-4.477-10-10-10C397.093,244.567,392.615,249.044,392.615,254.566z"/>
		<path style="fill:rgb(0,0,0);" d="M110.86,244.567c-5.523,0-10,4.477-10,10v21.539c0,5.523,4.477,10,10,10h24.679    c5.523,0,10-4.477,10-10s-4.477-10-10-10H120.86v-11.539C120.86,249.044,116.383,244.567,110.86,244.567z"/>
	</g>
</g>















</svg>