<!DOCTYPE svg PUBLIC "-//W3C//DTD SVG 1.1//EN" "http://www.w3.org/Graphics/SVG/1.1/DTD/svg11.dtd">
<!-- Uploaded to: SVG Repo, www.svgrepo.com, Transformed by: SVG Repo Mixer Tools -->
<svg height="800px" width="800px" version="1.1" id="Layer_1" xmlns="http://www.w3.org/2000/svg" xmlns:xlink="http://www.w3.org/1999/xlink" viewBox="0 0 512.00 512.00" xml:space="preserve" fill="#000000" stroke="#000000" transform="rotate(0)matrix(1, 0, 0, 1, 0, 0)" stroke-width="0.0051200099999999995">
<g id="SVGRepo_bgCarrier" stroke-width="0"/>
<g id="SVGRepo_tracerCarrier" stroke-linecap="round" stroke-linejoin="round"/>
<g id="SVGRepo_iconCarrier"> <g> <polygon style="fill:#ffffff;" points="409.921,350.063 409.921,503.983 384.268,503.983 350.063,409.921 "/> <polygon style="fill:#ffffff;" points="102.08,350.063 102.08,503.983 127.733,503.983 170.489,409.921 "/> </g> <g> <polygon style="fill:#ffffff;" points="298.756,187.591 409.921,119.182 409.921,230.347 "/> <polygon style="fill:#ffffff;" points="196.143,179.04 102.08,119.182 102.08,230.347 "/> </g> <ellipse style="fill:#ffffff;" cx="256.001" cy="307.307" rx="188.125" ry="162.472"/> <g> <path style="fill:#ffffff;" d="M273.103,435.574c-103.899,0-188.125-72.741-188.125-162.472c0-16.295,2.791-32.026,7.959-46.868 c-15.939,23.861-25.061,51.546-25.061,81.072c0,89.73,84.227,162.472,188.125,162.472c85.03,0,156.872-48.724,180.166-115.604 C403.665,402.826,342.813,435.574,273.103,435.574z"/> <ellipse style="fill:#ffffff;" cx="256.001" cy="367.165" rx="68.409" ry="59.858"/> </g> <ellipse style="fill:#ffffff;" cx="256.001" cy="367.165" rx="51.307" ry="42.756"/> <g> <circle style="fill:#ffffff;" cx="350.063" cy="298.756" r="17.102"/> <circle style="fill:#ffffff;" cx="161.938" cy="298.756" r="17.102"/> </g> <circle style="fill:#ffffff;" cx="256.001" cy="59.324" r="51.307"/> <path style="fill:#ffffff;" d="M273.103,93.528c-28.336,0-51.307-22.971-51.307-51.307c0-9.785,2.742-18.929,7.495-26.71 c-14.751,9.012-24.597,25.261-24.597,43.812c0,28.336,22.971,51.307,51.307,51.307c18.551,0,34.8-9.847,43.812-24.597 C292.032,90.786,282.887,93.528,273.103,93.528z"/> <path d="M452.143,307.307c0-35.613-12.636-68.706-34.205-96.084v-92.041c0-6.171-7.017-10.076-12.266-6.798l-65.515,40.947 c-25.517-10.58-54.054-16.512-84.157-16.512c-29.323,0-58.029,5.67-84.2,16.484l-65.472-40.919 c-5.248-3.278-12.266,0.629-12.266,6.798v91.865c-5.029,6.387-9.571,13.083-13.581,20.051c-2.208,3.837-0.887,8.738,2.95,10.947 c3.838,2.205,8.738,0.887,10.947-2.951c30.612-53.196,92.542-86.242,161.622-86.242c99.312,0,180.109,69.288,180.109,154.455 s-80.797,154.455-180.109,154.455S75.892,392.474,75.892,307.307c0-15.48,2.664-30.757,7.916-45.409 c1.494-4.168-0.673-8.757-4.841-10.252c-4.169-1.494-8.757,0.673-10.252,4.84c-5.877,16.393-8.857,33.491-8.857,50.821 c0,35.613,12.636,68.706,34.205,96.084v100.592c0,4.428,3.589,8.017,8.017,8.017h25.653c3.371,0,6.382-2.109,7.534-5.277 l19.443-53.47c29.585,15.571,64.254,24.543,101.291,24.543s71.706-8.972,101.289-24.542l19.443,53.47 c1.152,3.168,4.163,5.277,7.534,5.277h25.653c4.427,0,8.017-3.588,8.017-8.017V403.392 C439.506,376.013,452.143,342.92,452.143,307.307z M110.097,193.338v-59.692l44.411,27.757c-0.93,0.49-1.869,0.962-2.792,1.467 C136.204,171.345,122.221,181.619,110.097,193.338z M357.439,161.437l44.466-27.791v59.848 C389.004,181.013,374.026,170.185,357.439,161.437z M122.118,495.967h-12.022v-74.847c9.178,8.879,19.41,16.916,30.523,23.968 L122.118,495.967z M389.883,495.967l-18.501-50.88c11.113-7.05,21.347-15.087,30.524-23.968v74.848H389.883z"/> <path d="M179.575,367.165c0,37.426,34.285,67.875,76.426,67.875s76.426-30.448,76.426-67.875c0-13.7-4.565-26.9-13.204-38.172 c-2.694-3.513-7.726-4.18-11.239-1.487c-3.515,2.694-4.18,7.726-1.487,11.239c6.475,8.45,9.897,18.277,9.897,28.42 c0,28.585-27.092,51.841-60.392,51.841s-60.392-23.256-60.392-51.841c0-28.585,27.092-51.841,60.392-51.841 c11.649,0,22.958,2.859,32.702,8.267c3.87,2.147,8.751,0.751,10.9-3.119c2.148-3.872,0.753-8.752-3.119-10.9 c-12.118-6.727-26.117-10.282-40.482-10.282C213.859,299.29,179.575,329.739,179.575,367.165z"/> <path d="M375.182,298.756c0-13.851-11.268-25.119-25.119-25.119s-25.119,11.268-25.119,25.119c0,13.851,11.268,25.119,25.119,25.119 S375.182,312.606,375.182,298.756z M340.978,298.756c0-5.01,4.076-9.086,9.086-9.086s9.086,4.076,9.086,9.086 s-4.076,9.086-9.086,9.086S340.978,303.766,340.978,298.756z"/> <path d="M161.938,273.637c-13.851,0-25.119,11.268-25.119,25.119c0,13.851,11.268,25.119,25.119,25.119 c13.851,0,25.119-11.268,25.119-25.119C187.057,284.905,175.789,273.637,161.938,273.637z M161.938,307.841 c-5.01,0-9.086-4.076-9.086-9.086s4.076-9.086,9.086-9.086s9.086,4.076,9.086,9.086S166.948,307.841,161.938,307.841z"/> <path d="M282.723,359.148h-1.069c-4.427,0-8.017,3.588-8.017,8.017c0,4.428,3.589,8.017,8.017,8.017h1.069 c4.427,0,8.017-3.588,8.017-8.017C290.74,362.737,287.15,359.148,282.723,359.148z"/> <path d="M230.347,359.148c-4.427,0-8.017,3.588-8.017,8.017c0,4.428,3.589,8.017,8.017,8.017h1.069c4.427,0,8.017-3.588,8.017-8.017 c0-4.428-3.589-8.017-8.017-8.017H230.347z"/> <path d="M298.756,212.71c4.427,0,8.017-3.588,8.017-8.017s-3.589-8.017-8.017-8.017h-85.511c-4.427,0-8.017,3.588-8.017,8.017 s3.589,8.017,8.017,8.017H298.756z"/> <path d="M256.001,118.647c32.711,0,59.324-26.612,59.324-59.324S288.712,0,256.001,0s-59.324,26.612-59.324,59.324 S223.289,118.647,256.001,118.647z M256.001,16.033c23.871,0,43.29,19.42,43.29,43.29s-19.42,43.29-43.29,43.29 c-23.871,0-43.29-19.42-43.29-43.29S232.13,16.033,256.001,16.033z"/> <path d="M236.437,90.646c3.089,3.088,8.249,3.088,11.337,0l25.653-25.653c2.293-2.294,2.979-5.741,1.738-8.737 c-1.241-2.996-4.164-4.949-7.406-4.949h-6.3l11.968-11.967c3.131-3.132,3.131-8.207,0-11.338c-3.131-3.13-8.207-3.13-11.337,0 l-25.653,25.653c-2.293,2.294-2.979,5.741-1.738,8.737c1.241,2.996,4.164,4.949,7.406,4.949h6.3l-11.968,11.967 C233.306,82.439,233.306,87.515,236.437,90.646z"/> </g>
</svg>