<svg id="Capa_1" enable-background="new 0 0 511 511" height="512" viewBox="0 0 511 511" width="512" xmlns="http://www.w3.org/2000/svg"><g><path d="m83.642 24.563c-8.056 0-14.61 6.554-14.61 14.61v34.154c0 8.057 6.554 14.61 14.61 14.61h24.217c8.056 0 14.61-6.554 14.61-14.61v-34.154c0-8.057-6.554-14.61-14.61-14.61zm23.827 48.375h-23.438v-33.375h23.438z"/><path d="m122.469 338.327v-34.154c0-8.057-6.554-14.61-14.61-14.61h-24.217c-8.056 0-14.61 6.554-14.61 14.61v34.154c0 8.057 6.554 14.61 14.61 14.61h24.217c8.056.001 14.61-6.553 14.61-14.61zm-15-.389h-23.438v-33.375h23.438z"/><path d="m83.642 220.438h24.217c8.056 0 14.61-6.554 14.61-14.61v-34.154c0-8.057-6.554-14.61-14.61-14.61h-24.217c-8.056 0-14.61 6.554-14.61 14.61v34.154c-.001 8.056 6.553 14.61 14.61 14.61zm.389-48.375h23.438v33.375h-23.438z"/><path d="m481.5 439.5h-230.25v-1.898c0-6.191-5.142-11.229-11.463-11.229h-10.037v-22.645c0-5.363-3.86-9.853-9-10.961v-15.267h78.33v7.22c0 12.903 10.492 23.4 23.39 23.4h134.39c12.897 0 23.39-10.497 23.39-23.4v-123.67c0-10.345-6.753-19.137-16.08-22.214v-27.446c0-19.894-7.751-38.606-21.829-52.695-14.078-14.067-32.783-21.814-52.671-21.814-14.279 0-27.627 4.045-38.974 11.038-3.737-7.607-10.885-13.243-19.437-14.907v-21.022c12.655-2.462 22.24-13.625 22.24-26.99v-5.56c0-4.143-3.357-7.5-7.5-7.5s-7.5 3.357-7.5 7.5v5.56c0 6.893-5.607 12.5-12.5 12.5h-267.499c-6.893 0-12.5-5.607-12.5-12.5v-57.5c0-6.893 5.607-12.5 12.5-12.5h267.5c6.893 0 12.5 5.607 12.5 12.5v16.94c0 4.143 3.357 7.5 7.5 7.5s7.5-3.357 7.5-7.5v-16.94c0-15.163-12.337-27.5-27.5-27.5h-267.5c-15.164 0-27.5 12.337-27.5 27.5v57.5c0 13.364 9.585 24.528 22.24 26.99v21.021c-12.655 2.461-22.24 13.625-22.24 26.989v57.5c0 13.364 9.585 24.528 22.24 26.99v21.021c-12.655 2.461-22.24 13.625-22.24 26.989v57.5c0 15.163 12.336 27.5 27.5 27.5h19.75c4.142 0 7.5-3.357 7.5-7.5s-3.358-7.5-7.5-7.5h-19.75c-6.893 0-12.5-5.607-12.5-12.5v-57.5c0-6.893 5.607-12.5 12.5-12.5h240.58v82.5h-185.83c-4.142 0-7.5 3.357-7.5 7.5s3.358 7.5 7.5 7.5h50.5v15.268c-5.14 1.108-9 5.598-9 10.961v22.645h-10.037c-6.321 0-11.463 5.037-11.463 11.229v1.898h-103.75c-7.614 0-14.771 2.965-20.153 8.347-5.383 5.381-8.347 12.539-8.347 20.152 0 15.715 12.785 28.5 28.5 28.5h103.75v3.271c0 6.191 5.142 11.229 11.463 11.229h95.074c6.321 0 11.463-5.037 11.463-11.229v-3.271h230.25c15.715 0 28.5-12.785 28.5-28.5s-12.785-28.5-28.5-28.5zm-16.25-54.78c0 4.632-3.764 8.4-8.39 8.4h-134.39c-4.626 0-8.39-3.769-8.39-8.4v-123.67c0-4.626 3.764-8.39 8.39-8.39h134.39c4.626 0 8.39 3.764 8.39 8.39zm-48.24-147.06h-54.69v-26.27c0-15.075 12.269-27.34 27.35-27.34 7.301 0 14.165 2.84 19.322 7.99 5.17 5.177 8.018 12.049 8.018 19.35zm14.724-68.359c11.243 11.252 17.436 26.2 17.436 42.089v26.271h-17.16v-26.271c0-11.303-4.404-21.938-12.41-29.957-7.998-7.985-18.627-12.383-29.93-12.383-23.352 0-42.35 18.993-42.35 42.34v26.271h-17.16v-26.271c0-32.813 26.696-59.51 59.51-59.51 15.883 0 30.823 6.188 42.064 17.421zm-363.494-36.801v-20h248.02v20zm-22.24 85v-57.5c0-6.893 5.607-12.5 12.5-12.5h267.5c6.05 0 11.108 4.322 12.254 10.04-14.213 13.576-23.094 32.689-23.094 53.85v18.61h-256.66c-6.893 0-12.5-5.607-12.5-12.5zm22.24 47.5v-20h237.239c-3.962 4.192-6.399 9.84-6.399 16.05v3.95zm-38.74 216.5c-7.444 0-13.5-6.056-13.5-13.5 0-3.606 1.404-6.997 3.954-9.547 2.549-2.549 5.939-3.953 9.546-3.953h103.75v27zm176.25-104v15h-27v-15zm30.5 118.5h-88v-54.627h10.037c6.321 0 11.463-5.037 11.463-11.229v-22.644h45v22.645c0 6.191 5.142 11.229 11.463 11.229h10.037zm245.25-14.5h-230.25v-27h230.25c7.444 0 13.5 6.056 13.5 13.5s-6.056 13.5-13.5 13.5z"/><path d="m412.012 314.51c2.247-3.898 3.434-8.336 3.434-12.849 0-7.323-3.129-14.327-8.585-19.216-5.448-4.882-12.771-7.223-20.09-6.415-11.676 1.285-21.212 10.677-22.676 22.33-.714 5.673.4 11.251 3.225 16.148l-4.894 43.567c-.35 3.001.603 6.018 2.612 8.275 2.012 2.26 4.9 3.556 7.924 3.556h33.407c3.024 0 5.912-1.296 7.925-3.556 2.01-2.259 2.962-5.274 2.616-8.245zm-34.136 40.397 4.391-39.088c.339-3.013-.32-6.029-1.905-8.722-1.211-2.06-1.689-4.435-1.384-6.867.609-4.849 4.577-8.756 9.434-9.29 3.137-.342 6.129.605 8.439 2.677 2.284 2.047 3.595 4.979 3.595 8.044 0 1.913-.509 3.791-1.47 5.427-1.588 2.7-2.249 5.72-1.911 8.734l4.392 39.085z"/></g></svg>