<?xml version="1.0" encoding="iso-8859-1"?>
<!-- Generator: Adobe Illustrator 19.0.0, SVG Export Plug-In . SVG Version: 6.00 Build 0)  -->
<svg version="1.1" id="Capa_1" xmlns="http://www.w3.org/2000/svg" xmlns:xlink="http://www.w3.org/1999/xlink" x="0px" y="0px"
	 viewBox="0 0 480 480" style="enable-background:new 0 0 480 480;" xml:space="preserve">
<g>
	<g>
		<path d="M283.824,90.76C291.424,81.2,296,69.136,296,56c0-30.88-25.12-56-56-56s-56,25.12-56,56c0,13.136,4.576,25.2,12.176,34.76
			C164.56,107.04,144,139.912,144,176v24c0,4.416,3.584,8,8,8h176c4.416,0,8-3.584,8-8v-24C336,139.912,315.44,107.04,283.824,90.76
			z M240,16c22.056,0,40,17.944,40,40c0,13.184-6.496,24.808-16.368,32.104c-0.944,0.696-1.912,1.344-2.904,1.944
			c-0.96,0.592-1.968,1.112-2.984,1.624c-1.304,0.64-2.616,1.256-3.968,1.744c-0.592,0.216-1.216,0.376-1.824,0.568
			c-7.76,2.376-16.128,2.376-23.896,0c-0.608-0.192-1.232-0.344-1.824-0.568c-1.36-0.488-2.664-1.104-3.968-1.744
			c-1.016-0.504-2.016-1.032-2.984-1.624c-0.992-0.6-1.96-1.248-2.904-1.944C206.496,80.808,200,69.184,200,56
			C200,33.944,217.944,16,240,16z M320,192H160v-16c0-32.04,19.424-61.08,48.752-73.552c2.272,1.536,4.696,2.856,7.192,4.048
			c0.016,0.008,0.024,0.016,0.04,0.024C223.272,109.992,231.4,112,240,112c8.6,0,16.728-2.008,24.016-5.488
			c0.016-0.008,0.024-0.016,0.04-0.024c2.496-1.192,4.92-2.512,7.192-4.048C300.576,114.92,320,143.96,320,176V192z"/>
	</g>
</g>
<g>
	<g>
		<path d="M139.824,362.76C147.424,353.2,152,341.136,152,328c0-30.88-25.12-56-56-56s-56,25.12-56,56
			c0,13.136,4.576,25.2,12.176,34.76C20.56,379.04,0,411.912,0,448v24c0,4.416,3.584,8,8,8h176c4.416,0,8-3.584,8-8v-24
			C192,411.912,171.44,379.04,139.824,362.76z M96,288c22.056,0,40,17.944,40,40c0,13.184-6.496,24.808-16.368,32.104
			c-0.944,0.696-1.912,1.344-2.904,1.944c-0.96,0.592-1.968,1.112-2.984,1.624c-1.304,0.64-2.616,1.256-3.968,1.744
			c-0.592,0.216-1.216,0.376-1.824,0.568c-7.76,2.376-16.128,2.376-23.896,0c-0.608-0.192-1.232-0.344-1.824-0.568
			c-1.36-0.488-2.664-1.104-3.968-1.744c-1.016-0.504-2.016-1.032-2.984-1.624c-0.992-0.6-1.96-1.248-2.904-1.944
			C62.496,352.808,56,341.184,56,328C56,305.944,73.944,288,96,288z M176,464H16v-16c0-32.04,19.424-61.08,48.752-73.552
			c2.272,1.536,4.696,2.856,7.192,4.048c0.016,0.008,0.024,0.016,0.04,0.024C79.272,381.992,87.4,384,96,384
			s16.728-2.008,24.016-5.488c0.016-0.008,0.024-0.016,0.04-0.024c2.496-1.192,4.92-2.512,7.192-4.048
			C156.576,386.92,176,415.96,176,448V464z"/>
	</g>
</g>
<g>
	<g>
		<path d="M427.824,362.76C435.424,353.2,440,341.136,440,328c0-30.88-25.12-56-56-56s-56,25.12-56,56
			c0,13.136,4.576,25.2,12.176,34.76C308.56,379.04,288,411.912,288,448v24c0,4.416,3.584,8,8,8h176c4.416,0,8-3.584,8-8v-24
			C480,411.912,459.44,379.04,427.824,362.76z M384,288c22.056,0,40,17.944,40,40c0,13.184-6.496,24.808-16.368,32.104
			c-0.944,0.696-1.912,1.344-2.904,1.944c-0.96,0.592-1.968,1.112-2.984,1.624c-1.304,0.64-2.616,1.256-3.968,1.744
			c-0.592,0.216-1.216,0.376-1.824,0.568c-7.76,2.376-16.128,2.376-23.896,0c-0.608-0.192-1.232-0.344-1.824-0.568
			c-1.36-0.488-2.664-1.104-3.968-1.744c-1.016-0.504-2.016-1.032-2.984-1.624c-0.992-0.6-1.96-1.248-2.904-1.944
			C350.496,352.808,344,341.184,344,328C344,305.944,361.944,288,384,288z M464,464H304v-16c0-32.04,19.424-61.08,48.752-73.552
			c2.272,1.536,4.696,2.856,7.192,4.048c0.016,0.008,0.024,0.016,0.04,0.024C367.272,381.992,375.4,384,384,384
			c8.6,0,16.728-2.008,24.016-5.488c0.016-0.008,0.024-0.016,0.04-0.024c2.496-1.192,4.92-2.512,7.192-4.048
			C444.576,386.92,464,415.96,464,448V464z"/>
	</g>
</g>
<g>
	<g>
		<polygon points="248,268.16 248,224 232,224 232,268.16 195,297.752 205,310.248 240,282.248 275,310.248 285,297.752 		"/>
	</g>
</g>
<g>
	<g>
		<rect x="232" y="128" width="16" height="16"/>
	</g>
</g>
<g>
	<g>
		<rect x="232" y="160" width="16" height="16"/>
	</g>
</g>
<g>
	<g>
		<rect x="376" y="400" width="16" height="16"/>
	</g>
</g>
<g>
	<g>
		<rect x="376" y="432" width="16" height="16"/>
	</g>
</g>
<g>
	<g>
		<rect x="88" y="400" width="16" height="16"/>
	</g>
</g>
<g>
	<g>
		<rect x="88" y="432" width="16" height="16"/>
	</g>
</g>
<g>
</g>
<g>
</g>
<g>
</g>
<g>
</g>
<g>
</g>
<g>
</g>
<g>
</g>
<g>
</g>
<g>
</g>
<g>
</g>
<g>
</g>
<g>
</g>
<g>
</g>
<g>
</g>
<g>
</g>
</svg>
