<?xml version="1.0" encoding="iso-8859-1"?>
<!-- Generator: Adobe Illustrator 19.0.0, SVG Export Plug-In . SVG Version: 6.00 Build 0)  -->
<svg version="1.1" id="Capa_1" xmlns="http://www.w3.org/2000/svg" xmlns:xlink="http://www.w3.org/1999/xlink" x="0px" y="0px"
	 viewBox="0 0 512.008 512.008" style="enable-background:new 0 0 512.008 512.008;" xml:space="preserve">
<g>
	<g>
		<path d="M469.834,223.277V74.767c0-4.037-2.601-7.617-6.441-8.863L262.014,0.46c-2.039-0.666-4.147-0.585-6.013,0.093
			c-1.883-0.672-3.985-0.753-6.024-0.093L48.604,65.904c-3.841,1.245-6.441,4.819-6.441,8.863l0.012,148.157
			c-0.081,2.166-5.74,217.592,209.008,288.609c0.944,0.319,1.94,0.475,2.931,0.475h3.783c0.991,0,1.987-0.156,2.931-0.475
			C475.569,440.516,469.91,225.084,469.834,223.277z M256.384,493.367h-0.765C55.804,426.388,60.496,231.885,60.798,223.277V81.533
			l194.932-63.348c0.093-0.029,0.18-0.064,0.272-0.093c0.081,0.029,0.174,0.064,0.261,0.093L451.2,81.538l0.012,142.098
			C451.287,225.652,456.564,426.231,256.384,493.367z"/>
	</g>
</g>
<g>
	<g>
		<path d="M411.665,101.251L260.543,50.397c-1.309-0.434-2.665-0.539-3.922-0.434c-1.263-0.098-2.601,0-3.922,0.434l-151.105,50.853
			c-3.783,1.28-6.343,4.831-6.343,8.834l0.012,115.718c0.052,1.662,7.606,167.197,157.993,225.453
			c1.083,0.417,2.23,0.626,3.365,0.626c1.135,0,2.282-0.209,3.365-0.626c150.393-58.256,157.958-223.79,158.021-225.783V110.084
			C418.003,106.082,415.448,102.531,411.665,101.251z M256.621,432.557c-135.523-54.908-142.683-205.88-142.735-207.079V116.78
			l142.735-48.038l142.752,48.038l0.006,108.362C399.316,226.671,392.144,377.649,256.621,432.557z"/>
	</g>
</g>
<g>
	<g>
		<path d="M363.292,187.183c-3.962-3.313-9.842-2.757-13.126,1.182l-107.84,129.163l-69.563-73.05
			c-3.574-3.742-9.453-3.858-13.172-0.33c-3.73,3.551-3.875,9.453-0.33,13.172l76.769,80.621c1.767,1.848,4.205,2.896,6.754,2.896
			c0.098,0,0.197,0,0.301-0.012c2.659-0.081,5.15-1.303,6.853-3.337l114.537-137.186
			C367.769,196.353,367.242,190.479,363.292,187.183z"/>
	</g>
</g>
<g>
</g>
<g>
</g>
<g>
</g>
<g>
</g>
<g>
</g>
<g>
</g>
<g>
</g>
<g>
</g>
<g>
</g>
<g>
</g>
<g>
</g>
<g>
</g>
<g>
</g>
<g>
</g>
<g>
</g>
</svg>
