<svg width="25" height="36" viewBox="0 0 25 36" fill="none" xmlns="http://www.w3.org/2000/svg">
<g clip-path="url(#clip0)">
<path d="M12.499 4.16599C11.9237 4.16599 11.4573 4.63237 11.4573 5.20765C11.4573 5.78293 11.9237 6.24932 12.499 6.24932C15.9458 6.24932 18.75 9.05307 18.75 12.4993C18.75 13.0746 19.2164 13.541 19.7917 13.541C20.3669 13.541 20.8333 13.0746 20.8333 12.4993C20.8333 7.90432 17.0946 4.16599 12.499 4.16599Z" fill="#378595"/>
<path d="M9.81493 0.279865C5.10868 1.26327 1.29271 5.04271 0.288614 9.7782C-0.559233 13.7769 0.485559 17.7915 3.15507 20.7926C4.46 22.2594 5.20834 24.1958 5.20834 26.1104V28.1938C5.20834 29.5799 6.11577 30.7574 7.36757 31.1653C7.77924 33.5976 9.89035 35.5548 12.5 35.5548C15.109 35.5548 17.2206 33.5982 17.6324 31.1653C18.8842 30.7574 19.7917 29.5799 19.7917 28.1937V26.1104C19.7917 24.1919 20.5425 22.2789 21.9057 20.7236C23.9011 18.4472 25 15.5264 25 12.4993C25 4.61285 17.7813 -1.38444 9.81493 0.279865ZM12.5 33.4715C11.161 33.4715 9.98695 32.5501 9.5534 31.3118H15.4465C15.0131 32.5501 13.839 33.4715 12.5 33.4715ZM17.7083 28.1938C17.7083 28.7681 17.241 29.2354 16.6667 29.2354H8.33334C7.75896 29.2354 7.29167 28.7681 7.29167 28.1938V27.1521H17.7083V28.1938ZM20.339 19.3505C18.8863 21.0079 17.9924 23.0065 17.7656 25.0688H7.23459C7.00806 23.0054 6.11653 20.9872 4.71181 19.4079C2.48695 16.9068 1.61757 13.5544 2.32667 10.2103C3.15438 6.3066 6.33493 3.13542 10.2411 2.31924C16.9094 0.925697 22.9167 5.93347 22.9167 12.4993C22.9167 15.021 22.0013 17.4541 20.339 19.3505Z" fill="#17a2b8"/>
</g>
<defs>
<clipPath id="clip0">
<rect width="25" height="35.5556" fill="white"/>
</clipPath>
</defs>
</svg>
