<svg width="31" height="31" viewBox="0 0 31 31" fill="none" xmlns="http://www.w3.org/2000/svg">
<g clip-path="url(#clip0)">
<path d="M30.7272 25.797L17.1266 3.24149C16.7828 2.67144 16.1657 2.32288 15.5 2.32288C14.8343 2.32288 14.2171 2.67138 13.8734 3.24149L0.272867 25.797C-0.0808478 26.3836 -0.0913225 27.1153 0.24556 27.7118C0.582443 28.3083 1.21437 28.6771 1.8994 28.6771H29.1006C29.7857 28.6771 30.4176 28.3082 30.7545 27.7118C31.0913 27.1152 31.0809 26.3836 30.7272 25.797ZM15.5102 10.1251C16.2913 10.1251 16.9522 10.5657 16.9522 11.3468C16.9522 13.7301 16.6718 17.155 16.6718 19.5383C16.6718 20.1592 15.9908 20.4195 15.5102 20.4195C14.8693 20.4195 14.3285 20.1591 14.3285 19.5383C14.3285 17.155 14.0482 13.7301 14.0482 11.3468C14.0482 10.5657 14.689 10.1251 15.5102 10.1251ZM15.5302 24.8859C14.649 24.8859 13.988 24.1649 13.988 23.3437C13.988 22.5025 14.6489 21.8016 15.5302 21.8016C16.3513 21.8016 17.0523 22.5025 17.0523 23.3437C17.0523 24.1649 16.3513 24.8859 15.5302 24.8859Z" fill="#EA7A24"/>
</g>
<defs>
<clipPath id="clip0">
<rect width="31" height="31" fill="white"/>
</clipPath>
</defs>
</svg>
