<svg width="32" height="32" viewBox="0 0 32 32" fill="none" xmlns="http://www.w3.org/2000/svg">
<path d="M16 0C7.17755 0 0 7.17755 0 16C0 24.8225 7.17755 32 16 32C24.8225 32 32 24.8225 32 16C32 7.17755 24.8225 0 16 0ZM16 25.2033C15.1027 25.2033 14.3752 24.4758 14.3752 23.5785C14.3752 22.6812 15.1027 21.9538 16 21.9538C16.8973 21.9538 17.6248 22.6812 17.6248 23.5785C17.6248 24.4758 16.8973 25.2033 16 25.2033ZM17.6248 16.8629C17.6248 17.7602 16.8973 18.4876 16 18.4876C15.1027 18.4876 14.3752 17.7602 14.3752 16.8629V8.30578C14.3752 7.40848 15.1027 6.68102 16 6.68102C16.8973 6.68102 17.6248 7.40848 17.6248 8.30578V16.8629Z" fill="#df4957"/>
</svg>
