<svg width="32" height="32" viewBox="0 0 32 32" fill="none" xmlns="http://www.w3.org/2000/svg">
<g clip-path="url(#clip0)">
<path d="M27.3147 4.68601C21.0662 -1.56178 10.9352 -1.56247 4.68601 4.68601C-1.56247 10.9345 -1.56178 21.0655 4.68601 27.3147C10.9345 33.5618 21.0655 33.5625 27.3147 27.3147C33.5625 21.0655 33.5618 10.9352 27.3147 4.68601ZM18.0867 22.957C18.0867 24.1097 17.1524 25.044 15.9997 25.044C14.8469 25.044 13.9126 24.1097 13.9126 22.957V14.609C13.9126 13.4563 14.8469 12.522 15.9997 12.522C17.1524 12.522 18.0867 13.4563 18.0867 14.609V22.957ZM15.9628 11.0416C14.7607 11.0416 13.9593 10.1901 13.9843 9.13898C13.9593 8.03704 14.7607 7.21128 15.9871 7.21128C17.2143 7.21128 17.9907 8.03774 18.0164 9.13898C18.0157 10.1901 17.215 11.0416 15.9628 11.0416Z" fill="#71a5e0"/>
</g>
<defs>
<clipPath id="clip0">
<rect width="32" height="32" fill="white"/>
</clipPath>
</defs>
</svg>
