<svg width="314" height="338" viewBox="0 0 314 338" fill="none" xmlns="http://www.w3.org/2000/svg">
<g clip-path="url(#clip0_35:264)">
<path d="M199.18 191.77L63.4495 226.737C58.8454 227.917 53.9611 227.222 49.8684 224.805C45.7756 222.387 42.8084 218.444 41.618 213.841L0.569415 54.3711C-0.610661 49.7651 0.0837473 44.8789 2.50031 40.7844C4.91686 36.6899 8.85822 33.7216 13.4597 32.5306L139.735 0L172.056 14.4748L212.071 169.93C213.251 174.536 212.556 179.422 210.14 183.516C207.723 187.611 203.782 190.579 199.18 191.77Z" fill="#F2F2F2"/>
<path d="M14.7457 37.5305C11.4689 38.3786 8.66216 40.4924 6.94128 43.4081C5.22039 46.3239 4.72589 49.8035 5.56625 53.0835L46.6148 212.553C47.4626 215.832 49.5755 218.639 52.4901 220.361C55.4046 222.083 58.8828 222.577 62.1615 221.737L197.892 186.77C201.169 185.922 203.976 183.808 205.697 180.892C207.418 177.977 207.912 174.497 207.072 171.217L167.677 18.171L139.273 5.4502L14.7457 37.5305Z" fill="white"/>
<path d="M171.71 15.2975L150.704 20.709C149.17 21.1041 147.542 20.8735 146.179 20.0681C144.815 19.2626 143.827 17.9483 143.432 16.4141L139.437 0.892931C139.42 0.824979 139.422 0.75347 139.443 0.686607C139.464 0.619744 139.504 0.560233 139.557 0.514897C139.611 0.469562 139.676 0.440237 139.746 0.430286C139.815 0.420336 139.886 0.430162 139.95 0.458639L171.768 14.5948C171.839 14.6262 171.898 14.679 171.938 14.7456C171.977 14.8123 171.995 14.8896 171.988 14.9669C171.982 15.0441 171.952 15.1175 171.902 15.1767C171.852 15.2359 171.785 15.2782 171.71 15.2975Z" fill="#F2F2F2"/>
<path d="M160.658 151.481L98.8621 167.401C98.4825 167.499 98.0873 167.521 97.6991 167.466C97.3109 167.411 96.9374 167.28 96.5998 167.081C96.2622 166.881 95.9672 166.617 95.7315 166.304C95.4959 165.99 95.3243 165.634 95.2266 165.254C95.1288 164.874 95.1068 164.479 95.1618 164.09C95.2167 163.702 95.3476 163.328 95.5469 162.99C95.7463 162.653 96.0101 162.358 96.3235 162.122C96.6368 161.886 96.9935 161.714 97.3732 161.617L159.169 145.697C159.549 145.599 159.944 145.577 160.332 145.632C160.721 145.687 161.094 145.818 161.432 146.017C161.769 146.217 162.064 146.481 162.3 146.794C162.536 147.108 162.707 147.465 162.805 147.844C162.903 148.224 162.925 148.62 162.87 149.008C162.815 149.396 162.684 149.77 162.485 150.108C162.285 150.445 162.021 150.74 161.708 150.976C161.395 151.212 161.038 151.384 160.658 151.481Z" fill="#CCCCCC"/>
<path d="M175.097 158.17L101.375 177.162C100.608 177.36 99.7942 177.245 99.1124 176.842C98.4306 176.439 97.9367 175.782 97.7392 175.015C97.5418 174.248 97.657 173.434 98.0596 172.752C98.4621 172.07 99.119 171.575 99.8858 171.378L173.608 152.386C174.374 152.189 175.187 152.305 175.869 152.708C176.55 153.111 177.043 153.767 177.241 154.534C177.438 155.301 177.323 156.114 176.921 156.796C176.519 157.478 175.863 157.972 175.097 158.17Z" fill="#CCCCCC"/>
<path d="M73.6404 186.575C79.4679 186.575 84.1921 181.849 84.1921 176.019C84.1921 170.189 79.4679 165.463 73.6404 165.463C67.8129 165.463 63.0887 170.189 63.0887 176.019C63.0887 181.849 67.8129 186.575 73.6404 186.575Z" fill="#E6E6E6"/>
<path d="M154.088 123.856L72.0161 144.991C69.6442 145.599 67.1281 145.241 65.0198 143.995C62.9115 142.749 61.3831 140.718 60.7701 138.347L43.5709 71.5045C42.9632 69.1317 43.3212 66.6145 44.5662 64.5054C45.8113 62.3962 47.8419 60.8673 50.2124 60.254L132.284 39.1188C134.656 38.5108 137.172 38.8689 139.28 40.1145C141.389 41.3601 142.917 43.3915 143.53 45.763L160.729 112.605C161.337 114.978 160.979 117.495 159.734 119.604C158.489 121.713 156.458 123.242 154.088 123.856Z" fill="white"/>
<path d="M154.088 123.856L72.0161 144.991C69.6442 145.599 67.1281 145.241 65.0198 143.995C62.9115 142.749 61.3831 140.718 60.7701 138.347L43.5709 71.5045C42.9632 69.1317 43.3212 66.6145 44.5662 64.5054C45.8113 62.3962 47.8419 60.8673 50.2124 60.254L132.284 39.1188C134.656 38.5108 137.172 38.8689 139.28 40.1145C141.389 41.3601 142.917 43.3915 143.53 45.763L160.729 112.605C161.337 114.978 160.979 117.495 159.734 119.604C158.489 121.713 156.458 123.242 154.088 123.856ZM50.4832 61.3066C48.3916 61.8478 46.6 63.1968 45.5014 65.0579C44.4028 66.9189 44.0869 69.1399 44.6231 71.2336L61.8223 138.076C62.3633 140.168 63.7118 141.96 65.572 143.06C67.4323 144.159 69.6524 144.475 71.7452 143.938L153.817 122.803C155.909 122.262 157.7 120.913 158.799 119.052C159.897 117.191 160.213 114.97 159.677 112.876L142.478 46.0339C141.937 43.9414 140.588 42.1491 138.728 41.05C136.868 39.951 134.648 39.635 132.555 40.1714L50.4832 61.3066Z" fill="#E6E6E6"/>
<path d="M128.12 61.5937L86.6999 72.2603C86.3378 72.3615 85.9508 72.3213 85.6172 72.1479C85.2835 71.9745 85.0281 71.6809 84.9026 71.3264C84.8442 71.1411 84.8241 70.946 84.8435 70.7527C84.863 70.5595 84.9216 70.3723 85.0158 70.2024C85.11 70.0326 85.2378 69.8838 85.3914 69.765C85.545 69.6462 85.7211 69.56 85.9091 69.5116L128.073 58.6536C129.776 59.5169 129.328 61.2828 128.12 61.5938L128.12 61.5937Z" fill="#F2F2F2"/>
<path d="M129.991 68.8622L88.5701 79.5289C88.208 79.63 87.821 79.5898 87.4874 79.4165C87.1537 79.2431 86.8983 78.9494 86.7728 78.5949C86.7144 78.4097 86.6943 78.2145 86.7138 78.0213C86.7332 77.828 86.7919 77.6408 86.886 77.471C86.9802 77.3012 87.108 77.1523 87.2616 77.0335C87.4152 76.9148 87.5914 76.8285 87.7794 76.7801L129.943 65.9221C131.646 66.7855 131.198 68.5513 129.99 68.8624L129.991 68.8622Z" fill="#F2F2F2"/>
<path d="M80.6809 85.973L68.0397 89.2284C67.6269 89.3342 67.1889 89.2719 66.8219 89.0551C66.4549 88.8383 66.1889 88.4847 66.0823 88.0719L62.2422 73.1482C62.1364 72.7352 62.1987 72.297 62.4154 71.9299C62.6321 71.5628 62.9856 71.2967 63.3983 71.1899L76.0394 67.9346C76.4522 67.8289 76.8901 67.8912 77.2571 68.108C77.624 68.3248 77.8901 68.6783 77.9968 69.0911L81.8369 84.0147C81.9427 84.4278 81.8804 84.8659 81.6637 85.2331C81.4469 85.6002 81.0935 85.8663 80.6809 85.973V85.973Z" fill="#E6E6E6"/>
<path d="M133.699 83.7752L70.4842 100.055C70.1221 100.156 69.7351 100.115 69.4015 99.9421C69.0678 99.7687 68.8124 99.4751 68.6869 99.1205C68.6285 98.9353 68.6084 98.7401 68.6278 98.5469C68.6473 98.3537 68.7059 98.1664 68.8001 97.9966C68.8943 97.8268 69.0221 97.6779 69.1757 97.5592C69.3293 97.4404 69.5054 97.3541 69.6934 97.3057L133.652 80.835C135.355 81.6983 134.907 83.4642 133.7 83.7752L133.699 83.7752Z" fill="#F2F2F2"/>
<path d="M135.57 91.0457L72.355 107.325C71.9929 107.426 71.6059 107.386 71.2723 107.213C70.9386 107.039 70.6832 106.746 70.5577 106.391C70.4993 106.206 70.4792 106.011 70.4986 105.817C70.5181 105.624 70.5767 105.437 70.6709 105.267C70.7651 105.097 70.8929 104.948 71.0465 104.83C71.2001 104.711 71.3762 104.625 71.5642 104.576L135.523 88.1055C137.226 88.9688 136.778 90.7347 135.57 91.0457V91.0457Z" fill="#F2F2F2"/>
<path d="M137.44 98.3116L74.2245 114.591C73.8624 114.692 73.4754 114.652 73.1418 114.478C72.8081 114.305 72.5527 114.011 72.4272 113.657C72.3688 113.472 72.3487 113.276 72.3682 113.083C72.3876 112.89 72.4462 112.703 72.5404 112.533C72.6346 112.363 72.7624 112.214 72.916 112.096C73.0696 111.977 73.2458 111.89 73.4338 111.842L137.393 95.3713C139.096 96.2347 138.648 98.0006 137.44 98.3116Z" fill="#F2F2F2"/>
<path d="M139.31 105.582L76.0952 121.861C75.7331 121.962 75.3461 121.922 75.0125 121.748C74.6788 121.575 74.4234 121.281 74.2979 120.927C74.2395 120.742 74.2194 120.547 74.2388 120.353C74.2583 120.16 74.3169 119.973 74.4111 119.803C74.5053 119.633 74.6331 119.484 74.7867 119.366C74.9403 119.247 75.1164 119.161 75.3044 119.112L139.263 102.641C140.966 103.505 140.518 105.271 139.311 105.582L139.31 105.582Z" fill="#F2F2F2"/>
<path d="M141.18 112.848L77.9649 129.127C77.6028 129.228 77.2158 129.188 76.8821 129.015C76.5485 128.841 76.2931 128.548 76.1676 128.193C76.1091 128.008 76.0891 127.813 76.1085 127.62C76.128 127.426 76.1866 127.239 76.2808 127.069C76.375 126.9 76.5028 126.751 76.6564 126.632C76.8099 126.513 76.9861 126.427 77.1741 126.378L141.133 109.908C142.836 110.771 142.388 112.537 141.18 112.848Z" fill="#F2F2F2"/>
<path d="M74.4189 179.719C74.1891 179.779 73.9462 179.762 73.7267 179.671L73.7131 179.666L70.8387 178.447C70.7053 178.39 70.5843 178.308 70.4827 178.205C70.3811 178.101 70.3008 177.979 70.2465 177.845C70.1923 177.71 70.165 177.566 70.1663 177.422C70.1676 177.277 70.1974 177.133 70.2541 177C70.3108 176.867 70.3932 176.746 70.4966 176.644C70.6 176.543 70.7224 176.463 70.8568 176.409C70.9912 176.355 71.135 176.327 71.2798 176.329C71.4247 176.331 71.5678 176.361 71.701 176.418L73.5637 177.21L76.0044 171.466C76.061 171.333 76.1433 171.212 76.2466 171.111C76.3498 171.009 76.472 170.929 76.6061 170.875C76.7403 170.821 76.8838 170.794 77.0284 170.795C77.1731 170.797 77.3161 170.826 77.4492 170.883L77.4495 170.883L77.4349 170.921L77.4502 170.883C77.7188 170.998 77.9311 171.214 78.0403 171.485C78.1495 171.756 78.1468 172.06 78.0327 172.329L75.1611 179.083C75.0946 179.238 74.993 179.377 74.8644 179.487C74.7358 179.597 74.5836 179.676 74.4195 179.718L74.4189 179.719Z" fill="white"/>
<path d="M251.24 252.54H111.081C106.328 252.535 101.772 250.643 98.4109 247.281C95.05 243.919 93.1595 239.36 93.1542 234.605V69.9329C93.1595 65.178 95.05 60.6194 98.4109 57.2572C101.772 53.8949 106.328 52.0037 111.081 51.9983H241.476L269.168 74.079V234.605C269.162 239.36 267.272 243.919 263.911 247.281C260.55 250.643 255.993 252.535 251.24 252.54Z" fill="#E6E6E6"/>
<path d="M111.081 57.1611C107.697 57.165 104.452 58.5118 102.058 60.9061C99.6651 63.3004 98.3188 66.5467 98.315 69.9328V234.605C98.3188 237.991 99.6651 241.238 102.058 243.632C104.452 246.026 107.697 247.373 111.081 247.377H251.24C254.625 247.373 257.87 246.026 260.263 243.632C262.657 241.238 264.003 237.991 264.007 234.605V76.5662L239.671 57.1611H111.081Z" fill="white"/>
<path d="M223.979 105.043H160.167C159.375 105.043 158.616 104.729 158.056 104.169C157.496 103.609 157.182 102.849 157.182 102.057C157.182 101.265 157.496 100.505 158.056 99.9451C158.616 99.385 159.375 99.0703 160.167 99.0703H223.979C224.771 99.0703 225.531 99.385 226.09 99.9451C226.65 100.505 226.965 101.265 226.965 102.057C226.965 102.849 226.65 103.609 226.09 104.169C225.531 104.729 224.771 105.043 223.979 105.043Z" fill="#1F4454"/>
<path d="M236.294 115.123H160.167C159.376 115.122 158.618 114.807 158.059 114.247C157.5 113.687 157.186 112.928 157.186 112.137C157.186 111.345 157.5 110.586 158.059 110.026C158.618 109.466 159.376 109.151 160.167 109.15H236.294C236.686 109.15 237.075 109.226 237.438 109.376C237.8 109.526 238.13 109.746 238.408 110.023C238.685 110.301 238.906 110.63 239.056 110.993C239.206 111.355 239.283 111.744 239.283 112.137C239.283 112.529 239.206 112.918 239.056 113.281C238.906 113.643 238.685 113.973 238.408 114.25C238.13 114.527 237.8 114.747 237.438 114.897C237.075 115.047 236.686 115.124 236.294 115.123Z" fill="#1F4454"/>
<path d="M223.98 144.241H160.169C159.378 144.241 158.618 144.556 158.059 145.116C157.499 145.676 157.184 146.435 157.184 147.227C157.184 148.019 157.499 148.779 158.059 149.339C158.618 149.899 159.378 150.214 160.169 150.214H223.98C224.771 150.214 225.531 149.899 226.091 149.339C226.65 148.779 226.965 148.019 226.965 147.227C226.965 146.435 226.65 145.676 226.091 145.116C225.531 144.556 224.771 144.241 223.98 144.241Z" fill="#CCCCCC"/>
<path d="M236.295 154.322H160.17C159.378 154.322 158.619 154.637 158.059 155.197C157.499 155.757 157.184 156.517 157.184 157.309C157.184 158.101 157.499 158.86 158.059 159.42C158.619 159.98 159.378 160.295 160.17 160.295H236.295C237.087 160.295 237.846 159.98 238.406 159.42C238.966 158.86 239.28 158.101 239.28 157.309C239.28 156.517 238.966 155.757 238.406 155.197C237.846 154.637 237.087 154.322 236.295 154.322Z" fill="#CCCCCC"/>
<path d="M223.979 195.388H160.167C159.375 195.388 158.616 195.073 158.056 194.513C157.496 193.953 157.182 193.193 157.182 192.401C157.182 191.609 157.496 190.85 158.056 190.29C158.616 189.729 159.375 189.415 160.167 189.415H223.979C224.771 189.415 225.531 189.729 226.09 190.29C226.65 190.85 226.965 191.609 226.965 192.401C226.965 193.193 226.65 193.953 226.09 194.513C225.531 195.073 224.771 195.388 223.979 195.388Z" fill="#CCCCCC"/>
<path d="M236.294 205.468H160.167C159.376 205.467 158.618 205.152 158.059 204.592C157.5 204.032 157.186 203.273 157.186 202.481C157.186 201.69 157.5 200.931 158.059 200.371C158.618 199.811 159.376 199.496 160.167 199.495H236.294C236.686 199.494 237.075 199.571 237.438 199.721C237.8 199.871 238.13 200.091 238.408 200.368C238.685 200.645 238.906 200.975 239.056 201.337C239.206 201.7 239.283 202.089 239.283 202.481C239.283 202.874 239.206 203.262 239.056 203.625C238.906 203.988 238.685 204.317 238.408 204.594C238.13 204.872 237.8 205.092 237.438 205.242C237.075 205.391 236.686 205.468 236.294 205.468Z" fill="#CCCCCC"/>
<path d="M133.594 117.653C139.421 117.653 144.146 112.927 144.146 107.097C144.146 101.267 139.421 96.5408 133.594 96.5408C127.766 96.5408 123.042 101.267 123.042 107.097C123.042 112.927 127.766 117.653 133.594 117.653Z" fill="#1F4454"/>
<path d="M132.548 111.124C132.311 111.124 132.08 111.047 131.89 110.905L131.878 110.896L129.398 108.998C129.283 108.91 129.186 108.8 129.114 108.675C129.041 108.549 128.994 108.411 128.975 108.267C128.956 108.124 128.965 107.977 129.002 107.837C129.04 107.697 129.104 107.566 129.192 107.451C129.281 107.336 129.391 107.239 129.516 107.167C129.642 107.094 129.78 107.047 129.924 107.029C130.068 107.01 130.214 107.019 130.353 107.057C130.493 107.095 130.625 107.16 130.739 107.248L132.346 108.48L136.141 103.527C136.229 103.412 136.339 103.315 136.464 103.243C136.589 103.171 136.728 103.124 136.871 103.105C137.014 103.086 137.16 103.095 137.3 103.133C137.44 103.17 137.571 103.235 137.685 103.323L137.686 103.323L137.662 103.356L137.686 103.323C137.918 103.501 138.07 103.764 138.108 104.053C138.146 104.343 138.068 104.636 137.89 104.868L133.426 110.692C133.323 110.826 133.19 110.935 133.038 111.01C132.886 111.084 132.719 111.123 132.549 111.122L132.548 111.124Z" fill="white"/>
<path d="M145.23 152.268C145.231 153.654 144.958 155.027 144.428 156.308C143.898 157.589 143.121 158.753 142.142 159.734C141.162 160.715 139.999 161.492 138.718 162.023C137.438 162.554 136.066 162.827 134.68 162.828C134.59 162.829 134.499 162.826 134.409 162.817C132.334 162.763 130.321 162.099 128.622 160.907C126.922 159.715 125.612 158.048 124.855 156.115C124.098 154.182 123.928 152.068 124.365 150.039C124.803 148.009 125.829 146.154 127.316 144.705C128.802 143.256 130.683 142.278 132.722 141.893C134.762 141.508 136.869 141.733 138.781 142.54C140.693 143.347 142.325 144.701 143.472 146.431C144.619 148.161 145.231 150.192 145.23 152.268Z" fill="#CCCCCC"/>
<path d="M133.594 207.997C139.421 207.997 144.146 203.271 144.146 197.441C144.146 191.611 139.421 186.885 133.594 186.885C127.766 186.885 123.042 191.611 123.042 197.441C123.042 203.271 127.766 207.997 133.594 207.997Z" fill="#CCCCCC"/>
<path d="M268.629 74.7896H246.937C245.354 74.7896 243.835 74.1603 242.715 73.0401C241.595 71.9199 240.966 70.4006 240.966 68.8164V52.7889C240.966 52.7187 240.986 52.6499 241.023 52.5905C241.061 52.531 241.114 52.4833 241.177 52.4528C241.24 52.4222 241.311 52.4101 241.38 52.4178C241.45 52.4255 241.516 52.4527 241.571 52.4962L268.86 74.1237C268.921 74.1718 268.965 74.2376 268.987 74.3121C269.009 74.3865 269.006 74.4658 268.981 74.539C268.956 74.6122 268.908 74.6757 268.845 74.7206C268.782 74.7655 268.706 74.7896 268.629 74.7896Z" fill="#CCCCCC"/>
<path d="M145.23 152.268C145.231 153.654 144.958 155.027 144.428 156.308C143.898 157.589 143.121 158.753 142.142 159.734C141.162 160.714 139.999 161.492 138.718 162.023C137.438 162.554 136.066 162.827 134.68 162.828C134.589 162.829 134.499 162.826 134.409 162.817C133.045 159.415 132.52 155.736 132.876 152.088C133.233 148.441 134.461 144.933 136.457 141.86C138.911 142.281 141.138 143.557 142.743 145.461C144.349 147.366 145.23 149.777 145.23 152.268Z" fill="#1F4454"/>
<path d="M157.182 147.23C157.183 146.438 157.498 145.678 158.058 145.118C158.618 144.558 159.377 144.242 160.169 144.241H176.07C176.999 146.131 177.659 148.141 178.032 150.214H160.169C159.378 150.214 158.619 149.899 158.059 149.34C157.499 148.781 157.183 148.022 157.182 147.23Z" fill="#1F4454"/>
<path d="M178.401 154.322C178.402 156.34 178.135 158.348 177.608 160.295H160.169C159.378 160.295 158.618 159.98 158.059 159.42C157.499 158.86 157.184 158.101 157.184 157.309C157.184 156.517 157.499 155.757 158.059 155.197C158.618 154.637 159.378 154.322 160.169 154.322H178.401Z" fill="#1F4454"/>
<path d="M217.744 191.158C217.294 191.896 216.569 192.425 215.729 192.629C214.889 192.832 214.002 192.694 213.264 192.243L175.234 169.037C174.868 168.814 174.551 168.521 174.298 168.175C174.046 167.829 173.864 167.437 173.763 167.021C173.663 166.605 173.645 166.173 173.711 165.75C173.777 165.326 173.926 164.921 174.149 164.555C174.371 164.189 174.664 163.871 175.01 163.619C175.356 163.366 175.748 163.185 176.164 163.084C176.58 162.983 177.012 162.965 177.435 163.031C177.857 163.097 178.263 163.246 178.629 163.469L216.659 186.676C217.397 187.126 217.926 187.851 218.129 188.692C218.333 189.532 218.194 190.419 217.744 191.158Z" fill="#3F3D56"/>
<path d="M179.714 167.951C177.028 172.356 173.097 175.865 168.418 178.035C163.739 180.204 158.522 180.937 153.426 180.141C148.331 179.344 143.586 177.054 139.791 173.559C135.997 170.065 133.324 165.523 132.109 160.509C130.895 155.495 131.194 150.233 132.969 145.388C134.744 140.544 137.916 136.335 142.082 133.294C146.248 130.253 151.222 128.516 156.375 128.302C161.528 128.089 166.628 129.409 171.031 132.096C176.929 135.704 181.156 141.506 182.783 148.227C184.411 154.949 183.307 162.042 179.714 167.951ZM140.756 144.179C138.742 147.482 137.752 151.309 137.912 155.175C138.072 159.042 139.374 162.774 141.654 165.899C143.934 169.025 147.09 171.405 150.721 172.736C154.353 174.068 158.298 174.293 162.057 173.382C165.816 172.471 169.221 170.465 171.841 167.618C174.461 164.771 176.178 161.211 176.775 157.387C177.372 153.564 176.823 149.65 175.196 146.139C173.569 142.628 170.939 139.679 167.636 137.664C163.207 134.968 157.889 134.139 152.85 135.361C147.81 136.582 143.461 139.753 140.756 144.179Z" fill="#3F3D56"/>
<path d="M263.261 158.549C270.63 158.549 276.604 152.573 276.604 145.201C276.604 137.829 270.63 131.853 263.261 131.853C255.892 131.853 249.918 137.829 249.918 145.201C249.918 152.573 255.892 158.549 263.261 158.549Z" fill="#A0616A"/>
<path d="M262.399 220.033C262.142 219.231 262.057 218.383 262.149 217.546C262.242 216.709 262.511 215.9 262.938 215.174C263.365 214.448 263.94 213.82 264.626 213.332C265.313 212.844 266.094 212.507 266.92 212.342C267.182 212.291 267.447 212.258 267.713 212.244L281.768 189.677L268.929 177.467C268.439 177.001 268.045 176.442 267.772 175.822C267.499 175.203 267.351 174.535 267.337 173.858C267.323 173.181 267.443 172.508 267.69 171.878C267.938 171.248 268.307 170.673 268.778 170.186C269.249 169.7 269.811 169.311 270.433 169.044C271.055 168.776 271.723 168.634 272.4 168.626C273.077 168.618 273.748 168.745 274.376 168.998C275.004 169.251 275.575 169.626 276.057 170.102L293.783 187.587L293.819 187.631C294.367 188.465 294.632 189.455 294.574 190.452C294.515 191.449 294.138 192.401 293.496 193.166L273.803 216.466C273.862 216.653 273.911 216.843 273.95 217.035C274.114 217.861 274.103 218.712 273.915 219.534C273.728 220.355 273.369 221.127 272.863 221.801C272.356 222.474 271.714 223.032 270.976 223.439C270.239 223.846 269.424 224.093 268.585 224.163C268.415 224.178 268.247 224.185 268.079 224.185C266.815 224.18 265.586 223.775 264.566 223.03C263.546 222.284 262.788 221.235 262.399 220.033Z" fill="#A0616A"/>
<path d="M241.286 330.976L234.625 330.975L231.457 305.276L241.287 305.276L241.286 330.976Z" fill="#A0616A"/>
<path d="M242.984 337.434L221.509 337.434V337.162C221.509 336.064 221.725 334.976 222.145 333.962C222.565 332.947 223.181 332.025 223.957 331.249C224.733 330.472 225.655 329.857 226.669 329.436C227.683 329.016 228.77 328.8 229.868 328.8H229.868L242.984 328.8L242.984 337.434Z" fill="#2F2E41"/>
<path d="M307.484 321.764L301.761 325.172L285.896 304.713L294.342 299.682L307.484 321.764Z" fill="#A0616A"/>
<path d="M312.246 326.444L293.794 337.434L293.655 337.201C293.094 336.257 292.723 335.212 292.565 334.126C292.407 333.039 292.465 331.932 292.735 330.867C293.005 329.803 293.481 328.802 294.138 327.922C294.794 327.042 295.618 326.3 296.561 325.738L296.561 325.738L307.831 319.025L312.246 326.444Z" fill="#2F2E41"/>
<path d="M230.617 319.658C226.155 267.101 223.501 218.276 239.811 198.358L239.937 198.204L267.385 209.188L267.431 209.286C267.523 209.488 276.652 229.575 274.522 243.087L281.293 274.243L303.368 311.222C303.546 311.519 303.658 311.851 303.698 312.196C303.738 312.54 303.704 312.889 303.598 313.22C303.493 313.55 303.319 313.854 303.087 314.112C302.855 314.37 302.571 314.575 302.254 314.715L292.661 318.938C292.119 319.173 291.511 319.206 290.948 319.03C290.384 318.854 289.903 318.48 289.592 317.978L265.578 278.804L252.014 248.758C251.941 248.595 251.815 248.46 251.658 248.376C251.5 248.291 251.319 248.26 251.143 248.289C250.966 248.317 250.803 248.403 250.68 248.533C250.557 248.662 250.48 248.829 250.461 249.007L242.943 319.711C242.88 320.312 242.597 320.868 242.148 321.272C241.699 321.676 241.116 321.899 240.512 321.898H233.054C232.442 321.895 231.853 321.663 231.403 321.249C230.952 320.835 230.672 320.267 230.617 319.658Z" fill="#2F2E41"/>
<path d="M239.904 198.775L239.773 198.712L239.752 198.568C238.727 191.389 239.941 183.412 243.36 174.859C245.045 170.673 248.177 167.232 252.186 165.163C256.194 163.094 260.813 162.534 265.199 163.586C267.726 164.209 270.096 165.35 272.159 166.937C274.222 168.524 275.933 170.522 277.184 172.805C278.418 175.065 279.17 177.557 279.392 180.122C279.614 182.688 279.301 185.272 278.473 187.71C274.163 200.319 268.571 212.116 268.516 212.234L268.398 212.48L239.904 198.775Z" fill="#1F4454"/>
<path d="M209.956 180.893C210.617 180.371 211.381 179.994 212.197 179.788C213.014 179.582 213.865 179.551 214.694 179.696C215.523 179.842 216.312 180.161 217.01 180.634C217.707 181.106 218.297 181.72 218.741 182.436C218.88 182.663 219.003 182.9 219.11 183.145L245.161 188.412L252.097 172.106C252.362 171.483 252.748 170.918 253.232 170.445C253.716 169.972 254.289 169.6 254.918 169.35C255.547 169.099 256.22 168.976 256.896 168.988C257.573 168.999 258.241 169.144 258.861 169.415C259.482 169.685 260.042 170.076 260.511 170.565C260.979 171.054 261.346 171.631 261.59 172.262C261.835 172.893 261.952 173.567 261.934 174.244C261.917 174.921 261.766 175.588 261.49 176.206L251.325 198.939L251.297 198.988C250.708 199.794 249.874 200.389 248.92 200.683C247.966 200.978 246.943 200.957 246.002 200.624L217.289 190.33C217.135 190.45 216.974 190.563 216.808 190.666C216.092 191.11 215.291 191.397 214.456 191.509C213.622 191.622 212.773 191.556 211.965 191.317C211.158 191.078 210.41 190.671 209.771 190.123C209.131 189.575 208.615 188.897 208.256 188.136C208.182 187.982 208.116 187.826 208.057 187.669C207.62 186.483 207.568 185.19 207.909 183.973C208.25 182.756 208.966 181.678 209.956 180.893Z" fill="#A0616A"/>
<path d="M311.463 159.496C310.178 157.218 308.305 155.131 305.83 154.289C302.633 153.202 299.172 154.36 295.885 155.133C293.352 155.728 290.707 156.093 288.154 155.59C285.602 155.088 283.14 153.602 281.978 151.273C280.27 147.847 281.709 143.762 281.605 139.935C281.552 137.851 281.026 135.807 280.068 133.957C279.11 132.106 277.745 130.497 276.075 129.251C274.405 128.005 272.475 127.155 270.428 126.764C268.382 126.373 266.274 126.452 264.263 126.994C261.115 126.086 258.266 126.002 256.319 128.422C253.87 128.422 251.521 129.395 249.789 131.128C248.057 132.861 247.084 135.211 247.084 137.661H255.914C255.496 139.914 255.974 142.241 257.248 144.145C258.806 146.436 261.517 148.094 262.039 150.816C262.545 153.454 260.752 155.956 258.872 157.874C256.992 159.791 254.811 161.691 254.224 164.312C253.865 166.302 254.273 168.354 255.367 170.054C256.459 171.733 257.814 173.226 259.38 174.475C266.434 180.521 274.818 184.812 283.846 186.997C290.205 188.528 297.159 188.925 303.062 186.108C305.423 184.981 307.527 183.38 309.244 181.406C310.961 179.431 312.253 177.124 313.041 174.628C313.829 172.132 314.096 169.501 313.824 166.898C313.553 164.295 312.749 161.775 311.463 159.496Z" fill="#2F2E41"/>
<path d="M313.457 338H210.239C210.095 338 209.957 337.943 209.855 337.841C209.753 337.739 209.696 337.601 209.696 337.457C209.696 337.312 209.753 337.174 209.855 337.072C209.957 336.97 210.095 336.913 210.239 336.913H313.457C313.601 336.913 313.739 336.97 313.841 337.072C313.943 337.174 314 337.312 314 337.457C314 337.601 313.943 337.739 313.841 337.841C313.739 337.943 313.601 338 313.457 338Z" fill="#CCCCCC"/>
</g>
<defs>
<clipPath id="clip0_35:264">
<rect width="314" height="338" fill="white"/>
</clipPath>
</defs>
</svg>
