<svg width="312" height="226" viewBox="0 0 312 226" fill="none" xmlns="http://www.w3.org/2000/svg">
<g clip-path="url(#clip0_38:138)">
<path d="M245.216 20.3353C244.428 14.5414 243.44 8.32082 239.363 4.13832C238.069 2.81122 236.52 1.76045 234.811 1.04934C233.101 0.338238 231.265 -0.0184667 229.414 0.00073607C227.563 0.0199388 225.735 0.414655 224.04 1.16108C222.345 1.9075 220.819 2.99018 219.553 4.34383C216.585 7.51722 215.274 11.9732 215.154 16.3211C215.035 20.6691 216.001 24.9687 217.072 29.1836C222.744 29.2972 228.374 28.1865 233.58 25.927C234.856 25.3028 236.18 24.782 237.538 24.3695C238.914 24.0187 239.894 24.9016 241.173 25.5172L241.876 24.1694C242.45 25.2417 244.231 24.9239 244.876 23.8928C245.522 22.8618 245.38 21.5414 245.216 20.3353Z" fill="#2F2E41"/>
<path d="M221.526 44.7989L223.169 36.3903L210.855 31.0471L188.84 20.4762C188.687 19.4954 188.24 18.5843 187.559 17.8635C186.878 17.1427 185.994 16.6463 185.025 16.4398C184.056 16.2332 183.047 16.3264 182.132 16.707C181.218 17.0875 180.439 17.7375 179.901 18.571C179.363 19.4044 179.089 20.382 179.118 21.3745C179.146 22.3669 179.474 23.3275 180.058 24.1291C180.643 24.9306 181.456 25.5355 182.391 25.8635C183.326 26.1916 184.338 26.2274 185.294 25.9662L206.255 38.9315L221.526 44.7989Z" fill="#FFB8B8"/>
<path d="M213.26 43.3764L222.179 34.2383L222.355 34.292C222.466 34.3257 233.547 37.7116 240.612 41.1524C241.41 41.5116 242.121 42.0411 242.694 42.7039C243.267 43.3667 243.689 44.1468 243.931 44.99C244.283 46.1705 244.283 47.4282 243.931 48.6087C243.579 49.7893 242.891 50.8412 241.952 51.6353C240.986 52.502 239.791 53.0716 238.511 53.2759C237.23 53.4802 235.918 53.3106 234.732 52.7874L213.26 43.3764Z" fill="#CF3809"/>
<path d="M213.233 83.5517L238.312 90.2686L243.376 66.5226L220.357 59.3813L213.233 83.5517Z" fill="#FFB8B8"/>
<path d="M241.119 77.1068L216.62 71.4598L211.928 60.0632C211.547 58.4365 211.639 56.734 212.195 55.1586C212.752 53.5831 213.748 52.2011 215.065 51.177L224.016 43.6026L228.815 37.4588L228.293 34.2029C228.199 33.5522 228.335 32.8892 228.678 32.3285C229.02 31.7678 229.547 31.3446 230.168 31.1321L236.563 28.8335C237.27 28.5685 238.051 28.5827 238.748 28.8732C239.445 29.1637 240.006 29.7087 240.317 30.398L240.995 31.97C240.995 31.97 243.887 33.334 245.517 34.1012C246.356 34.4836 247.105 35.0392 247.715 35.7318C248.325 36.4243 248.782 37.2382 249.056 38.12C251.552 46.2033 250.879 54.936 247.175 62.5395L241.119 77.1068Z" fill="#CF3809"/>
<path d="M23.2392 198.084L11.3937 194.907C9.65193 188.693 9.44999 182.147 10.8054 175.836C15.9733 186.075 29.8526 188.006 38.0747 195.991C40.6201 198.501 42.5693 201.552 43.7779 204.92C44.9865 208.288 45.4235 211.885 45.0565 215.445L47.8941 223.685C42.1343 223.456 36.4923 221.979 31.3569 219.355C26.2216 216.731 21.7148 213.022 18.1473 208.484C16.1711 205.918 14.525 203.113 13.2481 200.135C18.2048 199.407 23.2392 198.084 23.2392 198.084Z" fill="#DC4040"/>
<path d="M170.407 226H54.3045C51.193 225.997 48.2099 224.756 46.0097 222.551C43.8096 220.346 42.572 217.356 42.5685 214.237V60.1531C42.572 57.0345 43.8096 54.0446 46.0098 51.8393C48.2099 49.6341 51.193 48.3937 54.3045 48.3901H170.407C173.518 48.3937 176.501 49.6341 178.701 51.8393C180.902 54.0446 182.139 57.0345 182.143 60.1531V214.237C182.139 217.356 180.902 220.346 178.701 222.551C176.501 224.756 173.518 225.997 170.407 226Z" fill="#E6E6E6"/>
<path d="M126.094 216.462H62.4656C59.6324 216.459 56.9162 215.33 54.9129 213.322C52.9096 211.314 51.7827 208.591 51.7796 205.752V68.6377C51.7828 65.7981 52.9096 63.0757 54.9129 61.0678C56.9163 59.0599 59.6324 57.9304 62.4656 57.9272H162.245C165.079 57.9304 167.795 59.0599 169.798 61.0678C171.801 63.0757 172.928 65.7981 172.931 68.6377V169.517C172.917 181.964 167.978 193.896 159.197 202.697C150.417 211.498 138.512 216.448 126.094 216.462Z" fill="white"/>
<path d="M152.292 84.251H72.4193C72.0772 84.2514 71.7384 84.1843 71.4222 84.0535C71.106 83.9227 70.8186 83.7308 70.5764 83.4886C70.3342 83.2465 70.142 82.9589 70.0107 82.6423C69.8794 82.3257 69.8116 81.9863 69.8112 81.6434C69.8107 81.3006 69.8777 80.961 70.0082 80.644C70.1387 80.3271 70.3302 80.039 70.5718 79.7963C70.8134 79.5536 71.1003 79.3609 71.4162 79.2293C71.7321 79.0977 72.0707 79.0297 72.4128 79.0293H152.292C152.983 79.0284 153.645 79.3027 154.135 79.7917C154.624 80.2807 154.899 80.9444 154.9 81.6369C154.901 82.3293 154.627 82.9938 154.139 83.484C153.651 83.9742 152.989 84.2501 152.298 84.251H152.292Z" fill="#CF3809"/>
<path d="M152.292 94.5677H72.4193C71.7284 94.5677 71.0658 94.2926 70.5773 93.803C70.0887 93.3133 69.8143 92.6492 69.8143 91.9567C69.8143 91.2642 70.0887 90.6001 70.5773 90.1105C71.0658 89.6208 71.7284 89.3457 72.4193 89.3457H152.292C152.983 89.3457 153.645 89.6208 154.134 90.1105C154.622 90.6001 154.897 91.2642 154.897 91.9567C154.897 92.6492 154.622 93.3133 154.134 93.803C153.645 94.2926 152.983 94.5677 152.292 94.5677Z" fill="#CF3809"/>
<path d="M107.042 104.885H72.4193C71.7284 104.885 71.0658 104.609 70.5773 104.12C70.0887 103.63 69.8143 102.966 69.8143 102.274C69.8143 101.581 70.0887 100.917 70.5773 100.427C71.0658 99.9377 71.7284 99.6626 72.4193 99.6626H107.042C107.733 99.6626 108.396 99.9377 108.884 100.427C109.373 100.917 109.647 101.581 109.647 102.274C109.647 102.966 109.373 103.63 108.884 104.12C108.396 104.609 107.733 104.885 107.042 104.885Z" fill="#CF3809"/>
<path d="M152.292 126.492H72.4193C71.7285 126.493 71.0656 126.218 70.5764 125.729C70.0873 125.24 69.812 124.577 69.8112 123.884C69.8103 123.192 70.0839 122.527 70.5718 122.037C71.0597 121.547 71.7219 121.271 72.4128 121.27H152.292C152.983 121.269 153.645 121.543 154.135 122.032C154.624 122.521 154.899 123.185 154.9 123.878C154.901 124.57 154.627 125.234 154.139 125.725C153.651 126.215 152.989 126.491 152.298 126.492H152.292Z" fill="#E4E4E4"/>
<path d="M152.292 136.808H72.4193C71.7284 136.808 71.0658 136.533 70.5773 136.044C70.0887 135.554 69.8143 134.89 69.8143 134.197C69.8143 133.505 70.0887 132.841 70.5773 132.351C71.0658 131.862 71.7284 131.586 72.4193 131.586H152.292C152.983 131.586 153.645 131.862 154.134 132.351C154.622 132.841 154.897 133.505 154.897 134.197C154.897 134.89 154.622 135.554 154.134 136.044C153.645 136.533 152.983 136.808 152.292 136.808Z" fill="#E4E4E4"/>
<path d="M107.042 147.125H72.4193C71.7284 147.125 71.0658 146.85 70.5773 146.361C70.0887 145.871 69.8143 145.207 69.8143 144.514C69.8143 143.822 70.0887 143.158 70.5773 142.668C71.0658 142.178 71.7284 141.903 72.4193 141.903H107.042C107.733 141.903 108.396 142.178 108.884 142.668C109.373 143.158 109.647 143.822 109.647 144.514C109.647 145.207 109.373 145.871 108.884 146.361C108.396 146.85 107.733 147.125 107.042 147.125Z" fill="#E4E4E4"/>
<path d="M152.292 168.733H72.4193C71.7285 168.734 71.0656 168.46 70.5764 167.971C70.0873 167.482 69.812 166.818 69.8112 166.125C69.8103 165.433 70.0839 164.768 70.5718 164.278C71.0597 163.788 71.7219 163.512 72.4128 163.511H152.292C152.983 163.51 153.645 163.785 154.135 164.274C154.624 164.763 154.899 165.426 154.9 166.119C154.901 166.811 154.627 167.476 154.139 167.966C153.651 168.456 152.989 168.732 152.298 168.733H152.292Z" fill="#E4E4E4"/>
<path d="M152.292 179.05H72.4193C71.7284 179.05 71.0658 178.775 70.5773 178.285C70.0887 177.795 69.8143 177.131 69.8143 176.439C69.8143 175.746 70.0887 175.082 70.5773 174.592C71.0658 174.103 71.7284 173.828 72.4193 173.828H152.292C152.983 173.828 153.645 174.103 154.134 174.592C154.622 175.082 154.897 175.746 154.897 176.439C154.897 177.131 154.622 177.795 154.134 178.285C153.645 178.775 152.983 179.05 152.292 179.05Z" fill="#E4E4E4"/>
<path d="M107.042 189.367H72.4193C71.7293 189.365 71.068 189.09 70.5805 188.6C70.093 188.11 69.8193 187.447 69.8193 186.756C69.8193 186.064 70.093 185.401 70.5805 184.911C71.068 184.422 71.7293 184.146 72.4193 184.145H107.042C107.732 184.146 108.393 184.422 108.881 184.911C109.368 185.401 109.642 186.064 109.642 186.756C109.642 187.447 109.368 188.11 108.881 188.6C108.393 189.09 107.732 189.365 107.042 189.367Z" fill="#E4E4E4"/>
<path d="M176.409 85.3291C195.112 85.3291 210.274 70.1326 210.274 51.3867C210.274 32.6409 195.112 17.4443 176.409 17.4443C157.706 17.4443 142.545 32.6409 142.545 51.3867C142.545 70.1326 157.706 85.3291 176.409 85.3291Z" fill="#CF3809"/>
<path opacity="0.16" d="M176.409 80.6269C167.842 80.6258 159.593 77.3693 153.326 71.514C147.059 65.6586 143.239 57.6398 142.637 49.0737C142.582 49.8639 142.545 50.6588 142.545 51.463C142.548 60.4629 146.117 69.093 152.468 75.4557C158.818 81.8184 167.43 85.3927 176.409 85.3927C185.389 85.3927 194 81.8184 200.351 75.4557C206.702 69.093 210.271 60.4629 210.274 51.463C210.274 50.6588 210.236 49.8639 210.181 49.0737C209.579 57.6398 205.76 65.6586 199.493 71.514C193.226 77.3693 184.977 80.6258 176.409 80.6269Z" fill="#231F20"/>
<path d="M176.409 67.9734C175.285 67.9721 174.207 67.5238 173.412 66.7269C172.617 65.93 172.17 64.8495 172.168 63.7225V39.1268C172.168 38.5682 172.277 38.015 172.49 37.4988C172.703 36.9825 173.015 36.5134 173.409 36.1182C173.803 35.723 174.271 35.4095 174.785 35.1956C175.3 34.9817 175.852 34.8716 176.409 34.8716C176.967 34.8716 177.519 34.9817 178.033 35.1956C178.548 35.4095 179.016 35.723 179.41 36.1182C179.804 36.5134 180.116 36.9825 180.329 37.4988C180.542 38.015 180.651 38.5682 180.65 39.1268V63.7225C180.649 64.8495 180.202 65.9299 179.407 66.7269C178.612 67.5238 177.534 67.9721 176.409 67.9734Z" fill="white"/>
<path d="M159.898 51.4247C159.9 50.2977 160.347 49.2172 161.142 48.4203C161.937 47.6234 163.015 47.1751 164.14 47.1738H188.679C189.236 47.1732 189.788 47.2827 190.303 47.4961C190.819 47.7094 191.287 48.0225 191.681 48.4172C192.075 48.812 192.388 49.2808 192.601 49.7968C192.815 50.3128 192.925 50.866 192.925 51.4246C192.925 51.9831 192.815 52.5363 192.601 53.0523C192.388 53.5683 192.075 54.0371 191.681 54.4319C191.287 54.8266 190.819 55.1396 190.303 55.353C189.788 55.5664 189.236 55.6759 188.679 55.6753H164.14C163.015 55.674 161.937 55.2258 161.142 54.4289C160.347 53.6321 159.9 52.5516 159.898 51.4247Z" fill="white"/>
<path d="M227.317 58.6371L220.111 54.0278L210.643 63.5582L192.771 80.2233C191.804 80.0074 190.794 80.0908 189.876 80.4625C188.957 80.8342 188.173 81.4766 187.626 82.3048C187.08 83.133 186.797 84.108 186.816 85.1006C186.834 86.0933 187.153 87.057 187.73 87.8642C188.307 88.6714 189.115 89.284 190.046 89.6211C190.978 89.9582 191.99 90.0038 192.948 89.7519C193.906 89.5 194.766 88.9625 195.412 88.2105C196.059 87.4585 196.463 86.5274 196.57 85.5404L216.28 70.7341L227.317 58.6371Z" fill="#FFB8B8"/>
<path d="M222.971 65.8266L217.75 54.1633L217.864 54.0185C217.936 53.9275 225.136 44.8304 230.916 39.5006C231.541 38.8874 232.293 38.4183 233.118 38.1261C233.944 37.834 234.822 37.7257 235.694 37.809C236.918 37.9135 238.086 38.374 239.053 39.1339C240.021 39.8939 240.746 40.9203 241.139 42.0872C241.591 43.3053 241.682 44.628 241.403 45.8969C241.125 47.1659 240.487 48.3275 239.567 49.243L222.971 65.8266Z" fill="#CF3809"/>
<path d="M227.687 27.4909C233.944 27.4909 239.016 22.4071 239.016 16.1358C239.016 9.8646 233.944 4.78076 227.687 4.78076C221.43 4.78076 216.358 9.8646 216.358 16.1358C216.358 22.4071 221.43 27.4909 227.687 27.4909Z" fill="#FFB8B8"/>
<path d="M210.086 217.867H205.402L203.173 199.761H210.086V217.867Z" fill="#FFB8B8"/>
<path d="M212.557 226H209.199L208.599 222.822L207.064 226H198.156C197.729 226 197.313 225.863 196.969 225.61C196.625 225.356 196.371 224.999 196.244 224.59C196.117 224.182 196.123 223.743 196.263 223.339C196.402 222.934 196.667 222.585 197.018 222.341L204.132 217.417V214.204L211.614 214.652L212.557 226Z" fill="#2F2E41"/>
<path d="M268.785 213.879L264.434 215.615L255.682 199.619L262.104 197.057L268.785 213.879Z" fill="#FFB8B8"/>
<path d="M274.083 220.519L270.962 221.764L269.233 219.033L268.979 222.555L260.702 225.857C260.306 226.016 259.869 226.043 259.456 225.935C259.043 225.826 258.675 225.589 258.406 225.256C258.137 224.924 257.981 224.514 257.961 224.086C257.941 223.659 258.058 223.236 258.295 222.88L263.087 215.668L261.902 212.683L269.019 210.325L274.083 220.519Z" fill="#2F2E41"/>
<path d="M211.892 209.549H202.204L204.882 163.93L202.924 133.008L202.929 132.984L210.229 88.659C210.803 85.1638 212.355 81.9036 214.704 79.2571L214.793 79.1567L239.223 85.2042L241.679 90.8179C250.066 95.8178 252.715 124.012 252.824 125.213L256.375 160.361L265.061 203.438L258.944 206.738L258.842 206.534L239.531 168.047L227.336 127.46L219.526 163.989L211.892 209.549Z" fill="#2F2E41"/>
<path d="M241.718 16.6703C241.317 14.0309 240.898 11.3694 239.956 8.88417C239.014 6.39892 237.496 4.07111 235.319 2.66325C231.871 0.434248 227.407 0.864144 223.541 2.14632C220.551 3.13791 217.633 4.64503 215.525 7.06798C213.416 9.49094 212.232 12.9482 213.017 16.1163C217.14 15.1399 221.264 14.1634 225.387 13.1869L224.936 13.5066C226.29 14.1832 227.472 15.1602 228.393 16.3633C229.314 17.5664 229.95 18.964 230.251 20.4499C230.546 21.954 230.504 23.5049 230.127 24.9905C229.751 26.4762 229.05 27.8594 228.074 29.04C230.887 28.0401 233.699 27.0402 236.511 26.0403C238.247 25.4231 240.105 24.7119 241.134 23.1289C242.328 21.2934 242.051 18.8607 241.718 16.6703Z" fill="#2F2E41"/>
<path d="M0.593938 225.89H311.406C311.564 225.89 311.715 225.828 311.826 225.716C311.937 225.604 312 225.453 312 225.295C312 225.137 311.937 224.986 311.826 224.874C311.715 224.762 311.564 224.7 311.406 224.7H0.593938C0.436413 224.7 0.285349 224.762 0.173962 224.874C0.0625748 224.986 0 225.137 0 225.295C0 225.453 0.0625748 225.604 0.173962 225.716C0.285349 225.828 0.436413 225.89 0.593938 225.89Z" fill="#00374D"/>
</g>
<defs>
<clipPath id="clip0_38:138">
<rect width="312" height="226" fill="white"/>
</clipPath>
</defs>
</svg>
