<svg width="466" height="277" viewBox="0 0 466 277" fill="none" xmlns="http://www.w3.org/2000/svg">
<g clip-path="url(#clip0_35:362)">
<path d="M107.399 258.843L114.883 256.464C115.816 252.438 115.754 248.246 114.703 244.25C111.696 250.95 102.875 252.591 97.8492 257.939C96.2944 259.619 95.1367 261.628 94.4619 263.817C93.7872 266.006 93.6126 268.32 93.9513 270.586L92.3767 275.939C96.0541 275.624 99.6197 274.514 102.828 272.685C106.036 270.856 108.81 268.352 110.96 265.345C112.149 263.646 113.12 261.804 113.85 259.862C110.658 259.542 107.399 258.843 107.399 258.843Z" fill="#F2F2F2"/>
<path d="M372.617 258.843L365.133 256.464C364.201 252.438 364.263 248.246 365.314 244.25C368.32 250.95 377.141 252.591 382.167 257.939C383.722 259.619 384.88 261.628 385.555 263.817C386.229 266.006 386.404 268.32 386.065 270.586L387.64 275.939C383.962 275.624 380.397 274.514 377.189 272.685C373.981 270.856 371.206 268.352 369.057 265.345C367.868 263.646 366.897 261.804 366.167 259.862C369.359 259.542 372.617 258.843 372.617 258.843Z" fill="#F2F2F2"/>
<path d="M99.4023 248.944L105.042 243.47C104.085 239.45 102.164 235.725 99.4453 232.618C99.7357 239.959 92.5709 245.371 90.4522 252.404C89.8081 254.602 89.666 256.918 90.0363 259.179C90.4066 261.44 91.2798 263.589 92.5913 265.466L93.5641 270.961C96.7154 269.035 99.4128 266.448 101.47 263.377C103.528 260.306 104.897 256.825 105.482 253.173C105.791 251.121 105.84 249.038 105.629 246.973C102.63 248.113 99.4023 248.944 99.4023 248.944Z" fill="#F2F2F2"/>
<path d="M114.48 147.017C113.864 147.1 113.237 147.046 112.644 146.86C112.051 146.674 111.505 146.36 111.047 145.939C110.588 145.519 110.226 145.003 109.988 144.428C109.75 143.852 109.64 143.232 109.667 142.609L82.4839 114.967L90.0723 109.673L114.406 138.509C115.447 138.623 116.409 139.116 117.111 139.895C117.812 140.673 118.205 141.682 118.214 142.73C118.223 143.779 117.848 144.795 117.16 145.585C116.471 146.375 115.518 146.885 114.48 147.017L114.48 147.017Z" fill="#FFB6B6"/>
<path d="M74.1213 103.011C74.1213 103.011 72.1947 104.168 75.4013 107.692C77.9685 110.514 89.1708 124.078 93.6422 126.91C93.3995 127.612 93.3968 128.375 93.6344 129.079C93.8721 129.783 94.3366 130.387 94.9549 130.797L101.83 122.199C101.437 119.734 99.7785 119.86 98.8469 120.16L94.5336 114.786L84.7607 98.3579L75.4991 102.15L74.1213 103.011Z" fill="#BD4055"/>
<path d="M52.6535 267.714H57.7784L60.2173 247.903H52.6535V267.714Z" fill="#FFB6B6"/>
<path d="M50.9811 264.196L59.1685 263.706V267.222L66.9525 272.61C67.3369 272.876 67.6265 273.258 67.7789 273.701C67.9312 274.143 67.9384 274.623 67.7994 275.07C67.6603 275.517 67.3823 275.908 67.006 276.185C66.6296 276.463 66.1746 276.613 65.7074 276.613H55.96L54.2799 273.135L53.6239 276.613H49.9488L50.9811 264.196Z" fill="#2F2E41"/>
<path d="M81.4398 267.714H86.5647L89.0037 247.903H81.4398V267.714Z" fill="#FFB6B6"/>
<path d="M79.7675 264.196L87.9549 263.706V267.222L95.7388 272.61C96.1233 272.876 96.4129 273.258 96.5652 273.701C96.7176 274.143 96.7248 274.623 96.5857 275.07C96.4467 275.517 96.1687 275.908 95.7923 276.185C95.416 276.463 94.961 276.613 94.4937 276.613H84.7464L83.0663 273.135L82.4103 276.613H78.7351L79.7675 264.196Z" fill="#2F2E41"/>
<path d="M50.4425 250.63H50.4982L51.4838 218.419C50.846 217.186 50.5223 215.815 50.5415 214.426C50.5608 213.037 50.9223 211.675 51.5941 210.46L51.7352 210.204L51.3693 208.504C50.8994 206.321 51.115 204.045 51.9866 201.989L52.9061 171.942C49.6212 150.607 65.2758 136.692 65.2758 136.692L62.4151 124.632L90.7371 121.84L88.7266 136.692L93.7612 154.028C97.0895 186.526 96.4856 218.195 91.204 248.876L91.348 248.949C91.8665 249.128 92.0888 249.848 91.8448 250.557C91.6008 251.265 90.9826 251.694 90.4642 251.515L78.0795 251.083C77.561 250.904 77.3386 250.184 77.5827 249.475C77.8267 248.767 78.4448 248.338 78.9633 248.517L79.8054 248.944L78.0095 217.862L78.2088 212.184L77.7982 205.744L75.8999 176.773L68.7144 212.399L61.3747 250.989C61.5771 251.173 61.7192 251.413 61.7822 251.68C61.8452 251.946 61.8261 252.225 61.7275 252.48C61.6288 252.736 61.4553 252.955 61.2298 253.109C61.0043 253.264 60.7374 253.346 60.4643 253.345H50.4425C50.0833 253.345 49.7388 253.202 49.4848 252.947C49.2308 252.693 49.0881 252.348 49.0881 251.988C49.0881 251.628 49.2308 251.282 49.4848 251.028C49.7388 250.773 50.0833 250.63 50.4425 250.63Z" fill="#2F2E41"/>
<path d="M322.029 131.086H146.864C140.975 131.08 135.329 128.732 131.164 124.558C127 120.384 124.657 114.726 124.65 108.823V33.3636C124.657 27.4721 126.991 21.8229 131.142 17.651C135.292 13.4791 140.922 11.124 146.801 11.1006C174.005 3.55415 202.89 -0.178395 232.666 0.00654984C261 0.182635 291.083 3.91518 322.082 11.1006C327.962 11.1216 333.595 13.4756 337.748 17.6477C341.901 21.8198 344.236 27.4704 344.243 33.3636V108.823C344.236 114.726 341.894 120.384 337.729 124.558C333.565 128.732 327.918 131.08 322.029 131.086ZM146.864 12.0312C141.221 12.0376 135.811 14.2872 131.82 18.2864C127.83 22.2856 125.585 27.7079 125.579 33.3636V108.823C125.585 114.479 127.83 119.901 131.82 123.9C135.811 127.9 141.221 130.149 146.864 130.156H322.029C327.672 130.149 333.083 127.9 337.073 123.9C341.063 119.901 343.308 114.479 343.314 108.823V33.3636C343.308 27.7079 341.063 22.2856 337.073 18.2864C333.082 14.2872 327.672 12.0376 322.029 12.0312L321.924 12.0192C257.777 -2.85691 200.555 -2.85896 146.988 12.0144L146.864 12.0312Z" fill="#E6E6E6"/>
<path d="M143.775 111.393C143.706 111.393 143.637 111.379 143.574 111.353C143.51 111.326 143.452 111.287 143.403 111.238C143.354 111.19 143.315 111.131 143.289 111.068C143.263 111.004 143.249 110.935 143.249 110.866V31.3205C143.249 31.1808 143.304 31.0468 143.403 30.948C143.502 30.8492 143.635 30.7937 143.775 30.7937C143.914 30.7937 144.048 30.8492 144.146 30.948C144.245 31.0468 144.3 31.1808 144.3 31.3205V110.866C144.3 110.935 144.287 111.004 144.26 111.068C144.234 111.131 144.195 111.19 144.146 111.238C144.098 111.287 144.04 111.326 143.976 111.353C143.912 111.379 143.844 111.393 143.775 111.393Z" fill="#E6E6E6"/>
<path d="M189.74 111.393C189.671 111.393 189.603 111.379 189.539 111.353C189.475 111.326 189.417 111.287 189.368 111.238C189.319 111.19 189.281 111.131 189.254 111.068C189.228 111.004 189.214 110.935 189.214 110.866V31.3205C189.214 31.1808 189.27 31.0468 189.368 30.948C189.467 30.8492 189.601 30.7937 189.74 30.7937C189.879 30.7937 190.013 30.8492 190.112 30.948C190.21 31.0468 190.266 31.1808 190.266 31.3205V110.866C190.266 110.935 190.252 111.004 190.226 111.068C190.199 111.131 190.161 111.19 190.112 111.238C190.063 111.287 190.005 111.326 189.941 111.353C189.877 111.379 189.809 111.393 189.74 111.393Z" fill="#E6E6E6"/>
<path d="M235.705 111.393C235.636 111.393 235.568 111.379 235.504 111.353C235.44 111.326 235.382 111.287 235.334 111.238C235.285 111.19 235.246 111.131 235.22 111.068C235.193 111.004 235.18 110.935 235.18 110.866V31.3205C235.18 31.1808 235.235 31.0468 235.334 30.948C235.432 30.8492 235.566 30.7937 235.705 30.7937C235.845 30.7937 235.978 30.8492 236.077 30.948C236.176 31.0468 236.231 31.1808 236.231 31.3205V110.866C236.231 110.935 236.217 111.004 236.191 111.068C236.165 111.131 236.126 111.19 236.077 111.238C236.028 111.287 235.97 111.326 235.906 111.353C235.843 111.379 235.774 111.393 235.705 111.393Z" fill="#E6E6E6"/>
<path d="M281.671 111.393C281.602 111.393 281.533 111.379 281.469 111.353C281.406 111.326 281.348 111.287 281.299 111.238C281.25 111.19 281.211 111.131 281.185 111.068C281.159 111.004 281.145 110.935 281.145 110.866V31.3205C281.145 31.1808 281.2 31.0468 281.299 30.948C281.397 30.8492 281.531 30.7937 281.671 30.7937C281.81 30.7937 281.944 30.8492 282.042 30.948C282.141 31.0468 282.196 31.1808 282.196 31.3205V110.866C282.196 110.935 282.183 111.004 282.156 111.068C282.13 111.131 282.091 111.19 282.042 111.238C281.993 111.287 281.936 111.326 281.872 111.353C281.808 111.379 281.74 111.393 281.671 111.393Z" fill="#E6E6E6"/>
<path d="M139.681 43.1743C139.681 43.1051 139.694 43.0366 139.721 42.9726C139.747 42.9087 139.786 42.8506 139.835 42.8017C139.884 42.7528 139.941 42.714 140.005 42.6875C140.069 42.6611 140.137 42.6474 140.206 42.6475H328.687C328.756 42.6475 328.824 42.6611 328.888 42.6876C328.952 42.714 329.01 42.7528 329.058 42.8018C329.107 42.8507 329.146 42.9088 329.172 42.9727C329.199 43.0366 329.212 43.1051 329.212 43.1743C329.212 43.2434 329.199 43.3119 329.172 43.3758C329.146 43.4398 329.107 43.4978 329.058 43.5467C329.01 43.5957 328.952 43.6345 328.888 43.6609C328.824 43.6874 328.756 43.701 328.687 43.701H140.206C140.137 43.7011 140.069 43.6875 140.005 43.661C139.941 43.6345 139.884 43.5957 139.835 43.5468C139.786 43.4979 139.747 43.4398 139.721 43.3759C139.694 43.3119 139.681 43.2434 139.681 43.1743Z" fill="#E6E6E6"/>
<path d="M139.681 101.804C139.681 101.735 139.694 101.667 139.721 101.603C139.747 101.539 139.786 101.481 139.835 101.432C139.884 101.383 139.941 101.344 140.005 101.318C140.069 101.291 140.137 101.278 140.206 101.278H328.687C328.826 101.278 328.96 101.333 329.058 101.432C329.157 101.531 329.212 101.665 329.212 101.804C329.212 101.944 329.157 102.078 329.058 102.177C328.96 102.276 328.826 102.331 328.687 102.331H140.206C140.137 102.331 140.069 102.318 140.005 102.291C139.941 102.265 139.884 102.226 139.835 102.177C139.786 102.128 139.747 102.07 139.721 102.006C139.694 101.942 139.681 101.874 139.681 101.804Z" fill="#E6E6E6"/>
<path d="M139.681 72.4894C139.681 72.4203 139.694 72.3517 139.721 72.2878C139.747 72.2239 139.786 72.1658 139.835 72.1169C139.884 72.068 139.941 72.0292 140.005 72.0027C140.069 71.9762 140.137 71.9626 140.206 71.9626H328.687C328.826 71.9626 328.96 72.0181 329.058 72.1169C329.157 72.2157 329.212 72.3497 329.212 72.4894C329.212 72.6292 329.157 72.7631 329.058 72.8619C328.96 72.9607 328.826 73.0162 328.687 73.0162H140.206C140.137 73.0163 140.069 73.0026 140.005 72.9762C139.941 72.9497 139.884 72.9109 139.835 72.862C139.786 72.8131 139.747 72.755 139.721 72.6911C139.694 72.6271 139.681 72.5586 139.681 72.4894Z" fill="#E6E6E6"/>
<path d="M326.17 111.393C326.239 111.393 326.307 111.379 326.371 111.353C326.435 111.326 326.493 111.287 326.541 111.238C326.59 111.19 326.629 111.131 326.655 111.068C326.682 111.004 326.695 110.935 326.695 110.866V31.3205C326.695 31.1808 326.64 31.0468 326.541 30.948C326.443 30.8492 326.309 30.7937 326.17 30.7937C326.03 30.7937 325.897 30.8492 325.798 30.948C325.699 31.0468 325.644 31.1808 325.644 31.3205V110.866C325.644 110.935 325.658 111.004 325.684 111.068C325.71 111.131 325.749 111.19 325.798 111.238C325.847 111.287 325.905 111.326 325.969 111.353C326.032 111.379 326.101 111.393 326.17 111.393Z" fill="#E6E6E6"/>
<path d="M172.445 68.9203H159.206C158.478 68.9198 157.774 68.6559 157.225 68.1773C156.675 67.6986 156.316 67.0373 156.214 66.3147C155.396 60.2859 155.396 54.174 156.214 48.1453C156.315 47.4314 156.667 46.777 157.206 46.2995C157.745 45.822 158.436 45.5528 159.155 45.5401C163.321 43.6688 167.807 43.6691 172.491 45.5399C172.927 45.5457 173.357 45.6471 173.75 45.8371C174.143 46.027 174.49 46.3008 174.766 46.6393C175.054 46.9915 175.26 47.4035 175.369 47.8455C175.478 48.2874 175.488 48.7482 175.397 49.1943C174.333 54.4984 174.333 59.9616 175.397 65.2657C175.488 65.7118 175.478 66.1726 175.369 66.6145C175.26 67.0564 175.054 67.4685 174.766 67.8206C174.485 68.1651 174.131 68.4426 173.729 68.6328C173.328 68.823 172.889 68.9212 172.445 68.9203Z" fill="#BD4055"/>
<path d="M171.059 52.467H159.916C159.731 52.467 159.554 52.3935 159.423 52.2626C159.293 52.1317 159.219 51.9541 159.219 51.769C159.219 51.5839 159.293 51.4064 159.423 51.2755C159.554 51.1446 159.731 51.071 159.916 51.071H171.059C171.244 51.071 171.421 51.1446 171.551 51.2755C171.682 51.4064 171.755 51.5839 171.755 51.769C171.755 51.9541 171.682 52.1317 171.551 52.2626C171.421 52.3935 171.244 52.467 171.059 52.467Z" fill="white"/>
<path d="M171.059 58.0507H159.916C159.731 58.0507 159.554 57.9772 159.423 57.8463C159.293 57.7154 159.219 57.5379 159.219 57.3528C159.219 57.1676 159.293 56.9901 159.423 56.8592C159.554 56.7283 159.731 56.6548 159.916 56.6548H171.059C171.244 56.6548 171.421 56.7283 171.551 56.8592C171.682 56.9901 171.755 57.1676 171.755 57.3528C171.755 57.5379 171.682 57.7154 171.551 57.8463C171.421 57.9772 171.244 58.0507 171.059 58.0507Z" fill="white"/>
<path d="M171.059 63.6347H159.916C159.731 63.6347 159.554 63.5612 159.423 63.4303C159.293 63.2994 159.219 63.1219 159.219 62.9367C159.219 62.7516 159.293 62.5741 159.423 62.4432C159.554 62.3123 159.731 62.2388 159.916 62.2388H171.059C171.244 62.2388 171.421 62.3123 171.551 62.4432C171.682 62.5741 171.755 62.7516 171.755 62.9367C171.755 63.1219 171.682 63.2994 171.551 63.4303C171.421 63.5612 171.244 63.6347 171.059 63.6347Z" fill="white"/>
<path d="M267.626 99.6312H254.387C253.659 99.6307 252.955 99.3669 252.405 98.8882C251.856 98.4095 251.497 97.7482 251.395 97.0256C250.577 90.9969 250.577 84.885 251.395 78.8562C251.496 78.1423 251.847 77.4879 252.386 77.0104C252.926 76.533 253.617 76.2637 254.336 76.2511C258.502 74.3798 262.987 74.38 267.672 76.2508C268.108 76.2566 268.538 76.3581 268.931 76.548C269.324 76.7379 269.67 77.0118 269.947 77.3503C270.234 77.7024 270.44 78.1144 270.55 78.5564C270.659 78.9983 270.668 79.4591 270.578 79.9052C269.514 85.2093 269.514 90.6725 270.578 95.9766C270.668 96.4227 270.659 96.8835 270.55 97.3254C270.44 97.7674 270.234 98.1794 269.947 98.5315C269.666 98.876 269.311 99.1535 268.91 99.3437C268.509 99.5339 268.07 99.6321 267.626 99.6312Z" fill="#BD4055"/>
<path d="M266.24 83.1779H255.096C254.912 83.1779 254.735 83.1044 254.604 82.9735C254.473 82.8426 254.4 82.6651 254.4 82.48C254.4 82.2948 254.473 82.1173 254.604 81.9864C254.735 81.8555 254.912 81.782 255.096 81.782H266.24C266.424 81.782 266.601 81.8555 266.732 81.9864C266.863 82.1173 266.936 82.2948 266.936 82.48C266.936 82.6651 266.863 82.8426 266.732 82.9735C266.601 83.1044 266.424 83.1779 266.24 83.1779Z" fill="white"/>
<path d="M266.24 88.7617H255.096C254.912 88.7617 254.735 88.6881 254.604 88.5573C254.473 88.4264 254.4 88.2488 254.4 88.0637C254.4 87.8786 254.473 87.7011 254.604 87.5702C254.735 87.4393 254.912 87.3657 255.096 87.3657H266.24C266.424 87.3657 266.601 87.4393 266.732 87.5702C266.863 87.7011 266.936 87.8786 266.936 88.0637C266.936 88.2488 266.863 88.4264 266.732 88.5573C266.601 88.6881 266.424 88.7617 266.24 88.7617Z" fill="white"/>
<path d="M308.02 68.9203H294.781C294.052 68.9198 293.349 68.6559 292.799 68.1773C292.25 67.6986 291.891 67.0373 291.788 66.3147C290.971 60.2859 290.971 54.174 291.788 48.1453C291.889 47.4314 292.241 46.777 292.78 46.2995C293.319 45.822 294.011 45.5528 294.73 45.5401C298.895 43.6688 303.381 43.6691 308.065 45.5399C308.502 45.5457 308.931 45.6471 309.324 45.8371C309.717 46.027 310.064 46.3008 310.34 46.6393C310.628 46.9915 310.834 47.4035 310.943 47.8455C311.053 48.2874 311.062 48.7482 310.971 49.1943C309.908 54.4984 309.908 59.9616 310.971 65.2657C311.062 65.7118 311.053 66.1726 310.943 66.6145C310.834 67.0564 310.628 67.4685 310.34 67.8206C310.059 68.1651 309.705 68.4426 309.304 68.6328C308.902 68.823 308.464 68.9212 308.02 68.9203Z" fill="#FD6584"/>
<path d="M306.633 58.0507H295.49C295.306 58.0507 295.128 57.9772 294.998 57.8463C294.867 57.7154 294.794 57.5379 294.794 57.3528C294.794 57.1676 294.867 56.9901 294.998 56.8592C295.128 56.7283 295.306 56.6548 295.49 56.6548H306.633C306.818 56.6548 306.995 56.7283 307.126 56.8592C307.256 56.9901 307.33 57.1676 307.33 57.3528C307.33 57.5379 307.256 57.7154 307.126 57.8463C306.995 57.9772 306.818 58.0507 306.633 58.0507Z" fill="white"/>
<path d="M306.633 63.6347H295.49C295.306 63.6347 295.128 63.5612 294.998 63.4303C294.867 63.2994 294.794 63.1219 294.794 62.9367C294.794 62.7516 294.867 62.5741 294.998 62.4432C295.128 62.3123 295.306 62.2388 295.49 62.2388H306.633C306.818 62.2388 306.995 62.3123 307.126 62.4432C307.256 62.5741 307.33 62.7516 307.33 62.9367C307.33 63.1219 307.256 63.2994 307.126 63.4303C306.995 63.5612 306.818 63.6347 306.633 63.6347Z" fill="white"/>
<path d="M84.5465 66.8663C81.9124 62.8209 77.6116 59.6418 72.8219 59.3731C68.032 59.1046 62.2757 63.1924 59.9117 67.3988C55.5874 75.093 55.5307 83.9161 61.4865 89.2675C62.2953 88.9925 65.6596 88.5984 66.4819 88.333L67.0033 87.3893L67.6466 87.963C75.0069 88.699 77.2726 83.6837 89.0497 80.5215C88.361 75.7383 87.1807 70.9117 84.5465 66.8663Z" fill="#2F2E41"/>
<path d="M74.4358 85.9206C79.8114 85.9206 84.1691 81.5532 84.1691 76.1659C84.1691 70.7785 79.8114 66.4111 74.4358 66.4111C69.0603 66.4111 64.7025 70.7785 64.7025 76.1659C64.7025 81.5532 69.0603 85.9206 74.4358 85.9206Z" fill="#FFB7B7"/>
<path d="M85.221 94.2904L79.6512 90.9411L68.5115 89.8247L58.6657 94.8494L58.7644 110.199L65.0105 126.12L89.3442 131.146L92.1832 117.155C92.1832 117.155 99.424 107.408 91.6263 101.826L85.221 94.2904Z" fill="#BD4055"/>
<path d="M78.0749 61.3514C75.9659 60.7588 73.7367 60.7449 71.6206 61.3113C69.5044 61.8776 67.5789 63.0034 66.0454 64.5708C64.5119 66.1382 63.4268 68.0897 62.9034 70.2213C62.3801 72.3529 62.4378 74.5862 63.0705 76.6878C68.9985 77.162 74.8581 76.6073 79.4772 72.4039L79.8882 68.7983L81.5736 71.8156C83.2735 71.3364 84.976 70.8541 86.6812 70.3689C86.1596 68.2424 85.0902 66.2904 83.58 64.7079C82.0697 63.1255 80.1714 61.9681 78.0749 61.3514Z" fill="#2F2E41"/>
<path d="M61.379 160.566C60.8497 160.239 60.3983 159.8 60.0567 159.28C59.715 158.759 59.4914 158.17 59.4015 157.554C59.3116 156.937 59.3577 156.309 59.5364 155.712C59.7152 155.115 60.0223 154.565 60.4362 154.1L56.8444 115.457L66.0632 116.171L66.695 153.931C67.4281 154.68 67.8617 155.672 67.9137 156.719C67.9657 157.767 67.6325 158.797 66.9772 159.615C66.322 160.433 65.3901 160.981 64.3583 161.156C63.3265 161.332 62.2664 161.121 61.3789 160.566H61.379Z" fill="#FFB6B6"/>
<path d="M59.0071 95.0035C59.0071 95.0035 56.7846 94.6776 57.0421 99.4399C57.2482 103.253 56.2687 126.753 57.9424 131.781C57.3111 132.171 56.8272 132.76 56.5667 133.456C56.3063 134.151 56.2842 134.914 56.5039 135.624L67.2563 133.327C68.5089 131.169 68.2494 128.954 67.339 128.595L67.3925 121.698L69.7689 98.9674L60.6178 95.2105L59.0071 95.0035Z" fill="#BD4055"/>
<path d="M113.961 164.141C113.673 163.789 113.467 163.377 113.358 162.935C113.249 162.493 113.239 162.033 113.33 161.586C114.393 156.282 114.393 150.819 113.33 145.515C113.239 145.069 113.249 144.608 113.358 144.166C113.467 143.724 113.673 143.312 113.961 142.96C114.237 142.622 114.584 142.348 114.977 142.158C115.37 141.968 115.799 141.866 116.236 141.861C120.92 139.99 125.406 139.99 129.571 141.861C130.291 141.874 130.982 142.143 131.521 142.62C132.06 143.098 132.412 143.752 132.513 144.466C133.33 150.495 133.33 156.607 132.513 162.635C132.411 163.358 132.052 164.019 131.502 164.498C130.952 164.977 130.249 165.241 129.52 165.241H116.281C115.837 165.242 115.399 165.144 114.997 164.954C114.596 164.763 114.242 164.486 113.961 164.141Z" fill="#BD4055"/>
<path d="M117.668 148.788H128.811C128.996 148.788 129.173 148.714 129.303 148.583C129.434 148.452 129.507 148.275 129.507 148.09C129.507 147.905 129.434 147.727 129.303 147.596C129.173 147.465 128.996 147.392 128.811 147.392H117.668C117.483 147.392 117.306 147.465 117.175 147.596C117.045 147.727 116.971 147.905 116.971 148.09C116.971 148.275 117.045 148.452 117.175 148.583C117.306 148.714 117.483 148.788 117.668 148.788Z" fill="white"/>
<path d="M117.668 154.372H128.811C128.996 154.372 129.173 154.298 129.303 154.167C129.434 154.036 129.507 153.859 129.507 153.674C129.507 153.488 129.434 153.311 129.303 153.18C129.173 153.049 128.996 152.976 128.811 152.976H117.668C117.483 152.976 117.306 153.049 117.175 153.18C117.045 153.311 116.971 153.488 116.971 153.674C116.971 153.859 117.045 154.036 117.175 154.167C117.306 154.298 117.483 154.372 117.668 154.372Z" fill="white"/>
<path d="M117.668 159.956H128.811C128.996 159.956 129.173 159.882 129.303 159.751C129.434 159.62 129.507 159.443 129.507 159.258C129.507 159.072 129.434 158.895 129.303 158.764C129.173 158.633 128.996 158.56 128.811 158.56H117.668C117.483 158.56 117.306 158.633 117.175 158.764C117.045 158.895 116.971 159.072 116.971 159.258C116.971 159.443 117.045 159.62 117.175 159.751C117.306 159.882 117.483 159.956 117.668 159.956Z" fill="white"/>
<path d="M423.944 271.065H418.234L415.517 248.99L423.945 248.99L423.944 271.065Z" fill="#A0616A"/>
<path d="M425.401 276.613L406.988 276.612V276.378C406.988 274.474 407.743 272.647 409.087 271.3C410.431 269.953 412.254 269.196 414.155 269.196H414.155L417.519 266.639L423.794 269.196L425.401 269.196L425.401 276.613Z" fill="#2F2E41"/>
<path d="M397.415 271.065H391.704L388.988 248.99L397.416 248.99L397.415 271.065Z" fill="#A0616A"/>
<path d="M398.871 276.613L380.458 276.612V276.378C380.458 274.474 381.213 272.647 382.557 271.3C383.901 269.953 385.724 269.196 387.625 269.196H387.625L390.989 266.639L397.264 269.196L398.871 269.196L398.871 276.613Z" fill="#2F2E41"/>
<path d="M428.49 129.733L420.941 152.998L397.142 152.216L404.455 129.733H428.49Z" fill="#2F2E41"/>
<path d="M392.85 150.261L437.717 151.434L436.937 173.33C436.937 173.33 437.717 179.195 436.156 180.759C434.596 182.323 433.815 182.323 434.596 185.06C435.376 187.798 431.253 192.268 431.754 192.77C432.255 193.272 433.425 196.009 433.425 196.009L429.524 218.296C429.524 218.296 426.793 257.006 426.012 257.788C425.232 258.57 424.452 257.788 425.232 259.743C426.012 261.698 426.793 260.916 426.012 261.698C425.321 262.445 424.67 263.228 424.062 264.044H414.629C414.629 264.044 413.918 260.134 413.918 259.743C413.918 259.352 413.138 257.006 413.138 256.615C413.138 256.224 413.827 255.532 413.827 255.532C414.066 254.737 414.227 253.921 414.308 253.095C414.308 252.313 416.649 222.206 416.649 222.206L411.967 183.105L400.653 221.424C400.653 221.424 400.653 255.051 399.873 255.833C399.092 256.615 399.092 256.224 399.482 257.788C399.873 259.352 401.433 258.961 400.263 260.134C399.092 261.307 398.702 259.352 399.092 261.307L399.482 263.262L387.778 263.429C387.778 263.429 386.217 260.134 386.998 258.961C387.778 257.788 387.731 258.108 386.779 256.188C385.827 254.268 385.437 253.877 385.827 253.486C386.217 253.095 386.217 251.016 386.217 251.016L388.168 213.604C388.168 213.604 388.558 174.112 388.558 172.939C388.588 172.336 388.477 171.734 388.234 171.18V169.588L389.729 163.946L392.85 150.261Z" fill="#2F2E41"/>
<path d="M396.947 93.3694L410.602 88.2864L433.23 89.8504L438.47 92.3009C440.313 93.1628 441.813 94.6206 442.729 96.4401C443.646 98.2596 443.925 100.335 443.523 102.333L436.742 135.989L438.495 152.182C438.495 152.182 410.016 173.721 387.778 167.074C387.778 167.074 388.168 160.818 388.558 158.472C388.948 156.126 389.729 156.126 390.119 154.953C390.509 153.78 391.289 154.953 390.509 152.607C389.729 150.261 396.751 133.839 396.751 133.839L396.947 93.3694Z" fill="#E6E6E6"/>
<path d="M418.53 96.3445L429.662 89.6039L426.012 83.0081H414.187L409.502 88.6956L418.53 96.3445Z" fill="#E6E6E6"/>
<path d="M422.36 151.766C422.996 151.803 423.632 151.7 424.224 151.463C424.816 151.227 425.348 150.864 425.785 150.399C426.221 149.934 426.55 149.378 426.75 148.772C426.949 148.166 427.013 147.523 426.937 146.889L440.858 140.099L433.937 135.989L421.778 143.067C420.724 143.265 419.779 143.843 419.122 144.693C418.465 145.542 418.142 146.604 418.214 147.676C418.286 148.748 418.747 149.757 419.512 150.511C420.276 151.265 421.289 151.711 422.36 151.766Z" fill="#A0616A"/>
<path d="M427.829 148.948L425.404 140.035L438.621 122.486C434.343 117.316 432.842 109.683 433.897 98.4904C433.664 97.2833 433.895 96.0323 434.546 94.9897C435.197 93.9472 436.218 93.1909 437.403 92.8733C438.588 92.5557 439.85 92.7005 440.933 93.2786C442.016 93.8566 442.839 94.8249 443.238 95.9878C446.229 104.73 451.432 123.544 450.754 124.563C449.974 125.736 449.706 126.257 450.933 127.378C452.389 128.707 451.617 134.371 450.953 135.183C450.348 135.924 427.829 148.948 427.829 148.948Z" fill="#E6E6E6"/>
<path d="M357.855 137.923C358.449 138.153 359.086 138.25 359.721 138.207C360.357 138.164 360.975 137.982 361.533 137.674C362.091 137.365 362.574 136.938 362.949 136.422C363.324 135.906 363.582 135.314 363.704 134.688L379.032 132.506L373.703 126.466L359.964 129.464C358.9 129.328 357.823 129.588 356.938 130.195C356.053 130.801 355.42 131.712 355.16 132.755C354.9 133.797 355.031 134.899 355.528 135.852C356.024 136.804 356.852 137.541 357.855 137.923Z" fill="#A0616A"/>
<path d="M364.432 136.638L366.759 127.699L386.029 116.818C387.422 107.977 388.295 105.095 394.774 95.9167C395.171 94.7533 395.994 93.7843 397.077 93.2052C398.159 92.6261 399.42 92.4799 400.606 92.7964C401.791 93.1128 402.813 93.8681 403.465 94.91C404.117 95.9518 404.35 97.2027 404.117 98.41C402.365 107.484 394.438 131.801 393.458 132.174C392.565 132.514 364.432 136.638 364.432 136.638Z" fill="#E6E6E6"/>
<path d="M419.965 78.9023C426.645 78.9023 432.06 73.4754 432.06 66.7811C432.06 60.0868 426.645 54.6599 419.965 54.6599C413.286 54.6599 407.871 60.0868 407.871 66.7811C407.871 73.4754 413.286 78.9023 419.965 78.9023Z" fill="#A0616A"/>
<path d="M407.157 57.9881C407.479 55.0891 411.657 52.1902 419.049 50.2576C426.441 48.3249 430.298 56.6996 430.298 56.6996C435.44 59.2765 432.387 72.9659 430.78 71.6775C430.764 71.6646 430.748 71.6521 430.732 71.6399C429.684 70.8664 428.804 69.8869 428.147 68.7612C427.489 67.6355 427.068 66.3873 426.908 65.0928L426.538 61.7568C424.845 63.0569 422.937 64.1577 420.889 63.8305L423.395 61.3571C421.02 62.393 418.644 63.4289 416.268 64.4649L418.628 61.2113L418.516 61.1014C417.412 62.0348 416.144 62.7543 414.777 63.2232C413.218 63.671 411.35 63.4288 410.282 62.2058C409.995 61.8683 409.777 61.4765 409.643 61.0534C407.704 62.3848 407.318 65.2355 407.318 65.2355C407.318 65.2355 406.836 60.887 407.157 57.9881Z" fill="#2F2E41"/>
<path d="M358.628 145.795H345.389C344.661 145.794 343.957 145.53 343.407 145.051C342.858 144.573 342.499 143.912 342.397 143.189C341.579 137.16 341.579 131.048 342.397 125.02C342.498 124.306 342.849 123.651 343.388 123.174C343.928 122.696 344.619 122.427 345.338 122.414C349.504 120.543 353.99 120.543 358.674 122.414C359.11 122.42 359.54 122.521 359.933 122.711C360.326 122.901 360.672 123.175 360.949 123.514C361.236 123.866 361.443 124.278 361.552 124.72C361.661 125.162 361.67 125.622 361.58 126.069C360.516 131.373 360.516 136.836 361.58 142.14C361.67 142.586 361.661 143.047 361.552 143.489C361.443 143.931 361.236 144.343 360.949 144.695C360.668 145.039 360.314 145.317 359.912 145.507C359.511 145.697 359.072 145.795 358.628 145.795Z" fill="#3F3D56"/>
<path d="M357.242 129.342H346.098C345.914 129.342 345.737 129.268 345.606 129.137C345.475 129.006 345.402 128.829 345.402 128.644C345.402 128.458 345.475 128.281 345.606 128.15C345.737 128.019 345.914 127.946 346.098 127.946H357.242C357.426 127.946 357.603 128.019 357.734 128.15C357.865 128.281 357.938 128.458 357.938 128.644C357.938 128.829 357.865 129.006 357.734 129.137C357.603 129.268 357.426 129.342 357.242 129.342Z" fill="white"/>
<path d="M357.242 134.925H346.098C345.914 134.925 345.737 134.852 345.606 134.721C345.475 134.59 345.402 134.412 345.402 134.227C345.402 134.042 345.475 133.865 345.606 133.734C345.737 133.603 345.914 133.529 346.098 133.529H357.242C357.426 133.529 357.603 133.603 357.734 133.734C357.865 133.865 357.938 134.042 357.938 134.227C357.938 134.412 357.865 134.59 357.734 134.721C357.603 134.852 357.426 134.925 357.242 134.925Z" fill="white"/>
<path d="M357.242 140.509H346.098C345.914 140.509 345.737 140.435 345.606 140.305C345.475 140.174 345.402 139.996 345.402 139.811C345.402 139.626 345.475 139.448 345.606 139.317C345.737 139.187 345.914 139.113 346.098 139.113H357.242C357.426 139.113 357.603 139.187 357.734 139.317C357.865 139.448 357.938 139.626 357.938 139.811C357.938 139.996 357.865 140.174 357.734 140.305C357.603 140.435 357.426 140.509 357.242 140.509Z" fill="white"/>
<path d="M301.992 33.8947C306.864 33.8947 310.813 29.9365 310.813 25.0537C310.813 20.1709 306.864 16.2126 301.992 16.2126C297.12 16.2126 293.17 20.1709 293.17 25.0537C293.17 29.9365 297.12 33.8947 301.992 33.8947Z" fill="#E6E6E6"/>
<path d="M306.52 21.369C306.388 21.2422 306.211 21.1714 306.028 21.1714C305.844 21.1714 305.668 21.2422 305.535 21.369C303.664 22.8652 301.982 24.5863 300.529 26.4935C300.173 25.8019 299.816 25.1102 299.459 24.4186C299.048 23.6202 297.845 24.3254 298.257 25.1231C298.778 26.1348 299.3 27.1464 299.822 28.1581C299.885 28.2614 299.973 28.3467 300.078 28.4059C300.184 28.4651 300.302 28.4962 300.423 28.4962C300.544 28.4962 300.663 28.4651 300.768 28.4059C300.873 28.3467 300.962 28.2614 301.025 28.1581C302.573 25.9728 304.423 24.0192 306.52 22.3561C306.65 22.2247 306.723 22.0474 306.723 21.8626C306.723 21.6778 306.65 21.5005 306.52 21.369Z" fill="white"/>
<path d="M258.812 33.8947C263.684 33.8947 267.634 29.9365 267.634 25.0537C267.634 20.1709 263.684 16.2126 258.812 16.2126C253.94 16.2126 249.991 20.1709 249.991 25.0537C249.991 29.9365 253.94 33.8947 258.812 33.8947Z" fill="#E6E6E6"/>
<path d="M263.341 21.369C263.208 21.2422 263.032 21.1714 262.848 21.1714C262.665 21.1714 262.489 21.2422 262.356 21.369C260.484 22.8652 258.803 24.5863 257.35 26.4935C256.993 25.8019 256.637 25.1102 256.28 24.4186C255.868 23.6202 254.666 24.3254 255.077 25.1231C255.599 26.1348 256.121 27.1464 256.642 28.1581C256.705 28.2614 256.794 28.3467 256.899 28.4059C257.004 28.4651 257.123 28.4962 257.244 28.4962C257.364 28.4962 257.483 28.4651 257.588 28.4059C257.694 28.3467 257.782 28.2614 257.845 28.1581C259.393 25.9728 261.244 24.0192 263.341 22.3561C263.47 22.2247 263.543 22.0474 263.543 21.8626C263.543 21.6778 263.47 21.5005 263.341 21.369Z" fill="white"/>
<path d="M167.81 32.9641C172.682 32.9641 176.632 29.0058 176.632 24.123C176.632 19.2403 172.682 15.282 167.81 15.282C162.938 15.282 158.989 19.2403 158.989 24.123C158.989 29.0058 162.938 32.9641 167.81 32.9641Z" fill="#E6E6E6"/>
<path d="M172.339 20.4384C172.206 20.3115 172.03 20.2407 171.846 20.2407C171.663 20.2407 171.487 20.3115 171.354 20.4384C169.482 21.9345 167.801 23.6556 166.348 25.5628C165.991 24.8712 165.635 24.1795 165.278 23.4879C164.866 22.6895 163.664 23.3948 164.075 24.1925C164.597 25.2041 165.119 26.2158 165.64 27.2274C165.703 27.3307 165.792 27.416 165.897 27.4752C166.002 27.5345 166.121 27.5656 166.242 27.5656C166.362 27.5656 166.481 27.5345 166.586 27.4752C166.692 27.416 166.78 27.3307 166.843 27.2274C168.391 25.0421 170.242 23.0886 172.339 21.4255C172.468 21.294 172.541 21.1167 172.541 20.9319C172.541 20.7472 172.468 20.5698 172.339 20.4384Z" fill="white"/>
<path d="M62.4151 69.2589C65.7486 69.2589 68.4509 66.5506 68.4509 63.2098C68.4509 59.8689 65.7486 57.1606 62.4151 57.1606C59.0816 57.1606 56.3792 59.8689 56.3792 63.2098C56.3792 66.5506 59.0816 69.2589 62.4151 69.2589Z" fill="#2F2E41"/>
<path d="M131.243 276.446C131.243 276.519 131.229 276.591 131.201 276.658C131.173 276.726 131.133 276.787 131.081 276.838C131.03 276.89 130.969 276.931 130.902 276.958C130.835 276.986 130.763 277 130.69 277H0.552517C0.405982 277 0.265446 276.942 0.16183 276.838C0.058214 276.734 3.8147e-06 276.593 3.8147e-06 276.446C3.8147e-06 276.299 0.058214 276.159 0.16183 276.055C0.265446 275.951 0.405982 275.893 0.552517 275.893H130.69C130.763 275.892 130.835 275.907 130.902 275.934C130.969 275.962 131.03 276.003 131.081 276.054C131.133 276.106 131.173 276.167 131.201 276.234C131.229 276.301 131.243 276.374 131.243 276.446Z" fill="#CCCCCC"/>
<path d="M466 276.446C466 276.519 465.986 276.591 465.958 276.658C465.931 276.726 465.89 276.787 465.839 276.838C465.787 276.89 465.726 276.931 465.659 276.958C465.592 276.986 465.52 277 465.447 277H335.31C335.163 277 335.023 276.942 334.919 276.838C334.816 276.734 334.757 276.593 334.757 276.446C334.757 276.299 334.816 276.159 334.919 276.055C335.023 275.951 335.163 275.893 335.31 275.893H465.447C465.52 275.892 465.592 275.907 465.659 275.934C465.726 275.962 465.787 276.003 465.839 276.054C465.89 276.106 465.931 276.167 465.958 276.234C465.986 276.301 466 276.374 466 276.446Z" fill="#CCCCCC"/>
<path d="M60.5973 57.1425C59.5525 56.8512 58.4658 57.3389 57.4907 57.8145L54.0221 59.5062C56.4234 59.7174 58.8247 59.9285 61.226 60.1397L61.4914 59.6393C62.3225 58.9411 61.642 57.4337 60.5973 57.1425Z" fill="#2F2E41"/>
</g>
<defs>
<clipPath id="clip0_35:362">
<rect width="466" height="277" fill="white"/>
</clipPath>
</defs>
</svg>
