<svg width="72" height="87" viewBox="0 0 72 87" fill="none" xmlns="http://www.w3.org/2000/svg">
<g clip-path="url(#clip0_44:19)">
<path d="M12.8127 19.2507C18.6922 21.2048 26.8781 22.4084 35.968 22.4084C45.0578 22.4084 53.265 21.2402 59.1446 19.2507C64.3053 17.5374 67.4942 15.4629 67.4942 13.4309C67.4942 11.3989 64.3053 9.33154 59.1446 7.61816C53.265 5.66406 45.0792 4.45337 35.9893 4.45337C26.8995 4.45337 18.7136 5.66406 12.8127 7.61816C1.88631 11.2502 1.58023 15.5125 12.8127 19.2507ZM56.9451 69.1653C57.6508 69.1569 58.3431 69.3573 58.9339 69.7411C59.5248 70.125 59.9876 70.6748 60.2636 71.3209C60.5395 71.967 60.6161 72.6801 60.4836 73.3695C60.3512 74.059 60.0156 74.6938 59.5196 75.1931C59.0236 75.6924 58.3896 76.0338 57.698 76.1739C57.0065 76.314 56.2887 76.2464 55.6359 75.9798C54.9831 75.7131 54.4247 75.2594 54.0317 74.6764C53.6387 74.0934 53.4288 73.4073 53.4288 72.7053C53.4231 72.2425 53.5099 71.7831 53.6841 71.3538C53.8582 70.9246 54.1164 70.534 54.4435 70.2047C54.7705 69.8754 55.1601 69.6139 55.5895 69.4355C56.019 69.2571 56.4797 69.1653 56.9451 69.1653ZM56.9451 49.3411C57.6408 49.3397 58.3213 49.5432 58.9008 49.9259C59.4804 50.3086 59.9331 50.8534 60.2019 51.4916C60.4707 52.1298 60.5435 52.8328 60.4112 53.5122C60.279 54.1915 59.9475 54.8166 59.4585 55.3088C58.9696 55.8011 58.3451 56.1383 57.6638 56.2781C56.9825 56.4179 56.2748 56.3539 55.63 56.0943C54.9852 55.8347 54.432 55.391 54.0403 54.8192C53.6486 54.2474 53.4358 53.573 53.4288 52.8811C53.4231 52.4182 53.5099 51.9589 53.6841 51.5296C53.8582 51.1003 54.1164 50.7097 54.4435 50.3805C54.7705 50.0512 55.1601 49.7897 55.5895 49.6113C56.019 49.4329 56.4797 49.341 56.9451 49.3411ZM56.9451 28.7168C57.6423 28.7154 58.3242 28.9197 58.9046 29.304C59.485 29.6882 59.9377 30.2351 60.2055 30.8754C60.4732 31.5156 60.544 32.2205 60.4089 32.9008C60.2737 33.5811 59.9387 34.2062 59.4462 34.6971C58.9538 35.1879 58.3259 35.5224 57.6423 35.6582C56.9586 35.794 56.2498 35.725 55.6055 35.46C54.9613 35.1949 54.4106 34.7457 54.0231 34.1692C53.6356 33.5928 53.4288 32.9149 53.4288 32.2214C53.4325 31.2963 53.8047 30.4103 54.4637 29.7574C55.1227 29.1046 56.015 28.738 56.9451 28.738V28.7168ZM67.48 60.5771C65.3259 61.9791 62.9882 63.0797 60.5327 63.8481C54.226 65.9722 45.5561 67.2607 35.9893 67.2607C26.4225 67.2607 17.7526 65.9722 11.389 63.8694C8.95719 63.1083 6.63956 62.0247 4.49866 60.648V73.9868C4.9044 75.8843 8.00079 77.7888 12.8055 79.3818C18.6851 81.3359 26.871 82.5466 35.9608 82.5466C45.0507 82.5466 53.2366 81.3359 59.1162 79.3818C62.6752 78.1995 65.3018 76.8472 66.5831 75.4524C67.6437 74.2983 67.48 73.5408 67.48 72.1672V60.5984V60.5771ZM0 13.4521C0 9.2749 4.36342 5.74902 11.389 3.40552C17.7526 1.30273 26.4439 0 35.9893 0C45.5347 0 54.226 1.30273 60.5611 3.40552C66.8963 5.5083 71.1814 8.65186 71.8932 12.3264C71.9794 12.5673 72.0228 12.8212 72.0213 13.0769V74.4895C72.0213 78.7375 63.8426 82.5112 60.5825 83.5945C54.2473 85.7185 45.5561 87 36.0107 87C26.4652 87 17.7526 85.6689 11.389 83.5945C8.05062 82.49 0 78.8438 0 74.4895V73.0735C0.033218 53.1926 0.033218 33.3188 0 13.4521ZM4.52714 54.2617C4.93287 56.1592 8.02926 58.0566 12.8127 59.6567C18.6922 61.6108 26.8781 62.8215 35.968 62.8215C45.0578 62.8215 53.265 61.5967 59.1446 59.6567C64.3053 57.9434 67.4942 55.8689 67.4942 53.844V40.8733C65.3342 42.2737 62.9921 43.3742 60.5327 44.1443C54.1975 46.2683 45.5063 47.5498 35.9608 47.5498C26.4154 47.5498 17.7526 46.2471 11.389 44.1443C8.96707 43.3808 6.65915 42.2973 4.52714 40.9229V54.2617ZM4.52714 34.5366C4.93287 36.4341 8.02926 38.3386 12.834 39.9316C18.7136 41.8857 26.8995 43.0964 35.9893 43.0964C45.0792 43.0964 53.265 41.8857 59.1446 39.9316C64.3053 38.2183 67.4942 36.1438 67.4942 34.1189V20.1924C65.3326 21.59 62.9909 22.6904 60.5327 23.4634C54.226 25.5662 45.5561 26.9043 35.9893 26.9043C26.4225 26.9043 17.7526 25.5662 11.389 23.4634C8.95682 22.7 6.63917 21.6141 4.49866 20.2349V34.5366H4.52714Z" fill="black"/>
</g>
<defs>
<clipPath id="clip0_44:19">
<rect width="72" height="87" fill="white"/>
</clipPath>
</defs>
</svg>
