<svg width="98" height="98" viewBox="0 0 98 98" fill="none" xmlns="http://www.w3.org/2000/svg">
<path d="M41.1409 49.1359C36.0131 42.7487 31.2107 37.5156 25.457 37.5156C19.1234 37.5156 13.3984 42.6664 13.3984 49C13.3984 55.3336 19.1234 60.4844 25.457 60.4844C31.1303 60.4844 36.2849 55.4006 41.1409 49.1359ZM49.3694 39.6613C54.3996 33.3009 62.8521 26.0312 72.543 26.0312C85.2275 26.0312 96.0859 36.3155 96.0859 49C96.0859 61.6845 85.2275 71.9688 72.543 71.9688C62.3123 71.9688 54.9068 65.6121 48.6153 58.3598C43.5851 64.7145 35.1384 71.9688 25.457 71.9688C12.7725 71.9688 1.91406 61.6845 1.91406 49C1.91406 36.3155 12.7725 26.0312 25.457 26.0312C35.6666 26.0312 43.0702 32.3993 49.3694 39.6613ZM56.8477 48.8794C61.9812 55.259 66.7931 60.4844 72.543 60.4844C78.8766 60.4844 84.6016 55.3336 84.6016 49C84.6016 42.6664 78.8766 37.5156 72.543 37.5156C66.8659 37.5156 61.7075 42.6089 56.8477 48.8794V48.8794Z" fill="#32BBD1"/>
<path d="M89.1953 67.1836C90.2524 67.1836 91.1094 66.3266 91.1094 65.2695C91.1094 64.2124 90.2524 63.3555 89.1953 63.3555C88.1382 63.3555 87.2812 64.2124 87.2812 65.2695C87.2812 66.3266 88.1382 67.1836 89.1953 67.1836Z" fill="black"/>
<path d="M72.543 24.1172C61.9433 24.1172 53.509 31.9204 49.3212 36.7261C43.669 30.5327 35.9878 24.1172 25.457 24.1172C11.8117 24.1172 0 35.1475 0 49C0 62.8626 11.8214 73.8828 25.457 73.8828C36.0487 73.8828 44.4775 66.0924 48.6631 61.294C54.3085 67.478 61.9867 73.8828 72.543 73.8828C76.0685 73.8828 79.5054 73.1616 82.7577 71.7393C83.7263 71.3157 84.168 70.1873 83.7444 69.2186C83.3211 68.2501 82.1923 67.8082 81.2238 68.2319C78.458 69.4414 75.5373 70.0547 72.543 70.0547C63.0986 70.0547 56.2231 64.1978 50.0615 57.1061C46.6149 53.1304 42.585 47.7616 42.3404 47.5738C37.2176 41.2211 32.0479 35.6016 25.457 35.6016C17.8831 35.6016 11.4844 41.7373 11.4844 49C11.4844 56.2627 17.8831 62.3984 25.457 62.3984C31.6215 62.3984 36.9646 57.2948 41.1403 52.2078C42.7929 54.2943 44.3907 56.3226 46.1218 58.3806C42.4887 62.6501 34.8336 70.0547 25.457 70.0547C13.733 70.0547 3.82812 60.4128 3.82812 49C3.82812 37.5872 13.733 27.9453 25.457 27.9453C34.9184 27.9453 41.8029 33.8726 47.9235 40.9156C50.5339 43.9245 52.9746 47.1192 55.3564 50.0795C60.5803 56.5713 65.8256 62.3984 72.543 62.3984C80.1169 62.3984 86.5156 56.2627 86.5156 49C86.5156 41.7373 80.1169 35.6016 72.543 35.6016C66.3766 35.6016 61.0278 40.714 56.8471 45.8087C55.1926 43.7229 53.5953 41.6971 51.8629 39.6395C55.4979 35.3633 63.1587 27.9453 72.543 27.9453C84.267 27.9453 94.1719 37.5872 94.1719 49C94.1719 51.9052 93.5561 54.7265 92.3418 57.3859C91.9028 58.3473 92.3263 59.4829 93.288 59.922C94.2515 60.3623 95.3862 59.935 95.8241 58.9759C97.2679 55.8141 98 52.4576 98 49C98 35.1374 86.1786 24.1172 72.543 24.1172V24.1172ZM25.457 58.5703C20.0529 58.5703 15.3125 54.0983 15.3125 49C15.3125 43.9017 20.0529 39.4297 25.457 39.4297C30.131 39.4297 34.4024 43.899 38.6918 49.152C34.9925 53.7674 30.3107 58.5703 25.457 58.5703ZM72.543 39.4297C77.9469 39.4297 82.6875 43.9017 82.6875 49C82.6875 54.0983 77.9469 58.5703 72.543 58.5703C67.8665 58.5703 63.5909 54.1075 59.2977 48.8618C63.0019 44.2395 67.6885 39.4297 72.543 39.4297Z" fill="black"/>
</svg>
