<svg width="90" height="90" viewBox="0 0 90 90" fill="none" xmlns="http://www.w3.org/2000/svg">
<path d="M77.3438 19.6875C76.2047 19.6875 75.1078 19.8984 74.0813 20.25C72.4359 13.4719 66.3469 8.4375 59.0625 8.4375C54.9984 8.4375 51.3 10.0125 48.5297 12.5719C45.45 6.77812 39.3609 2.8125 32.3438 2.8125C23.6953 2.8125 16.4672 8.83125 14.5687 16.9031C14.4 16.8891 14.2312 16.875 14.0625 16.875C7.84687 16.875 2.8125 21.9094 2.8125 28.125C2.8125 34.3406 7.84687 39.375 14.0625 39.375H77.3438C82.7859 39.375 87.1875 34.9734 87.1875 29.5312C87.1875 24.0891 82.7859 19.6875 77.3438 19.6875Z" fill="#E6E9ED"/>
<path d="M67.5 25.3125H30.9375C29.3906 25.3125 28.125 26.5781 28.125 28.125V39.375V42.1875V57.1922C29.1656 56.8266 30.3328 57.0937 31.1203 57.8812L32.1188 58.8797C32.175 58.9359 32.2453 59.0062 32.2734 59.0766C32.7375 59.5969 32.9766 60.2578 32.9766 60.9328C32.9766 61.3828 32.8641 61.8328 32.6531 62.2547C32.2734 63.0141 32.2312 63.9 32.5687 64.6734V64.6875H45V70.3125H36.5625V71.0156C36.5625 72.2672 35.7469 73.3922 34.5516 73.7859C33.75 74.0531 33.0891 74.6578 32.7797 75.4453C32.7094 75.6141 32.6391 75.7688 32.5687 75.9375H70.3125V59.0625V42.1875V39.375V28.125C70.3125 26.5781 69.0469 25.3125 67.5 25.3125Z" fill="#FCD770"/>
<path d="M29.0672 83.6016C29.8125 83.6016 30.5578 83.3063 31.1203 82.7438L32.1188 81.7453C33.0047 80.8594 33.2297 79.4953 32.6531 78.3703C32.4422 77.9625 32.3438 77.5125 32.3438 77.0625C32.3438 76.6828 32.4141 76.3031 32.5687 75.9516V75.9375H70.3125V84.375C70.3125 85.9219 69.0469 87.1875 67.5 87.1875H30.9375C29.3906 87.1875 28.125 85.9219 28.125 84.375V83.4328C28.4344 83.5453 28.7438 83.6016 29.0672 83.6016Z" fill="#FFC729"/>
<path d="M59.0625 30.9375H64.6875V36.5625H59.0625V30.9375Z" fill="#FF826E"/>
<path d="M33.75 30.9375H45V36.5625H33.75V30.9375Z" fill="#FF826E"/>
<path d="M33.75 47.8125H39.375V53.4375H33.75V47.8125Z" fill="#FF826E"/>
<path d="M53.4375 47.8125H64.6875V53.4375H53.4375V47.8125Z" fill="#FF826E"/>
<path d="M59.0625 64.6875H64.6875V70.3125H59.0625V64.6875Z" fill="#FF826E"/>
<path d="M32.5688 64.6875H45V70.3125H36.5625V69.6094C36.5625 68.3578 35.7469 67.2328 34.5516 66.8391C33.75 66.5719 33.0891 65.9672 32.7797 65.1797C32.7094 65.0109 32.6391 64.8562 32.5688 64.6875Z" fill="#FF826E"/>
<path d="M28.125 57.1922C29.1656 56.8266 30.3328 57.0937 31.1203 57.8812L32.1188 58.8797C32.175 58.9359 32.2453 59.0062 32.2734 59.0766C32.7375 59.5969 32.9766 60.2578 32.9766 60.9328C32.9766 61.3828 32.8641 61.8328 32.6531 62.2547C32.2734 63.0141 32.2312 63.9 32.5687 64.6734V64.6875C32.6391 64.8562 32.7094 65.0109 32.7797 65.1797C33.0891 65.9672 33.75 66.5719 34.5516 66.8391C35.7469 67.2328 36.5625 68.3578 36.5625 69.6094V70.3125V71.0156C36.5625 72.2672 35.7469 73.3922 34.5516 73.7859C33.75 74.0531 33.0891 74.6578 32.7797 75.4453C32.7094 75.6141 32.6391 75.7688 32.5687 75.9375V75.9516C32.4141 76.3031 32.3438 76.6828 32.3438 77.0625C32.3438 77.5125 32.4422 77.9625 32.6531 78.3703C33.2297 79.4953 33.0047 80.8594 32.1188 81.7453L31.1203 82.7438C30.5578 83.3063 29.8125 83.6016 29.0672 83.6016C28.7438 83.6016 28.4344 83.5453 28.125 83.4328L27.7453 83.2781C26.9859 82.8984 26.1 82.8562 25.3266 83.1937C25.1578 83.2641 24.9891 83.3344 24.8203 83.4047C24.0328 83.7141 23.4281 84.375 23.1609 85.1766C22.7672 86.3719 21.6422 87.1875 20.3906 87.1875H18.9844C17.7328 87.1875 16.6078 86.3719 16.2141 85.1766C15.9469 84.375 15.3422 83.7141 14.5547 83.4047C14.3859 83.3344 14.2172 83.2641 14.0484 83.1937C13.6969 83.0391 13.3172 82.9688 12.9375 82.9688C12.4875 82.9688 12.0375 83.0672 11.6297 83.2781C10.5047 83.8547 9.14062 83.6297 8.25469 82.7438L7.25625 81.7453C6.69375 81.1828 6.39844 80.4375 6.39844 79.6922C6.39844 79.2422 6.51094 78.7922 6.72188 78.3703C7.10156 77.6109 7.14375 76.725 6.80625 75.9516C6.73594 75.7828 6.66563 75.6141 6.59531 75.4453C6.28594 74.6578 5.625 74.0531 4.82344 73.7859C3.62813 73.3922 2.8125 72.2672 2.8125 71.0156V69.6094C2.8125 68.3578 3.62813 67.2328 4.82344 66.8391C5.625 66.5719 6.28594 65.9672 6.59531 65.1797C6.66563 65.0109 6.73594 64.8422 6.80625 64.6734C6.96094 64.3219 7.03125 63.9422 7.03125 63.5625C7.03125 63.1125 6.93281 62.6625 6.72188 62.2547C6.14531 61.1297 6.37031 59.7656 7.25625 58.8797L8.25469 57.8812C8.81719 57.3187 9.5625 57.0234 10.3078 57.0234C10.7578 57.0234 11.2078 57.1359 11.6297 57.3469C12.3891 57.7266 13.275 57.7688 14.0484 57.4313L14.5547 57.2203C15.3422 56.9109 15.9469 56.25 16.2141 55.4484C16.6078 54.2531 17.7328 53.4375 18.9844 53.4375H20.3906C21.6422 53.4375 22.7672 54.2531 23.1609 55.4484C23.4281 56.25 24.0328 56.9109 24.8203 57.2203L25.3266 57.4313C25.6781 57.5859 26.0578 57.6562 26.4375 57.6562C26.8875 57.6562 27.3375 57.5578 27.7453 57.3469C27.8719 57.2906 27.9984 57.2344 28.125 57.1922V57.1922ZM28.125 70.3125C28.125 65.6578 24.3422 61.875 19.6875 61.875C15.0328 61.875 11.25 65.6578 11.25 70.3125C11.25 74.9672 15.0328 78.75 19.6875 78.75C24.3422 78.75 28.125 74.9672 28.125 70.3125Z" fill="#A0D468"/>
<path d="M19.6875 61.875C24.3422 61.875 28.125 65.6578 28.125 70.3125C28.125 74.9672 24.3422 78.75 19.6875 78.75C15.0328 78.75 11.25 74.9672 11.25 70.3125C11.25 65.6578 15.0328 61.875 19.6875 61.875ZM22.5 70.3125C22.5 68.7656 21.2344 67.5 19.6875 67.5C18.1406 67.5 16.875 68.7656 16.875 70.3125C16.875 71.8594 18.1406 73.125 19.6875 73.125C21.2344 73.125 22.5 71.8594 22.5 70.3125Z" fill="#B4DD7F"/>
<path d="M19.6875 60.4688C14.2608 60.4688 9.84375 64.8858 9.84375 70.3125C9.84375 75.7392 14.2608 80.1562 19.6875 80.1562C25.1142 80.1562 29.5312 75.7392 29.5312 70.3125C29.5312 64.8858 25.1142 60.4688 19.6875 60.4688ZM19.6875 77.3438C15.8105 77.3438 12.6562 74.1895 12.6562 70.3125C12.6562 66.4355 15.8105 63.2812 19.6875 63.2812C23.5645 63.2812 26.7188 66.4355 26.7188 70.3125C26.7188 74.1895 23.5645 77.3438 19.6875 77.3438Z" fill="black"/>
<path d="M19.6875 66.0938C17.3616 66.0938 15.4688 67.9866 15.4688 70.3125C15.4688 72.6384 17.3616 74.5312 19.6875 74.5312C22.0134 74.5312 23.9062 72.6384 23.9062 70.3125C23.9062 67.9866 22.0134 66.0938 19.6875 66.0938ZM19.6875 71.7188C18.9113 71.7188 18.2812 71.0887 18.2812 70.3125C18.2812 69.5363 18.9113 68.9062 19.6875 68.9062C20.4637 68.9062 21.0938 69.5363 21.0938 70.3125C21.0938 71.0887 20.4637 71.7188 19.6875 71.7188Z" fill="black"/>
<path d="M77.3438 18.2812C76.5731 18.2812 75.8039 18.3628 75.0431 18.5245C72.7566 11.6902 66.3792 7.03125 59.0625 7.03125C55.3261 7.03125 51.788 8.27016 48.9023 10.4541C45.2953 4.83609 39.0994 1.40625 32.3438 1.40625C23.5505 1.40625 15.9525 7.13812 13.4873 15.4814C6.77391 15.7837 1.40625 21.3398 1.40625 28.125C1.40625 35.1042 7.08328 40.7812 14.0625 40.7812H26.7188V56.1937C26.4333 56.2514 26.145 56.2556 25.882 56.1417C25.702 56.063 25.5192 55.9898 25.3322 55.9167C24.9398 55.7634 24.6347 55.4316 24.4941 55.0069C23.9119 53.2266 22.2609 52.0312 20.3878 52.0312H18.9872C17.1141 52.0312 15.4631 53.228 14.8795 55.0055C14.7389 55.4316 14.4352 55.762 14.04 55.9153C13.8544 55.9884 13.6716 56.0616 13.4902 56.1417C13.1077 56.3063 12.6591 56.288 12.2625 56.0883C10.5919 55.2445 8.57953 55.5666 7.25484 56.8884L6.26344 57.8812C4.94156 59.2059 4.61953 61.2183 5.46469 62.8875C5.66578 63.2855 5.68406 63.7341 5.51672 64.118C5.43797 64.298 5.36484 64.4808 5.29172 64.6678C5.13844 65.0602 4.80656 65.3653 4.38187 65.5059C2.60156 66.0881 1.40625 67.7391 1.40625 69.6122V71.0128C1.40625 72.8859 2.60297 74.5369 4.38047 75.1205C4.80656 75.2611 5.13703 75.5648 5.29031 75.96C5.36344 76.1456 5.43656 76.3284 5.51672 76.5098C5.68266 76.8923 5.66297 77.3409 5.46328 77.7375C4.61812 79.4081 4.94016 81.4191 6.26344 82.7452L7.25484 83.738C8.57812 85.0598 10.5891 85.3819 12.2611 84.5367C12.6577 84.337 13.1077 84.3173 13.4916 84.4847C13.6716 84.5634 13.8544 84.6366 14.0414 84.7097C14.4337 84.863 14.7389 85.1948 14.8795 85.6195C15.4631 87.3984 17.1141 88.5938 18.9872 88.5938H20.3878C22.2609 88.5938 23.9119 87.397 24.4955 85.6195C24.6361 85.1934 24.9398 84.863 25.335 84.7097C25.5206 84.6366 25.7034 84.5634 25.8848 84.4833C26.1478 84.3694 26.4389 84.375 26.7258 84.4341C26.7567 86.7319 28.6313 88.5938 30.9375 88.5938H67.5C69.8259 88.5938 71.7188 86.7009 71.7188 84.375V40.7812H77.3438C83.5467 40.7812 88.5938 35.7342 88.5938 29.5312C88.5938 23.3283 83.5467 18.2812 77.3438 18.2812V18.2812ZM28.3795 82.0252C27.2362 81.4472 25.9158 81.4022 24.7655 81.9014C24.6164 81.9661 24.4659 82.0294 24.3155 82.0884C23.1356 82.5469 22.2286 83.5158 21.825 84.7434C21.6197 85.3636 21.0431 85.7812 20.3878 85.7812H18.9872C18.3319 85.7812 17.7553 85.3636 17.5514 84.7406C17.1478 83.5144 16.2394 82.5469 15.0609 82.0884C14.9091 82.0294 14.7586 81.9661 14.6109 81.9028C14.0794 81.6722 13.5127 81.5569 12.9431 81.5569C12.278 81.5569 11.6114 81.713 10.9927 82.0252C10.4091 82.3205 9.70594 82.208 9.24328 81.7467L8.25469 80.7553C7.79203 80.2927 7.67953 79.5895 7.97484 79.0045C8.55281 77.8598 8.59781 76.5408 8.09859 75.3905C8.03391 75.2414 7.97062 75.0909 7.91156 74.9405C7.45312 73.7606 6.48422 72.8536 5.25656 72.45C4.63641 72.2447 4.21875 71.6681 4.21875 71.0128V69.6122C4.21875 68.9569 4.63641 68.3803 5.25938 68.1764C6.48562 67.7728 7.45312 66.8644 7.91156 65.6859C7.97062 65.5341 8.03391 65.3836 8.09719 65.2359C8.59781 64.0842 8.55281 62.7652 7.97484 61.6191C7.67953 61.0355 7.79203 60.3323 8.25328 59.8697L9.24469 58.8783C9.70734 58.417 10.4119 58.3059 10.9955 58.5998C12.1402 59.1778 13.4606 59.2242 14.6095 58.7236C14.7586 58.6589 14.9091 58.5956 15.0595 58.5366C16.2394 58.0781 17.1464 57.1092 17.55 55.8816C17.7553 55.2614 18.3319 54.8438 18.9872 54.8438H20.3878C21.0431 54.8438 21.6197 55.2614 21.8236 55.8844C22.2272 57.1106 23.1356 58.0781 24.3141 58.5366C24.4659 58.5956 24.6164 58.6589 24.7641 58.7222C25.9172 59.2228 27.2362 59.1778 28.3809 58.5998C28.9659 58.3031 29.6705 58.4184 30.1303 58.8783L31.1203 59.8697C31.583 60.3323 31.6955 61.0355 31.4002 61.6205C30.8222 62.7652 30.7772 64.0842 31.2764 65.2345C31.3411 65.3836 31.4044 65.5341 31.4634 65.6845C31.9219 66.8644 32.8908 67.7714 34.1184 68.175C34.7386 68.3803 35.1562 68.9569 35.1562 69.6122V71.0128C35.1562 71.6681 34.7386 72.2447 34.1156 72.4486C32.8894 72.8522 31.9219 73.7606 31.4634 74.9391C31.4044 75.0909 31.3411 75.2414 31.2778 75.3891C30.7772 76.5408 30.8222 77.8598 31.4002 79.0059C31.6955 79.5895 31.583 80.2927 31.1217 80.7553L30.1303 81.7453C29.6691 82.208 28.9659 82.3205 28.3795 82.0252V82.0252ZM68.9062 84.375C68.9062 85.1512 68.2762 85.7812 67.5 85.7812H30.9375C30.3694 85.7812 29.8856 85.4395 29.6634 84.9544C30.5705 84.8264 31.4367 84.4172 32.1188 83.7352L33.1116 82.7438C34.4334 81.4191 34.7555 79.4067 33.9103 77.7375C33.847 77.6109 33.833 77.4759 33.8063 77.3438H68.9062V84.375ZM68.9062 74.5312H36.1519C37.0828 73.8689 37.7213 72.862 37.9097 71.7188H46.4062V63.2812H33.8063C33.833 63.1491 33.847 63.0141 33.9103 62.8889C34.2984 62.1211 34.4292 61.2816 34.3406 60.4688H68.9062V74.5312ZM36.1519 66.0938H43.5938V68.9062H37.9097C37.7227 67.763 37.0828 66.7561 36.1519 66.0938ZM68.9062 57.6562H32.8852L32.1188 56.8898C31.4044 56.1741 30.4861 55.7606 29.5312 55.6566V43.5938H68.9062V57.6562ZM68.9062 40.7812H29.5312V28.125C29.5312 27.3488 30.1613 26.7188 30.9375 26.7188H67.5C68.2762 26.7188 68.9062 27.3488 68.9062 28.125V40.7812ZM77.3438 37.9688H71.7188V28.125C71.7188 25.7991 69.8259 23.9062 67.5 23.9062H30.9375C28.6116 23.9062 26.7188 25.7991 26.7188 28.125V37.9688H14.0625C8.63578 37.9688 4.21875 33.5517 4.21875 28.125C4.21875 22.6983 8.63578 18.2812 14.0625 18.2812C14.137 18.2812 14.2088 18.2869 14.2819 18.2925L15.667 18.353L15.9328 17.2209C17.7342 9.56672 24.4814 4.21875 32.3438 4.21875C38.2922 4.21875 43.7358 7.31953 46.7873 12.3694C46.1109 13.0908 45.4697 13.853 44.9184 14.7009L47.2753 16.2366C49.8839 12.233 54.2897 9.84375 59.0625 9.84375C65.565 9.84375 71.1788 14.2608 72.713 20.5847L73.08 22.0964L74.5467 21.5803C75.4636 21.2569 76.4044 21.0938 77.3438 21.0938C81.997 21.0938 85.7812 24.878 85.7812 29.5312C85.7812 34.1845 81.997 37.9688 77.3438 37.9688V37.9688Z" fill="black"/>
<path d="M66.0938 63.2812H57.6562V71.7188H66.0938V63.2812ZM63.2812 68.9062H60.4688V66.0938H63.2812V68.9062Z" fill="black"/>
<path d="M40.7812 46.4062H32.3438V54.8438H40.7812V46.4062ZM37.9688 52.0312H35.1562V49.2188H37.9688V52.0312Z" fill="black"/>
<path d="M66.0938 46.4062H52.0312V54.8438H66.0938V46.4062ZM63.2812 52.0312H54.8438V49.2188H63.2812V52.0312Z" fill="black"/>
<path d="M57.6562 37.9688H66.0938V29.5312H57.6562V37.9688ZM60.4688 32.3438H63.2812V35.1562H60.4688V32.3438Z" fill="black"/>
<path d="M32.3438 37.9688H46.4062V29.5312H32.3438V37.9688ZM35.1562 32.3438H43.5938V35.1562H35.1562V32.3438Z" fill="black"/>
<path d="M57.6562 80.1562H60.4688V82.9688H57.6562V80.1562Z" fill="black"/>
<path d="M63.2812 80.1562H66.0938V82.9688H63.2812V80.1562Z" fill="black"/>
<path d="M52.0312 80.1562H54.8438V82.9688H52.0312V80.1562Z" fill="black"/>
<path d="M34.8441 10.1223C35.7637 10.3304 36.6581 10.6566 37.5019 11.0926L38.7928 8.59366C37.7381 8.04804 36.6201 7.64022 35.4684 7.37866L34.8441 10.1223Z" fill="black"/>
<path d="M18.6286 17.9691L21.3722 18.592C22.5408 13.4423 27.0534 9.84375 32.3438 9.84375V7.03125C25.7316 7.03125 20.0911 11.5284 18.6286 17.9691V17.9691Z" fill="black"/>
</svg>
