<svg width="82" height="82" viewBox="0 0 82 82" fill="none" xmlns="http://www.w3.org/2000/svg">
<g clip-path="url(#clip0_77:347)">
<path d="M46.6293 21.2929L43.3183 20.7952C42.9155 18.6481 42.0715 16.6567 40.8833 14.919L42.8732 12.2249C43.2215 11.7534 43.1725 11.0979 42.758 10.6834L41.0442 8.96956C40.6296 8.55492 39.9742 8.50607 39.5027 8.85441L36.8086 10.8445C35.0709 9.65631 33.0795 8.81229 30.9324 8.40949L30.4347 5.09826C30.3475 4.5185 29.8494 4.0896 29.2631 4.0896H26.8393C26.253 4.0896 25.7549 4.5185 25.6678 5.09826L25.17 8.40949C23.0228 8.81213 21.0316 9.65631 19.2939 10.8445L16.5997 8.85441C16.1281 8.50607 15.4727 8.55508 15.0582 8.96956L13.3444 10.6834C12.9297 11.0979 12.8809 11.7534 13.2292 12.2249L15.2193 14.919C14.0311 16.6567 13.1871 18.6481 12.7843 20.7952L9.47309 21.2929C8.89332 21.3801 8.46458 21.8782 8.46458 22.4645V24.8883C8.46458 25.4746 8.89332 25.9727 9.47309 26.0598L12.7843 26.5576C13.187 28.7048 14.0311 30.696 15.2193 32.4337L13.2292 35.1279C12.8809 35.5995 12.9299 36.2549 13.3444 36.6694L15.0582 38.3832C15.4727 38.7979 16.1282 38.8467 16.5997 38.4984L19.2939 36.5083C21.0316 37.6965 23.0229 38.5405 25.17 38.9433L25.6678 42.2545C25.7549 42.8343 26.253 43.263 26.8393 43.263H29.2631C29.8494 43.263 30.3475 42.8343 30.4347 42.2545L30.9324 38.9433C33.0795 38.5405 35.0709 37.6965 36.8086 36.5083L39.5027 38.4984C39.9744 38.8467 40.6297 38.7977 41.0442 38.3832L42.758 36.6694C43.1727 36.2549 43.2215 35.5994 42.8732 35.1279L40.8833 32.4337C42.0715 30.696 42.9155 28.7046 43.3183 26.5576L46.6293 26.0598C47.2091 25.9727 47.6378 25.4746 47.6378 24.8883V22.4645C47.638 21.8782 47.2093 21.3801 46.6293 21.2929V21.2929ZM28.0512 31.5162C23.7214 31.5162 20.2114 28.0062 20.2114 23.6764C20.2114 19.3466 23.7214 15.8366 28.0512 15.8366C32.381 15.8366 35.8912 19.3466 35.8912 23.6764C35.8912 28.0062 32.381 31.5162 28.0512 31.5162Z" fill="#FFE27A"/>
<path d="M69.2514 9.84961C71.6175 9.84961 73.5356 7.93152 73.5356 5.56543C73.5356 3.19934 71.6175 1.28125 69.2514 1.28125C66.8853 1.28125 64.9672 3.19934 64.9672 5.56543C64.9672 7.93152 66.8853 9.84961 69.2514 9.84961Z" fill="#FF4755"/>
<path d="M69.2514 6.96667C67.3912 6.96667 65.8085 5.78072 65.2166 4.1239C65.0556 4.57442 64.9674 5.05953 64.9674 5.56531C64.9674 7.9313 66.8854 9.84949 69.2514 9.84949C71.6174 9.84949 73.5356 7.93146 73.5356 5.56531C73.5356 5.05953 73.4473 4.57442 73.2864 4.1239C72.6943 5.78088 71.1116 6.96667 69.2514 6.96667V6.96667Z" fill="#FC2B3A"/>
<path d="M69.2514 46.0715C71.6175 46.0715 73.5356 44.1534 73.5356 41.7873C73.5356 39.4213 71.6175 37.5032 69.2514 37.5032C66.8853 37.5032 64.9672 39.4213 64.9672 41.7873C64.9672 44.1534 66.8853 46.0715 69.2514 46.0715Z" fill="#FF4755"/>
<path d="M69.2514 43.1885C67.3912 43.1885 65.8085 42.0025 65.2166 40.3457C65.0556 40.7962 64.9674 41.2813 64.9674 41.7871C64.9674 44.1531 66.8854 46.0713 69.2514 46.0713C71.6174 46.0713 73.5356 44.1533 73.5356 41.7871C73.5356 41.2813 73.4473 40.7962 73.2864 40.3457C72.6943 42.0027 71.1116 43.1885 69.2514 43.1885V43.1885Z" fill="#FC2B3A"/>
<path d="M52.9139 57.3165C54.7191 57.3165 56.1825 58.7826 56.1825 60.5909L63.8855 56.5311C65.3724 55.7474 65.8926 53.8704 65.0218 52.4311C64.2156 51.0984 62.5072 50.634 61.1392 51.3756L50.181 57.3167H52.9139V57.3165Z" fill="#F4B184"/>
<path d="M36.8689 57.3164L52.7779 48.9723C54.1098 48.2737 55.751 48.6534 56.6423 49.8663C57.7384 51.3578 57.2655 53.4757 55.6394 54.3572L50.1811 57.3164H36.8689Z" fill="#F4B184"/>
<path d="M50.1811 57.3164L55.6394 54.3572C57.0541 53.5903 57.5952 51.8876 56.9905 50.4757L44.5137 57.3164H50.1811Z" fill="#EAA678"/>
<path d="M56.1825 60.5909L63.8855 56.5311C65.1722 55.853 65.7329 54.3566 65.2971 53.0331L55.2922 58.3495C55.8428 58.9355 56.1825 59.7227 56.1825 60.5909V60.5909Z" fill="#EAA678"/>
<path d="M56.1825 60.5908C56.1825 62.2404 54.9574 63.6325 53.3239 63.8394L32.9877 66.4151L41.6244 67.4561C49.6859 68.4278 57.8479 66.8262 64.9477 62.8793L72.8596 58.4809C74.4012 57.6238 74.8535 55.6124 73.8274 54.1759C72.9694 52.9749 71.3582 52.5925 70.0536 53.28L56.1825 60.5908Z" fill="#F4B184"/>
<path d="M72.8596 58.481C74.2324 57.7177 74.7382 56.0402 74.1088 54.6674L55.2132 64.7944L48.2154 64.4864L32.9877 66.415L41.6244 67.456C49.6859 68.4277 57.848 66.8261 64.9477 62.8792L72.8596 58.481Z" fill="#EAA678"/>
<path d="M9.98302 62.3183C9.98302 62.3183 15.9343 57.2842 23.3088 55.9109C30.6834 54.5375 36.8689 57.3164 36.8689 57.3164H52.9139C54.7191 57.3164 56.1825 58.7825 56.1825 60.5908C56.1825 62.2404 54.9576 63.6325 53.3239 63.8393L32.9877 66.4149L41.6244 67.4559C49.6859 68.4276 57.848 66.826 64.9477 62.8791L75.7534 56.872C77.2216 56.0978 79.0333 56.5028 80.0334 57.8289C81.2817 59.4838 80.7686 61.8636 78.9497 62.8548L63.1488 71.4654C55.2288 75.7815 46.2121 81.4395 37.2318 80.6377L9.98302 78.2054H1.28125V62.3183H9.98302Z" fill="#FFC89F"/>
<path d="M80.0334 57.829C79.9654 57.7389 79.8928 57.6537 79.8177 57.5721C79.5767 58.4067 79.0182 59.1532 78.1843 59.6076L62.3834 68.2182C54.4634 72.5343 45.4467 78.1923 36.4663 77.3905L9.21763 74.9581H1.28125V78.2054H9.98302L37.2317 80.638C46.2121 81.4398 55.2288 75.7818 63.1486 71.4657L78.9495 62.8551C80.7686 61.8637 81.2817 59.4839 80.0334 57.829V57.829Z" fill="#F7BC94"/>
<path d="M35.891 26.5592C35.891 26.0666 35.8434 25.5853 35.7565 25.1178C35.0795 28.7588 31.8884 31.5162 28.051 31.5162C24.2139 31.5162 21.0228 28.7588 20.3458 25.1178C20.2588 25.5853 20.2112 26.0666 20.2112 26.5592C20.2112 30.889 23.7212 34.399 28.051 34.399C32.381 34.399 35.891 30.889 35.891 26.5592Z" fill="#F9CF58"/>
<path d="M69.2514 27.9606C71.6175 27.9606 73.5356 26.0425 73.5356 23.6764C73.5356 21.3103 71.6175 19.3922 69.2514 19.3922C66.8853 19.3922 64.9672 21.3103 64.9672 23.6764C64.9672 26.0425 66.8853 27.9606 69.2514 27.9606Z" fill="#FF4755"/>
<path d="M69.2514 25.0776C67.3912 25.0776 65.8085 23.8916 65.2166 22.235C65.0556 22.6855 64.9674 23.1706 64.9674 23.6764C64.9674 26.0424 66.8854 27.9604 69.2514 27.9604C71.6174 27.9604 73.5356 26.0424 73.5356 23.6764C73.5356 23.1706 73.4473 22.6855 73.2864 22.235C72.6943 23.8916 71.1116 25.0776 69.2514 25.0776V25.0776Z" fill="#FC2B3A"/>
<path d="M62.6165 70.4729C61.8019 70.9167 60.976 71.3748 60.1396 71.8384C53.0625 75.7623 45.0411 80.2098 37.3316 79.5213L10.0295 77.084C9.99391 77.0808 9.9582 77.0792 9.92248 77.0792H2.40699V63.568H9.92232C10.2069 63.568 10.4824 63.4671 10.6996 63.2834C10.7209 63.2654 12.8716 61.4584 16.1458 59.7575C16.7357 59.4511 16.9654 58.7245 16.6591 58.1347C16.3526 57.545 15.6263 57.315 15.0363 57.6215C12.2755 59.0557 10.2727 60.5492 9.49663 61.161H1.20357C0.538926 61.161 0 61.6999 0 62.3645V78.2828C0 78.9474 0.538766 79.4864 1.20357 79.4864H9.86867L37.1175 81.919C37.733 81.9739 38.347 82.0002 38.9612 82.0002C46.7756 82.0002 54.4648 77.7371 61.3067 73.9438C62.1379 73.4831 62.9587 73.0279 63.7681 72.5867C64.3517 72.2686 64.5672 71.5376 64.2491 70.954C63.9312 70.3701 63.2004 70.1549 62.6165 70.4729V70.4729Z" fill="black"/>
<path d="M81.0709 57.1417C79.7913 55.4455 77.5618 54.8597 75.6375 55.6653C75.5883 54.8955 75.3277 54.1457 74.8713 53.5067C73.6679 51.822 71.38 51.2792 69.5496 52.244L66.6873 53.7525C66.6506 53.0803 66.4524 52.4189 66.0989 51.8348C64.957 49.947 62.5439 49.2915 60.6052 50.3423L58.4658 51.5022C58.4272 50.6705 58.1455 49.8598 57.6428 49.1754C56.3883 47.4683 54.117 46.9432 52.242 47.9267L36.7969 56.0274C35.06 55.3605 29.523 53.557 23.0539 54.7613C21.9379 54.9692 20.7881 55.2697 19.6363 55.6548C19.0059 55.8656 18.6657 56.5474 18.8763 57.1778C19.0873 57.8081 19.7694 58.1482 20.3994 57.9377C21.4462 57.5878 22.4874 57.3154 23.4943 57.1278C30.4002 55.8419 36.3101 58.4252 36.3673 58.4507C36.5225 58.5204 36.6905 58.5564 36.8606 58.5564H52.9371C54.0793 58.5564 55.0085 59.4883 55.0085 60.6338C55.0085 61.6778 54.2295 62.5638 53.1967 62.6947L32.8208 65.2754C32.218 65.3518 31.7667 65.8654 31.7686 66.4729C31.7704 67.0805 32.2249 67.5914 32.828 67.6642L41.4818 68.7073C49.8645 69.7174 58.1971 68.0823 65.5793 63.9785L76.3933 57.967C77.3446 57.4713 78.5019 57.733 79.1492 58.5913C79.958 59.6122 79.6065 61.2493 78.4482 61.8455L66.8454 68.1685C65.4581 68.8975 66.6471 71.0507 67.9972 70.2821L79.6001 63.9591C80.7759 63.3185 81.6126 62.1996 81.8957 60.8896C82.1791 59.5782 81.8784 58.2122 81.0709 57.1417V57.1417ZM53.3601 50.0582C54.1733 49.6317 55.1586 49.8598 55.7033 50.6008C56.3724 51.4637 56.0686 52.8326 55.0958 53.3292L49.894 56.1494H41.7466L53.3601 50.0582ZM54.4547 56.4148L61.7524 52.4583C62.5594 52.0209 63.5638 52.2945 64.0394 53.0808C64.5579 53.8951 64.2334 55.0708 63.3693 55.5013L57.0397 58.8373C56.548 57.7161 55.6117 56.8333 54.4547 56.4148ZM64.4099 61.8747C57.7901 65.5547 50.3567 67.1222 42.8463 66.4318L53.4992 65.0824C55.4756 64.8323 57.0208 63.3047 57.3499 61.3945L70.6718 54.3733C71.4422 53.9673 72.4055 54.196 72.9126 54.9056C73.5265 55.7213 73.2414 56.9942 72.3368 57.468L64.4099 61.8747Z" fill="black"/>
<path d="M28.0259 32.7013C29.3851 32.7013 30.6928 32.4073 31.9122 31.8274C32.5125 31.542 32.7678 30.8238 32.4822 30.2236C32.1968 29.6234 31.4792 29.368 30.8784 29.6536C29.9846 30.0786 29.0248 30.2942 28.0259 30.2942C24.3582 30.2942 21.3741 27.3102 21.3741 23.6424C21.3741 19.9747 24.3582 16.9908 28.0259 16.9908C31.6936 16.9908 34.6777 19.9747 34.6777 23.6424C34.6777 24.7654 34.3929 25.8748 33.8543 26.8508C33.5332 27.4328 33.7444 28.1649 34.3264 28.486C34.9086 28.8071 35.6407 28.5957 35.9616 28.0139C36.6963 26.6827 37.0847 25.1711 37.0847 23.6423C37.0847 18.6471 33.0208 14.5835 28.0259 14.5835C23.0309 14.5835 18.9671 18.6471 18.9671 23.6423C18.9671 28.6374 23.0309 32.7013 28.0259 32.7013V32.7013Z" fill="black"/>
<path d="M9.23253 27.2208L11.727 27.5957C12.1342 29.2855 12.7974 30.8861 13.7062 32.3714L12.2066 34.4014C11.4981 35.3607 11.596 36.6689 12.4393 37.512L14.1565 39.2293C14.9998 40.0725 16.3081 40.1704 17.2673 39.4619L19.2971 37.9625C20.7824 38.8712 22.3828 39.5346 24.0728 39.9418L24.4479 42.4363C24.6251 43.6155 25.6194 44.4714 26.8118 44.4714H29.2402C30.4327 44.4714 31.427 43.6155 31.6041 42.4361L31.979 39.9418C33.669 39.5346 35.2695 38.8712 36.7547 37.9625L38.7847 39.462C39.7439 40.1704 41.0522 40.0727 41.8953 39.2295L43.6125 37.5123C44.4559 36.6692 44.5537 35.3609 43.8452 34.4016L42.3458 32.3717C43.2545 30.8865 43.9179 29.286 44.325 27.596L46.8193 27.2211C47.9985 27.0438 48.8545 26.0497 48.8545 24.8571V24.8462H55.9969V40.1862C55.9969 41.7338 57.256 42.993 58.8036 42.993H63.9453C64.4957 45.4463 66.6899 47.2853 69.3068 47.2853C72.3373 47.2853 74.8029 44.8199 74.8029 41.7893C74.8029 38.7588 72.3375 36.2932 69.3068 36.2932C66.6897 36.2932 64.4956 38.1324 63.9451 40.5858H58.8035C58.5831 40.5858 58.4039 40.4066 58.4039 40.1862V24.8462H63.9451C64.4956 27.2996 66.6897 29.1388 69.3068 29.1388C72.3373 29.1388 74.8029 26.6734 74.8029 23.6427C74.8029 20.6121 72.3375 18.1467 69.3068 18.1467C66.6899 18.1467 64.4957 19.9857 63.9451 22.439H58.4042V7.09925C58.4042 6.87887 58.5834 6.69966 58.8038 6.69966H63.9454C64.4959 9.15309 66.69 10.9922 69.3071 10.9922C72.3376 10.9922 74.8032 8.52672 74.8032 5.49608C74.8032 2.46545 72.3375 0 69.307 0C66.69 0 64.4959 1.83907 63.9453 4.29251H58.8036C57.256 4.29251 55.9969 5.5515 55.9969 7.09909V22.4389H48.8545V22.4283C48.8545 21.2359 47.9987 20.2417 46.8194 20.0644L44.325 19.6894C43.9177 17.9995 43.2545 16.399 42.3458 14.9138L43.8452 12.8839C44.5537 11.9246 44.456 10.6163 43.6126 9.77321L41.8954 8.05586C41.0524 7.21264 39.7441 7.11494 38.7847 7.82331L36.7549 9.3227C35.2695 8.41397 33.669 7.7506 31.9792 7.34348L31.6043 4.84905C31.4271 3.66982 30.4329 2.81379 29.2404 2.81379H26.8118C25.6194 2.81379 24.6251 3.66966 24.4479 4.84905L24.0728 7.34348C22.383 7.75076 20.7825 8.41397 19.2971 9.3227L17.2673 7.82331C16.3082 7.11478 14.9998 7.21248 14.1565 8.05586L12.4393 9.77289C11.596 10.6161 11.4981 11.9244 12.2066 12.8836L13.706 14.9134C12.7973 16.3987 12.1339 17.9993 11.7268 19.6891L9.23237 20.0641C8.05314 20.2413 7.19727 21.2356 7.19727 22.428V24.8564C7.19727 26.0494 8.0533 27.0435 9.23253 27.2208V27.2208ZM69.307 38.7C71.0102 38.7 72.3959 40.0857 72.3959 41.7889C72.3959 43.4922 71.0102 44.8779 69.307 44.8779C67.6037 44.8779 66.2181 43.4922 66.2181 41.7889C66.2181 40.0857 67.6037 38.7 69.307 38.7V38.7ZM69.307 20.5535C71.0102 20.5535 72.3959 21.9392 72.3959 23.6424C72.3959 25.3457 71.0102 26.7314 69.307 26.7314C67.6037 26.7314 66.2181 25.3457 66.2181 23.6424C66.2181 21.9392 67.6037 20.5535 69.307 20.5535ZM69.307 2.40699C71.0102 2.40699 72.3959 3.79266 72.3959 5.49592C72.3959 7.19918 71.0102 8.58486 69.307 8.58486C67.6037 8.58486 66.2181 7.19918 66.2181 5.49592C66.2181 3.79282 67.6037 2.40699 69.307 2.40699ZM9.60425 22.4424L12.9078 21.9457C13.4145 21.8697 13.8175 21.481 13.9118 20.9774C14.2786 19.0214 15.0358 17.1945 16.162 15.5473C16.4511 15.1245 16.441 14.5649 16.1365 14.1528L14.1513 11.4649L15.8484 9.76793L18.5363 11.7534C18.9483 12.0577 19.5077 12.0679 19.9306 11.7789C21.578 10.6525 23.4049 9.89541 25.3607 9.5285C25.8643 9.43416 26.2528 9.03121 26.3291 8.52448L26.8257 5.22093H29.2258L29.7224 8.52448C29.7987 9.03121 30.1872 9.43416 30.6907 9.5285C32.6466 9.89525 34.4736 10.6525 36.1208 11.7789C36.5438 12.0681 37.1032 12.0577 37.5153 11.7534L40.2032 9.76793L41.9004 11.4649L39.9151 14.153C39.6108 14.5649 39.6006 15.1245 39.8896 15.5475C41.016 17.1947 41.7731 19.0216 42.14 20.9777C42.2345 21.4813 42.6374 21.8698 43.144 21.9461L46.4476 22.4427V24.8428L43.144 25.3394C42.6374 25.4155 42.2345 25.8042 42.14 26.3077C41.7731 28.2639 41.016 30.0908 39.8896 31.738C39.6006 32.1608 39.6106 32.7204 39.9151 33.1323L41.9006 35.8202L40.2034 37.5174L37.5155 35.5319C37.1036 35.2276 36.544 35.2174 36.121 35.5066C34.4738 36.633 32.6469 37.3901 30.6907 37.757C30.1872 37.8515 29.7987 38.2544 29.7224 38.761L29.2258 42.0646H26.8257L26.3291 38.761C26.2528 38.2544 25.8643 37.8515 25.3607 37.757C23.4046 37.3901 21.5777 36.633 19.9305 35.5066C19.5077 35.2176 18.9482 35.2276 18.5362 35.5319L15.8483 37.5174L14.1511 35.8202L16.1365 33.1323C16.4408 32.7204 16.4511 32.1607 16.162 31.738C15.0356 30.0908 14.2786 28.2639 13.9118 26.3079C13.8173 25.8044 13.4145 25.4157 12.9078 25.3396L9.60425 24.843V22.4424Z" fill="black"/>
</g>
<defs>
<clipPath id="clip0_77:347">
<rect width="82" height="82" fill="white"/>
</clipPath>
</defs>
</svg>
