<svg width="88" height="88" viewBox="0 0 88 88" fill="none" xmlns="http://www.w3.org/2000/svg">
<path d="M37.125 35.75V56.375C37.125 56.1962 37.1112 56.0312 37.0837 55.8663C36.85 54.6975 35.8875 53.79 34.6912 53.6388C34.595 53.625 34.485 53.625 34.375 53.625H31.625V63.25L37.125 68.75V77H9.625V70.125L15.125 64.625V57.75H12.375C10.8625 57.75 9.625 58.9874 9.625 60.5V35.75H16.5V38.5H30.25V35.75H37.125Z" fill="#F98800"/>
<path d="M37.125 35.75L9.625 77H37.125V35.75Z" fill="#F05A29"/>
<path d="M86.625 79.7501V86.6251H78.375L81.125 83.8751L79.75 79.7501H82.5L83.875 78.3751L86.625 79.7501Z" fill="#ACDD12"/>
<path d="M78.375 86.6251C78.375 86.6251 70.125 86.6114 70.125 86.6251V79.7501L72.875 78.3751L74.25 79.7501H77L75.625 83.8751L78.375 86.6251Z" fill="#ACDD12"/>
<path d="M81.125 83.8751L78.375 86.6251L75.625 83.8751L77 79.7501H79.75L81.125 83.8751Z" fill="#387F29"/>
<path d="M81.125 19.25H75.625L70.125 20.625V27.5H86.625V20.625L81.125 19.25Z" fill="#AEDEF8"/>
<path d="M81.125 8.25L77 12.375L74.25 11H71.5V12.375C71.5 13.8938 72.7312 15.125 74.25 15.125H74.25V16.5L75.625 19.25H81.125L82.5 16.5V15.125H82.5C84.0188 15.125 85.25 13.8938 85.25 12.375V11H81.125V8.25Z" fill="#FAC8B2"/>
<path d="M78.375 19.25L75.625 24.75L78.375 27.5L81.125 24.75L78.375 19.25Z" fill="#00587E"/>
<path d="M74.25 11H70.125V4.125L75.625 1.375L81.125 2.75L83.875 1.375L86.625 4.125V11H85.25H81.125V8.25L77 12.375L74.25 11Z" fill="#58492F"/>
<path d="M78.375 59.125C78.375 59.125 86.625 59.1112 86.625 59.125V52.25L82.5 50.875L81.125 52.25H79.75L81.125 56.375L78.375 59.125Z" fill="#FCD4EF"/>
<path d="M75.625 56.375L78.375 59.125L81.125 56.375L79.75 52.25H77L75.625 56.375Z" fill="#F249B4"/>
<path d="M70.125 52.25V59.125H78.375L75.625 56.375L77 52.25H75.625L74.25 50.875L70.125 52.25Z" fill="#FCD4EF"/>
<path d="M82.5 46.75V50.875L81.125 52.25H75.625L74.25 50.875V46.75H75.625C76.3812 46.75 77.0687 46.4475 77.5637 45.9387C78.0725 45.4437 78.375 44.7562 78.375 44C78.375 45.5125 79.6125 46.75 81.125 46.75H82.5Z" fill="#FAC8B2"/>
<path d="M85.25 45.375C85.25 47.2725 84.48 48.9913 83.2425 50.2425C83.0087 50.4762 82.7613 50.6825 82.5 50.875V46.75H81.125C79.6125 46.75 78.375 45.5125 78.375 44C78.375 44.7562 78.0725 45.4437 77.5637 45.9387C77.0687 46.4475 76.3812 46.75 75.625 46.75H74.25V50.875C73.9887 50.6825 73.7413 50.4762 73.5075 50.2425C72.27 48.9913 71.5 47.2725 71.5 45.375C71.5 42.8312 72.875 40.6175 74.9375 39.4212C75.9412 38.83 77.1238 38.5 78.375 38.5C79.6262 38.5 80.8088 38.83 81.8125 39.4212C82.335 39.7238 82.8162 40.0812 83.2425 40.5074C84.48 41.7587 85.25 43.4775 85.25 45.375V45.375Z" fill="#B71E71"/>
<path d="M82.5 37.125C82.5 37.9775 82.2387 38.7613 81.8125 39.4212C80.8088 38.83 79.6262 38.5 78.375 38.5C77.1238 38.5 75.9412 38.83 74.9375 39.4212C74.5113 38.7613 74.25 37.9775 74.25 37.125C74.25 34.8425 76.0925 33 78.375 33C80.6575 33 82.5 34.8425 82.5 37.125Z" fill="#931D5B"/>
<path d="M83.875 67.3751V71.5001L72.875 68.7501V67.3751C72.875 65.8626 74.1125 64.6251 75.625 64.6251H81.125C82.6375 64.6251 83.875 65.8626 83.875 67.3751Z" fill="#F05A29"/>
<path d="M86.625 73.5626C86.625 74.7038 85.7038 75.6251 84.5625 75.6251H83.875V78.3751L82.5 79.7501H74.25L72.875 78.3751V75.6251H72.1875C71.0462 75.6251 70.125 74.7038 70.125 73.5626C70.125 72.4213 71.0462 71.5001 72.1875 71.5001H72.875V68.7501L83.875 71.5001H84.5625C85.7038 71.5001 86.625 72.4213 86.625 73.5626Z" fill="#FAC8B2"/>
<path d="M30.25 35.75V38.5H16.5V35.75C16.5 34.2374 17.7375 33 19.25 33H20.625V31.625C20.625 30.1124 21.8625 28.875 23.375 28.875C24.1312 28.875 24.8187 29.1775 25.3137 29.6862C25.8225 30.1813 26.125 30.8688 26.125 31.625V33H27.5C29.0125 33 30.25 34.2374 30.25 35.75Z" fill="#FFEC00"/>
<path d="M15.125 44H20.625V49.5H15.125V44Z" fill="white"/>
<path d="M15.125 55H20.625V60.5H15.125V55Z" fill="white"/>
<path d="M15.125 66.0001H20.625V71.5001H15.125V66.0001Z" fill="white"/>
<path d="M15.125 57.75V64.625L9.625 70.125H1.375V56.375L5.5 52.25H9.625V60.5C9.625 58.9874 10.8625 57.75 12.375 57.75H15.125Z" fill="#FAC8B2"/>
<path d="M45.375 56.375V63.6212L37.125 55.9212V52.25H41.25L45.375 56.375Z" fill="#FAC8B2"/>
<path d="M45.1825 68.75H37.125L31.625 63.25V53.625H34.375C34.485 53.625 34.595 53.625 34.6912 53.6388C35.8875 53.79 36.85 54.6975 37.0837 55.8663C37.1112 56.0313 37.125 56.1962 37.125 56.375V61.2287L45.1825 68.75Z" fill="#FAC8B2"/>
<path d="M34.6912 53.6388C34.595 53.625 34.485 53.625 34.375 53.625H31.625V56.1L27.5 52.25V49.5H30.25L34.6912 53.6388Z" fill="#00A8E7"/>
<path d="M50.875 68.75L48.125 71.5L45.1825 68.75L37.125 61.2287V55.9213L45.375 63.6212L50.875 68.75Z" fill="#00A8E7"/>
<path d="M37.125 68.7501H45.375V86.6251H37.125V68.7501Z" fill="#00587E"/>
<path d="M1.375 70.1251H9.625V86.6251H1.375V70.1251Z" fill="#00587E"/>
<path d="M31.625 45.375H26.125C25.3657 45.375 24.75 44.7593 24.75 44C24.75 43.2407 25.3657 42.625 26.125 42.625H31.625C32.3843 42.625 33 43.2407 33 44C33 44.7593 32.3843 45.375 31.625 45.375Z" fill="#F05A29"/>
<path d="M27.5 60.5H26.125C25.3657 60.5 24.75 59.8843 24.75 59.125C24.75 58.3657 25.3657 57.75 26.125 57.75H27.5C28.2593 57.75 28.875 58.3657 28.875 59.125C28.875 59.8843 28.2593 60.5 27.5 60.5Z" fill="#F98800"/>
<path d="M31.625 72.8751H26.125C25.3657 72.8751 24.75 72.2595 24.75 71.5001C24.75 70.7408 25.3657 70.1251 26.125 70.1251H31.625C32.3843 70.1251 33 70.7408 33 71.5001C33 72.2595 32.3843 72.8751 31.625 72.8751Z" fill="#F98800"/>
<path d="M23.375 23.375C29.4501 23.375 34.375 18.4501 34.375 12.375C34.375 6.29987 29.4501 1.375 23.375 1.375C17.2999 1.375 12.375 6.29987 12.375 12.375C12.375 18.4501 17.2999 23.375 23.375 23.375Z" fill="#FFEC00"/>
<path d="M34.375 12.375C34.375 18.4508 29.4508 23.375 23.375 23.375C19.2775 23.375 15.7042 21.1355 13.8119 17.8132C15.4155 18.7275 17.2717 19.25 19.25 19.25C25.3258 19.25 30.25 14.3258 30.25 8.25004C30.25 6.27176 29.7275 4.4155 28.8132 2.81189C32.1355 4.70428 34.375 8.27752 34.375 12.375Z" fill="#FCC200"/>
<path d="M26.125 13.75H23.375C22.6157 13.75 22 13.1343 22 12.375V6.875C22 6.11566 22.6157 5.5 23.375 5.5C24.1343 5.5 24.75 6.11566 24.75 6.875V11H26.125C26.8843 11 27.5 11.6157 27.5 12.375C27.5 13.1343 26.8843 13.75 26.125 13.75Z" fill="#E22526"/>
<path d="M62.8473 38.9026C62.3102 38.3659 61.4398 38.3659 60.9027 38.9026C60.3657 39.4398 60.3657 40.3102 60.9027 40.8473L62.6804 42.625H44C43.2407 42.625 42.625 43.2406 42.625 44C42.625 44.7593 43.2407 45.375 44 45.375H62.6804L60.9027 47.1526C60.3657 47.6898 60.3657 48.5602 60.9027 49.0973C61.1712 49.3657 61.523 49.5 61.875 49.5C62.227 49.5 62.5788 49.3657 62.8473 49.0973L66.9723 44.9723C67.5093 44.4352 67.5093 43.5648 66.9723 43.0276L62.8473 38.9026Z" fill="#E22526"/>
<path d="M44 38.5H50.875C54.6658 38.5 57.75 35.4158 57.75 31.625V22C57.75 19.7255 59.6005 17.875 61.875 17.875H62.6804L60.9027 19.6526C60.3657 20.1898 60.3657 21.0602 60.9027 21.5973C61.1712 21.8657 61.523 22 61.875 22C62.227 22 62.5788 21.8657 62.8473 21.5973L66.9723 17.4723C67.5093 16.9352 67.5093 16.0648 66.9723 15.5276L62.8473 11.4026C62.3102 10.8659 61.4398 10.8659 60.9027 11.4026C60.3657 11.9398 60.3657 12.8102 60.9027 13.3473L62.6804 15.125H61.875C58.0842 15.125 55 18.2092 55 22V31.625C55 33.8995 53.1495 35.75 50.875 35.75H44C43.2407 35.75 42.625 36.3656 42.625 37.125C42.625 37.8843 43.2407 38.5 44 38.5Z" fill="#E22526"/>
<path d="M62.8473 66.4027C62.3102 65.8659 61.4398 65.8659 60.9027 66.4027C60.3657 66.9398 60.3657 67.8102 60.9027 68.3473L62.6804 70.125H61.875C59.6005 70.125 57.75 68.2745 57.75 66V56.375C57.75 52.5842 54.6658 49.5 50.875 49.5H44C43.2407 49.5 42.625 50.1157 42.625 50.875C42.625 51.6343 43.2407 52.25 44 52.25H50.875C53.1495 52.25 55 54.1005 55 56.375V66C55 69.7908 58.0842 72.875 61.875 72.875H62.6804L60.9027 74.6527C60.3657 75.1898 60.3657 76.0602 60.9027 76.5973C61.1712 76.8657 61.523 77 61.875 77C62.227 77 62.5788 76.8657 62.8473 76.5973L66.9723 72.4723C67.5093 71.9352 67.5093 71.0648 66.9723 70.5277L62.8473 66.4027Z" fill="#E22526"/>
<path d="M83.875 16.5V16.2644C85.4756 15.6969 86.625 14.1676 86.625 12.375C87.3843 12.375 88 11.7594 88 11V4.12503C88 3.7603 87.8551 3.41068 87.5973 3.15269L84.8473 0.402695C84.4289 -0.015915 83.7892 -0.119309 83.26 0.145218L80.965 1.29279L75.9585 0.0411528C75.6396 -0.0387422 75.3036 -0.0016481 75.01 0.145218L69.51 2.89522C69.0442 3.12819 68.75 3.6042 68.75 4.12503V11C68.75 11.7594 69.3657 12.375 70.125 12.375C70.125 14.1676 71.2744 15.6969 72.875 16.2644V16.5C72.875 16.7135 72.9247 16.924 73.0202 17.115L73.6286 18.3319L69.7915 19.2912C69.1794 19.4441 68.75 19.9941 68.75 20.625V27.5C68.75 28.2594 69.3657 28.875 70.125 28.875H86.625C87.3843 28.875 88 28.2594 88 27.5V20.625C88 19.9941 87.5706 19.4441 86.9585 19.2912L83.1214 18.3319L83.7298 17.115C83.8253 16.924 83.875 16.7135 83.875 16.5V16.5ZM71.5 4.97484L75.785 2.83228L80.7915 4.08391C81.1101 4.16364 81.4463 4.12654 81.74 3.97984L83.6034 3.04813L85.25 4.69453V9.62503H82.5V8.25003C82.5 7.69395 82.165 7.1926 81.6512 6.97977C81.1371 6.76677 80.5461 6.88443 80.1527 7.27769L76.7284 10.7019L74.865 9.77022C74.674 9.67471 74.4635 9.62503 74.25 9.62503H71.5V4.97484ZM78.375 25.5555L77.2981 24.4785L78.375 22.3246L79.4519 24.4785L78.375 25.5555ZM71.5 21.6986L75.7942 20.625H76.1502L74.3952 24.135C74.1305 24.6644 74.2342 25.3038 74.6527 25.7224L75.0553 26.125H71.5V21.6986ZM85.25 26.125H81.6947L82.0973 25.7224C82.5158 25.3038 82.6195 24.6644 82.3548 24.135L80.5998 20.625H80.9558L85.25 21.6986V26.125ZM82.5 13.75C81.7407 13.75 81.125 14.3657 81.125 15.125V16.1754L80.2752 17.875H76.4748L75.625 16.1754V15.125C75.625 14.3657 75.0093 13.75 74.25 13.75C73.4918 13.75 72.875 13.1332 72.875 12.375H73.9254L76.385 13.6048C76.5806 13.7025 76.7909 13.75 76.9997 13.75C77.3563 13.75 77.7083 13.6114 77.9723 13.3474L79.8371 11.4826C80.0325 12.0039 80.5354 12.375 81.125 12.375H83.875C83.875 13.1332 83.2582 13.75 82.5 13.75Z" fill="black"/>
<path d="M87.0599 50.9455L85.0247 50.2671C86.0635 48.8522 86.625 47.1538 86.625 45.375C86.625 43.1809 85.771 41.1088 84.2149 39.5351C84.0112 39.3315 83.7898 39.1395 83.5588 38.9552C83.7652 38.3664 83.875 37.7494 83.875 37.125C83.875 34.0923 81.4077 31.625 78.375 31.625C75.3423 31.625 72.875 34.0923 72.875 37.125C72.875 37.7522 72.9856 38.372 73.194 38.9632C71.2774 40.5182 70.125 42.8745 70.125 45.375C70.125 47.1524 70.6858 48.8495 71.726 50.2669L69.6901 50.9455C69.1287 51.1326 68.75 51.6582 68.75 52.25V59.125C68.75 59.8843 69.3657 60.5 70.125 60.5H86.625C87.3843 60.5 88 59.8843 88 59.125V52.25C88 51.6582 87.6213 51.1326 87.0599 50.9455ZM81.125 50.3054L80.5555 50.875H76.1945L75.625 50.3054V48.125C76.6573 48.125 77.6234 47.7519 78.3718 47.0692C79.1024 47.7254 80.0679 48.125 81.125 48.125V50.3054ZM79.5518 56.0036L78.375 57.1805L77.1982 56.0036L77.9911 53.625H78.7589L79.5518 56.0036ZM78.375 34.375C79.8913 34.375 81.125 35.6087 81.125 37.125C81.125 37.2774 81.1107 37.4293 81.0855 37.5797C80.2246 37.2809 79.3082 37.125 78.375 37.125C77.4409 37.125 76.5239 37.2812 75.6644 37.5794C75.6392 37.4291 75.625 37.2773 75.625 37.125C75.625 35.6087 76.8587 34.375 78.375 34.375ZM75.6352 40.606C76.4471 40.1278 77.3946 39.875 78.375 39.875C79.3554 39.875 80.3029 40.1278 81.1233 40.611C81.5681 40.8687 81.9434 41.1528 82.2648 41.4742C83.3031 42.5243 83.875 43.9095 83.875 45.375C83.875 45.6867 83.8492 45.9947 83.7985 46.2966C83.6111 45.76 83.1006 45.375 82.5 45.375H81.125C80.3668 45.375 79.75 44.7582 79.75 44C79.75 43.2407 79.1343 42.625 78.375 42.625C77.6157 42.625 77 43.2407 77 44C77 44.3667 76.8597 44.7051 76.6051 44.9529C76.5958 44.9618 76.5868 44.9708 76.5779 44.9801C76.3301 45.2347 75.9917 45.375 75.625 45.375H74.25C73.6496 45.375 73.139 45.7599 72.9515 46.2965C72.9008 45.9945 72.875 45.6867 72.875 45.375C72.875 43.3914 73.9039 41.6102 75.6352 40.606ZM71.5 53.241L73.8786 52.4482L74.6527 53.2223C74.7881 53.3577 74.9492 53.4609 75.1241 53.5294L74.3205 55.9401C74.1558 56.4342 74.2844 56.9791 74.6527 57.3473L75.0553 57.75H71.5V53.241ZM85.25 57.75H81.6947L82.0973 57.3473C82.4656 56.9791 82.5942 56.4342 82.4295 55.9401L81.6259 53.5294C81.8008 53.4609 81.9619 53.3577 82.0973 53.2223L82.8714 52.4482L85.25 53.241V57.75Z" fill="black"/>
<path d="M20.625 42.625H15.125C14.3657 42.625 13.75 43.2407 13.75 44V49.5C13.75 50.2593 14.3657 50.875 15.125 50.875H20.625C21.3843 50.875 22 50.2593 22 49.5V44C22 43.2407 21.3843 42.625 20.625 42.625ZM19.25 48.125H16.5V45.375H19.25V48.125Z" fill="black"/>
<path d="M51.8128 67.7444L46.75 63.0233V56.375C46.75 56.0103 46.6051 55.6606 46.3473 55.4027L42.2223 51.2777C41.9644 51.0199 41.6147 50.875 41.25 50.875H38.5V35.75C38.5 34.9907 37.8843 34.375 37.125 34.375H31.3885C30.8208 32.7747 29.2925 31.625 27.5 31.625C27.5 30.5155 27.069 29.4824 26.2858 28.7137C25.5174 27.9309 24.4845 27.5 23.375 27.5C21.1005 27.5 19.25 29.3505 19.25 31.625C17.4575 31.625 15.9292 32.7747 15.3615 34.375H9.625C8.86566 34.375 8.25 34.9907 8.25 35.75V50.875H5.5C5.13527 50.875 4.78564 51.0199 4.52766 51.2777L0.402664 55.4027C0.144852 55.6606 0 56.0103 0 56.375V70.125V86.625C0 87.3843 0.615662 88 1.375 88H9.625C10.3843 88 11 87.3843 11 86.625V78.375H35.75V86.625C35.75 87.3843 36.3657 88 37.125 88H45.375C46.1343 88 46.75 87.3843 46.75 86.625V72.097L47.1861 72.5046C47.4508 72.752 47.788 72.875 48.1248 72.875C48.4773 72.875 48.8293 72.7402 49.0973 72.4723L51.8473 69.7223C52.111 69.4585 52.2564 69.099 52.2498 68.726C52.2433 68.353 52.0855 67.9987 51.8128 67.7444ZM44 56.9445V60.4569L38.3136 55.1496C38.1314 54.576 37.8326 54.0585 37.4429 53.625H40.6805L44 56.9445ZM37.6945 67.375L33 62.6805V55H34.375C34.4223 55 34.4695 54.9987 34.4967 55C34.5041 55.001 34.5115 55.002 34.5188 55.0029C35.0808 55.074 35.5565 55.4898 35.7099 56.0304L35.75 61.2394C35.753 61.6169 35.9108 61.9764 36.1867 62.2339L41.6945 67.375H37.6945ZM30.3757 53.0531L28.875 51.6525V50.875H29.7087L31.2431 52.3049C30.8566 52.4165 30.541 52.6928 30.3757 53.0531ZM17.875 35.75C17.875 34.9918 18.4918 34.375 19.25 34.375H20.625C21.3843 34.375 22 33.7593 22 33V31.625C22 30.8668 22.6168 30.25 23.375 30.25C23.7419 30.25 24.0803 30.3903 24.328 30.6449C24.3368 30.654 24.3458 30.6631 24.3549 30.6718C24.6097 30.9197 24.75 31.2581 24.75 31.625V33C24.75 33.7593 25.3657 34.375 26.125 34.375H27.5C28.2582 34.375 28.875 34.9918 28.875 35.75V37.125H17.875V35.75ZM2.75 56.9445L6.0695 53.625H8.25V60.5C8.25 61.2593 8.86566 61.875 9.625 61.875C10.3843 61.875 11 61.2593 11 60.5C11 59.7418 11.6168 59.125 12.375 59.125H13.75V60.5V64.0555L9.0555 68.75H2.75V56.9445ZM16.5 67.375H19.25V70.125H16.5V67.375ZM2.75 85.25V71.5H8.25V85.25H2.75ZM11 75.625V70.6947L13.75 67.9447V71.5C13.75 72.2593 14.3657 72.875 15.125 72.875H20.625C21.3843 72.875 22 72.2593 22 71.5V66C22 65.2407 21.3843 64.625 20.625 64.625H16.5V61.875H20.625C21.3843 61.875 22 61.2593 22 60.5V55C22 54.2407 21.3843 53.625 20.625 53.625H15.125C14.3657 53.625 13.75 54.2407 13.75 55V56.375H12.375C11.8931 56.375 11.4302 56.4581 11 56.6107V52.25V37.125H15.125V38.5C15.125 39.2593 15.7407 39.875 16.5 39.875H30.25C31.0093 39.875 31.625 39.2593 31.625 38.5V37.125H35.75V50.875V52.25V52.489C35.6175 52.4415 35.4817 52.4012 35.3434 52.3671L31.1874 48.4941C30.933 48.2569 30.5979 48.125 30.25 48.125H27.5C26.7407 48.125 26.125 48.7407 26.125 49.5V52.25C26.125 52.6312 26.2831 52.9951 26.5617 53.2552L30.25 56.6977V63.25C30.25 63.6147 30.3949 63.9644 30.6527 64.2223L35.75 69.3197V75.625H11ZM16.5 59.125V56.375H19.25V59.125H16.5ZM44 85.25H38.5V70.125H44V85.25ZM48.0926 69.5877L46.1214 67.7454C46.121 67.745 46.1205 67.7447 46.1201 67.7443L38.4955 60.6271L38.4835 59.07L44.4372 64.6268L48.8959 68.7846L48.0926 69.5877Z" fill="black"/>
<path d="M26.125 45.375H31.625C32.3843 45.375 33 44.7593 33 44C33 43.2407 32.3843 42.625 31.625 42.625H26.125C25.3657 42.625 24.75 43.2407 24.75 44C24.75 44.7593 25.3657 45.375 26.125 45.375Z" fill="black"/>
<path d="M26.125 60.5H27.5C28.2593 60.5 28.875 59.8843 28.875 59.125C28.875 58.3657 28.2593 57.75 27.5 57.75H26.125C25.3657 57.75 24.75 58.3657 24.75 59.125C24.75 59.8843 25.3657 60.5 26.125 60.5Z" fill="black"/>
<path d="M31.625 70.1251H26.125C25.3657 70.1251 24.75 70.7408 24.75 71.5001C24.75 72.2595 25.3657 72.8751 26.125 72.8751H31.625C32.3843 72.8751 33 72.2595 33 71.5001C33 70.7408 32.3843 70.1251 31.625 70.1251Z" fill="black"/>
<path d="M23.375 24.75C16.5514 24.75 11 19.1986 11 12.375C11 5.55136 16.5514 0 23.375 0C30.1986 0 35.75 5.55136 35.75 12.375C35.75 19.1986 30.1986 24.75 23.375 24.75ZM23.375 2.75C18.0677 2.75 13.75 7.06769 13.75 12.375C13.75 17.6823 18.0677 22 23.375 22C28.6823 22 33 17.6823 33 12.375C33 7.06769 28.6823 2.75 23.375 2.75Z" fill="black"/>
<path d="M26.125 13.75H23.375C22.6157 13.75 22 13.1343 22 12.375V6.875C22 6.11566 22.6157 5.5 23.375 5.5C24.1343 5.5 24.75 6.11566 24.75 6.875V11H26.125C26.8843 11 27.5 11.6157 27.5 12.375C27.5 13.1343 26.8843 13.75 26.125 13.75Z" fill="black"/>
<path d="M62.8473 38.9027C62.3102 38.3659 61.4398 38.3659 60.9027 38.9027C60.3657 39.4398 60.3657 40.3103 60.9027 40.8474L62.6804 42.625H44C43.2407 42.625 42.625 43.2407 42.625 44C42.625 44.7594 43.2407 45.375 44 45.375H62.6804L60.9027 47.1527C60.3657 47.6898 60.3657 48.5603 60.9027 49.0974C61.1712 49.3658 61.523 49.5 61.875 49.5C62.227 49.5 62.5788 49.3658 62.8473 49.0974L66.9723 44.9724C67.5093 44.4353 67.5093 43.5648 66.9723 43.0277L62.8473 38.9027Z" fill="black"/>
<path d="M44 38.5H50.875C54.6658 38.5 57.75 35.4159 57.75 31.625V22C57.75 19.7255 59.6005 17.875 61.875 17.875H62.6804L60.9027 19.6527C60.3657 20.1898 60.3657 21.0603 60.9027 21.5974C61.1712 21.8658 61.523 22 61.875 22C62.227 22 62.5788 21.8658 62.8473 21.5974L66.9723 17.4724C67.5093 16.9353 67.5093 16.0648 66.9723 15.5277L62.8473 11.4027C62.3102 10.8659 61.4398 10.8659 60.9027 11.4027C60.3657 11.9398 60.3657 12.8103 60.9027 13.3474L62.6804 15.125H61.875C58.0842 15.125 55 18.2092 55 22V31.625C55 33.8995 53.1495 35.75 50.875 35.75H44C43.2407 35.75 42.625 36.3657 42.625 37.125C42.625 37.8844 43.2407 38.5 44 38.5Z" fill="black"/>
<path d="M62.8473 66.4027C62.3102 65.8659 61.4398 65.8659 60.9027 66.4027C60.3657 66.9398 60.3657 67.8102 60.9027 68.3473L62.6804 70.125H61.875C59.6005 70.125 57.75 68.2745 57.75 66V56.375C57.75 52.5842 54.6658 49.5 50.875 49.5H44C43.2407 49.5 42.625 50.1157 42.625 50.875C42.625 51.6343 43.2407 52.25 44 52.25H50.875C53.1495 52.25 55 54.1005 55 56.375V66C55 69.7908 58.0842 72.875 61.875 72.875H62.6804L60.9027 74.6527C60.3657 75.1898 60.3657 76.0602 60.9027 76.5973C61.1712 76.8657 61.523 77 61.875 77C62.227 77 62.5788 76.8657 62.8473 76.5973L66.9723 72.4723C67.5093 71.9352 67.5093 71.0648 66.9723 70.5277L62.8473 66.4027Z" fill="black"/>
<path d="M87.24 78.5202L85.25 77.5252V76.931C86.817 76.6114 88 75.2225 88 73.5625C88 71.9024 86.8172 70.5137 85.25 70.1943V67.375C85.25 65.1005 83.3995 63.25 81.125 63.25H75.625C73.3505 63.25 71.5 65.1005 71.5 67.375V68.75V70.194C69.933 70.5136 68.75 71.9025 68.75 73.5625C68.75 75.2225 69.933 76.6114 71.5 76.931V77.5252L69.51 78.5202C69.0442 78.7532 68.75 79.2292 68.75 79.75V86.625C68.75 87.3843 69.3657 88 70.125 88H86.625C87.3843 88 88 87.3843 88 86.625V79.75C88 79.2292 87.7058 78.7532 87.24 78.5202ZM74.25 67.375C74.25 66.6168 74.8668 66 75.625 66H81.125C81.8832 66 82.5 66.6168 82.5 67.375V69.739L74.25 67.6765V67.375ZM72.1875 72.875H72.875C73.6343 72.875 74.25 72.2593 74.25 71.5V70.511L83.5415 72.8339C83.6518 72.8616 83.7637 72.875 83.875 72.875H84.5625C84.9417 72.875 85.25 73.1833 85.25 73.5625C85.25 73.9417 84.9417 74.25 84.5625 74.25H83.875C83.1157 74.25 82.5 74.8657 82.5 75.625V77.8055L81.9305 78.375H74.8195L74.25 77.8055V75.625C74.25 74.8657 73.6343 74.25 72.875 74.25H72.1875C71.8083 74.25 71.5 73.9417 71.5 73.5625C71.5 73.1833 71.8083 72.875 72.1875 72.875ZM79.5518 83.5036L78.375 84.6805L77.1982 83.5036L77.9911 81.125H78.7589L79.5518 83.5036ZM71.5 80.5998L72.6034 80.0481L73.2777 80.7223C73.5356 80.9801 73.8853 81.125 74.25 81.125H75.0922L74.3205 83.4401C74.1558 83.9342 74.2844 84.4791 74.6527 84.8473L75.0553 85.25H71.5V80.5998ZM85.25 85.25H81.6947L82.0973 84.8473C82.4656 84.4791 82.5942 83.9342 82.4295 83.4401L81.6578 81.125H82.5C82.8647 81.125 83.2144 80.9801 83.4723 80.7223L84.1466 80.0481L85.25 80.5998V85.25Z" fill="black"/>
</svg>
