<svg width="76" height="76" viewBox="0 0 76 76" fill="none" xmlns="http://www.w3.org/2000/svg">
<path d="M73.625 15.4375C73.625 18.4181 72.0575 21.0188 69.7063 22.4913L71.2381 35.4944C71.25 35.5775 71.25 35.6725 71.25 35.7556C71.25 36.9906 70.2406 38 69.0056 38H66.8087H61.6194C60.3844 38 59.375 36.9906 59.375 35.7556C59.375 35.6725 59.375 35.5775 59.3869 35.4944L59.8263 31.7775L60.5625 33.25H64.125V26.125L59.375 24.9375V21.375H61.75C63.0563 21.375 64.125 20.3063 64.125 19V16.625C64.125 15.3187 63.0563 14.25 61.75 14.25H57.0831C57.665 10.2244 61.1206 7.125 65.3125 7.125C69.9081 7.125 73.625 10.8419 73.625 15.4375V15.4375Z" fill="#CCD1D9"/>
<path d="M64.125 26.125V33.25H60.5625L59.8263 31.7775L59.375 30.875H55.8125L54.625 33.25H49.875L48.6875 30.875H45.125L43.9375 33.25H40.375V30.2575V26.125L45.125 24.9375V21.375H59.375V24.9375L64.125 26.125Z" fill="#B4DD7F"/>
<path d="M64.125 16.625V19C64.125 20.3063 63.0562 21.375 61.75 21.375H59.375H45.125H32.8344C33.1075 20.235 33.25 19.0356 33.25 17.8125C33.25 16.5894 33.1075 15.39 32.8344 14.25H57.0831H61.75C63.0562 14.25 64.125 15.3187 64.125 16.625Z" fill="#B4DD7F"/>
<path d="M17.8125 28.5C23.7144 28.5 28.5 23.7144 28.5 17.8125C28.5 11.9106 23.7144 7.125 17.8125 7.125C12.3025 7.125 7.76625 11.2931 7.19625 16.6488C7.14875 17.0288 7.125 17.4206 7.125 17.8125C7.125 21.5175 9.01312 24.7831 11.875 26.695V32.0625C7.77812 30.3525 4.57188 26.9325 3.17063 22.6931C2.64813 21.1613 2.375 19.5225 2.375 17.8125C2.375 9.28625 9.28625 2.375 17.8125 2.375C25.1156 2.375 31.2312 7.44562 32.8344 14.25C33.1075 15.39 33.25 16.5894 33.25 17.8125C33.25 19.0356 33.1075 20.235 32.8344 21.375C31.2787 27.9656 25.5075 32.9175 18.525 33.2381L17.575 28.5H17.5869H17.8125Z" fill="#B4DD7F"/>
<path d="M43.9375 33.25L45.125 30.875H48.6875L49.875 33.25H54.625L55.8125 30.875H59.375L59.8263 31.7775L59.3869 35.4944C59.375 35.5775 59.375 35.6725 59.375 35.7556C59.375 36.9906 60.3844 38 61.6194 38H66.8087C66.7612 38.9738 66.9156 39.9713 67.3075 40.9094L67.3431 41.0163C68.3762 43.4981 70.7987 45.125 73.4944 45.125H73.625V48.6875V52.25H73.4944C70.7987 52.25 68.3762 53.8769 67.3431 56.3588L67.3075 56.4656C66.2744 58.9594 66.8444 61.8094 68.7444 63.7094L68.8394 63.8044L63.8044 68.8394L63.7094 68.7444C61.8094 66.8444 58.9594 66.2744 56.4656 67.3075L56.3587 67.3431C53.8769 68.3763 52.25 70.7988 52.25 73.4944V73.625H45.125V73.4944C45.125 70.7988 43.4981 68.3763 41.0163 67.3431L40.9331 67.3194C38.4275 66.2863 35.5537 66.8563 33.6419 68.7681L33.5706 68.8394L28.5356 63.8044L28.6306 63.7094C30.5306 61.8094 31.1006 58.9594 30.0675 56.4656L30.0319 56.3588C28.9988 53.8769 26.5763 52.25 23.8806 52.25H23.75V48.6875V45.125H23.8806C26.5763 45.125 28.9988 43.4981 30.0319 41.0163L30.0675 40.9094C31.1006 38.4156 30.5306 35.5656 28.6306 33.6656L28.5356 33.5706L33.5706 28.5356L33.6419 28.6069C35.4112 30.3763 38.0119 31.0056 40.375 30.2575V33.25H43.9375ZM61.75 48.6875C61.75 41.4675 55.9075 35.625 48.6875 35.625C41.4675 35.625 35.625 41.4675 35.625 48.6875C35.625 55.9075 41.4675 61.75 48.6875 61.75C55.9075 61.75 61.75 55.9075 61.75 48.6875Z" fill="#FFC729"/>
<path d="M48.6875 35.625C55.9075 35.625 61.75 41.4675 61.75 48.6875C61.75 55.9075 55.9075 61.75 48.6875 61.75C41.4675 61.75 35.625 55.9075 35.625 48.6875C35.625 41.4675 41.4675 35.625 48.6875 35.625ZM57 48.6875C57 44.0919 53.2831 40.375 48.6875 40.375C44.0919 40.375 40.375 44.0919 40.375 48.6875C40.375 53.2831 44.0919 57 48.6875 57C53.2831 57 57 53.2831 57 48.6875Z" fill="#FCD770"/>
<path d="M16.8981 52.25L20.1875 73.625H2.375L5.66437 52.25H16.8981Z" fill="#FF826E"/>
<path d="M6.38875 47.5L7.125 42.75H15.4375L16.8981 52.25H5.66438L6.38875 47.5Z" fill="#FC6E51"/>
<path d="M11.875 32.0625V26.695V26.3625C11.875 24.9969 12.92 23.8806 14.25 23.7619C14.3331 23.75 14.4044 23.75 14.4875 23.75C15.7344 23.75 16.8031 24.6287 17.0406 25.8519L17.575 28.5L18.525 33.2381L18.8694 34.9481C18.9525 35.3994 19 35.8506 19 36.3137C19 38.1544 18.2637 39.9237 16.9694 41.2181L15.4375 42.75H7.125L2.71937 28.4406C2.49375 27.6925 2.375 26.9087 2.375 26.125C2.375 24.9375 2.64813 23.7619 3.15875 22.6931H3.17063C4.57188 26.9325 7.77812 30.3525 11.875 32.0625V32.0625Z" fill="#F0D0B4"/>
<path d="M14.25 23.7619C12.92 23.8807 11.875 24.9969 11.875 26.3626V26.6951C9.01312 24.7832 7.125 21.5176 7.125 17.8126C7.125 17.4207 7.14875 17.0288 7.19625 16.6488L11.8156 18.1926C13.2644 18.6676 14.25 20.0332 14.25 21.5651V23.7501V23.7619Z" fill="#F0D0B4"/>
<path d="M68.4024 40.4522C68.2326 40.0413 68.1186 39.6174 68.0532 39.1875H69.0056C70.8985 39.1875 72.4375 37.6485 72.4375 35.7568C72.4375 35.6214 72.4304 35.4873 72.4137 35.3566L70.9674 23.0613C73.3887 21.2705 74.8125 18.4739 74.8125 15.4375C74.8125 10.1994 70.5506 5.9375 65.3125 5.9375C60.9674 5.9375 57.1876 8.93713 56.1189 13.0625H33.7369C31.6872 6.20469 25.3282 1.1875 17.8125 1.1875C8.645 1.1875 1.1875 8.645 1.1875 17.8125C1.1875 19.4809 1.43569 21.1054 1.90119 22.6456C1.44163 23.7464 1.1875 24.9375 1.1875 26.1297C1.1875 27.0334 1.32169 27.9288 1.58769 28.7909L5.91019 42.8379L0.990376 74.8125H21.5721L16.7022 43.1644L17.8066 42.0601C19.3206 40.5472 20.1875 38.4524 20.1875 36.3126C20.1875 35.7794 20.1341 35.2438 20.0296 34.7189L19.9441 34.2914C26.5656 33.4483 31.9129 28.7648 33.7499 22.5625H43.9375V24.0101L39.1875 25.1976V29.3146C37.4775 29.5711 35.7247 29.0059 34.4197 27.702L33.5801 26.8482L26.8553 33.573L27.7863 34.504C29.3514 36.0703 29.8181 38.4049 28.9287 40.5579C28.082 42.6111 26.1001 43.9375 23.8782 43.9375H22.5625V53.4375H23.8782C26.0989 53.4375 28.082 54.7639 28.9726 56.924C29.8181 58.9713 29.3514 61.3047 27.7922 62.8662L26.8494 63.7961L32.7334 69.6801L33.6431 70.4484L34.4826 69.6089C36.0608 68.0295 38.4156 67.5604 40.5591 68.4463C42.6122 69.293 43.9375 71.2749 43.9375 73.4944V74.8125H53.4375V73.4967C53.4375 71.2761 54.7639 69.293 56.924 68.4024C58.9665 67.5545 61.3047 68.0236 62.8662 69.5828L63.7961 70.5256L70.5256 63.7961L69.5887 62.8722C68.0236 61.3059 67.5569 58.9713 68.4463 56.8171C69.293 54.7639 71.2749 53.4375 73.4967 53.4375H74.8125V43.9375H73.4967C71.2749 43.9375 69.293 42.6111 68.4024 40.4522V40.4522ZM65.3125 8.3125C69.2419 8.3125 72.4375 11.5081 72.4375 15.4375C72.4375 17.9051 71.1799 20.1637 69.0757 21.4783L68.4368 21.8761L70.0554 35.6345C70.0601 35.6761 70.0625 35.7164 70.0625 35.7568C70.0625 36.3387 69.5887 36.8125 69.0056 36.8125H61.6194C61.0375 36.8125 60.5625 36.3387 60.5625 35.7568C60.5625 35.7164 60.5649 35.6761 60.5696 35.6333L60.7097 34.4375H65.3125V25.1976L60.5625 24.0101V22.5625H61.75C63.7141 22.5625 65.3125 20.9641 65.3125 19V16.625C65.3125 14.6609 63.7141 13.0625 61.75 13.0625H58.6031C59.5935 10.2802 62.2654 8.3125 65.3125 8.3125ZM14.4186 43.9375L15.5147 51.0625H7.04781L7.41356 48.6875H10.6875V46.3125H7.77812L8.14387 43.9375H14.4186ZM3.75962 72.4375L6.68206 53.4375H15.8792L18.8017 72.4375H3.75962ZM16.1274 40.3809L14.9459 41.5625H8.00137L3.85819 28.0927C3.68956 27.5452 3.60763 26.9788 3.58388 26.4076C5.23806 29.1496 7.67956 31.3987 10.6875 32.8261V34.4375H13.0625V26.3601C13.0625 25.5764 13.7002 24.9375 14.4851 24.9375C15.1596 24.9375 15.7474 25.4184 15.8804 26.0811L17.7009 35.1833C17.7757 35.5549 17.8125 35.9349 17.8125 36.3126C17.8125 37.8266 17.1974 39.3098 16.1274 40.3809V40.3809ZM18.2091 25.6144C17.9194 24.1692 16.815 23.0601 15.4375 22.6991V21.5674C15.4375 19.5189 14.1313 17.708 12.1897 17.062L8.52269 15.8389C9.4335 11.5449 13.2513 8.3125 17.8125 8.3125C23.0506 8.3125 27.3125 12.5744 27.3125 17.8125C27.3125 22.8047 23.4389 26.9016 18.5416 27.2757L18.2091 25.6144ZM11.438 19.3147C12.4094 19.6389 13.0625 20.5438 13.0625 21.5674V22.8439C12.2419 23.1776 11.5757 23.7939 11.1577 24.567C9.4715 22.9057 8.45975 20.6768 8.341 18.2816L11.438 19.3147ZM19.4762 31.9521L19.0107 29.6269C24.9981 29.0237 29.6875 23.9554 29.6875 17.8125C29.6875 11.2646 24.3604 5.9375 17.8125 5.9375C11.2646 5.9375 5.9375 11.2646 5.9375 17.8125C5.9375 21.5614 7.71163 25.0444 10.6875 27.2852V30.1494C6.30919 27.626 3.5625 22.9639 3.5625 17.8125C3.5625 9.95481 9.95481 3.5625 17.8125 3.5625C25.6702 3.5625 32.0625 9.95481 32.0625 17.8125C32.0625 25.1085 26.6095 31.1279 19.4762 31.9521V31.9521ZM34.2475 15.4375H61.75C62.4055 15.4375 62.9375 15.9707 62.9375 16.625V19C62.9375 19.6543 62.4055 20.1875 61.75 20.1875H34.2499C34.3615 19.4097 34.4375 18.6212 34.4375 17.8125C34.4375 17.0038 34.3603 16.2153 34.2475 15.4375V15.4375ZM41.5625 27.0524L46.3125 25.8649V22.5625H58.1875V25.8649L62.9375 27.0524V32.0625H61.2964L60.1089 29.6875H55.0786L53.8911 32.0625H50.6089L49.4214 29.6875H44.3911L43.2036 32.0625H41.5625V27.0524ZM72.4375 51.1338C69.6908 51.5054 67.3241 53.3081 66.2055 56.0168C65.132 58.6209 65.5357 61.5505 67.2113 63.7521L63.7521 67.2113C61.5541 65.5357 58.6126 65.1368 55.9099 66.2494C53.2962 67.3289 51.5031 69.6908 51.1337 72.4375H46.2412C45.8707 69.6908 44.0705 67.3253 41.3856 66.2174C38.7944 65.151 35.8862 65.5334 33.6336 67.222L30.1637 63.7521C31.8381 61.5529 32.2394 58.6114 31.1256 55.9099C30.0461 53.2962 27.6842 51.5031 24.9375 51.1338V46.2412C27.6842 45.8696 30.0509 44.0669 31.1695 41.3582C32.2442 38.7517 31.8381 35.8197 30.1637 33.6229L33.6252 30.1613C35.2212 31.3702 37.2067 31.9081 39.1875 31.7015V34.4375H44.6714L45.8589 32.0625H47.9536L49.1411 34.4375H55.3589L56.5464 32.0625H58.5984L58.2112 35.3531C58.1946 35.4872 58.1875 35.6214 58.1875 35.7568C58.1875 37.6485 59.7265 39.1875 61.6194 39.1875H65.6723C65.7542 39.9427 65.9371 40.7027 66.2506 41.4651C67.3301 44.0788 69.692 45.8719 72.4387 46.2412V51.1338H72.4375Z" fill="black"/>
<path d="M48.6875 34.4375C40.8298 34.4375 34.4375 40.8298 34.4375 48.6875C34.4375 56.5452 40.8298 62.9375 48.6875 62.9375C56.5452 62.9375 62.9375 56.5452 62.9375 48.6875C62.9375 40.8298 56.5452 34.4375 48.6875 34.4375ZM48.6875 60.5625C42.1396 60.5625 36.8125 55.2354 36.8125 48.6875C36.8125 42.1396 42.1396 36.8125 48.6875 36.8125C55.2354 36.8125 60.5625 42.1396 60.5625 48.6875C60.5625 55.2354 55.2354 60.5625 48.6875 60.5625Z" fill="black"/>
<path d="M48.6875 39.1875C43.4494 39.1875 39.1875 43.4494 39.1875 48.6875C39.1875 53.9256 43.4494 58.1875 48.6875 58.1875C53.9256 58.1875 58.1875 53.9256 58.1875 48.6875C58.1875 43.4494 53.9256 39.1875 48.6875 39.1875ZM48.6875 55.8125C44.7581 55.8125 41.5625 52.6169 41.5625 48.6875C41.5625 44.7581 44.7581 41.5625 48.6875 41.5625C52.6169 41.5625 55.8125 44.7581 55.8125 48.6875C55.8125 52.6169 52.6169 55.8125 48.6875 55.8125Z" fill="black"/>
</svg>
