<svg width="68" height="82" viewBox="0 0 68 82" fill="none" xmlns="http://www.w3.org/2000/svg">
<path d="M34.2923 79.7932C34.1048 79.8657 33.8952 79.8657 33.7077 79.7932C23.9428 76.0118 15.6787 70.2295 9.12017 62.5865C4.35247 57.0285 1.72656 49.667 1.72656 41.8586V14.1293C1.72656 13.7518 1.97041 13.4299 2.30788 13.3548C8.49582 11.9784 14.3218 9.267 19.3845 6.21497C28.3705 0.797811 39.6297 0.797811 48.6157 6.21497C53.6784 9.267 59.5044 11.9784 65.6921 13.3548C66.0294 13.4299 66.2734 13.7518 66.2734 14.1293V41.8586C66.2734 49.667 63.6475 57.0285 58.8792 62.5871C52.3218 70.2289 44.0564 76.0116 34.2923 79.7932Z" fill="#FFD659"/>
<path d="M65.6921 13.355C63.8581 12.947 62.0568 12.4195 60.2969 11.8027V40.8787C60.2969 49.1341 57.671 56.9172 52.9027 62.7942C47.248 69.761 40.3226 75.2649 32.2622 79.2124C32.7407 79.4104 33.2218 79.605 33.7077 79.7931C33.8952 79.8656 34.1048 79.8656 34.2922 79.7931C44.0564 76.0115 52.3217 70.229 58.8792 62.5872C63.6475 57.0286 66.2734 49.667 66.2734 41.8587V14.1294C66.2734 13.7521 66.0296 13.43 65.6921 13.355Z" fill="#FFBD54"/>
<path d="M34.2393 73.3593C34.0871 73.4248 33.9129 73.4248 33.7607 73.3593C25.8394 69.9471 19.0849 65.0218 13.656 58.6946C9.81743 54.2198 7.70312 48.2404 7.70312 41.8588V18.6801C7.70312 18.3331 7.92784 18.0285 8.25835 17.9223C12.9262 16.423 17.6882 14.2166 22.47 11.3337C25.9478 9.23716 29.9349 8.12891 34 8.12891C38.0653 8.12891 42.0524 9.23716 45.5302 11.3335C50.3122 14.2162 55.0742 16.4228 59.7418 17.9221C60.0723 18.0283 60.2971 18.3329 60.2971 18.6799V41.8586C60.2971 48.2404 58.1826 54.22 54.343 58.696C48.9145 65.0222 42.159 69.9479 34.2393 73.3593Z" fill="#4FB1F5"/>
<path d="M59.7419 17.9223C57.9473 17.346 56.1386 16.6639 54.3203 15.8801V40.081C54.3203 47.1363 52.2058 53.7472 48.3663 58.6958C43.9018 64.4479 38.538 69.15 32.3688 72.7375C32.829 72.9499 33.2924 73.1577 33.7607 73.3595C33.9129 73.425 34.0871 73.425 34.2393 73.3595C42.159 69.9481 48.9145 65.0224 54.3428 58.6962C58.1824 54.22 60.2969 48.2404 60.2969 41.8588V18.6801C60.2969 18.3331 60.0722 18.0283 59.7419 17.9223Z" fill="#46A4E6"/>
<path d="M41.9688 52.3555H26.0312C24.931 52.3555 24.0391 51.4636 24.0391 50.3633V38.4102C24.0391 37.3099 24.931 36.418 26.0312 36.418H41.9688C43.069 36.418 43.9609 37.3099 43.9609 38.4102V50.3633C43.9609 51.4636 43.069 52.3555 41.9688 52.3555Z" fill="#FF2C5C"/>
<path d="M41.9688 36.418H35.9922C37.0925 36.418 37.9844 37.3099 37.9844 38.4102V50.3633C37.9844 51.4636 37.0925 52.3555 35.9922 52.3555H41.9688C43.069 52.3555 43.9609 51.4636 43.9609 50.3633V38.4102C43.9609 37.3099 43.069 36.418 41.9688 36.418Z" fill="#E62753"/>
<path d="M34 45.8809C35.6504 45.8809 36.9883 44.543 36.9883 42.8926C36.9883 41.2422 35.6504 39.9043 34 39.9043C32.3496 39.9043 31.0117 41.2422 31.0117 42.8926C31.0117 44.543 32.3496 45.8809 34 45.8809Z" fill="#685C79"/>
<path d="M67.7676 36.3184V34.5752C67.7676 33.75 67.0988 33.0811 66.2734 33.0811C65.4481 33.0811 64.7793 33.75 64.7793 34.5752V41.8588C64.7793 49.3104 62.2811 56.3265 57.7453 61.6144C51.4099 68.9974 43.4225 74.611 34 78.3037C25.576 75.0027 18.2771 70.1509 12.3037 63.8803C11.7343 63.2828 10.7886 63.2599 10.1912 63.8291C9.59371 64.3982 9.5708 65.3439 10.1398 65.9416C12.2015 68.1057 14.4148 70.1057 16.7676 71.9425L19.7559 74.1319C23.8564 76.9536 28.3358 79.3155 33.1675 81.1866C33.436 81.2906 33.7181 81.3428 34.0002 81.3428C34.2821 81.3428 34.5638 81.2908 34.8319 81.1868C44.8259 77.3162 53.2981 71.386 60.0132 63.5603C63.1198 59.9387 65.3584 55.5922 66.6093 50.8615L67.2594 47.8732C67.5955 45.9119 67.7676 43.8996 67.7676 41.859V39.3066V36.3184Z" fill="black"/>
<path d="M3.2207 41.8588V14.6784C8.70121 13.3825 14.3953 10.9676 20.1559 7.49479C28.6952 2.34698 39.3046 2.34678 47.8443 7.49479C50.4071 9.03973 52.9567 10.3741 55.4802 11.4949C55.5083 11.5081 55.5367 11.5208 55.5656 11.5322C58.685 12.9119 61.7645 13.9654 64.7791 14.6784V28.1835C64.7791 29.0086 65.4479 29.6776 66.2732 29.6776C67.0986 29.6776 67.7674 29.0086 67.7674 28.1835V14.1294C67.7674 13.0612 67.0309 12.1218 66.0164 11.8963C63.2724 11.2859 60.462 10.3695 57.6072 9.16006L54.6191 7.79556C52.8871 6.94669 51.1418 5.99328 49.3871 4.93563C39.8959 -0.785934 28.1037 -0.785735 18.6129 4.93563C12.9231 8.36558 7.328 10.7076 1.98336 11.8965C0.968735 12.122 0.232224 13.0614 0.232224 14.1296V23.1699L0.232419 26.1582L0.232422 34.7246V37.7129V41.8588C0.232422 49.0203 2.30051 55.7368 6.21297 61.2819C6.50403 61.6944 6.96582 61.9148 7.43518 61.9148C7.73281 61.9148 8.03343 61.8261 8.2952 61.6414C8.96936 61.1657 9.13033 60.2334 8.6546 59.5592C5.09974 54.5208 3.2207 48.4002 3.2207 41.8588Z" fill="black"/>
<path d="M17.5627 15.7295C18.3024 15.3637 18.6052 14.4676 18.2394 13.7279C17.8736 12.9884 16.9778 12.6854 16.2377 13.051C13.4099 14.4495 10.5715 15.6098 7.80094 16.4997C6.84868 16.8057 6.20879 17.6818 6.20879 18.6801V41.8588C6.20879 48.5972 8.45079 54.9218 12.5216 59.6676C18.0942 66.1619 25.0409 71.2303 33.1699 74.7319C33.4334 74.8453 33.7165 74.902 33.9996 74.902C34.2829 74.902 34.5662 74.8453 34.8301 74.7317C42.9581 71.2305 49.9046 66.1627 55.4768 59.669C59.5484 54.9222 61.7908 48.5972 61.7908 41.859V18.6801C61.7908 17.6818 61.1509 16.8057 60.1987 16.4997C55.6465 15.0376 50.9709 12.8687 46.3014 10.054C42.5911 7.81713 38.3372 6.63477 34 6.63477C29.6628 6.63477 25.4091 7.81713 21.698 10.0544L21.3803 10.245C20.6715 10.6676 20.4394 11.5848 20.8621 12.2936C21.2847 13.0024 22.2015 13.2343 22.9105 12.8117C23.0211 12.7458 23.1312 12.6797 23.2412 12.6133C26.4863 10.657 30.2067 9.62305 34 9.62305C37.7935 9.62305 41.5139 10.657 44.7588 12.6133C49.4622 15.4486 54.1843 17.6589 58.8027 19.1875V41.8586C58.8027 47.8836 56.8161 53.5177 53.2091 57.723C48.0162 63.7745 41.5546 68.5209 34 71.8341C26.4446 68.5205 19.983 63.7739 14.7899 57.7216C11.1833 53.5173 9.19727 47.8836 9.19727 41.8586V19.1875C11.9541 18.2749 14.766 17.1127 17.5627 15.7295Z" fill="black"/>
<path d="M34 24.9629C29.8806 24.9629 26.5293 28.3141 26.5293 32.4336V34.9238H26.0312C24.109 34.9238 22.5449 36.4879 22.5449 38.4102V50.3633C22.5449 52.2855 24.109 53.8496 26.0312 53.8496H41.9688C43.891 53.8496 45.4551 52.2855 45.4551 50.3633V38.4102C45.4551 36.4879 43.891 34.9238 41.9688 34.9238H41.4707V32.4336C41.4707 28.3141 38.1194 24.9629 34 24.9629ZM29.5176 32.4336C29.5176 29.9619 31.5285 27.9512 34 27.9512C36.4715 27.9512 38.4824 29.9619 38.4824 32.4336V34.9238H29.5176V32.4336ZM42.4668 38.4102V50.3633C42.4668 50.6378 42.2435 50.8613 41.9688 50.8613H26.0312C25.7565 50.8613 25.5332 50.6378 25.5332 50.3633V38.4102C25.5332 38.1356 25.7565 37.9121 26.0312 37.9121H41.9688C42.2435 37.9121 42.4668 38.1356 42.4668 38.4102Z" fill="black"/>
<path d="M34 38.4102C31.5285 38.4102 29.5176 40.4209 29.5176 42.8926C29.5176 44.8403 30.7669 46.5012 32.5059 47.118V48.8691C32.5059 49.6943 33.1746 50.3633 34 50.3633C34.8254 50.3633 35.4941 49.6943 35.4941 48.8691V47.118C37.2331 46.5012 38.4824 44.8405 38.4824 42.8926C38.4824 40.4209 36.4715 38.4102 34 38.4102ZM34 44.3867C33.176 44.3867 32.5059 43.7165 32.5059 42.8926C32.5059 42.0686 33.176 41.3984 34 41.3984C34.824 41.3984 35.4941 42.0686 35.4941 42.8926C35.4941 43.7165 34.824 44.3867 34 44.3867Z" fill="black"/>
</svg>
