<svg width="96" height="96" viewBox="0 0 96 96" fill="none" xmlns="http://www.w3.org/2000/svg">
<path d="M73.5 10.5H31.5C29.0147 10.5 27 12.5147 27 15V76.5C27 78.9853 29.0147 81 31.5 81H73.5C75.9853 81 78 78.9853 78 76.5V15C78 12.5147 75.9853 10.5 73.5 10.5Z" fill="#0093B9"/>
<path d="M33 16.5H72V75H33V16.5Z" fill="#E3E4E2"/>
<path d="M63 16.5H42V10.5H48L46.5 4.5H58.5L57 10.5H63V16.5Z" fill="#57C3C1"/>
<path d="M60 91.5H6V43.5H33V67.5H60V91.5Z" fill="#F8BC1E"/>
<path d="M42 67.5H51V76.5H42V67.5Z" fill="#F9DA62"/>
<path d="M60 69H57.75C57.1533 69 56.581 69.2371 56.159 69.659C55.7371 70.081 55.5 70.6533 55.5 71.25V75.0572C55.4998 78.2245 54.2414 81.2621 52.0018 83.5018C49.7621 85.7414 46.7245 86.9998 43.5572 87H36.75C36.1533 87 35.581 87.2371 35.159 87.659C34.7371 88.081 34.5 88.6533 34.5 89.25V91.5H60V69Z" fill="#F5A922"/>
<path d="M15 67.5H24V76.5H15V67.5Z" fill="#F9DA62"/>
<path d="M33 69H30.75C30.1533 69 29.581 69.2371 29.159 69.659C28.7371 70.081 28.5 70.6533 28.5 71.25V75.0572C28.4998 78.2245 27.2414 81.2621 25.0018 83.5018C22.7621 85.7414 19.7245 86.9998 16.5572 87H9.75C9.15326 87 8.58097 87.2371 8.15901 87.659C7.73705 88.081 7.5 88.6533 7.5 89.25V91.5H33V69Z" fill="#F5A922"/>
<path d="M15 43.5H24V52.5H15V43.5Z" fill="#F9DA62"/>
<path d="M33 45H30.75C30.1533 45 29.581 45.2371 29.159 45.659C28.7371 46.081 28.5 46.6533 28.5 47.25V51.0572C28.4998 54.2245 27.2414 57.2621 25.0018 59.5018C22.7621 61.7414 19.7245 62.9998 16.5572 63H9.75C9.15326 63 8.58097 63.2371 8.15901 63.659C7.73705 64.081 7.5 64.6533 7.5 65.25V67.5H33V45Z" fill="#F5A922"/>
<path d="M87.3457 49.1152L47.1083 61.1542L40.5 60L45.3883 55.4062L85.6258 43.3672C86.3881 43.1392 87.2097 43.2232 87.91 43.601C88.6103 43.9787 89.1318 44.6191 89.3599 45.3814C89.5879 46.1436 89.5038 46.9652 89.1261 47.6654C88.7484 48.3656 88.108 48.8871 87.3457 49.1152V49.1152Z" fill="#F8BC1E"/>
<path d="M90.7969 44.9515C90.4548 43.8081 89.6725 42.8475 88.6222 42.2809C87.5719 41.7142 86.3394 41.5881 85.1961 41.9301L44.9586 53.9689C44.7355 54.0358 44.5311 54.1536 44.3614 54.313L39.4729 58.9067C39.2698 59.0975 39.1239 59.341 39.0515 59.61C38.9791 59.879 38.983 60.1628 39.0628 60.4297C39.1426 60.6966 39.2952 60.936 39.5034 61.1211C39.7116 61.3061 39.9672 61.4296 40.2416 61.4775L46.8497 62.6318C47.0791 62.6718 47.3147 62.6579 47.5378 62.5913L80.1868 52.8225L80.3282 55.9116L69.9538 59.0155L70.8137 61.8899L82.3101 58.45C82.6306 58.3541 82.9098 58.1539 83.1035 57.8812C83.2971 57.6084 83.394 57.2787 83.3788 56.9445L83.1495 51.9375L87.7757 50.5534C88.9191 50.2113 89.8797 49.429 90.4463 48.3786C91.0128 47.3282 91.139 46.0958 90.7969 44.9524V44.9515ZM47.0175 59.6158L43.7134 59.0387L46.1576 56.7417L53.0036 54.6938L53.8635 57.5678L47.0175 59.6158ZM56.7375 56.7075L55.8776 53.8335L79.9043 46.6446L80.0456 49.7338L56.7375 56.7075ZM87.8063 46.9532C87.7131 47.1269 87.5865 47.2804 87.4337 47.4049C87.2809 47.5293 87.1049 47.6223 86.916 47.6783L83.0083 48.8474L82.8669 45.7583L86.0561 44.8041C86.3403 44.7191 86.6434 44.7202 86.9269 44.8074C87.2105 44.8946 87.4618 45.064 87.6492 45.294C87.8365 45.524 87.9514 45.8044 87.9794 46.0998C88.0073 46.3951 87.9471 46.6921 87.8063 46.9532V46.9532Z" fill="black"/>
<path d="M60 66H34.5V43.5C34.5 43.1022 34.342 42.7206 34.0607 42.4393C33.7794 42.158 33.3978 42 33 42H6C5.60218 42 5.22064 42.158 4.93934 42.4393C4.65804 42.7206 4.5 43.1022 4.5 43.5V91.5C4.5 91.8978 4.65804 92.2794 4.93934 92.5607C5.22064 92.842 5.60218 93 6 93H60C60.3978 93 60.7794 92.842 61.0607 92.5607C61.342 92.2794 61.5 91.8978 61.5 91.5V67.5C61.5 67.1022 61.342 66.7206 61.0607 66.4393C60.7794 66.158 60.3978 66 60 66ZM43.5 69H49.5V75H43.5V69ZM16.5 45H22.5V51H16.5V45ZM7.5 45H13.5V52.5C13.5 52.8978 13.658 53.2794 13.9393 53.5607C14.2206 53.842 14.6022 54 15 54H24C24.3978 54 24.7794 53.842 25.0607 53.5607C25.342 53.2794 25.5 52.8978 25.5 52.5V45H31.5V66H7.5V45ZM16.5 69H22.5V75H16.5V69ZM7.5 69H13.5V76.5C13.5 76.8978 13.658 77.2794 13.9393 77.5607C14.2206 77.842 14.6022 78 15 78H24C24.3978 78 24.7794 77.842 25.0607 77.5607C25.342 77.2794 25.5 76.8978 25.5 76.5V69H31.5V90H7.5V69ZM58.5 90H34.5V69H40.5V76.5C40.5 76.8978 40.658 77.2794 40.9393 77.5607C41.2206 77.842 41.6022 78 42 78H51C51.3978 78 51.7794 77.842 52.0607 77.5607C52.342 77.2794 52.5 76.8978 52.5 76.5V69H58.5V90Z" fill="black"/>
<path d="M52.5 84H55.5V87H52.5V84Z" fill="black"/>
<path d="M25.5 84H28.5V87H25.5V84Z" fill="black"/>
<path d="M25.5 60H28.5V63H25.5V60Z" fill="black"/>
<path d="M28.5 15C28.5009 14.2046 28.8173 13.4421 29.3797 12.8797C29.9421 12.3173 30.7046 12.0009 31.5 12H40.5V15H33C32.6022 15 32.2206 15.158 31.9393 15.4393C31.658 15.7206 31.5 16.1022 31.5 16.5V39H34.5V18H70.5V42H73.5V16.5C73.5 16.1022 73.342 15.7206 73.0607 15.4393C72.7794 15.158 72.3978 15 72 15H64.5V12H73.5C74.2954 12.0009 75.0579 12.3173 75.6203 12.8797C76.1827 13.4421 76.4991 14.2046 76.5 15V40.5H79.5V15C79.4982 13.4092 78.8655 11.8842 77.7407 10.7593C76.6158 9.6345 75.0908 9.00179 73.5 9H58.9211L59.9552 4.86375C60.0105 4.64261 60.0146 4.41178 59.9673 4.1888C59.92 3.96581 59.8225 3.75654 59.6823 3.57688C59.542 3.39721 59.3626 3.25188 59.1577 3.15192C58.9529 3.05196 58.7279 3.00001 58.5 3H46.5C46.2721 3.00001 46.0471 3.05196 45.8423 3.15192C45.6374 3.25188 45.458 3.39721 45.3177 3.57688C45.1775 3.75654 45.08 3.96581 45.0327 4.1888C44.9854 4.41178 44.9895 4.64261 45.0448 4.86375L46.0789 9H31.5C29.9092 9.00179 28.3842 9.6345 27.2593 10.7593C26.1345 11.8842 25.5018 13.4092 25.5 15V39H28.5V15ZM43.5 12H48C48.2279 12 48.4529 11.948 48.6577 11.8481C48.8626 11.7481 49.042 11.6028 49.1823 11.4231C49.3225 11.2435 49.42 11.0342 49.4673 10.8112C49.5146 10.5882 49.5105 10.3574 49.4552 10.1363L48.4211 6H56.5789L55.5448 10.1363C55.4895 10.3574 55.4854 10.5882 55.5327 10.8112C55.58 11.0342 55.6775 11.2435 55.8177 11.4231C55.958 11.6028 56.1374 11.7481 56.3423 11.8481C56.5471 11.948 56.7721 12 57 12H61.5V15H43.5V12Z" fill="black"/>
<path d="M76.5 76.5C76.4991 77.2954 76.1827 78.0579 75.6203 78.6203C75.0579 79.1827 74.2954 79.4991 73.5 79.5H64.5V82.5H73.5C75.0908 82.4982 76.6158 81.8655 77.7407 80.7407C78.8655 79.6158 79.4982 78.0908 79.5 76.5V63H76.5V76.5Z" fill="black"/>
<path d="M73.5 75V64.5H70.5V73.5H64.5V76.5H72C72.3978 76.5 72.7794 76.342 73.0607 76.0607C73.342 75.7794 73.5 75.3978 73.5 75Z" fill="black"/>
<path d="M46.5 22.5C46.5 22.1022 46.342 21.7206 46.0607 21.4393C45.7794 21.158 45.3978 21 45 21H39C38.6022 21 38.2206 21.158 37.9393 21.4393C37.658 21.7206 37.5 22.1022 37.5 22.5V28.5C37.5 28.8978 37.658 29.2794 37.9393 29.5607C38.2206 29.842 38.6022 30 39 30H45C45.3978 30 45.7794 29.842 46.0607 29.5607C46.342 29.2794 46.5 28.8978 46.5 28.5V22.5ZM43.5 27H40.5V24H43.5V27Z" fill="black"/>
<path d="M45 34.5H39C38.6022 34.5 38.2206 34.658 37.9393 34.9393C37.658 35.2206 37.5 35.6022 37.5 36V42C37.5 42.3978 37.658 42.7794 37.9393 43.0607C38.2206 43.342 38.6022 43.5 39 43.5H45C45.3978 43.5 45.7794 43.342 46.0607 43.0607C46.342 42.7794 46.5 42.3978 46.5 42V36C46.5 35.6022 46.342 35.2206 46.0607 34.9393C45.7794 34.658 45.3978 34.5 45 34.5ZM43.5 40.5H40.5V37.5H43.5V40.5Z" fill="black"/>
<path d="M49.5 21H52.5V24H49.5V21Z" fill="black"/>
<path d="M49.5 27H67.5V30H49.5V27Z" fill="black"/>
<path d="M55.5 21H67.5V24H55.5V21Z" fill="black"/>
<path d="M49.5 34.5H52.5V37.5H49.5V34.5Z" fill="black"/>
<path d="M49.5 40.5H67.5V43.5H49.5V40.5Z" fill="black"/>
<path d="M55.5 34.5H67.5V37.5H55.5V34.5Z" fill="black"/>
</svg>
