<svg width="86" height="86" viewBox="0 0 86 86" fill="none" xmlns="http://www.w3.org/2000/svg">
<path d="M55.6562 24.7188H30.3438C27.2371 24.7188 24.7188 27.2371 24.7188 30.3438V55.6562C24.7188 58.7629 27.2371 61.2812 30.3438 61.2812H55.6562C58.7629 61.2812 61.2812 58.7629 61.2812 55.6562V30.3438C61.2812 27.2371 58.7629 24.7188 55.6562 24.7188Z" fill="#FFB655"/>
<path d="M59.875 58.4688H34.5625C33.0707 58.4688 31.6399 57.8761 30.585 56.8212C29.5301 55.7663 28.9375 54.3356 28.9375 52.8438V27.5313C28.9434 26.5668 29.1997 25.6204 29.6814 24.7849C28.3168 24.9423 27.0574 25.5955 26.1426 26.6202C25.2278 27.645 24.7211 28.97 24.7188 30.3438V55.6563C24.7188 57.1481 25.3114 58.5788 26.3663 59.6337C27.4212 60.6886 28.8519 61.2813 30.3438 61.2813H55.6562C56.6524 61.2791 57.6299 61.0112 58.4879 60.5052C59.3459 59.9991 60.0534 59.2733 60.5373 58.4027C60.318 58.4376 60.0969 58.4596 59.875 58.4688V58.4688Z" fill="#FFA733"/>
<path d="M43 12.0625C44.5533 12.0625 45.8125 10.8033 45.8125 9.25C45.8125 7.6967 44.5533 6.4375 43 6.4375C41.4467 6.4375 40.1875 7.6967 40.1875 9.25C40.1875 10.8033 41.4467 12.0625 43 12.0625Z" fill="#7ED63E"/>
<path d="M65.5 10.6562C67.0533 10.6562 68.3125 9.39705 68.3125 7.84375C68.3125 6.29045 67.0533 5.03125 65.5 5.03125C63.9467 5.03125 62.6875 6.29045 62.6875 7.84375C62.6875 9.39705 63.9467 10.6562 65.5 10.6562Z" fill="#7ED63E"/>
<path d="M23.3125 7.84375C24.8658 7.84375 26.125 6.58455 26.125 5.03125C26.125 3.47795 24.8658 2.21875 23.3125 2.21875C21.7592 2.21875 20.5 3.47795 20.5 5.03125C20.5 6.58455 21.7592 7.84375 23.3125 7.84375Z" fill="#7ED63E"/>
<path d="M54.25 83.7812C55.8033 83.7812 57.0625 82.5221 57.0625 80.9688C57.0625 79.4154 55.8033 78.1562 54.25 78.1562C52.6967 78.1562 51.4375 79.4154 51.4375 80.9688C51.4375 82.5221 52.6967 83.7812 54.25 83.7812Z" fill="#7ED63E"/>
<path d="M66.9062 75.3438C68.4596 75.3438 69.7188 74.0846 69.7188 72.5312C69.7188 70.9779 68.4596 69.7188 66.9062 69.7188C65.3529 69.7188 64.0938 70.9779 64.0938 72.5312C64.0938 74.0846 65.3529 75.3438 66.9062 75.3438Z" fill="#7ED63E"/>
<path d="M23.3125 83.7812C24.8658 83.7812 26.125 82.5221 26.125 80.9688C26.125 79.4154 24.8658 78.1562 23.3125 78.1562C21.7592 78.1562 20.5 79.4154 20.5 80.9688C20.5 82.5221 21.7592 83.7812 23.3125 83.7812Z" fill="#7ED63E"/>
<path d="M76.1152 27.3928C77.6109 26.9735 78.4834 25.4211 78.064 23.9255C77.6447 22.4299 76.0923 21.5574 74.5967 21.9767C73.1011 22.396 72.2285 23.9484 72.6479 25.444C73.0672 26.9397 74.6196 27.8122 76.1152 27.3928Z" fill="#7ED63E"/>
<path d="M81.7557 62.5463C83.2513 62.1269 84.1238 60.5746 83.7045 59.0789C83.2852 57.5833 81.7328 56.7108 80.2372 57.1301C78.7415 57.5495 77.869 59.1019 78.2884 60.5975C78.7077 62.0931 80.2601 62.9656 81.7557 62.5463Z" fill="#7ED63E"/>
<path d="M81.7459 40.0463C83.2415 39.6269 84.114 38.0746 83.6947 36.5789C83.2753 35.0833 81.723 34.2108 80.2273 34.6301C78.7317 35.0495 77.8592 36.6018 78.2785 38.0975C78.6979 39.5931 80.2502 40.4656 81.7459 40.0463Z" fill="#7ED63E"/>
<path d="M13.3695 25.4895C13.7888 23.9939 12.9163 22.4415 11.4207 22.0222C9.92508 21.6029 8.3727 22.4754 7.95336 23.971C7.53403 25.4666 8.40654 27.019 9.90216 27.4384C11.3978 27.8577 12.9502 26.9852 13.3695 25.4895Z" fill="#7ED63E"/>
<path d="M13.383 66.1061C13.7045 64.587 12.7337 63.0949 11.2145 62.7733C9.6954 62.4518 8.20325 63.4226 7.88172 64.9418C7.56018 66.4609 8.53103 67.953 10.0502 68.2746C11.5693 68.5961 13.0614 67.6253 13.383 66.1061Z" fill="#7ED63E"/>
<path d="M4.92017 48.625C5.47906 48.6468 6.03176 48.5015 6.50766 48.2077C6.98355 47.9138 7.36102 47.4847 7.59183 46.9753C7.82264 46.4658 7.8963 45.8991 7.80341 45.3475C7.71051 44.796 7.45528 44.2847 7.07033 43.8789L6.43752 44.4062L7.07033 43.8789C6.75304 43.5445 6.3584 43.2931 5.92116 43.1471C5.48391 43.001 5.01746 42.9646 4.56286 43.0412C4.10826 43.1178 3.67945 43.3049 3.31417 43.5861C2.94889 43.8674 2.65835 44.2341 2.46811 44.654C2.27787 45.0739 2.19377 45.5342 2.22321 45.9943C2.25265 46.4543 2.39473 46.9001 2.63694 47.2923C2.87915 47.6846 3.21407 48.0113 3.61221 48.2437C4.01036 48.4761 4.45952 48.607 4.92017 48.625V48.625Z" fill="#7ED63E"/>
<path d="M48.625 38.7812H37.375C35.8217 38.7812 34.5625 40.0404 34.5625 41.5938V52.8438C34.5625 54.3971 35.8217 55.6562 37.375 55.6562H48.625C50.1783 55.6562 51.4375 54.3971 51.4375 52.8438V41.5938C51.4375 40.0404 50.1783 38.7812 48.625 38.7812Z" fill="#006DF0"/>
<path d="M37.375 50.0312V38.7812C36.6298 38.7835 35.9157 39.0805 35.3887 39.6075C34.8618 40.1344 34.5647 40.8485 34.5625 41.5938V52.8438C34.5647 53.589 34.8618 54.3031 35.3887 54.83C35.9157 55.357 36.6298 55.654 37.375 55.6562H48.625C49.3702 55.654 50.0843 55.357 50.6113 54.83C51.1382 54.3031 51.4353 53.589 51.4375 52.8438H40.1875C39.4423 52.8415 38.7282 52.5445 38.2012 52.0175C37.6743 51.4906 37.3772 50.7765 37.375 50.0312V50.0312Z" fill="#005ECE"/>
<path d="M43.7813 48.5006C45.2769 48.0813 46.1494 46.5289 45.7301 45.0333C45.3108 43.5377 43.7584 42.6651 42.2628 43.0845C40.7671 43.5038 39.8946 45.0562 40.314 46.5518C40.7333 48.0474 42.2857 48.92 43.7813 48.5006Z" fill="#F1F2F2"/>
<path d="M35.9688 13.4688H38.7812V16.2812H35.9688V13.4688Z" fill="black"/>
<path d="M72.5312 47.2188H75.3438V50.0312H72.5312V47.2188Z" fill="black"/>
<path d="M47.2188 69.7188H50.0312V72.5312H47.2188V69.7188Z" fill="black"/>
<path d="M35.9688 73.9375H38.7812V76.75H35.9688V73.9375Z" fill="black"/>
<path d="M13.4688 41.5938H16.2812V44.4062H13.4688V41.5938Z" fill="black"/>
<path d="M47.2188 13.4688H50.0312V16.2812H47.2188V13.4688Z" fill="black"/>
<path d="M69.7188 35.9688H72.5312V38.7812H69.7188V35.9688Z" fill="black"/>
<path d="M62.6875 21.9062H65.5V24.7188H62.6875V21.9062Z" fill="black"/>
<path d="M20.5 21.9062H23.3125V24.7188H20.5V21.9062Z" fill="black"/>
<path d="M62.6875 61.2812H65.5V64.0937H62.6875V61.2812Z" fill="black"/>
<path d="M20.5 61.2812H23.3125V64.0937H20.5V61.2812Z" fill="black"/>
<path d="M42.8341 41.5937C41.8506 41.6255 40.9093 42.0007 40.1736 42.6542C39.438 43.3078 38.9545 44.1983 38.8071 45.1712C38.6597 46.1441 38.8577 47.1379 39.3668 47.98C39.8759 48.8221 40.6638 49.4593 41.5938 49.7809V52.8437H44.4063V49.7711C45.359 49.4374 46.1601 48.7724 46.6634 47.8973C47.1668 47.0223 47.3388 45.9954 47.1482 45.0041C46.9577 44.0128 46.4171 43.1229 45.6252 42.4969C44.8332 41.8709 43.8426 41.5503 42.8341 41.5937ZM44.4063 45.7576C44.4136 45.9422 44.3845 46.1265 44.3206 46.2998C44.2568 46.4732 44.1593 46.6322 44.034 46.7679C43.9086 46.9036 43.7577 47.0132 43.59 47.0906C43.4222 47.168 43.2409 47.2115 43.0563 47.2187C42.8714 47.226 42.6869 47.1966 42.5134 47.1325C42.3399 47.0683 42.1808 46.9705 42.0452 46.8447C41.8407 46.656 41.6969 46.4109 41.6318 46.1404C41.5667 45.8699 41.5833 45.5862 41.6795 45.3251C41.7757 45.0641 41.9472 44.8375 42.1722 44.6739C42.3973 44.5103 42.6658 44.4172 42.9438 44.4062H43C43.3634 44.4059 43.7128 44.5464 43.975 44.798C44.2372 45.0497 44.3917 45.3931 44.4063 45.7562V45.7576Z" fill="black"/>
<path d="M50.0312 37.6337V35.9687C50.0312 34.1039 49.2905 32.3155 47.9718 30.9969C46.6532 29.6783 44.8648 28.9375 43 28.9375C41.1352 28.9375 39.3468 29.6783 38.0282 30.9969C36.7095 32.3155 35.9688 34.1039 35.9688 35.9687V37.6337C35.149 37.9236 34.4389 38.4595 33.9354 39.1684C33.432 39.8772 33.1599 40.7243 33.1562 41.5937V52.8437C33.1562 53.9626 33.6007 55.0357 34.3919 55.8269C35.1831 56.618 36.2561 57.0625 37.375 57.0625H48.625C49.7439 57.0625 50.8169 56.618 51.6081 55.8269C52.3993 55.0357 52.8438 53.9626 52.8438 52.8437V41.5937C52.8401 40.7243 52.568 39.8772 52.0646 39.1684C51.5611 38.4595 50.851 37.9236 50.0312 37.6337V37.6337ZM38.7812 35.9687C38.7812 34.8499 39.2257 33.7768 40.0169 32.9856C40.8081 32.1945 41.8811 31.75 43 31.75C44.1189 31.75 45.1919 32.1945 45.9831 32.9856C46.7743 33.7768 47.2188 34.8499 47.2188 35.9687V37.375H38.7812V35.9687ZM50.0312 52.8437C50.0312 53.2167 49.8831 53.5744 49.6194 53.8381C49.3556 54.1018 48.998 54.25 48.625 54.25H37.375C37.002 54.25 36.6444 54.1018 36.3806 53.8381C36.1169 53.5744 35.9688 53.2167 35.9688 52.8437V41.5937C35.9688 41.2208 36.1169 40.8631 36.3806 40.5994C36.6444 40.3357 37.002 40.1875 37.375 40.1875H48.625C48.998 40.1875 49.3556 40.3357 49.6194 40.5994C49.8831 40.8631 50.0312 41.2208 50.0312 41.5937V52.8437Z" fill="black"/>
<path d="M80.9688 55.6562C80.3423 55.6587 79.7245 55.8029 79.1617 56.0781L75.9273 52.8438H62.6875V50.0312H69.7188V47.2188H62.6875V44.4063H70.0506L78.048 40.4069C78.7489 41.0782 79.6602 41.4868 80.6277 41.5635C81.5953 41.6401 82.5596 41.3802 83.3575 40.8276C84.1553 40.275 84.7378 39.4637 85.0063 38.531C85.2748 37.5983 85.2128 36.6015 84.8308 35.7093C84.4489 34.8171 83.7704 34.0842 82.9102 33.6347C82.05 33.1852 81.0609 33.0468 80.1103 33.2427C79.1597 33.4386 78.306 33.957 77.6937 34.71C77.0814 35.463 76.748 36.4044 76.75 37.375C76.7566 37.5461 76.774 37.7166 76.802 37.8855L69.3869 41.5938H62.6875V38.7813H66.9062V35.9688H62.6875V33.1563H68.8947L73.5353 28.5156C74.0985 28.7911 74.7168 28.9353 75.3438 28.9375C76.1781 28.9375 76.9938 28.6901 77.6876 28.2265C78.3813 27.763 78.9221 27.1041 79.2414 26.3332C79.5607 25.5623 79.6442 24.7141 79.4814 23.8957C79.3187 23.0774 78.9169 22.3256 78.3269 21.7356C77.7369 21.1456 76.9851 20.7438 76.1668 20.5811C75.3484 20.4183 74.5002 20.5018 73.7293 20.8211C72.9584 21.1404 72.2996 21.6812 71.836 22.3749C71.3724 23.0687 71.125 23.8844 71.125 24.7188C71.1274 25.3452 71.2717 25.963 71.5469 26.5258L67.7303 30.3438H62.6875C62.6853 28.4796 61.9438 26.6925 60.6256 25.3744C59.3075 24.0562 57.5204 23.3147 55.6562 23.3125V19.6759L63.693 11.6406C64.2557 11.9158 64.8735 12.0601 65.5 12.0625C66.3344 12.0625 67.15 11.8151 67.8438 11.3515C68.5376 10.888 69.0783 10.2291 69.3976 9.4582C69.7169 8.68732 69.8005 7.83907 69.6377 7.02071C69.4749 6.20236 69.0731 5.45065 68.4831 4.86065C67.8931 4.27064 67.1414 3.86885 66.323 3.70606C65.5047 3.54328 64.6564 3.62683 63.8856 3.94614C63.1147 4.26544 62.4558 4.80617 61.9922 5.49994C61.5287 6.19371 61.2812 7.00936 61.2812 7.84375C61.2837 8.47022 61.4279 9.088 61.7031 9.65078L52.8438 18.5102V23.3125H50.0312V19.0938H47.2188V23.3125H44.4063V13.21C45.3445 12.8783 46.1353 12.2255 46.6389 11.3671C47.1424 10.5087 47.3263 9.49998 47.158 8.51913C46.9897 7.53827 46.4801 6.64849 45.7192 6.00704C44.9583 5.36559 43.9952 5.01378 43 5.01378C42.0048 5.01378 41.0417 5.36559 40.2808 6.00704C39.5199 6.64849 39.0103 7.53827 38.842 8.51913C38.6737 9.49998 38.8576 10.5087 39.3611 11.3671C39.8647 12.2255 40.6555 12.8783 41.5938 13.21V23.3125H38.7813V19.0938H35.9688V23.3125H33.1563V12.8866L27.1094 6.83969C27.3848 6.27648 27.529 5.65819 27.5313 5.03125C27.5313 4.19686 27.2838 3.38121 26.8203 2.68744C26.3567 1.99367 25.6978 1.45294 24.9269 1.13364C24.1561 0.814328 23.3078 0.730783 22.4895 0.893564C21.6711 1.05635 20.9194 1.45814 20.3294 2.04815C19.7394 2.63815 19.3376 3.38986 19.1748 4.20821C19.012 5.02657 19.0956 5.87482 19.4149 6.6457C19.7342 7.41657 20.2749 8.07545 20.9687 8.53901C21.6625 9.00258 22.4781 9.25 23.3125 9.25C23.939 9.24758 24.5568 9.10335 25.1195 8.82813L30.3438 14.0509V23.3125C28.4796 23.3147 26.6925 24.0562 25.3744 25.3744C24.0562 26.6925 23.3147 28.4796 23.3125 30.3438H18.2697L14.4531 26.5258C14.7283 25.963 14.8726 25.3452 14.875 24.7188C14.875 23.8844 14.6276 23.0687 14.164 22.3749C13.7005 21.6812 13.0416 21.1404 12.2707 20.8211C11.4998 20.5018 10.6516 20.4183 9.83321 20.5811C9.01486 20.7438 8.26315 21.1456 7.67315 21.7356C7.08314 22.3256 6.68135 23.0774 6.51856 23.8957C6.35578 24.7141 6.43933 25.5623 6.75864 26.3332C7.07794 27.1041 7.61867 27.763 8.31244 28.2265C9.00621 28.6901 9.82186 28.9375 10.6563 28.9375C11.2827 28.9351 11.9005 28.7908 12.4633 28.5156L17.1039 33.1563H23.3125V35.9688H14.3659L7 42.1056C6.39634 41.7744 5.71979 41.5985 5.03125 41.5938C4.19686 41.5938 3.38121 41.8412 2.68744 42.3047C1.99367 42.7683 1.45294 43.4272 1.13364 44.1981C0.814328 44.9689 0.730783 45.8172 0.893564 46.6355C1.05635 47.4539 1.45814 48.2056 2.04815 48.7956C2.63815 49.3856 3.38986 49.7874 4.20821 49.9502C5.02657 50.113 5.87482 50.0294 6.6457 49.7101C7.41657 49.3908 8.07545 48.8501 8.53901 48.1563C9.00258 47.4625 9.25 46.6469 9.25 45.8125C9.25095 45.2481 9.13758 44.6894 8.91672 44.17L15.3841 38.7813H23.3125V41.5938H19.0938V44.4063H23.3125V47.2188H10.6563V50.0312H23.3125V52.8438H15.5289L9.86172 61.3431C9.65961 61.3075 9.45515 61.2868 9.25 61.2812C8.27167 61.2723 7.3201 61.6005 6.55531 62.2106C5.79052 62.8208 5.25918 63.6757 5.05065 64.6316C4.84211 65.5875 4.96911 66.586 5.41028 67.4593C5.85145 68.3325 6.57988 69.0272 7.47305 69.4265C8.36623 69.8258 9.36966 69.9054 10.3146 69.6518C11.2595 69.3982 12.0883 68.827 12.6616 68.0341C13.2348 67.2413 13.5176 66.2752 13.4622 65.2984C13.4069 64.3216 13.0169 63.3937 12.3578 62.6706L17.0336 55.6562H23.3125C23.3147 57.5204 24.0562 59.3075 25.3744 60.6256C26.6925 61.9438 28.4796 62.6853 30.3438 62.6875V71.9491L25.1195 77.1719C24.5568 76.8967 23.939 76.7524 23.3125 76.75C22.4781 76.75 21.6625 76.9974 20.9687 77.461C20.2749 77.9246 19.7342 78.5834 19.4149 79.3543C19.0956 80.1252 19.012 80.9734 19.1748 81.7918C19.3376 82.6101 19.7394 83.3619 20.3294 83.9519C20.9194 84.5419 21.6711 84.9437 22.4895 85.1064C23.3078 85.2692 24.1561 85.1857 24.9269 84.8664C25.6978 84.5471 26.3567 84.0063 26.8203 83.3126C27.2838 82.6188 27.5313 81.8031 27.5313 80.9688C27.5288 80.3423 27.3846 79.7245 27.1094 79.1617L33.1563 73.1148V62.6875H35.9688V71.125H38.7813V62.6875H41.5938V74.7166L50.1353 80.0603C49.9058 81.0455 50.0326 82.0802 50.4932 82.9809C50.9539 83.8816 51.7186 84.59 52.6518 84.9805C53.585 85.371 54.6264 85.4184 55.5912 85.1142C56.556 84.8101 57.382 84.1741 57.9225 83.319C58.4631 82.4639 58.6833 81.445 58.5442 80.443C58.4051 79.441 57.9156 78.5206 57.1626 77.8451C56.4095 77.1697 55.4416 76.7827 54.4304 76.7529C53.4192 76.7231 52.4301 77.0524 51.6386 77.6823L44.4063 73.1584V62.6875H47.2188V66.9062H50.0312V62.6875H52.8438V73.9375H62.9462C63.278 74.8758 63.9307 75.6666 64.7891 76.1701C65.6475 76.6737 66.6563 76.8575 67.6371 76.6892C68.618 76.521 69.5078 76.0113 70.1492 75.2505C70.7907 74.4896 71.1425 73.5264 71.1425 72.5312C71.1425 71.5361 70.7907 70.5729 70.1492 69.812C69.5078 69.0512 68.618 68.5415 67.6371 68.3733C66.6563 68.205 65.6475 68.3888 64.7891 68.8924C63.9307 69.3959 63.278 70.1867 62.9462 71.125H55.6562V62.6875C57.5204 62.6853 59.3075 61.9438 60.6256 60.6256C61.9438 59.3075 62.6853 57.5204 62.6875 55.6562H74.7616L77.1719 58.068C76.8967 58.6307 76.7524 59.2485 76.75 59.875C76.75 60.7094 76.9974 61.525 77.461 62.2188C77.9246 62.9126 78.5834 63.4533 79.3543 63.7726C80.1252 64.0919 80.9734 64.1755 81.7918 64.0127C82.6101 63.8499 83.3619 63.4481 83.9519 62.8581C84.5419 62.2681 84.9437 61.5164 85.1064 60.698C85.2692 59.8797 85.1857 59.0314 84.8664 58.2606C84.5471 57.4897 84.0063 56.8308 83.3126 56.3672C82.6188 55.9037 81.8031 55.6562 80.9688 55.6562V55.6562ZM80.9688 35.9688C81.2469 35.9688 81.5188 36.0512 81.75 36.2057C81.9813 36.3603 82.1615 36.5799 82.268 36.8369C82.3744 37.0938 82.4022 37.3766 82.348 37.6493C82.2937 37.9221 82.1598 38.1727 81.9631 38.3694C81.7665 38.566 81.5159 38.7 81.2431 38.7542C80.9703 38.8085 80.6876 38.7806 80.4306 38.6742C80.1736 38.5678 79.954 38.3875 79.7995 38.1563C79.645 37.925 79.5625 37.6531 79.5625 37.375C79.5625 37.002 79.7107 36.6444 79.9744 36.3806C80.2381 36.1169 80.5958 35.9688 80.9688 35.9688ZM75.3438 23.3125C75.6219 23.3125 75.8938 23.395 76.125 23.5495C76.3563 23.704 76.5365 23.9236 76.643 24.1806C76.7494 24.4376 76.7772 24.7203 76.723 24.9931C76.6687 25.2659 76.5348 25.5165 76.3381 25.7131C76.1415 25.9098 75.8909 26.0437 75.6181 26.098C75.3453 26.1522 75.0626 26.1244 74.8056 26.018C74.5486 25.9115 74.329 25.7313 74.1745 25.5C74.02 25.2688 73.9375 24.9969 73.9375 24.7188C73.9375 24.3458 74.0857 23.9881 74.3494 23.7244C74.6131 23.4607 74.9708 23.3125 75.3438 23.3125ZM65.5 6.4375C65.7781 6.4375 66.05 6.51998 66.2813 6.6745C66.5125 6.82902 66.6928 7.04865 66.7992 7.3056C66.9056 7.56256 66.9335 7.84531 66.8792 8.1181C66.825 8.39088 66.691 8.64145 66.4944 8.83812C66.2977 9.03479 66.0471 9.16872 65.7743 9.22298C65.5016 9.27724 65.2188 9.24939 64.9619 9.14296C64.7049 9.03652 64.4853 8.85628 64.3307 8.62502C64.1762 8.39377 64.0938 8.12188 64.0938 7.84375C64.0938 7.47079 64.2419 7.11311 64.5056 6.84938C64.7694 6.58566 65.127 6.4375 65.5 6.4375V6.4375ZM43 7.84375C43.2781 7.84375 43.55 7.92623 43.7813 8.08075C44.0125 8.23527 44.1928 8.4549 44.2992 8.71185C44.4056 8.96881 44.4335 9.25156 44.3792 9.52435C44.325 9.79713 44.191 10.0477 43.9944 10.2444C43.7977 10.441 43.5471 10.575 43.2743 10.6292C43.0016 10.6835 42.7188 10.6556 42.4619 10.5492C42.2049 10.4428 41.9853 10.2625 41.8307 10.0313C41.6762 9.80002 41.5938 9.52813 41.5938 9.25C41.5938 8.87704 41.7419 8.51936 42.0056 8.25563C42.2694 7.99191 42.627 7.84375 43 7.84375V7.84375ZM21.9063 5.03125C21.9063 4.75312 21.9887 4.48124 22.1432 4.24998C22.2978 4.01872 22.5174 3.83848 22.7744 3.73205C23.0313 3.62561 23.3141 3.59776 23.5868 3.65202C23.8596 3.70628 24.1102 3.84022 24.3069 4.03688C24.5035 4.23355 24.6375 4.48412 24.6917 4.75691C24.746 5.02969 24.7181 5.31244 24.6117 5.5694C24.5053 5.82636 24.325 6.04599 24.0938 6.20051C23.8625 6.35503 23.5906 6.4375 23.3125 6.4375C22.9395 6.4375 22.5819 6.28934 22.3181 6.02562C22.0544 5.7619 21.9063 5.40421 21.9063 5.03125ZM9.25 24.7188C9.25 24.4406 9.33248 24.1687 9.487 23.9375C9.64152 23.7062 9.86114 23.526 10.1181 23.4195C10.3751 23.3131 10.6578 23.2853 10.9306 23.3395C11.2034 23.3938 11.454 23.5277 11.6506 23.7244C11.8473 23.9211 11.9812 24.1716 12.0355 24.4444C12.0897 24.7172 12.0619 24.9999 11.9555 25.2569C11.849 25.5139 11.6688 25.7335 11.4375 25.888C11.2063 26.0425 10.9344 26.125 10.6563 26.125C10.2833 26.125 9.92561 25.9768 9.66188 25.7131C9.39816 25.4494 9.25 25.0917 9.25 24.7188ZM5.03125 47.2188C4.75312 47.2188 4.48124 47.1363 4.24998 46.9818C4.01872 46.8272 3.83848 46.6076 3.73205 46.3506C3.62561 46.0937 3.59776 45.8109 3.65202 45.5382C3.70628 45.2654 3.84022 45.0148 4.03688 44.8181C4.23355 44.6215 4.48412 44.4875 4.75691 44.4333C5.02969 44.379 5.31244 44.4069 5.5694 44.5133C5.82636 44.6197 6.04599 44.8 6.20051 45.0312C6.35503 45.2625 6.4375 45.5344 6.4375 45.8125C6.4375 46.1855 6.28934 46.5431 6.02562 46.8069C5.7619 47.0706 5.40421 47.2188 5.03125 47.2188ZM9.25 66.9062C8.97187 66.9062 8.69999 66.8238 8.46873 66.6693C8.23747 66.5147 8.05723 66.2951 7.9508 66.0381C7.84436 65.7812 7.81651 65.4984 7.87077 65.2257C7.92503 64.9529 8.05897 64.7023 8.25563 64.5056C8.4523 64.309 8.70287 64.175 8.97566 64.1208C9.24844 64.0665 9.53119 64.0944 9.78815 64.2008C10.0451 64.3072 10.2647 64.4875 10.4193 64.7187C10.5738 64.95 10.6563 65.2219 10.6563 65.5C10.6563 65.873 10.5081 66.2306 10.2444 66.4944C9.98065 66.7581 9.62296 66.9062 9.25 66.9062V66.9062ZM23.3125 82.375C23.0344 82.375 22.7625 82.2925 22.5312 82.138C22.3 81.9835 22.1197 81.7639 22.0133 81.5069C21.9069 81.2499 21.879 80.9672 21.9333 80.6944C21.9875 80.4216 22.1215 80.171 22.3181 79.9744C22.5148 79.7777 22.7654 79.6438 23.0382 79.5895C23.3109 79.5353 23.5937 79.5631 23.8507 79.6695C24.1076 79.776 24.3272 79.9562 24.4818 80.1875C24.6363 80.4187 24.7188 80.6906 24.7188 80.9688C24.7188 81.3417 24.5706 81.6994 24.3069 81.9631C24.0431 82.2268 23.6855 82.375 23.3125 82.375ZM54.25 79.5625C54.5281 79.5625 54.8 79.645 55.0313 79.7995C55.2625 79.954 55.4428 80.1736 55.5492 80.4306C55.6556 80.6876 55.6835 80.9703 55.6292 81.2431C55.575 81.5159 55.441 81.7665 55.2444 81.9631C55.0477 82.1598 54.7971 82.2937 54.5243 82.348C54.2516 82.4022 53.9688 82.3744 53.7119 82.268C53.4549 82.1615 53.2353 81.9813 53.0807 81.75C52.9262 81.5188 52.8438 81.2469 52.8438 80.9688C52.8438 80.5958 52.9919 80.2381 53.2556 79.9744C53.5194 79.7107 53.877 79.5625 54.25 79.5625ZM66.9062 71.125C67.1844 71.125 67.4563 71.2075 67.6875 71.362C67.9188 71.5165 68.099 71.7361 68.2055 71.9931C68.3119 72.2501 68.3397 72.5328 68.2855 72.8056C68.2312 73.0784 68.0973 73.329 67.9006 73.5256C67.704 73.7223 67.4534 73.8562 67.1806 73.9105C66.9078 73.9647 66.6251 73.9369 66.3681 73.8305C66.1111 73.724 65.8915 73.5438 65.737 73.3125C65.5825 73.0813 65.5 72.8094 65.5 72.5312C65.5 72.1583 65.6482 71.8006 65.9119 71.5369C66.1756 71.2732 66.5333 71.125 66.9062 71.125ZM59.875 55.6562C59.875 56.7751 59.4305 57.8482 58.6394 58.6394C57.8482 59.4305 56.7751 59.875 55.6562 59.875H30.3438C29.2249 59.875 28.1518 59.4305 27.3606 58.6394C26.5695 57.8482 26.125 56.7751 26.125 55.6562V30.3438C26.125 29.2249 26.5695 28.1518 27.3606 27.3606C28.1518 26.5695 29.2249 26.125 30.3438 26.125H55.6562C56.7751 26.125 57.8482 26.5695 58.6394 27.3606C59.4305 28.1518 59.875 29.2249 59.875 30.3438V55.6562ZM80.9688 61.2812C80.6906 61.2812 80.4187 61.1988 80.1875 61.0443C79.9562 60.8897 79.776 60.6701 79.6695 60.4131C79.5631 60.1562 79.5353 59.8734 79.5895 59.6007C79.6438 59.3279 79.7777 59.0773 79.9744 58.8806C80.171 58.684 80.4216 58.55 80.6944 58.4958C80.9672 58.4415 81.2499 58.4694 81.5069 58.5758C81.7639 58.6822 81.9835 58.8625 82.138 59.0937C82.2925 59.325 82.375 59.5969 82.375 59.875C82.375 60.248 82.2268 60.6056 81.9631 60.8694C81.6994 61.1331 81.3417 61.2812 80.9688 61.2812Z" fill="black"/>
</svg>
