<svg width="80" height="80" viewBox="0 0 80 80" fill="none" xmlns="http://www.w3.org/2000/svg">
<g clip-path="url(#clip0_77:113)">
<path d="M1.17188 58.5999V51.8452L1.81625 51.0503L1.17188 49.2249V43.0172L1.73016 42.2947L1.17188 40.3967V34.3452L1.67859 33.4874L1.17188 31.8016V23.5999H18.8281V62.2155H16.4844C7.96562 62.1327 1.17188 60.5452 1.17188 58.5999Z" fill="#B4D2D7"/>
<path d="M18.8281 23.5999V62.2155H16.4844C15.414 62.2045 14.3703 62.1717 13.364 62.1155L13.3859 49.9092L13.3656 23.5999H18.8281Z" fill="#9BB9C3"/>
<path d="M4.29688 23.5999V60.7467C2.33281 60.1467 1.17188 59.403 1.17188 58.5999V23.5999H4.29688Z" fill="#9BB9C3"/>
<path d="M16.4953 52.2936C12.7797 52.2577 9.23906 51.9249 6.52812 51.3545C3.56562 50.7327 1.35938 49.4061 1.17188 49.1467V51.8452C2.05781 52.4983 3.45 53.0452 5.36563 53.4967C8.31562 54.192 12.2609 54.5967 16.4734 54.6374H16.4844C17.1266 54.6374 17.65 54.1202 17.6562 53.4764C17.6625 52.8295 17.1422 52.2999 16.4953 52.2936Z" fill="#9BB9C3"/>
<path d="M16.4953 43.5436C12.7797 43.5077 9.23906 43.1749 6.52812 42.6045C3.56562 41.9827 1.35938 40.6561 1.17188 40.3967V43.0952C2.05781 43.7483 3.45 44.2952 5.36563 44.7467C8.31562 45.442 12.2609 45.8467 16.4734 45.8874H16.4844C17.1266 45.8874 17.65 45.3702 17.6562 44.7264C17.6625 44.0795 17.1422 43.5499 16.4953 43.5436Z" fill="#9BB9C3"/>
<path d="M16.4953 34.7936C12.7797 34.7577 9.23906 34.4249 6.52812 33.8545C3.56562 33.2327 1.35938 31.9061 1.17188 31.6467V34.3452C2.05781 34.9983 3.45 35.5452 5.36563 35.9967C8.31562 36.692 12.2609 37.0967 16.4734 37.1374H16.4844C17.1266 37.1374 17.65 36.6202 17.6562 35.9764C17.6625 35.3295 17.1422 34.7999 16.4953 34.7936V34.7936Z" fill="#9BB9C3"/>
<path d="M1.17188 49.1467V51.8452C1.88437 52.3702 2.92187 52.8264 4.29688 53.2186V50.7233C2.51094 50.0874 1.30781 49.3358 1.17188 49.1467Z" fill="#87A0AF"/>
<path d="M1.17188 40.3967V43.0952C1.88437 43.6202 2.92187 44.0764 4.29688 44.4686V41.9733C2.51094 41.3374 1.30781 40.5858 1.17188 40.3967Z" fill="#87A0AF"/>
<path d="M1.17188 31.6467V34.3452C1.88437 34.8702 2.92187 35.3264 4.29688 35.7186V33.2233C2.51094 32.5874 1.30781 31.8358 1.17188 31.6467Z" fill="#87A0AF"/>
<path d="M19.7406 23.4436L18.8281 27.2155H16.4844C15.4156 27.2046 14.375 27.1718 13.3719 27.1171C6.36875 26.7296 1.17188 25.3014 1.17188 23.5999C1.17188 21.8983 6.36563 20.4718 13.3672 20.0843C14.3719 20.028 15.4141 19.9952 16.4844 19.9843L18.8281 22.4749L19.7406 23.4436Z" fill="#9BB9C3"/>
<path d="M78.8281 58.5999V51.8452L78.1838 51.0503L78.8281 49.2249V43.0172L78.2698 42.2947L78.8281 40.3967V34.3452L78.3214 33.4874L78.8281 31.8016V23.5999H61.1719V62.2155H63.5156C72.0344 62.1327 78.8281 60.5452 78.8281 58.5999Z" fill="#B4D2D7"/>
<path d="M66.6406 23.5999V62.1155C65.6328 62.1717 64.5875 62.2045 63.5156 62.2155H61.1719V23.5999H66.6406Z" fill="#87A0AF"/>
<path d="M62.3437 53.4764C62.35 54.1202 62.8734 54.6374 63.5156 54.6374H63.5266C67.7391 54.5967 71.6844 54.192 74.6344 53.4967C76.55 53.0452 77.9422 52.4983 78.8281 51.8452V49.1467C78.6406 49.4061 76.4344 50.7327 73.4719 51.3545C70.7609 51.9249 67.2203 52.2577 63.5047 52.2936C62.8578 52.2999 62.3375 52.8295 62.3437 53.4764V53.4764Z" fill="#9BB9C3"/>
<path d="M62.3437 44.7264C62.35 45.3702 62.8734 45.8874 63.5156 45.8874H63.5266C67.7391 45.8467 71.6844 45.442 74.6344 44.7467C76.55 44.2952 77.9422 43.7483 78.8281 43.0952V40.3967C78.6406 40.6561 76.4344 41.9827 73.4719 42.6045C70.7609 43.1749 67.2203 43.5077 63.5047 43.5436C62.8578 43.5499 62.3375 44.0795 62.3437 44.7264V44.7264Z" fill="#9BB9C3"/>
<path d="M62.3437 35.9764C62.35 36.6202 62.8734 37.1374 63.5156 37.1374H63.5266C67.7391 37.0967 71.6844 36.692 74.6344 35.9967C76.55 35.5452 77.9422 34.9983 78.8281 34.3452V31.6467C78.6406 31.9061 76.4344 33.2327 73.4719 33.8545C70.7609 34.4249 67.2203 34.7577 63.5047 34.7936C62.8578 34.7999 62.3375 35.3295 62.3437 35.9764V35.9764Z" fill="#9BB9C3"/>
<path d="M63.5047 34.7936C62.8578 34.7999 62.3375 35.3296 62.3437 35.9764C62.35 36.6202 62.8734 37.1374 63.5156 37.1374H63.5266C64.5844 37.1264 65.6266 37.0936 66.6406 37.0389V34.6905C65.6203 34.7483 64.5687 34.7827 63.5047 34.7936Z" fill="#BEBEBE"/>
<path d="M78.8281 23.5999C78.8281 25.5452 72.0344 27.1327 63.5156 27.2155H61.1719L60.2595 23.4436L63.5156 19.9843C72.0344 20.0671 78.8281 21.6546 78.8281 23.5999Z" fill="#9BB9C3"/>
<path d="M18.8281 22.4749V27.2155H16.4844C15.4156 27.2046 14.375 27.1718 13.3719 27.1171L13.3672 20.0843C14.3719 20.028 15.4141 19.9952 16.4844 19.9843L18.8281 22.4749Z" fill="#87A0AF"/>
<path d="M16.4734 37.1374C15.4203 37.128 14.3844 37.0952 13.3766 37.0405L13.3734 34.6905C14.3891 34.7483 15.4359 34.7827 16.4953 34.7936C17.1422 34.7999 17.6625 35.3296 17.6563 35.9764C17.65 36.6202 17.1266 37.1374 16.4844 37.1374H16.4734Z" fill="#87A0AF"/>
<path d="M17.6563 44.7265C17.65 45.3702 17.1266 45.8874 16.4844 45.8874H16.4734C15.4234 45.878 14.3891 45.8452 13.3828 45.7905L13.3813 43.4421C14.3953 43.4983 15.4375 43.5327 16.4953 43.5436C17.1422 43.5499 17.6625 44.0796 17.6563 44.7265Z" fill="#87A0AF"/>
<path d="M17.6562 53.4764C17.65 54.1202 17.1265 54.6374 16.4844 54.6374H16.4734C15.4219 54.628 14.3859 54.5952 13.3781 54.5405L13.3812 52.1921C14.3953 52.2483 15.4375 52.2827 16.4953 52.2936C17.1422 52.2999 17.6625 52.8296 17.6562 53.4764Z" fill="#87A0AF"/>
<path d="M66.6406 23.5999V62.1155C65.6328 62.1717 64.5875 62.2045 63.5156 62.2155H61.1719V23.5999H66.6406Z" fill="#9BB9C3"/>
<path d="M66.6406 20.0843V27.1155C65.6328 27.1718 64.5875 27.2046 63.5156 27.2155H61.1719L60.2594 23.4436L61.1719 22.4749L63.5156 19.9843C64.5875 19.9952 65.6328 20.028 66.6406 20.0843Z" fill="#BEBEBE"/>
<path d="M66.6406 20.0843V27.1155C65.6328 27.1718 64.5875 27.2046 63.5156 27.2155H61.1719V22.4749L63.5156 19.9843C64.5875 19.9952 65.6328 20.028 66.6406 20.0843V20.0843Z" fill="#87A0AF"/>
<path d="M66.6406 34.6905V37.0389C65.6266 37.0936 64.5844 37.1264 63.5266 37.1374H63.5156C62.8734 37.1374 62.35 36.6202 62.3437 35.9764C62.3375 35.3296 62.8578 34.7999 63.5047 34.7936C64.5687 34.7827 65.6203 34.7483 66.6406 34.6905Z" fill="#87A0AF"/>
<path d="M63.5047 43.5436C64.5687 43.5326 65.6203 43.4982 66.6406 43.4404V45.7889C65.6266 45.8436 64.5844 45.8764 63.5266 45.8873H63.5156C62.8734 45.8873 62.35 45.3701 62.3437 44.7264C62.3375 44.0795 62.8578 43.5498 63.5047 43.5436V43.5436Z" fill="#87A0AF"/>
<path d="M63.5047 52.2936C64.5687 52.2826 65.6203 52.2482 66.6406 52.1904V54.5389C65.6266 54.5936 64.5844 54.6264 63.5266 54.6373H63.5156C62.8734 54.6373 62.35 54.1201 62.3437 53.4764C62.3375 52.8295 62.8578 52.2998 63.5047 52.2936V52.2936Z" fill="#87A0AF"/>
<path d="M63.5156 15.3186V64.6936C63.5156 67.628 52.9875 70.0061 40 70.0061C27.0125 70.0061 16.4844 67.628 16.4844 64.6936L16.885 64.4463L16.4844 61.9305V52.2936L17.0914 52.1255L16.4844 49.442V40.0061L17.163 39.5255L16.4844 37.1374V27.5806L17.472 27.4194L16.4844 24.8584V15.3186C16.4844 12.3842 27.0125 10.0061 40 10.0061C52.9875 10.0061 63.5156 12.3842 63.5156 15.3186V15.3186Z" fill="#B4D2D7"/>
<path d="M40 20.6311C52.9873 20.6311 63.5156 18.2526 63.5156 15.3186C63.5156 12.3846 52.9873 10.0061 40 10.0061C27.0127 10.0061 16.4844 12.3846 16.4844 15.3186C16.4844 18.2526 27.0127 20.6311 40 20.6311Z" fill="#9BB9C3"/>
<path d="M16.4844 15.3186V24.8864L17.1603 26.9592L16.4844 27.6624V27.6913V37.2631L16.8464 39.1403L16.4844 40.0061V49.5538L17.0398 51.575L16.4844 52.3499V61.7306L16.8933 64.0842L16.4844 64.6936C16.4844 65.8874 18.2281 66.9905 21.1719 67.8764V55.5327V43.1889V30.8452V18.5014C18.2281 17.6155 16.4844 16.5124 16.4844 15.3186V15.3186Z" fill="#9BB9C3"/>
<path d="M63.5156 36.8811V40.0061C63.5156 42.9405 52.9875 45.3186 40 45.3186C31.375 45.3186 23.8328 44.2702 19.7406 42.7061V39.5811C23.8328 41.1452 31.375 42.1936 40 42.1936C52.9875 42.1936 63.5156 39.8155 63.5156 36.8811Z" fill="#9BB9C3"/>
<path d="M63.5156 61.5686V64.6936C63.5156 67.628 52.9875 70.0061 40 70.0061C32.2984 70.0061 25.4609 69.1702 21.1719 67.8764L19.9814 66.0589L21.1719 64.7514C25.4609 66.0452 32.2984 66.8811 40 66.8811C52.9875 66.8811 63.5156 64.503 63.5156 61.5686Z" fill="#9BB9C3"/>
<path d="M21.1719 40.0639V43.1889C19.7764 42.7488 18.3169 42.2605 17.1922 41.3045C16.8187 40.9714 16.4845 40.5261 16.4844 40.0061V36.8811C16.4844 38.0749 18.2281 39.178 21.1719 40.0639Z" fill="#87A0AF"/>
<path d="M21.1719 64.7514V67.8764C19.5188 67.2817 17.3284 66.7828 16.5389 65.0547C16.4388 64.9983 16.4992 61.7499 16.4844 61.5686C16.4844 62.7624 18.2281 63.8655 21.1719 64.7514Z" fill="#87A0AF"/>
<path d="M63.5156 24.5374V27.6624C63.5156 30.5967 52.9875 32.9749 40 32.9749C31.375 32.9749 23.8328 31.9264 19.7406 30.3624V27.2374C23.8328 28.8014 31.375 29.8499 40 29.8499C52.9875 29.8499 63.5156 27.4717 63.5156 24.5374Z" fill="#9BB9C3"/>
<path d="M63.5156 49.2249V52.3499C63.5156 55.2842 52.9875 57.6624 40 57.6624C31.375 57.6624 23.8328 56.6139 19.7406 55.0499V51.9249C23.8328 53.4889 31.375 54.5374 40 54.5374C52.9875 54.5374 63.5156 52.1592 63.5156 49.2249Z" fill="#9BB9C3"/>
<path d="M21.1719 27.7202V30.8452C19.6994 30.3709 18.1167 29.8684 16.9953 28.7686C16.7108 28.4692 16.4838 28.085 16.4844 27.6624V24.5374C16.4844 25.7311 18.2281 26.8342 21.1719 27.7202Z" fill="#87A0AF"/>
<path d="M21.1719 52.4077V55.5327C19.7764 55.0925 18.3169 54.6042 17.1922 53.6483C16.8187 53.3152 16.4845 52.8699 16.4844 52.3499V49.2249C16.4844 50.4186 18.2281 51.5217 21.1719 52.4077Z" fill="#87A0AF"/>
<path d="M74.6348 19.9528C71.9572 19.3227 68.4597 18.9317 64.6875 18.8339V15.3186C64.6875 13.2077 62.1358 11.6049 56.8862 10.4191C52.3625 9.39704 46.3655 8.83423 40 8.83423C36.5363 8.83423 33.1948 8.99892 30.0689 9.32345C29.4252 9.39032 28.9575 9.96626 29.0242 10.61C29.0911 11.2539 29.668 11.7205 30.3108 11.6547C33.3567 11.3384 36.6166 11.178 39.9998 11.178C46.1967 11.178 52.0103 11.7203 56.3697 12.7052C61.2806 13.8147 62.3438 15.0678 62.3438 15.3186C62.3438 15.5694 61.2806 16.8225 56.3698 17.932C47.8416 19.953 32.1586 19.953 23.6303 17.932C18.7194 16.8225 17.6562 15.5692 17.6562 15.3186C17.6562 15.0278 18.9381 13.6025 24.8603 12.4469C25.4955 12.323 25.91 11.7075 25.7861 11.0722C25.662 10.4372 25.0481 10.0224 24.4114 10.1464C18.2888 11.3413 15.3125 13.033 15.3125 15.3186V18.8339C11.5405 18.9317 8.04297 19.3225 5.36516 19.9528C1.75484 20.8025 0 21.9955 0 23.5999V58.5999C0 60.2042 1.75484 61.397 5.36516 62.2469C8.04297 62.877 11.5405 63.268 15.3125 63.3656V64.6936C15.3125 66.8045 17.8642 68.4074 23.1137 69.5931C31.9786 71.69 48.0214 71.69 56.8864 69.5931C62.1359 68.4072 64.6877 66.8044 64.6877 64.6936V63.3658C66.2316 63.3259 67.7353 63.2375 69.1703 63.0999C69.8147 63.038 70.2869 62.4658 70.2252 61.8216C70.1633 61.1772 69.588 60.705 68.9469 60.7667C67.5842 60.8972 66.1556 60.982 64.6875 61.0211V54.6156C69.7434 54.3966 73.7348 54.1059 77.6562 52.5177V58.5194C77.48 58.7539 76.5842 59.3802 74.0981 59.9652C73.4681 60.1134 73.0777 60.7444 73.2258 61.3744C73.3716 62.0092 74.0214 62.3963 74.635 62.2467C78.2452 61.397 80 60.2041 80 58.5999V23.5999C80 21.9955 78.2452 20.8025 74.6348 19.9528V19.9528ZM77.6562 41.0194C75.5456 42.8134 68.6953 43.4099 64.6875 43.5211V37.1156C69.7434 36.8966 73.7348 36.6059 77.6562 35.0177V41.0194ZM15.3125 34.7711C11.327 34.6644 4.43203 34.0584 2.34375 32.2694V26.2677C6.26578 27.8558 10.2558 28.1464 15.3125 28.3656V34.7711ZM2.34375 41.0194V35.0177C6.26563 36.6059 10.2561 36.8964 15.3125 37.1156V43.5213C11.327 43.4144 4.43203 42.8084 2.34375 41.0194ZM17.6562 43.0439C18.9391 43.7542 20.7527 44.3724 23.1137 44.9058C31.9786 47.0027 48.0214 47.0027 56.8864 44.9058C59.2475 44.3724 61.0609 43.7544 62.3439 43.0439V52.3499C62.3439 52.6005 61.2808 53.8538 56.37 54.9633C47.8417 56.9842 32.1588 56.9842 23.6305 54.9633C18.7194 53.8538 17.6562 52.6005 17.6562 52.3499V43.0439ZM77.6562 32.2694C75.5456 34.0634 68.6953 34.6599 64.6875 34.7711V28.3656C69.7438 28.1464 73.7348 27.8559 77.6562 26.2677V32.2694ZM73.4714 22.095C76.1572 22.6591 77.2609 23.293 77.5834 23.5999C75.145 25.3636 68.8306 25.8877 64.6875 26.0213V21.1783C67.9666 21.2667 71.0498 21.5864 73.4714 22.095V22.095ZM23.1137 20.2181C31.9786 22.315 48.0214 22.315 56.8864 20.2181C59.2475 19.6847 61.0609 19.0667 62.3439 18.3563V27.6622C62.3439 28.0141 60.7234 29.6903 53.2372 30.8678C52.5978 30.9684 52.1609 31.5681 52.2616 32.2075C52.3592 32.8502 52.9761 33.2858 53.6013 33.1831C57.5855 32.5564 60.5036 31.7239 62.3439 30.6945V40.0059C62.3439 40.2566 61.2808 41.5099 56.37 42.6194C47.8417 44.6403 32.1588 44.6403 23.6305 42.6194C18.7194 41.51 17.6562 40.2567 17.6562 40.0061V30.7002C18.9391 31.4105 20.7527 32.0286 23.1137 32.562C27.6375 33.5839 33.6345 34.1469 40 34.1469C42.7753 34.1469 45.4942 34.0399 48.0813 33.8289C48.7264 33.7763 49.2066 33.2106 49.1541 32.5656C49.1012 31.9205 48.5355 31.4425 47.8908 31.4928C45.3669 31.6988 42.7119 31.8031 40 31.8031C33.8031 31.8031 27.9895 31.2608 23.6302 30.2759C18.7194 29.1663 17.6562 27.913 17.6562 27.6624V18.3564C18.9391 19.0667 20.7527 19.6849 23.1137 20.2181V20.2181ZM6.52859 22.095C8.95016 21.5864 12.0334 21.2667 15.3125 21.1784V26.0213C11.1873 25.8911 4.83687 25.3599 2.41656 23.6C2.73906 23.293 3.84281 22.6589 6.52859 22.095V22.095ZM6.52859 60.1047C3.57922 59.4855 2.53797 58.7819 2.34375 58.5195V52.5177C3.13719 52.882 4.13375 53.2056 5.33906 53.4906C5.95219 53.6408 6.60281 53.2544 6.74906 52.6199C6.89797 51.99 6.50812 51.3588 5.87828 51.2099C3.40953 50.6263 2.51922 50.0031 2.34375 49.7697V43.768C6.26563 45.3563 10.2561 45.6467 15.3125 45.8659V52.2717C13.8964 52.2339 12.5163 52.1536 11.1972 52.0308C10.5548 51.9716 9.98188 52.4444 9.92172 53.0889C9.86172 53.7333 10.3355 54.3044 10.9798 54.3644C12.3695 54.4938 13.8228 54.5775 15.3125 54.6161V61.0214C12.0334 60.9328 8.95016 60.6133 6.52859 60.1047V60.1047ZM56.3698 67.3069C47.8416 69.3278 32.1586 69.3278 23.6303 67.3069C18.7194 66.1975 17.6562 64.9442 17.6562 64.6936V55.3877C18.9391 56.098 20.7527 56.7161 23.1137 57.2495C31.9786 59.3464 48.0214 59.3464 56.8864 57.2495C59.2475 56.7161 61.0609 56.0981 62.3439 55.3877V64.6936C62.3438 64.9442 61.2806 66.1975 56.3698 67.3069ZM73.4714 51.3547C71.0498 51.8633 67.9666 52.183 64.6875 52.2713V45.8656C69.7434 45.6466 73.7348 45.3559 77.6562 43.7677V49.7694C77.4619 50.0317 76.4208 50.7353 73.4714 51.3547Z" fill="black"/>
</g>
<defs>
<clipPath id="clip0_77:113">
<rect width="80" height="80" fill="white"/>
</clipPath>
</defs>
</svg>
