<svg width="96" height="96" viewBox="0 0 96 96" fill="none" xmlns="http://www.w3.org/2000/svg">
<path d="M72 12C78.63 12 84 17.37 84 24C84 30.63 78.63 36 72 36C69.705 36 67.56 35.355 65.73 34.23C65.145 32.34 63.66 30.855 61.77 30.27C60.645 28.44 60 26.295 60 24C60 17.37 65.37 12 72 12ZM78 24C78 20.685 75.315 18 72 18C68.685 18 66 20.685 66 24C66 27.315 68.685 30 72 30C75.315 30 78 27.315 78 24Z" fill="#FCD770"/>
<path d="M93 19.5V28.5L89.16 29.445C88.845 30.435 88.44 31.365 87.975 32.265L90.03 35.67L83.67 42.03L80.265 39.975C79.365 40.44 78.435 40.845 77.445 41.16L76.5 45L75.3 46.17C73.86 45.42 72.24 45 70.5 45C68.88 45 67.365 45.36 66 46.02V36C66 35.385 65.91 34.8 65.73 34.23C67.56 35.355 69.705 36 72 36C78.63 36 84 30.63 84 24C84 17.37 78.63 12 72 12C65.37 12 60 17.37 60 24C60 26.295 60.645 28.44 61.77 30.27C61.2 30.09 60.615 30 60 30H51V19.5L54.84 18.555C55.155 17.565 55.56 16.635 56.025 15.735L53.97 12.33L60.33 5.97L63.735 8.025C64.635 7.56 65.565 7.155 66.555 6.84L67.5 3H76.5L77.445 6.84C78.435 7.155 79.365 7.56 80.265 8.025L83.67 5.97L90.03 12.33L87.975 15.735C88.44 16.635 88.845 17.565 89.16 18.555L93 19.5Z" fill="#FFC729"/>
<path d="M22.5 78H50.595C49.155 80.715 48.27 83.76 48.06 87H48.045H22.5V78Z" fill="#969FAA"/>
<path d="M48 88.5V93H15C14.175 93 13.5 92.325 13.5 91.5V88.5C13.5 87.675 14.175 87 15 87H22.5H48.045H48.06C48.015 87.495 48 87.99 48 88.5Z" fill="#969FAA"/>
<path d="M59.265 69L58.8 69.285L54.6 72.6C53.01 74.19 51.66 76.005 50.595 78H22.5H9C5.685 78 3 75.315 3 72V69H9H24H30H36H42H48H54H59.265Z" fill="#CCD1D9"/>
<path d="M66 36V46.02C62.445 47.7 60 51.3 60 55.5V37.5C60 36.675 59.325 36 58.5 36H10.5C9.675 36 9 36.675 9 37.5V69H3V36C3 32.685 5.685 30 9 30H51H60C60.615 30 61.2 30.09 61.77 30.27C63.66 30.855 65.145 32.34 65.73 34.23C65.91 34.8 66 35.385 66 36Z" fill="#E6E9ED"/>
<path d="M60 69H9V37.5C9 36.672 9.672 36 10.5 36H58.5C59.328 36 60 36.672 60 37.5V69Z" fill="#69D6F4"/>
<path d="M48 42H54V69H48V42Z" fill="#B4DD7F"/>
<path d="M36 48H42V69H36V48Z" fill="#B4DD7F"/>
<path d="M24 54H30V69H24V54Z" fill="#B4DD7F"/>
<path d="M55.5 93H49.56H48V88.5C48 87.99 48.015 87.495 48.06 87C48.27 83.76 49.155 80.715 50.595 78C51.66 76.005 53.01 74.19 54.6 72.6L58.8 69.285L60 76.5L63 79.5L61.5 82.5L67.5 93H55.5Z" fill="#B4DD7F"/>
<path d="M85.5 93H73.5L79.5 82.5L78 79.5L81 76.5L82.2 69.285C88.68 73.245 93 80.37 93 88.5V93H85.5Z" fill="#B4DD7F"/>
<path d="M78 79.5L79.5 82.5L73.5 93H70.5L77.67 67.17C79.275 67.71 80.79 68.415 82.2 69.285L81 76.5L78 79.5Z" fill="#A0D468"/>
<path d="M63.33 67.17L70.5 93H67.5L61.5 82.5L63 79.5L60 76.5L58.8 69.285L59.265 69C59.505 68.865 59.745 68.73 60 68.595C61.065 68.04 62.175 67.56 63.33 67.17V67.17Z" fill="#A0D468"/>
<path d="M77.67 67.17L70.5 93L63.33 67.17C65.58 66.405 67.995 66 70.5 66C73.005 66 75.42 66.405 77.67 67.17Z" fill="#CCD1D9"/>
<path d="M75.3 46.17C78.69 47.895 81 51.42 81 55.5C81 61.305 76.305 66 70.5 66C64.695 66 60 61.305 60 55.5C60 51.3 62.445 47.7 66 46.02C67.365 45.36 68.88 45 70.5 45C72.24 45 73.86 45.42 75.3 46.17Z" fill="#F0D0B4"/>
<path d="M94.5 29.676V18.324L90.309 17.2935C90.1245 16.7955 89.916 16.2975 89.685 15.801L91.923 12.1035L83.895 4.0755L80.199 6.315C79.7025 6.084 79.2045 5.8755 78.7065 5.691L77.676 1.5H66.324L65.2935 5.691C64.7955 5.8755 64.2975 6.084 63.801 6.315L60.1035 4.077L52.0755 12.105L54.3135 15.8025C54.0825 16.299 53.874 16.797 53.6895 17.295L49.5 18.324V28.5H9C4.8645 28.5 1.5 31.8645 1.5 36V72C1.5 76.1355 4.8645 79.5 9 79.5H21V85.5H15C13.3455 85.5 12 86.8455 12 88.5V91.5C12 93.1545 13.3455 94.5 15 94.5H46.5H49.56H94.5V88.5C94.5 77.586 87.1695 68.3655 77.1765 65.4645C80.385 63.3075 82.5 59.6475 82.5 55.5C82.5 51.5865 80.6085 48.1155 77.7015 45.924L77.8545 45.7755L78.7065 42.309C79.2045 42.1245 79.7025 41.916 80.199 41.685L83.8965 43.923L91.9245 35.895L89.6865 32.1975C89.9175 31.701 90.126 31.203 90.3105 30.705L94.5 29.676ZM9 31.5H60C62.481 31.5 64.5 33.519 64.5 36V45.123C63.3705 45.7785 62.358 46.614 61.5 47.589V37.5C61.5 35.8455 60.1545 34.5 58.5 34.5H10.5C8.8455 34.5 7.5 35.8455 7.5 37.5V67.5H4.5V36C4.5 33.519 6.519 31.5 9 31.5ZM61.5 24C61.5 18.2115 66.2115 13.5 72 13.5C77.7885 13.5 82.5 18.2115 82.5 24C82.5 29.7885 77.7885 34.5 72 34.5C70.218 34.5 68.484 34.0305 66.939 33.1755C66.177 31.311 64.689 29.823 62.823 29.061C61.9695 27.513 61.5 25.7805 61.5 24V24ZM77.799 82.4535L72.63 91.5H72.474L78.6795 69.159C79.32 69.4305 79.944 69.7365 80.5515 70.068L79.6005 75.7785L76.176 79.203L77.799 82.4535ZM68.37 91.5L63.201 82.4535L64.8255 79.2045L61.401 75.78L60.45 70.0695C61.056 69.738 61.68 69.432 62.322 69.1605L68.526 91.5H68.37ZM52.5 67.5H49.5V43.5H52.5V67.5ZM61.5 66.267V63.411C62.184 64.1895 62.9595 64.8855 63.8235 65.4645C63.0315 65.694 62.256 65.9595 61.5 66.267ZM58.5 67.5H55.5V40.5H46.5V67.5H43.5V46.5H34.5V67.5H31.5V52.5H22.5V67.5H10.5V37.5H58.5V67.5ZM40.5 67.5H37.5V49.5H40.5V67.5ZM28.5 67.5H25.5V55.5H28.5V67.5ZM4.5 72V70.5H54.6795C52.728 72.2175 51.06 74.2395 49.7475 76.5H9C6.519 76.5 4.5 74.481 4.5 72V72ZM24 79.5H48.267C47.4975 81.393 46.971 83.4045 46.7085 85.5H24V79.5ZM15 91.5V88.5H46.5V91.5H15ZM49.5 91.5V88.5C49.5 81.735 52.728 75.7245 57.711 71.8815L58.6005 77.22L61.176 79.7955L59.8005 82.5465L64.9155 91.5H57V79.5H54V91.5H49.56H49.5ZM91.5 88.5V91.5H87V79.5H84V91.5H76.0845L81.201 82.5465L79.8255 79.7955L82.401 77.22L83.2905 71.8815C88.272 75.7245 91.5 81.735 91.5 88.5ZM75.828 68.211L70.5 87.393L65.172 68.211C66.8775 67.7625 68.6565 67.5 70.5 67.5C72.3435 67.5 74.1225 67.7625 75.828 68.211ZM79.5 55.5C79.5 60.4635 75.4635 64.5 70.5 64.5C65.5365 64.5 61.5 60.4635 61.5 55.5C61.5 50.5365 65.5365 46.5 70.5 46.5C75.4635 46.5 79.5 50.5365 79.5 55.5ZM88.1385 35.439L83.439 40.1385L80.328 38.256L79.581 38.6445C78.7215 39.0915 77.85 39.456 76.9935 39.7275L76.1895 39.981L75.147 44.226L74.988 44.3805C73.6005 43.8165 72.087 43.5 70.5 43.5C69.462 43.5 68.4615 43.6455 67.5 43.8945V36.696C68.94 37.206 70.4535 37.5 72 37.5C79.4445 37.5 85.5 31.4445 85.5 24C85.5 16.5555 79.4445 10.5 72 10.5C64.5555 10.5 58.5 16.5555 58.5 24C58.5 25.5465 58.794 27.06 59.304 28.5H52.5V20.676L56.0205 19.8105L56.274 19.0065C56.5455 18.1515 56.91 17.28 57.357 16.419L57.7455 15.672L55.863 12.561L60.5625 7.8615L63.6735 9.744L64.4205 9.3555C65.28 8.9085 66.1515 8.544 67.008 8.2725L67.812 8.019L68.676 4.5H75.324L76.1895 8.0205L76.9935 8.274C77.8485 8.5455 78.72 8.91 79.581 9.357L80.328 9.7455L83.439 7.863L88.1385 12.5625L86.256 15.6735L86.6445 16.4205C87.0915 17.28 87.456 18.1515 87.7275 19.008L87.981 19.812L91.5 20.676V27.324L87.9795 28.1895L87.726 28.992C87.4545 29.8485 87.09 30.72 86.643 31.581L86.2545 32.328L88.1385 35.439Z" fill="black"/>
<path d="M72 31.5C76.1355 31.5 79.5 28.1355 79.5 24C79.5 19.8645 76.1355 16.5 72 16.5C67.8645 16.5 64.5 19.8645 64.5 24C64.5 28.1355 67.8645 31.5 72 31.5ZM72 19.5C74.481 19.5 76.5 21.519 76.5 24C76.5 26.481 74.481 28.5 72 28.5C69.519 28.5 67.5 26.481 67.5 24C67.5 21.519 69.519 19.5 72 19.5Z" fill="black"/>
<path d="M13.5 40.5H16.5V43.5H13.5V40.5Z" fill="black"/>
<path d="M19.5 40.5H22.5V43.5H19.5V40.5Z" fill="black"/>
<path d="M25.5 40.5H28.5V43.5H25.5V40.5Z" fill="black"/>
<path d="M13.5 46.5H28.5V49.5H13.5V46.5Z" fill="black"/>
</svg>
