<svg width="453" height="273" viewBox="0 0 453 273" fill="none" xmlns="http://www.w3.org/2000/svg">
<path d="M261.47 219.327C260.412 219.327 259.378 219.641 258.499 220.228C257.62 220.815 256.934 221.649 256.53 222.626C256.125 223.602 256.019 224.677 256.225 225.713C256.432 226.75 256.941 227.702 257.689 228.449C258.436 229.196 259.389 229.705 260.426 229.911C261.464 230.118 262.539 230.012 263.516 229.607C264.493 229.203 265.328 228.518 265.915 227.639C266.503 226.761 266.816 225.727 266.816 224.671C266.816 223.253 266.253 221.894 265.25 220.892C264.248 219.89 262.888 219.327 261.47 219.327ZM261.47 227.959C260.819 227.959 260.183 227.766 259.641 227.405C259.1 227.044 258.679 226.53 258.43 225.929C258.18 225.328 258.115 224.667 258.242 224.029C258.369 223.391 258.683 222.805 259.143 222.345C259.603 221.885 260.189 221.572 260.828 221.445C261.466 221.319 262.127 221.384 262.729 221.633C263.33 221.881 263.844 222.303 264.205 222.844C264.567 223.384 264.76 224.02 264.76 224.671V224.671C264.76 225.543 264.413 226.379 263.796 226.996C263.179 227.613 262.342 227.959 261.47 227.959Z" fill="#E4E4E4"/>
<path d="M240.904 215.216H261.469V235.557C261.469 236.268 261.187 236.949 260.685 237.451C260.182 237.953 259.501 238.235 258.79 238.235H243.583C242.873 238.235 242.191 237.953 241.689 237.451C241.187 236.949 240.904 236.268 240.904 235.557V215.216Z" fill="#E4E4E4"/>
<path d="M309.52 238.7H0.417125C0.302493 238.688 0.196539 238.633 0.119571 238.547C0.0426025 238.462 3.8147e-05 238.35 3.8147e-05 238.235C3.8147e-05 238.12 0.0426025 238.009 0.119571 237.923C0.196539 237.837 0.302493 237.783 0.417125 237.77H309.52C309.634 237.783 309.74 237.837 309.817 237.923C309.894 238.009 309.937 238.12 309.937 238.235C309.937 238.35 309.894 238.462 309.817 238.547C309.74 238.633 309.634 238.688 309.52 238.7Z" fill="#CACACA"/>
<path d="M41.6069 229.916L39.6953 239.362L75.2447 251.228L78.0666 237.285L41.6069 229.916Z" fill="#FFB6B6"/>
<path d="M45.1809 228.13L41.4157 246.733L41.4156 246.734C40.7789 249.878 38.9186 252.641 36.2438 254.414C33.5691 256.188 30.2989 256.827 27.1527 256.191L26.7672 256.113L32.9321 225.654L45.1809 228.13Z" fill="#2F2E41"/>
<path d="M81.892 99.7938C95.2231 99.7938 106.03 88.9935 106.03 75.6708C106.03 62.3481 95.2231 51.5479 81.892 51.5479C68.5608 51.5479 57.7538 62.3481 57.7538 75.6708C57.7538 88.9935 68.5608 99.7938 81.892 99.7938Z" fill="#FEB8B8"/>
<path d="M104.437 54.8596C100.828 49.0031 95.1794 44.6876 88.5776 42.7439L85.6143 44.9051V42.0989C84.0288 41.8564 82.4241 41.763 80.8212 41.8199L78.2645 44.1317V42.0119C74.4792 42.482 70.8324 43.7308 67.5541 45.6796C64.2757 47.6284 61.437 50.2349 59.2168 53.3347C53.6648 61.3336 52.7275 72.462 58.1884 80.5251C59.6873 75.9211 61.5068 71.6012 63.0062 66.9976C64.1844 67.1581 65.3785 67.1639 66.5582 67.0148L68.3819 62.7618L68.8915 66.8348C74.5445 66.3428 82.9292 65.262 88.2882 64.2719L87.767 61.1472L90.8848 63.7436C92.5266 63.366 93.5015 63.0232 93.421 62.7614C97.4067 69.1829 102.284 73.2842 106.27 79.7057C107.784 70.6511 109.526 63.1223 104.437 54.8596Z" fill="#2F2E41"/>
<path d="M89.7457 233.526C124.071 233.526 151.898 225.748 151.898 216.152C151.898 206.557 124.071 198.778 89.7457 198.778C55.42 198.778 27.5936 206.557 27.5936 216.152C27.5936 225.748 55.42 233.526 89.7457 233.526Z" fill="#2F2E41"/>
<path d="M133.806 137.704C132.976 132.713 132.12 127.627 129.799 123.131C128.274 120.186 125.853 117.38 122.589 116.798C121.946 116.741 121.314 116.595 120.711 116.364C119.755 115.903 106.903 108.571 104.86 107.294C103.106 106.198 100.337 104.168 98.9412 104.168C97.5367 104.137 92.1513 105.39 71.1318 103.748C67.5961 105.166 64.1722 106.848 60.8893 108.78C60.8216 108.736 39.0728 120.407 38.2558 120.377C36.7084 120.312 35.2701 121.302 34.383 122.548C33.4961 123.795 33.0801 125.339 32.6445 126.831C37.3948 137.403 41.7411 147.989 46.4919 158.561C46.7143 158.959 46.8325 159.407 46.8354 159.863C46.7399 160.336 46.5378 160.782 46.2444 161.165C43.9147 164.905 43.9888 169.609 44.2433 174.005C44.498 178.401 44.8129 183.044 42.8472 186.984C42.3126 188.066 41.6173 189.056 41.1088 190.137C39.9179 192.587 39.4875 200.423 40.1831 203.055L127.328 205.55C125.454 200.403 133.806 137.704 133.806 137.704Z" fill="#BD4055"/>
<path d="M25.1118 159.03C24.938 160.287 24.9205 161.561 25.0597 162.822L26.3087 180.748C26.426 182.437 26.5414 184.123 26.7001 185.808C26.9998 189.079 27.4474 192.324 28.0031 195.564C28.0156 196.024 28.2103 196.46 28.5443 196.777C28.8784 197.094 29.3245 197.265 29.7849 197.253C35.283 198.416 40.9635 198.369 46.5747 198.053C55.1371 197.575 77.043 196.671 78.3814 194.934C79.7197 193.197 78.9398 190.386 77.1947 188.981C75.4497 187.576 46.5417 184.151 46.5417 184.151C46.8241 181.914 47.6762 179.808 48.4845 177.684C49.9364 173.917 51.2924 170.026 51.3185 165.991C51.3445 161.955 49.8233 157.713 46.5156 155.401C43.7947 153.503 40.2916 153.151 36.9759 153.229C34.5636 153.298 30.3954 152.721 28.192 153.663C26.4483 154.431 25.4376 157.323 25.1118 159.03Z" fill="#FBBEBE"/>
<path d="M133.961 199.551C135.408 199 137.003 199.199 138.555 199.408C143.549 200.09 148.617 200.789 153.245 202.783C155.419 203.713 157.488 204.955 158.957 206.783C160.26 208.429 161.021 210.444 161.743 212.429L163.412 216.999C164.122 218.716 164.611 220.515 164.868 222.355C165.39 227.823 161.647 232.979 156.94 235.82C152.233 238.661 146.692 239.672 141.293 240.732C135.895 241.792 130.475 242.964 125.099 244.207C122.592 244.857 120.047 245.358 117.48 245.706C111.726 246.357 105.71 245.397 100.243 247.3C98.0694 248.06 95.9353 249.189 93.6811 249.715C92.1827 250.03 90.6678 250.26 89.1435 250.405L78.795 251.587C76.6907 251.868 74.5722 252.03 72.4495 252.073C67.9296 252.073 63.4832 251.003 59.094 249.934C58.6276 249.852 58.1837 249.673 57.791 249.408C57.0958 248.861 56.9436 247.892 56.8436 247.015C56.4003 243.132 56.0125 239.245 55.6802 235.353C55.576 234.089 55.4978 232.721 56.1888 231.657C57.0581 230.354 58.7534 229.945 60.3007 229.693C66.8617 228.62 73.5083 228.159 80.1548 228.316C82.6798 225.793 86.8437 225.78 90.1514 224.407C91.3683 223.848 92.546 223.208 93.6765 222.491C99.5929 219.042 106.205 216.954 113.03 216.38C114.367 216.339 115.695 216.15 116.99 215.815C119.549 215.021 121.884 212.857 124.513 213.387C124.839 212.488 125.065 211.285 125.816 210.668C126.189 210.351 126.651 210.138 126.994 209.799C127.72 209.066 127.785 207.91 127.676 206.885C127.567 205.86 127.324 204.809 127.589 203.81C127.7 203.431 127.862 203.07 128.072 202.737C129.371 200.489 131.34 199.334 133.961 199.551Z" fill="#2F2E41"/>
<path d="M32.3932 127.153C31.9699 127.596 31.6416 128.121 31.4285 128.695C27.9153 136.608 25.8402 145.083 25.3003 153.723C25.3098 154.144 25.2126 154.561 25.0179 154.935C24.8258 155.183 24.6119 155.414 24.3789 155.625C24.1758 155.866 24.022 156.144 23.9265 156.444C23.831 156.744 23.7955 157.06 23.8222 157.374C23.8488 157.688 23.937 157.993 24.0818 158.273C24.2266 158.553 24.425 158.801 24.6659 159.004C24.7054 159.037 24.7459 159.069 24.7875 159.1C25.5046 157.751 27.2213 157.311 28.7472 157.193C36.0532 156.616 43.1898 160.012 50.5176 159.756C50.0006 157.971 49.257 156.255 48.8354 154.449C46.9707 146.426 51.6214 137.691 48.7702 129.964C48.2006 128.417 47.249 126.897 45.7496 126.22C45.1288 125.969 44.4791 125.798 43.8156 125.708C41.964 125.374 38.278 123.945 36.4878 124.518C35.827 124.731 35.5664 125.352 35.0187 125.727C34.1866 126.258 33.0828 126.454 32.3932 127.153Z" fill="#BD4055"/>
<path d="M133.858 153.663C131.655 152.721 127.487 153.298 125.074 153.229C121.759 153.151 118.256 153.503 115.535 155.401C112.227 157.713 110.706 161.955 110.732 165.991C110.758 170.026 112.114 173.917 113.566 177.684C114.374 179.808 115.226 181.914 115.509 184.151C115.509 184.151 86.6008 187.576 84.8557 188.981C83.1107 190.386 82.3307 193.197 83.6691 194.934C85.0074 196.671 126.767 198.416 132.266 197.253C132.726 197.265 133.172 197.093 133.506 196.777C133.84 196.46 134.035 196.024 134.047 195.564C134.603 192.324 135.051 189.079 135.35 185.808C135.509 184.123 135.624 182.437 135.742 180.748L136.991 162.822C137.13 161.56 137.112 160.287 136.939 159.03C136.613 157.323 135.602 154.431 133.858 153.663Z" fill="#FBBEBE"/>
<path d="M127.032 125.727C126.484 125.352 126.223 124.731 125.563 124.518C123.772 123.945 120.086 125.374 118.235 125.708C117.571 125.798 116.922 125.969 116.301 126.22C114.801 126.897 113.85 128.417 113.28 129.964C110.429 137.691 115.08 146.426 113.215 154.449C112.793 156.255 112.05 157.971 111.533 159.756C118.861 160.012 125.997 156.616 133.303 157.193C134.829 157.311 136.546 157.751 137.263 159.1C137.304 159.069 137.345 159.037 137.385 159.004C137.625 158.801 137.824 158.553 137.969 158.273C138.113 157.993 138.202 157.688 138.228 157.374C138.255 157.06 138.219 156.744 138.124 156.444C138.028 156.144 137.875 155.866 137.672 155.625C137.438 155.414 137.225 155.183 137.033 154.935C136.838 154.561 136.741 154.144 136.75 153.723C136.21 145.083 134.135 136.608 130.622 128.695C130.409 128.121 130.081 127.596 129.657 127.153C128.968 126.454 127.864 126.258 127.032 125.727Z" fill="#BD4055"/>
<path d="M139.253 243.4L137.982 252.954L100.504 252.603L102.379 238.502L139.253 243.4Z" fill="#FFB6B6"/>
<path d="M148.844 242.194L144.747 273L144.357 272.948C141.175 272.525 138.291 270.857 136.34 268.309C134.389 265.762 133.531 262.544 133.953 259.364L133.953 259.364L136.456 240.549L148.844 242.194Z" fill="#2F2E41"/>
<path d="M51.0812 204.386C51.0812 204.821 50.399 204.386 50.3366 203.921C49.8587 200.407 47.068 197.51 43.8171 196.103C40.5661 194.695 36.8629 194.621 33.3425 194.956C28.0184 195.459 22.0419 197.497 20.0949 202.47C19.6342 203.633 15.3186 213.985 15.7397 216.313C16.8742 222.524 21.1247 227.837 26.2752 231.516C31.4257 235.195 37.4436 237.393 43.4466 239.375C59.3179 244.606 75.6017 248.493 92.1255 250.994C94.8026 251.398 97.5063 251.772 100.07 252.632C102.365 253.4 104.512 254.551 106.755 255.455C111.971 257.548 117.582 258.296 123.141 259.03C124.088 259.152 125.175 259.238 125.875 258.596C126.779 257.758 126.479 256.298 126.222 255.095C125.279 250.52 126.07 245.758 128.443 241.734C129.374 240.17 130.584 238.567 130.408 236.758C130.199 234.647 128.096 233.153 126.001 232.814C123.906 232.475 121.776 232.975 119.672 233.248C118.951 233.414 118.195 233.339 117.521 233.035C117.208 232.824 116.924 232.573 116.677 232.288C115.228 230.891 113.373 229.989 111.379 229.71C109.385 229.431 107.354 229.791 105.577 230.738C104.799 231.172 103.622 230.203 102.813 229.839L93.6723 225.704C83.1717 220.956 72.6189 216.187 61.5096 213.181C60.6232 213.007 59.7808 212.657 59.0321 212.151C58.4802 211.717 58.0847 211.128 57.576 210.644C56.4676 209.597 54.9235 209.18 53.595 208.437C52.2664 207.695 50.7768 205.876 51.0812 204.386Z" fill="#2F2E41"/>
<path d="M74.743 198.109C78.3411 198.109 81.2579 195.194 81.2579 191.599C81.2579 188.003 78.3411 185.088 74.743 185.088C71.1449 185.088 68.2281 188.003 68.2281 191.599C68.2281 195.194 71.1449 198.109 74.743 198.109Z" fill="#FBBEBE"/>
<path d="M89.1688 198.109C92.7669 198.109 95.6837 195.194 95.6837 191.599C95.6837 188.003 92.7669 185.088 89.1688 185.088C85.5708 185.088 82.6539 188.003 82.6539 191.599C82.6539 195.194 85.5708 198.109 89.1688 198.109Z" fill="#FBBEBE"/>
<path d="M129.384 206.27H39.8789C38.8339 206.268 37.832 205.853 37.0931 205.115C36.3542 204.376 35.9385 203.375 35.9372 202.331V148.065C35.9385 147.021 36.3542 146.019 37.0931 145.281C37.832 144.543 38.8339 144.127 39.8789 144.126H129.384C130.429 144.127 131.431 144.543 132.169 145.281C132.908 146.019 133.324 147.021 133.325 148.065V202.331C133.324 203.375 132.908 204.376 132.169 205.115C131.431 205.853 130.429 206.268 129.384 206.27Z" fill="#3F3D56"/>
<path d="M84.4142 177.804C85.8544 177.804 87.022 176.637 87.022 175.198C87.022 173.759 85.8544 172.592 84.4142 172.592C82.9739 172.592 81.8063 173.759 81.8063 175.198C81.8063 176.637 82.9739 177.804 84.4142 177.804Z" fill="white"/>
<path d="M403.937 97.8723H287.65C287.033 97.8716 286.441 97.6264 286.005 97.1905C285.569 96.7545 285.324 96.1635 285.323 95.547V73.6428H286.254V95.547C286.254 95.9169 286.401 96.2715 286.663 96.5331C286.925 96.7946 287.28 96.9418 287.65 96.9422H403.937C404.307 96.9418 404.662 96.7946 404.924 96.5331C405.186 96.2715 405.333 95.9169 405.333 95.547V73.4897H406.264V95.547C406.263 96.1635 406.018 96.7545 405.582 97.1905C405.146 97.6264 404.554 97.8716 403.937 97.8723Z" fill="#3F3D56"/>
<path d="M446.092 73.1777H172.829V74.1079H446.092V73.1777Z" fill="#3F3D56"/>
<path d="M172.849 81.5701C177.27 81.5701 180.854 77.9884 180.854 73.5702C180.854 69.152 177.27 65.5703 172.849 65.5703C168.428 65.5703 164.844 69.152 164.844 73.5702C164.844 77.9884 168.428 81.5701 172.849 81.5701Z" fill="#1F4454"/>
<path d="M254.195 81.5701C258.616 81.5701 262.2 77.9884 262.2 73.5702C262.2 69.152 258.616 65.5703 254.195 65.5703C249.774 65.5703 246.19 69.152 246.19 73.5702C246.19 77.9884 249.774 81.5701 254.195 81.5701Z" fill="#1F4454"/>
<path d="M309.4 105.084C313.821 105.084 317.405 101.502 317.405 97.0839C317.405 92.6657 313.821 89.084 309.4 89.084C304.979 89.084 301.395 92.6657 301.395 97.0839C301.395 101.502 304.979 105.084 309.4 105.084Z" fill="#3F3D56"/>
<path d="M351.369 105.084C355.79 105.084 359.373 101.502 359.373 97.0839C359.373 92.6657 355.79 89.084 351.369 89.084C346.948 89.084 343.364 92.6657 343.364 97.0839C343.364 101.502 346.948 105.084 351.369 105.084Z" fill="#CCCCCC"/>
<path d="M331.031 81.5701C335.452 81.5701 339.036 77.9884 339.036 73.5702C339.036 69.152 335.452 65.5703 331.031 65.5703C326.61 65.5703 323.026 69.152 323.026 73.5702C323.026 77.9884 326.61 81.5701 331.031 81.5701Z" fill="#1F4454"/>
<path d="M444.995 81.5701C449.416 81.5701 453 77.9884 453 73.5702C453 69.152 449.416 65.5703 444.995 65.5703C440.574 65.5703 436.99 69.152 436.99 73.5702C436.99 77.9884 440.574 81.5701 444.995 81.5701Z" fill="#1F4454"/>
<path d="M405.799 81.5701C410.22 81.5701 413.804 77.9884 413.804 73.5702C413.804 69.152 410.22 65.5703 405.799 65.5703C401.378 65.5703 397.794 69.152 397.794 73.5702C397.794 77.9884 401.378 81.5701 405.799 81.5701Z" fill="#1F4454"/>
<path d="M316.645 0H301.798V10.2265H316.645V0Z" fill="#3F3D56"/>
<path d="M180.332 0H165.484V10.2265H180.332V0Z" fill="#1F4454"/>
<path d="M230.623 0H215.776V10.2265H230.623V0Z" fill="#CCCCCC"/>
<path d="M197.672 74.108C197.549 74.108 197.43 74.059 197.343 73.9717C197.256 73.8845 197.207 73.7662 197.207 73.6429V50.6866C197.208 50.0701 197.453 49.4791 197.889 49.0432C198.325 48.6073 198.917 48.362 199.534 48.3613H222.184C222.308 48.3613 222.426 48.4103 222.514 48.4975C222.601 48.5848 222.65 48.703 222.65 48.8264C222.65 48.9497 222.601 49.068 222.514 49.1552C222.426 49.2425 222.308 49.2914 222.184 49.2914H199.534C199.163 49.2918 198.809 49.439 198.547 49.7005C198.285 49.9621 198.138 50.3167 198.138 50.6866V73.6429C198.138 73.7662 198.089 73.8845 198.001 73.9717C197.914 74.059 197.796 74.1079 197.672 74.108Z" fill="#3F3D56"/>
<path d="M223.249 56.6522C227.67 56.6522 231.254 53.0705 231.254 48.6523C231.254 44.234 227.67 40.6523 223.249 40.6523C218.828 40.6523 215.244 44.234 215.244 48.6523C215.244 53.0705 218.828 56.6522 223.249 56.6522Z" fill="#E6E6E6"/>
<path d="M376.832 73.6429H375.901V50.6866C375.902 50.0701 376.147 49.4791 376.583 49.0432C377.02 48.6073 377.611 48.362 378.228 48.3613H400.879V49.2914H378.228C377.858 49.2918 377.503 49.439 377.241 49.7005C376.979 49.9621 376.832 50.3167 376.832 50.6866V73.6429Z" fill="#3F3D56"/>
<path d="M401.943 56.6522C406.364 56.6522 409.948 53.0705 409.948 48.6523C409.948 44.234 406.364 40.6523 401.943 40.6523C397.522 40.6523 393.938 44.234 393.938 48.6523C393.938 53.0705 397.522 56.6522 401.943 56.6522Z" fill="#E6E6E6"/>
</svg>
