<?xml version="1.0" standalone="no"?>
<!DOCTYPE svg PUBLIC "-//W3C//DTD SVG 20010904//EN"
 "http://www.w3.org/TR/2001/REC-SVG-20010904/DTD/svg10.dtd">
<svg version="1.0" xmlns="http://www.w3.org/2000/svg"
 width="800.000000pt" height="800.000000pt" viewBox="0 0 800.000000 800.000000"
 preserveAspectRatio="xMidYMid meet">
<metadata>
Created by potrace 1.11, written by Peter Selinger 2001-2013
</metadata>
<g transform="translate(0.000000,800.000000) scale(0.100000,-0.100000)"
fill="#000000" stroke="none">
<path d="M3720 7839 c-151 -87 -282 -163 -290 -168 -20 -12 -501 -290 -548
-317 -21 -11 -185 -106 -367 -211 -181 -105 -348 -201 -370 -213 -22 -12 -44
-26 -50 -30 -5 -4 -30 -19 -55 -32 -90 -50 -125 -70 -135 -78 -5 -4 -35 -21
-65 -37 -30 -17 -152 -86 -270 -155 -118 -69 -235 -136 -260 -150 -25 -14
-138 -79 -251 -145 -114 -66 -231 -134 -260 -150 -30 -17 -102 -58 -160 -92
l-106 -61 0 -1999 0 -2000 231 -133 c126 -73 250 -145 275 -159 381 -218 651
-375 673 -390 15 -10 29 -19 32 -19 2 0 53 -29 113 -63 59 -35 259 -151 443
-257 184 -106 367 -212 405 -235 39 -23 77 -45 85 -48 8 -4 31 -17 50 -28 19
-12 211 -123 425 -247 215 -124 404 -233 420 -243 17 -11 37 -22 45 -26 8 -4
38 -20 65 -36 28 -17 66 -39 85 -50 19 -10 54 -30 77 -44 l42 -25 93 55 c51
30 113 65 138 79 25 14 128 74 230 133 298 173 641 370 695 400 28 15 57 33
65 39 8 6 24 16 35 22 11 6 112 64 225 129 113 65 221 127 242 139 20 12 421
243 890 514 l855 493 -1 2001 -1 2001 -35 20 c-19 11 -56 32 -81 46 -75 43
-643 372 -659 382 -8 5 -114 66 -235 135 -203 117 -658 379 -835 481 -41 24
-82 48 -90 53 -8 6 -22 13 -30 17 -8 4 -31 16 -50 28 -19 12 -55 33 -80 47
-25 14 -84 48 -131 75 -48 27 -93 53 -100 57 -8 3 -35 19 -60 34 -38 22 -419
244 -477 277 -116 66 -230 132 -244 140 -9 5 -56 33 -104 60 -48 28 -99 57
-113 65 -87 51 -139 80 -142 79 -2 0 -128 -72 -279 -160z m285 -1154 l60 0 1
308 c0 169 3 309 5 311 3 3 94 -47 204 -110 110 -64 218 -126 240 -138 44 -25
141 -82 165 -96 47 -28 152 -90 155 -90 1 0 65 -36 141 -81 77 -44 159 -92
184 -106 24 -14 146 -84 270 -155 124 -72 245 -142 270 -156 25 -14 78 -45
118 -69 41 -24 76 -43 79 -43 3 0 17 -8 31 -19 15 -10 47 -29 72 -43 25 -14
133 -76 240 -138 107 -62 234 -135 283 -162 48 -28 89 -53 91 -57 2 -3 -120
-78 -272 -166 -153 -87 -358 -206 -457 -263 -99 -57 -187 -108 -195 -113 -8
-5 -96 -55 -195 -112 -175 -101 -618 -356 -682 -393 -41 -25 -244 -141 -305
-176 -27 -15 -121 -70 -211 -122 -89 -51 -180 -104 -202 -116 -22 -12 -49 -29
-60 -36 -11 -8 -25 -14 -32 -14 -7 0 -57 25 -111 56 -53 31 -113 66 -132 77
-19 10 -75 43 -125 72 -49 29 -113 66 -140 82 -65 36 -385 221 -405 233 -14 9
-745 430 -818 471 -78 45 -887 512 -890 515 -4 2 266 164 274 164 3 0 99 56
154 90 8 5 42 24 75 43 33 19 76 43 95 54 19 11 118 68 220 128 102 59 203
117 225 129 22 13 155 89 295 171 140 81 273 158 295 170 22 13 81 47 130 75
50 29 101 59 115 66 14 8 171 98 350 202 l325 189 5 -316 5 -316 60 0z m-2862
-1358 c23 -13 98 -57 167 -97 69 -40 141 -82 160 -93 19 -10 76 -43 125 -72
104 -61 536 -311 578 -334 16 -9 36 -20 45 -26 10 -5 67 -38 127 -73 61 -35
117 -67 125 -72 80 -48 153 -90 156 -90 3 0 21 -11 42 -23 20 -13 57 -35 82
-49 25 -14 86 -49 135 -78 50 -29 115 -66 145 -83 30 -16 62 -36 71 -43 8 -8
18 -14 22 -14 4 0 41 -21 84 -46 43 -26 98 -58 123 -72 96 -54 375 -215 380
-219 3 -3 5 -686 5 -1518 l0 -1513 -60 35 c-33 19 -68 37 -77 40 -10 3 -18 9
-18 14 0 5 -4 9 -10 9 -5 0 -33 14 -62 31 -53 31 -86 51 -152 89 -122 68 -513
294 -521 300 -5 4 -30 19 -55 32 -25 14 -101 58 -170 98 -69 40 -141 81 -160
92 -19 11 -161 93 -315 183 -154 89 -300 173 -325 187 -25 14 -144 83 -265
154 -121 70 -244 141 -272 157 -51 28 -74 47 -55 47 5 0 92 48 193 106 101 59
205 118 231 133 26 14 48 31 48 36 0 6 -14 32 -31 58 -21 35 -33 46 -42 39 -7
-5 -30 -20 -52 -32 -22 -12 -129 -74 -237 -136 -109 -63 -201 -114 -205 -114
-5 0 -8 670 -8 1490 0 820 1 1490 3 1490 2 0 22 -11 45 -23z m5757 -1463 c0
-1172 -2 -1478 -12 -1476 -7 2 -107 58 -223 125 -115 66 -221 126 -235 133
-23 13 -25 11 -52 -39 -28 -51 -28 -52 -10 -67 10 -8 114 -69 230 -135 116
-66 210 -124 209 -128 -2 -7 -868 -512 -1012 -591 -22 -12 -51 -29 -65 -37
-14 -9 -160 -94 -325 -189 -165 -95 -313 -180 -330 -190 -43 -25 -452 -261
-637 -368 l-158 -91 0 1513 0 1514 128 74 c101 59 409 237 699 404 18 11 130
75 249 144 119 69 235 136 258 149 22 13 231 133 463 267 232 134 437 252 455
263 18 10 60 34 93 53 191 111 270 155 273 153 1 -1 2 -668 2 -1481z"/>
<path d="M3940 5988 l0 -318 63 0 63 0 0 317 -1 317 -62 1 -63 0 0 -317z"/>
<path d="M3940 4971 l0 -319 34 -12 c28 -9 40 -8 63 3 l28 15 1 316 0 316 -63
0 -63 0 0 -319z"/>
<path d="M3290 3626 c-41 -24 -158 -92 -260 -151 -102 -59 -189 -110 -194
-115 -8 -8 37 -94 54 -105 8 -5 37 11 160 85 8 4 99 57 203 116 l187 108 0 37
c0 28 -6 41 -25 53 -35 23 -42 21 -125 -28z"/>
<path d="M2225 3009 c-143 -83 -264 -155 -269 -159 -6 -6 26 -75 50 -109 3 -3
75 37 205 112 30 17 118 68 193 112 76 44 140 85 143 91 4 11 -45 104 -55 104
-4 0 -124 -68 -267 -151z"/>
<path d="M4607 3654 c-24 -13 -28 -20 -25 -52 3 -36 6 -39 143 -120 77 -45
147 -86 155 -90 9 -4 69 -38 133 -76 65 -38 119 -67 121 -65 2 2 16 26 31 52
32 56 31 58 -52 104 -29 15 -143 81 -254 146 -110 64 -206 117 -213 117 -6 -1
-24 -8 -39 -16z"/>
<path d="M5497 3114 c-16 -26 -26 -52 -24 -58 3 -6 118 -76 256 -155 139 -80
254 -148 257 -153 12 -19 31 -5 57 41 15 27 27 51 27 55 0 5 -195 123 -230
139 -8 4 -28 15 -45 26 -16 10 -46 27 -65 38 -151 88 -196 113 -200 113 -3 0
-18 -21 -33 -46z"/>
</g>
</svg>
