<svg viewBox="0 0 400 267" xmlns="http://www.w3.org/2000/svg" style="fill-rule:evenodd;clip-rule:evenodd;stroke-linejoin:round;stroke-miterlimit:2"><path d="M230.971 37.744c-3.24 3.261-3.104 3.017-3.21 5.783-.02.538-.618 1.319-2.294 2.999-2.735 2.74-2.747 2.809-.494 2.686l1.773-.097 2.397-2.424c2.811-2.844 2.941-2.87 4.857-.969 2.083 2.066 2.041 2.255-1.23 5.508-1.823 1.812-2.61 2.77-2.427 2.953.485.485 1.237-.012 3.507-2.316 2.558-2.594 2.579-2.601 4.03-1.29 1.887 1.705 1.985 1.455-2.275 5.786l-3.84 3.904h-8.478l-1.802-1.867c-.991-1.027-1.963-1.867-2.161-1.867-.198 0-.433-.12-.524-.266-.099-.16-1.897-.267-4.497-.267-5.141 0-4.344-.4-9.418 4.733l-3.493 3.534h-5.217l-1.867-1.867c-1.027-1.027-2.063-1.867-2.304-1.867-.241 0-.753-.33-1.139-.733l-.702-.733-3.281.133-3.282.133-.081 1.723c-.115 2.455-.033 2.411-4.503 2.411-4.812 0-4.883-.033-4.883-2.276v-1.724h-2.234c-1.66 0-2.319-.103-2.566-.4-.24-.29-.876-.4-2.3-.4h-1.968l-4.533 4.534L156 67.735v3.015c0 4.318.88 3.938-8.933 3.854l-8.267-.071-.158-3.912-2.199.183c-2.693.224-2.804.129-2.869-2.485l-.049-1.919h-10.974l-5.542 5.57c-4.351 4.373-5.542 5.719-5.542 6.261v.69l4.866.073 4.867.073.089.63c.068.478-.302 1.016-1.533 2.232-2.121 2.095-2.14 2.071 1.586 2.071 4.526 0 4.584-.199-1.837 6.228l-5.372 5.377-.111 6.587c-.061 3.622-.196 6.724-.299 6.892-.137.221-1.966.279-6.555.211l-6.366-.095-10.268 10.291-10.267 10.292v12.738l-25.36 25.346.08 6.666.08 6.667 1.92 1.867c2.217 2.155 2.043 1.39 1.987 8.733l-.041 5.266-3.34 3.4-3.34 3.401-5.986.266-.16 3.37 4.399-.085 4.4-.085 5.212-5.2c2.922-2.916 5.212-5.412 5.213-5.683.001-.266-1.127-1.625-2.507-3.021-3.868-3.913-4.041-6.91-.602-10.429l1.629-1.667 3.608-.004c4.286-.005 3.265.562 8.783-4.874L80.765 172h15.112l5.328 5.328c2.931 2.93 5.365 5.556 5.409 5.835.045.279.918 1.344 1.94 2.366l1.859 1.859-.146 19.378 3.833 3.79c2.705 2.675 3.838 3.975 3.85 4.417.01.425.59 1.144 1.796 2.227 2.132 1.917 2.112 1.863 2.117 5.766l.004 3.098 2.948 2.902a1671.73 1671.73 0 003.046 2.991c.054.05 4.592.075 10.085.056l9.986-.035 4.781-4.8c5.659-5.682 4.721-5.57 9.248-1.104l3.314 3.269 6.762-.072 6.763-.071.133-3.333c.173-4.32-.188-4 4.51-4h3.946l8.305-8.203c4.568-4.512 8.306-8.328 8.306-8.482 0-.154-1.339-1.592-2.976-3.197-4.443-4.357-4.224-3.885-4.224-9.106 0-5.753-.246-5.412 3.907-5.412h3.356l1.073-1.074c1.397-1.396 1.433-1.38-3.336-1.442-2.251-.029-4.237-.142-4.413-.251-.243-.151-.32-4.002-.32-16.049V152.8h-15.991c-15.536 0-15.998-.015-16.267-.516-.379-.709-.379-26.526 0-27.235.269-.501.731-.516 16.267-.516h15.991v-15.984c0-12.495.072-16.031.333-16.2.735-.476 27.091-.304 27.528.179.346.381.411 2.619.47 16.157l.069 15.715 15.852.069c12.275.053 15.9.143 16.062.4.367.576.269 27.241-.101 27.611-.242.242-4.19.32-16.133.32h-15.814v26.856l.821.239.82.238-.01 10.096-.01 10.095 5.205 5.171 5.205 5.172h10.868l2.551 2.55c1.403 1.403 2.55 2.756 2.55 3.008 0 .251.78 1.23 1.734 2.175 2.083 2.065 2.106 2.296.399 3.893l-1.334 1.248 1.74 1.763c.957.969 1.807 2.022 1.89 2.34.083.317.981 1.407 1.995 2.421l1.843 1.843v5.425h1.134c1.102 0 1.235-.101 4.578-3.486l3.442-3.486-3.644-3.65-3.643-3.651.004-5.063c.002-2.785.106-5.225.232-5.423.125-.198 3.427-3.558 7.339-7.467 3.911-3.909 7.256-7.257 7.434-7.44a491.73 491.73 0 012.257-2.262l1.934-1.928.004-11.472c.002-6.754.108-11.636.256-11.872.272-.429 7.396-.757 9.182-.422 1.019.191 9.596 8.513 10.174 9.872.191.449 1.135 1.594 2.099 2.543l1.751 1.725v2.875c0 2.552.053 2.876.467 2.892.257.01 1.663.011 3.126.003l2.66-.015 6.422-6.406h12.73l3.838 3.85c2.111 2.118 4.006 4.248 4.213 4.734.206.485 1.163 1.659 2.126 2.608 1.721 1.696 1.752 1.75 1.752 3.143v1.416l2.866-.075 2.867-.076.075-3.123.075-3.124-3.229-3.143c-4.486-4.367-4.412-4.145-2.158-6.403 3.165-3.171 3.142-3.37-.401-3.5-2.839-.104-3.029-.256-3.029-2.424 0-1.16-.432-1.35-3.071-1.35-1.769 0-1.729.112-1.729-4.786 0-4.655-.461-3.789 4.795-8.989 4.451-4.403 3.686-4.059 9.031-4.056l4.359.003 9.112 9.044 3.085-.074 3.085-.075.074-3.609.074-3.608-3.141-3.123-3.14-3.122-.086-4.13-.085-4.129 3.777-3.806c4.612-4.647 4.182-3.357 4.221-12.673l.033-7.8-.597-.02c-2.403-.081-5.052-.016-5.209.128-.103.095-1.838 1.819-3.854 3.831l-3.667 3.658-.004 3.602c-.002 1.98-.108 3.765-.236 3.966-.254.402-7.393.633-8.445.274-.626-.214-3.582-3.061-3.582-3.45 0-.141-.315-.256-.701-.256-.487 0-1.08-.388-1.934-1.266L341.467 130h-5.276c-6.027 0-5.78.1-5.787-2.333l-.004-1.534h-2.112c-3.163 0-2.955.303-2.955-4.289v-3.966l-1.52-1.473-1.519-1.472H303.72l-.26-.684c-.143-.376-.26-1.216-.26-1.866V111.2h-2.124c-1.764 0-2.167-.081-2.378-.475-.194-.363-.457-14.879-.322-17.762.021-.44 3.694-4.362 7.957-8.496l1.4-1.357V67.642l-8.456-8.486-8.455-8.485-15.745-.069-15.744-.069-.077-1.885-.077-1.886-1.842.084c-2.974.137-3.204-.039-3.204-2.439V42.4h-1.866l-.004 1.667c-.007 3.376-.164 3.444-2.58 1.133-.997-.953-1.986-1.733-2.198-1.733-1.371 0-6.685-6.354-6.685-7.992v-.808h-6.771l-3.058 3.077m11.696-2.103c0 .825.224 1.198 1.468 2.442 1.705 1.705 1.729 1.699 1.868-.468.165-2.555-.084-2.948-1.863-2.948h-1.473v.974m13.385 8.145l.081 1.414 1.548.08 1.548.081-.162-2.828-3.096-.16.081 1.413m-26.523 4.947l-2.067 2.067h-1.998c-2.402 0-2.417.066-.44 2.043 1.96 1.96 1.535 2.085 5.19-1.519 3.255-3.211 3.431-3.493 2.632-4.216-.793-.718-1.147-.544-3.317 1.625m-94.325 18.388c.007 1.554.236 1.869 1.479 2.04 1.763.242 2.024.053 1.93-1.395l-.08-1.233-1.666-.079-1.667-.079.004.746m174.314 1.85c-.101.101-.185 3.5-.185 7.552v7.367l-4.666 4.651L300 93.192v16.141h3.2v-5.475c0-5.484.23-7.074 1.102-7.613.155-.096 2.131-2.014 4.39-4.262l4.108-4.087V71.85l-1.548-1.532c-.852-.843-1.632-1.449-1.734-1.347M111.521 82.2l.079 1.667 3.642.158 1.312-1.354c1.977-2.04 1.891-2.138-1.9-2.138h-3.213l.08 1.667m215.436 39.243c-.015 2.919.176 3.184 2.187 3.039 1.818-.132 1.812-1.825-.012-3.611-2.318-2.268-2.159-2.31-2.175.572m46.194-.644c-.266.074-.494.344-.507.601-.012.257-.042 4.068-.066 8.47l-.045 8.003-7.858 7.86.034 3.43.034 3.429 1.42 1.438c1.857 1.881 1.837 1.897 1.837-1.433v-2.87l4-3.994 4-3.993v-20.886l-1.182-.094c-.65-.052-1.4-.034-1.667.039m-31.864 42.856l-3.954 3.922v3.116c0 3.488-.027 3.44 1.985 3.44h1.142l.296-1.475c.288-1.433.415-1.593 4.364-5.467l4.068-3.991h3.539c4.059 0 4.016.041 2.079-1.959l-1.461-1.508h-8.105l-3.953 3.922m29.909.812c-.005 4.371.191 4.14-3.629 4.258-3.835.117-3.767.053-1.913 1.835l1.515 1.455 7.364-.148.034-3.734c.037-4.154-.006-4.294-1.845-6.044-1.507-1.433-1.522-1.411-1.526 2.378m-86.485 7.177c-.098.098-.18 5.108-.182 11.134-.002 6.207-.11 11.129-.25 11.355-.135.22-4.453 4.6-9.596 9.734l-9.35 9.333v9.345l3.2 3.09v-8.169l6.426-6.4c3.533-3.52 6.743-6.746 7.133-7.17.954-1.038 1.109-1.192 2.466-2.46.647-.604 1.655-1.6 2.242-2.213l1.067-1.115.266-23.308 3.2-.07c4.166-.091 4.117-.054 2.302-1.785l-1.55-1.478h-3.598c-1.979 0-3.678.08-3.776.177m-207.44 6.289c-5.4 5.397-4.676 4.996-9.032 4.999l-3.628.001-2.744 2.902v1.956c0 2.172.168 2.534 1.953 4.199 1.353 1.262 1.513 1.185 1.515-.739.001-1.483.036-1.554 1.533-3.118l1.532-1.6 7.878-.266 4.52-4.522 4.519-4.522 5.542.038c8.164.055 8.179.049 5.612-2.261l-1.259-1.133H81.34l-4.069 4.066m271.462 1.722c-.622.097-.733.242-.734.963-.001.69-.326 1.17-1.734 2.565-.952.944-1.732 1.814-1.732 1.934 0 .329 3.158 3.416 3.495 3.416.797 0 3.439-3.212 3.459-4.206.011-.547.041-1.694.066-2.55.059-1.943-.629-2.46-2.82-2.122m-141.887 7.449l-2.305 2.229h-5.874v7.877l1.373 1.395c1.832 1.861 1.827 1.867 1.827-1.823 0-4.422-.154-4.249 3.771-4.249h3.219l3.438-3.475c4.384-4.43 4.394-4.304-.352-4.228l-2.791.045-2.306 2.229m109.786.781c-3.741 3.646-3.713 3.632-7.232 3.551-3.177-.073-3.329.012-3.216 1.793l.083 1.304 5.457.073 5.457.072 3.209-3.191 3.21-3.192 4.533-.051c6.278-.071 6.049.033 4.128-1.871l-1.588-1.573h-10.876l-3.165 3.085m34.568 9.163c0 3.821.106 3.724-4.053 3.732-3.704.008-3.741.027-3.63 1.783l.083 1.304h10.933l.075-3.41.075-3.409-1.458-1.457c-1.985-1.985-2.025-1.956-2.025 1.457m-289.898 6.286l-6.031 5.999h-9.164l.08 1.534.08 1.533 6.585.071 6.585.072 5.415-5.406c2.978-2.973 5.577-5.612 5.776-5.865.33-.42-2.473-3.94-3.137-3.938-.087 0-2.872 2.7-6.189 6m144.254 2.791c-.049.143-3.869 4.073-8.489 8.734l-8.4 8.474-3.934.086-3.933.086v3.295c0 2.64-.083 3.379-.419 3.714-.4.4-9.08.699-13.162.454-1.371-.083-1.359-.054.914 2.136l1.334 1.284 7.266.006 7.267.006v-3.571c0-4.279-.356-3.967 4.454-3.91l3.52.042 1.68-1.533c2.684-2.449 15.679-15.528 15.679-15.779 0-.209-3.405-3.782-3.603-3.782-.047 0-.126.116-.174.258m37.044 6.341c-2.163.045-3.933.186-3.933.314 0 .247 2.85 2.936 3.154 2.977.822.111 7.044.1 7.86-.013l1.04-.144-1.738-1.667c-.955-.916-1.897-1.64-2.093-1.607-.196.032-2.127.095-4.29.14m-89.264 16.563c-2.271 2.294-4.371 4.317-4.666 4.495-.393.237-3.05.326-9.937.333-5.497.006-9.4.111-9.4.254 0 .134.687.914 1.526 1.733l1.525 1.489 20.016-.002 4.394-4.381c5.231-5.214 4.964-4.639 3.046-6.577-2.023-2.044-1.729-2.164-6.504 2.656m117.268 3.97c-5.564 5.695-5.956 6.014-7.54 6.146l-1.464.121v1.538c0 1.887-.05 1.863 3.801 1.863h2.958l3.821-3.798c2.101-2.089 3.82-3.88 3.82-3.981 0-.19-1.766-2.034-2.957-3.089l-.679-.601-1.76 1.801" style="fill:#db5345"/><path d="M229.333 29.519c-.22.08-1.81 1.572-3.533 3.318l-3.133 3.173v3.162l-2.934 2.985c-3.521 3.584-3.481 3.041-.45 6.06l2.483 2.472 2.841.056 2.842.055 2.081-2.067c2.181-2.165 2.637-2.379 3.362-1.579.71.784.607.938-2.979 4.461l-3.42 3.36-2.78.006c-1.529.003-3.155-.006-3.615-.021-.671-.021-1.26-.448-2.999-2.176l-2.163-2.149-5.135.082-5.134.083-3.734 3.81c-5.899 6.02-7.102 6.196-11.554 1.693L187.102 54l-3.568-.093c-1.962-.052-3.975-.017-4.472.076l-.906.17-.078 1.924L178 58h-7.2l-.068-1.733c-.127-3.224.404-2.934-5.361-2.934h-5.018l-9.686 9.704v2.999c0 1.65-.104 3.063-.231 3.142-.229.141-10.912.186-12.436.052a60.826 60.826 0 00-1.655-.117c-1.02-.055-1.1-.346-1.242-4.528-.051-1.511-.202-2.858-.336-2.992-.135-.135-4.033-.264-8.74-.289l-8.496-.047L111.832 67l-5.699 5.742v3.463c0 4.54-.621 4.224 8.467 4.301 4.426.037 4.582-.39-2.533 6.949l-3.267 3.37-.004 6.254c-.002 3.44-.105 6.414-.229 6.609-.178.28-1.409.346-5.796.31-3.064-.025-5.837-.035-6.162-.022-.607.025-20.723 19.803-21.365 21.006-.21.395-.311 2.546-.311 6.668v6.085L62.267 150.4 49.6 163.065v13.507l2.133 2.228 2.134 2.228v11.097l-6.594 6.542h-2.721c-3.985 0-3.752-.32-3.752 5.145 0 5.77-.788 5.216 7.728 5.435l6.654.171 6.123-6.085c3.367-3.347 6.177-6.296 6.244-6.554.123-.467-.203-.882-3.482-4.445-2.225-2.416-2.2-2.366-2.2-4.534v-1.965l2.744-2.902 3.628-.001c4.356-.003 3.632.398 9.032-4.999l4.069-4.066h13.872L96.44 175a120.15 120.15 0 002.15 1.933c.507.44 2.172 2.047 3.699 3.57l2.778 2.77.018 9.897c.011 5.443.109 10.126.219 10.405.109.28 2.651 2.951 5.648 5.935l5.448 5.425.133 3.997.134 3.997 5.2 5.207c6.29 6.298 4.634 5.727 16.617 5.729 11.201.002 9.467.563 14.869-4.81 4.975-4.948 4.368-4.724 6.759-2.493l3.088 2.885c1.596 1.491 2.884 1.667 10.877 1.49 7.337-.162 6.713.229 6.719-4.204l.004-3.266 3.667-.019c4.574-.023 3.067 1.018 12.933-8.934 9.83-9.916 9.333-9.01 6.467-11.795-1.1-1.068-2-2.117-2-2.331 0-.213-.102-.388-.227-.388s-.845-.628-1.6-1.395l-1.373-1.395v-7.877h5.868l2.399-2.311c1.32-1.271 2.399-2.424 2.399-2.561s1.867-2.097 4.149-4.355L217.63 176h1.842c2.536 0 2.395-.658 2.395 11.178v10.146l7.286 7.298c8.37 8.383 7.233 7.732 13.608 7.798l4.761.05 1.839 1.824c2.189 2.173 2.135 1.811.514 3.441-1.809 1.818-1.835 1.754 2.525 6.118l3.867 3.87v5.329c0 6.365-.427 5.817 4.619 5.932l3.649.083.775-.8c.426-.44 2.226-2.236 3.999-3.992 1.944-1.924 3.224-3.399 3.224-3.715 0-.473-1.578-2.271-5.764-6.567l-1.436-1.473v-9.32l9.336-9.333c5.135-5.134 9.425-9.434 9.533-9.556.109-.122.258-5.282.331-11.466l.134-11.245 3.69-.074 3.69-.075 1.717 1.541c.943.848 2.913 2.718 4.376 4.156l2.66 2.615v5.419c0 4.012.087 5.491.333 5.693.473.388 10.819.714 11.667.367.367-.15 2.091-1.661 3.832-3.357l3.165-3.085h10.873l1.532 1.442 3.731 3.513 2.2 2.071.009 3.887c.011 5.205-.567 4.759 6.434 4.968 7.104.212 6.625.49 6.623-3.833-.002-3.974-.213-4.686-1.861-6.31-.736-.725-1.338-1.42-1.338-1.546 0-.125-.78-.996-1.733-1.935-2.105-2.074-2.105-1.789-.002-3.874l1.733-1.716-.003-3.2c-.004-4.091.428-3.756-5.106-3.96-6.109-.225-5.556.135-5.556-3.614v-3.116l3.954-3.922 3.953-3.922h8.112l1.666 1.734c.917.953 1.764 1.733 1.884 1.733.119 0 1.411 1.188 2.871 2.641l2.654 2.641 1.786.162c2.862.259 6.457.048 6.738-.397.377-.596.295-7.425-.103-8.568-.208-.598-1.48-2.203-3.225-4.072l-2.881-3.086-.033-3.394-.034-3.394 7.858-7.86.031-8.07c.041-10.792-.03-13.606-.356-14.003-.203-.248-1.751-.333-6.044-.333h-5.77l-4.064 4.069-4.063 4.07v3.477c0 4.348.23 4.117-4.097 4.117h-3.456l-3.224-3.167-3.223-3.166-5.126-.153c-6.331-.19-6.229-.146-6.183-2.66.019-1.056-.051-2.602-.157-3.435l-.191-1.513-7.618-7.506-6.896-.001c-3.793-.001-8.066-.079-9.496-.174l-2.6-.172V93.192l9.318-9.286.074-7.533c.041-4.144-.017-7.992-.128-8.553-.178-.892-1.548-2.36-10.913-11.687l-10.709-10.666-15.754-.134-15.755-.133-.221-1.867a54.723 54.723 0 01-.287-3.822c-.082-2.469-.022-2.435-4.337-2.44-4.36-.005-4.354-.007-4.359 1.558-.004 1.314-.445 2.35-.714 1.678-.079-.198-.869-1.05-1.755-1.894-1.817-1.729-2.002-2.327-2.041-6.584-.015-1.722-.106-2.205-.441-2.334-.517-.198-12.087-.176-12.645.024m11.948 2.857c.045.867-.059 1.915-.23 2.329-.66 1.593-.168 2.526 3.038 5.761 3.691 3.726 3.911 3.768 3.911.749 0-2.884.156-3.019 3.354-2.912 3.184.107 3.102-.018 2.885 4.365-.143 2.89-.108 3.699.171 3.871.193.12 7.62.19 16.504.156l16.153-.061 1.066 1.017c.587.56 1.471 1.497 1.964 2.083.494.586 4.664 4.855 9.267 9.487l8.369 8.421V83.11l-1.4 1.357c-4.263 4.134-7.936 8.056-7.957 8.496-.13 2.77.125 17.395.31 17.74.223.416.979.44 9.532.3 10.835-.176 10.309-.255 12.262 1.858.836.904 2.27 2.41 3.187 3.345l1.666 1.701v3.952c0 4.789-.698 4.35 6.542 4.113l5.638-.184 1.71 1.741a129.71 129.71 0 013.187 3.381l1.476 1.639 4.249-.03c5.605-.039 5.198.306 5.198-4.411v-3.873l7.72-7.702h4.774c5.673 0 5.497-.09 5.295 2.731-.077 1.065-.166 5.356-.2 9.536-.072 9.092.357 7.832-4.249 12.473l-3.777 3.806.085 4.129.086 4.13 3.14 3.122 3.141 3.123-.074 3.608-.074 3.609-3.085.075-3.085.074-9.112-9.044-4.359-.003c-5.345-.003-4.58-.347-9.031 4.056-5.264 5.207-4.795 4.32-4.791 9.078.006 5.269-.831 4.778 7.863 4.618l2.933-.054.079 1.924c.097 2.404-.209 3.038-2.642 5.476-2.261 2.266-2.336 2.043 2.142 6.402l3.221 3.135v3.049c0 3.653.581 3.265-5.066 3.383l-4.667.098-.139-1.381c-.076-.76-.062-2.38.031-3.6.215-2.798.373-2.53-4.167-7.086l-3.787-3.8h-12.73l-6.408 6.388-3.333.125c-1.834.069-3.945.188-4.692.266-2.29.236-2.33.155-2.354-4.92-.016-3.221.064-4.376.307-4.457 1.153-.385-8.381-10.546-10.219-10.891-1.786-.335-8.91-.007-9.182.422-.148.236-.254 5.118-.256 11.872l-.004 11.472-1.934 1.928a491.73 491.73 0 00-2.257 2.262c-.178.183-3.523 3.531-7.434 7.44-3.912 3.909-7.214 7.269-7.339 7.467-.126.198-.23 2.638-.232 5.423l-.004 5.063 7.29 7.304-3.445 3.468-3.445 3.469-2.863.186c-3.853.249-3.678.458-3.646-4.37.015-2.136.138-4.177.274-4.535.436-1.146.276-1.344-5.432-6.724-1.137-1.071-2.067-2.087-2.067-2.256 0-.343 2.654-3.069 2.988-3.069.667 0-.077-1.055-2.338-3.316l-2.551-2.55h-10.874l-5.074-5c-2.791-2.75-5.976-5.84-7.078-6.867l-2.004-1.867-.068-10.559c-.08-12.524.249-11.441-3.478-11.441h-2.679l-5.101 5c-2.805 2.75-5.716 5.57-6.469 6.267l-1.369 1.267h-3.343c-4.139 0-3.895-.34-3.895 5.412 0 5.221-.219 4.749 4.224 9.106 1.637 1.605 2.976 3.043 2.976 3.197 0 .154-3.738 3.97-8.306 8.482l-8.305 8.203h-3.946c-4.698 0-4.337-.32-4.51 4l-.133 3.333-6.763.071-6.762.072-3.314-3.269c-4.527-4.466-3.589-4.578-9.248 1.104l-4.781 4.8-9.986.035c-5.493.019-10.03-.006-10.083-.056l-3.513-3.379a969.586 969.586 0 00-4.96-4.744l-1.543-1.456.035-4.025.034-4.024-3.958-3.814a1590.283 1590.283 0 00-5.774-5.538l-1.817-1.724.052-10.327.052-10.326L95.877 172H80.765l-4.523 4.455c-5.518 5.436-4.497 4.869-8.783 4.874l-3.608.004L62.222 183c-3.439 3.519-3.266 6.516.602 10.429 1.38 1.396 2.508 2.755 2.507 3.021-.001.271-2.29 2.767-5.213 5.683l-5.212 5.199-6.053.189c-7.372.232-6.789.561-6.737-3.802.048-4.024-.19-3.719 2.905-3.719h2.59l3.432-3.432c1.887-1.888 3.52-3.598 3.63-3.8.448-.827.493-12.517.049-12.853-.228-.173-1.234-1.133-2.235-2.132l-1.82-1.817v-5.867c0-3.863.103-6.066.303-6.45.167-.32 5.897-6.162 12.733-12.982l12.43-12.4.134-6.471.133-6.47 10.151-10.14 10.152-10.141 6.248.078c3.437.042 6.399-.02 6.582-.139.252-.163.334-1.839.334-6.87v-6.655l3.572-3.529c1.964-1.942 4.55-4.427 5.745-5.524 1.761-1.616 2.158-2.121 2.095-2.667l-.079-.672h-6.533c-7.803 0-7.2.264-7.2-3.155v-2.724l5.397-5.394 5.398-5.394 7.469.004c8.731.005 8.224-.148 8.045 2.426-.231 3.331-.169 5.418.171 5.721.524.466 17.164.167 17.649-.318.283-.284.379-1.186.384-3.623l.007-3.244 8.992-8.966 3.844.004c4.727.005 4.583-.075 4.476 2.488-.116 2.779-.334 2.677 5.214 2.446l4.687-.195v-1.55c0-2.5-.173-2.393 3.867-2.393h3.544l2.464 2.661 2.464 2.662 5.394-.262 4.136-4.13L205.206 52h9.398l1.698 1.768c2.873 2.991 2.633 2.829 3.935 2.655.644-.086 2.454-.156 4.023-.156h2.853l1.577-1.277c3.099-2.509 6.777-6.372 6.777-7.12 0-.825-2.645-3.603-3.431-3.603-.273 0-1.576 1.092-2.895 2.426l-2.399 2.427-2.341.121-2.34.12-1.696-1.68c-2.205-2.186-2.193-2.266.807-5.253l2.505-2.495.108-1.766.107-1.767 2.921-2.871 2.92-2.871 5.734.071 5.733.071.081 1.576" style="fill:#5d5452"/></svg>