<svg width="57" height="58" viewBox="0 0 57 58" fill="none" xmlns="http://www.w3.org/2000/svg">
<path d="M56.1094 18.4483V11.708L53.621 11.0961C53.5114 10.8005 53.3876 10.5048 53.2505 10.21L54.5793 8.01458L49.8127 3.24795L47.6182 4.57766C47.3234 4.4405 47.0277 4.3167 46.732 4.20716L46.1201 1.71875H39.3799L38.768 4.20716C38.4723 4.3167 38.1766 4.4405 37.8818 4.57766L35.6865 3.24884L30.9198 8.01547L32.2486 10.2109C32.1115 10.5057 31.9877 10.8013 31.8781 11.097L29.3906 11.708V17.75H5.34375C2.8883 17.75 0.890625 19.7477 0.890625 22.2031V43.5781C0.890625 46.0336 2.8883 48.0312 5.34375 48.0312H12.4688V51.5938H8.90625C7.92389 51.5938 7.125 52.3926 7.125 53.375V55.1562C7.125 56.1386 7.92389 56.9375 8.90625 56.9375H27.6094H29.4263H56.1094V53.375C56.1094 46.8948 51.7569 41.4201 45.8235 39.6977C47.7286 38.417 48.9844 36.2438 48.9844 33.7812C48.9844 31.4576 47.8613 29.3967 46.1353 28.0955L46.2261 28.0073L46.732 25.9491C47.0277 25.8395 47.3234 25.7158 47.6182 25.5786L49.8135 26.9074L54.5802 22.1408L53.2514 19.9454C53.3885 19.6506 53.5123 19.3549 53.6219 19.0592L56.1094 18.4483ZM5.34375 19.5312H35.625C37.0981 19.5312 38.2969 20.73 38.2969 22.2031V27.6199C37.6262 28.0091 37.0251 28.5052 36.5156 29.0841V23.0938C36.5156 22.1114 35.7167 21.3125 34.7344 21.3125H6.23438C5.25202 21.3125 4.45312 22.1114 4.45312 23.0938V40.9062H2.67188V22.2031C2.67188 20.73 3.87066 19.5312 5.34375 19.5312ZM36.5156 15.0781C36.5156 11.6412 39.3131 8.84375 42.75 8.84375C46.1869 8.84375 48.9844 11.6412 48.9844 15.0781C48.9844 18.515 46.1869 21.3125 42.75 21.3125C41.6919 21.3125 40.6624 21.0337 39.745 20.5261C39.2926 19.419 38.4091 18.5355 37.3012 18.0831C36.7944 17.164 36.5156 16.1353 36.5156 15.0781V15.0781ZM46.1932 49.7849L43.1241 55.1562H43.0314L46.716 41.8913C47.0962 42.0525 47.4668 42.2342 47.8275 42.431L47.2628 45.8216L45.2295 47.8549L46.1932 49.7849ZM40.5947 55.1562L37.5256 49.7849L38.4901 47.8558L36.4568 45.8225L35.8922 42.4319C36.252 42.2351 36.6225 42.0534 37.0037 41.8922L40.6873 55.1562H40.5947ZM31.1719 40.9062H29.3906V26.6562H31.1719V40.9062ZM36.5156 40.1742V38.4784C36.9218 38.9406 37.3822 39.3539 37.8952 39.6977C37.425 39.8339 36.9645 39.9916 36.5156 40.1742ZM34.7344 40.9062H32.9531V24.875H27.6094V40.9062H25.8281V28.4375H20.4844V40.9062H18.7031V32H13.3594V40.9062H6.23438V23.0938H34.7344V40.9062ZM24.0469 40.9062H22.2656V30.2188H24.0469V40.9062ZM16.9219 40.9062H15.1406V33.7812H16.9219V40.9062ZM2.67188 43.5781V42.6875H32.466C31.3072 43.7073 30.3169 44.9078 29.5376 46.25H5.34375C3.87066 46.25 2.67188 45.0512 2.67188 43.5781V43.5781ZM14.25 48.0312H28.6585C28.2016 49.1552 27.889 50.3495 27.7332 51.5938H14.25V48.0312ZM8.90625 55.1562V53.375H27.6094V55.1562H8.90625ZM29.3906 55.1562V53.375C29.3906 49.3583 31.3072 45.7895 34.2659 43.5078L34.794 46.6775L36.3233 48.2067L35.5065 49.8401L38.5436 55.1562H33.8438V48.0312H32.0625V55.1562H29.4263H29.3906ZM54.3281 53.375V55.1562H51.6562V48.0312H49.875V55.1562H45.1752L48.2131 49.8401L47.3964 48.2067L48.9256 46.6775L49.4537 43.5078C52.4115 45.7895 54.3281 49.3583 54.3281 53.375ZM45.0229 41.3284L41.8594 52.7177L38.6959 41.3284C39.7085 41.0621 40.7648 40.9062 41.8594 40.9062C42.954 40.9062 44.0102 41.0621 45.0229 41.3284ZM47.2031 33.7812C47.2031 36.7283 44.8065 39.125 41.8594 39.125C38.9123 39.125 36.5156 36.7283 36.5156 33.7812C36.5156 30.8342 38.9123 28.4375 41.8594 28.4375C44.8065 28.4375 47.2031 30.8342 47.2031 33.7812ZM52.3322 21.87L49.5419 24.6604L47.6947 23.5426L47.2512 23.7733C46.7409 24.0387 46.2234 24.2551 45.7149 24.4163L45.2375 24.5668L44.6185 27.0873L44.5241 27.179C43.7003 26.8442 42.8017 26.6562 41.8594 26.6562C41.2431 26.6562 40.649 26.7426 40.0781 26.8905V22.6164C40.9331 22.9192 41.8318 23.0938 42.75 23.0938C47.1702 23.0938 50.7656 19.4983 50.7656 15.0781C50.7656 10.658 47.1702 7.0625 42.75 7.0625C38.3298 7.0625 34.7344 10.658 34.7344 15.0781C34.7344 15.9964 34.9089 16.895 35.2117 17.75H31.1719V13.1045L33.2622 12.5906L33.4127 12.1132C33.5739 11.6056 33.7903 11.0881 34.0557 10.5769L34.2864 10.1334L33.1687 8.28622L35.959 5.49589L37.8061 6.61362L38.2497 6.38295C38.76 6.11755 39.2775 5.90112 39.786 5.73992L40.2634 5.58941L40.7764 3.5H44.7236L45.2375 5.5903L45.7149 5.74081C46.2225 5.90202 46.74 6.11844 47.2512 6.38384L47.6947 6.61452L49.5419 5.49678L52.3322 8.28711L51.2145 10.1343L51.4452 10.5778C51.7106 11.0881 51.927 11.6056 52.0882 12.1141L52.2387 12.5915L54.3281 13.1045V17.0517L52.2378 17.5656L52.0873 18.0421C51.9261 18.5507 51.7097 19.0681 51.4443 19.5793L51.2136 20.0229L52.3322 21.87Z" fill="#333333"/>
<path d="M42.75 19.5312C45.2055 19.5312 47.2031 17.5336 47.2031 15.0781C47.2031 12.6227 45.2055 10.625 42.75 10.625C40.2945 10.625 38.2969 12.6227 38.2969 15.0781C38.2969 17.5336 40.2945 19.5312 42.75 19.5312ZM42.75 12.4062C44.2231 12.4062 45.4219 13.605 45.4219 15.0781C45.4219 16.5512 44.2231 17.75 42.75 17.75C41.2769 17.75 40.0781 16.5512 40.0781 15.0781C40.0781 13.605 41.2769 12.4062 42.75 12.4062Z" fill="#333333"/>
<path d="M8.01562 24.875H9.79688V26.6562H8.01562V24.875Z" fill="#333333"/>
<path d="M11.5781 24.875H13.3594V26.6562H11.5781V24.875Z" fill="#333333"/>
<path d="M15.1406 24.875H16.9219V26.6562H15.1406V24.875Z" fill="#333333"/>
<path d="M8.01562 28.4375H16.9219V30.2188H8.01562V28.4375Z" fill="#333333"/>
</svg>
