<?xml version="1.0" standalone="no"?>
<!DOCTYPE svg PUBLIC "-//W3C//DTD SVG 20010904//EN"
 "http://www.w3.org/TR/2001/REC-SVG-20010904/DTD/svg10.dtd">
<svg version="1.0" xmlns="http://www.w3.org/2000/svg"
 width="512.000000pt" height="512.000000pt" viewBox="0 0 512.000000 512.000000"
 preserveAspectRatio="xMidYMid meet">

<g transform="translate(0.000000,512.000000) scale(0.100000,-0.100000)"
fill="#000000" stroke="none">
<path d="M534 5111 c-153 -39 -262 -170 -272 -326 -11 -171 89 -316 252 -367
191 -58 383 46 449 245 6 16 34 17 392 17 l385 0 0 -155 0 -156 73 3 72 3 3
228 2 227 -458 0 -459 0 -22 59 c-47 129 -175 221 -314 227 -40 2 -86 0 -103
-5z m147 -152 c177 -60 195 -298 30 -381 -30 -16 -68 -28 -85 -28 -84 0 -164
51 -197 125 -74 162 84 340 252 284z"/>
<path d="M4427 5110 c-95 -24 -179 -91 -227 -182 -28 -53 -35 -76 -38 -143 -2
-44 1 -98 7 -120 28 -105 123 -207 224 -241 l47 -16 0 -549 0 -549 -40 0 -40
0 0 -75 0 -75 115 0 115 0 0 624 0 624 38 12 c100 32 183 114 223 218 30 82
24 205 -15 280 -36 71 -104 138 -172 169 -61 28 -174 39 -237 23z m180 -165
c69 -35 106 -88 111 -165 2 -32 -1 -73 -7 -92 -24 -72 -117 -137 -197 -138
-58 0 -139 43 -172 93 -23 35 -27 51 -27 117 0 66 4 82 27 117 33 50 113 93
173 93 24 0 62 -11 92 -25z"/>
<path d="M2186 4562 c-3 -5 -17 -78 -31 -162 -14 -85 -28 -157 -31 -159 -2 -3
-41 -15 -87 -29 -104 -30 -275 -101 -350 -147 -32 -19 -64 -32 -70 -28 -7 4
-68 47 -136 96 l-124 89 -245 -245 -245 -245 95 -132 95 -133 -62 -121 c-34
-67 -81 -181 -105 -253 -41 -129 -43 -133 -74 -138 -17 -3 -89 -16 -161 -28
l-130 -22 0 -345 0 -345 130 -22 c72 -12 144 -25 162 -28 30 -5 34 -10 54 -78
34 -117 95 -266 144 -351 l45 -79 -96 -135 -97 -134 245 -245 245 -245 109 79
c176 128 150 120 231 73 89 -51 235 -112 338 -141 44 -12 83 -25 87 -28 5 -5
58 -290 58 -315 0 -3 157 -6 348 -6 l348 0 23 147 c13 82 27 155 32 163 4 9
31 22 61 29 83 21 213 73 328 132 58 30 110 53 115 53 6 -1 68 -43 138 -94
l129 -93 245 245 245 245 -89 124 c-49 68 -92 129 -96 135 -4 6 20 63 53 126
54 104 140 330 140 370 0 18 -3 18 193 49 l137 22 0 347 0 347 -142 23 c-79
13 -152 26 -164 31 -15 5 -25 25 -39 76 -27 98 -74 216 -134 328 -49 94 -50
99 -35 122 8 14 51 75 95 136 l80 111 -244 244 -245 245 -135 -97 -134 -96
-85 45 -84 44 -32 -65 c-18 -37 -32 -68 -30 -69 2 -1 19 -10 38 -20 19 -10 72
-39 117 -66 l82 -50 119 86 c66 47 123 85 128 85 11 0 304 -292 304 -302 0 -4
-38 -61 -85 -126 -47 -66 -85 -121 -85 -124 0 -2 29 -53 64 -112 75 -123 133
-266 171 -416 15 -58 28 -106 30 -108 2 -2 279 -51 293 -52 5 0 1 -440 -4
-440 -9 0 -244 -39 -270 -45 -18 -4 -26 -22 -49 -114 -35 -142 -96 -291 -171
-416 -32 -55 -61 -103 -62 -108 -2 -4 35 -61 82 -127 47 -67 86 -124 86 -128
0 -10 -293 -302 -304 -302 -5 0 -62 38 -127 85 -64 47 -119 85 -121 85 -3 0
-53 -29 -112 -64 -124 -75 -267 -134 -419 -172 -90 -22 -108 -30 -112 -48 -6
-26 -45 -261 -45 -270 0 -3 -99 -6 -219 -6 l-219 0 -6 27 c-3 16 -12 71 -21
123 -27 163 -16 146 -103 165 -93 21 -257 77 -326 112 -28 14 -93 50 -144 80
l-92 55 -120 -86 c-67 -47 -124 -86 -128 -86 -4 0 -75 68 -158 151 l-152 152
89 124 89 124 -50 83 c-94 156 -155 305 -195 478 -12 51 -24 79 -34 82 -9 3
-78 15 -154 27 l-137 22 0 219 c0 120 3 218 8 218 14 0 295 49 297 52 1 2 12
46 25 98 41 172 90 288 191 457 l50 82 -90 124 -89 124 152 152 c83 83 155
151 159 151 5 0 62 -38 128 -86 l119 -85 73 44 c158 97 325 165 490 202 42 9
77 18 77 19 0 0 11 66 25 146 14 80 25 148 25 153 0 10 428 9 434 -1 3 -5 14
-64 26 -133 11 -68 22 -133 25 -145 4 -19 56 -37 241 -81 19 -4 24 3 44 62 26
78 28 76 -70 101 -36 9 -69 21 -74 25 -5 5 -21 79 -35 166 l-27 158 -341 3
c-188 1 -344 -2 -347 -6z"/>
<path d="M2435 3689 c-465 -34 -878 -376 -1000 -830 -86 -322 -30 -665 153
-930 63 -91 77 -109 86 -109 11 0 106 82 106 91 0 5 -18 32 -40 61 -62 81
-137 241 -166 353 -44 169 -37 362 18 535 118 372 461 647 845 678 405 33 765
-160 958 -512 85 -154 121 -317 112 -513 -7 -192 -61 -353 -166 -505 -135
-195 -337 -340 -561 -400 -73 -20 -109 -23 -255 -23 -147 0 -181 3 -250 23
-100 29 -263 108 -334 163 l-54 41 -48 -53 c-27 -30 -48 -56 -48 -59 0 -9 84
-69 168 -119 97 -59 222 -106 351 -133 125 -26 373 -21 490 11 251 67 454 196
610 389 89 110 180 290 217 427 25 92 27 116 27 285 0 169 -2 193 -27 283 -65
243 -217 473 -406 615 -234 177 -490 252 -786 231z"/>
<path d="M3362 3645 c-23 -29 -42 -58 -42 -63 0 -6 23 -30 51 -53 l52 -43 48
54 c54 61 54 57 -21 120 l-46 39 -42 -54z"/>
<path d="M3566 3426 l-49 -43 42 -56 41 -56 60 37 c32 20 59 41 60 45 0 15
-81 117 -93 117 -7 -1 -34 -20 -61 -44z"/>
<path d="M3733 3177 l-61 -32 19 -38 c59 -114 119 -357 119 -483 l0 -64 77 0
76 0 -6 103 c-6 108 -35 259 -68 354 -25 72 -80 193 -88 193 -3 -1 -34 -15
-68 -33z"/>
<path d="M1810 2565 l0 -395 75 0 75 0 0 140 0 140 110 0 110 0 0 -140 0 -140
75 0 75 0 0 395 0 395 -260 0 -260 0 0 -395z m370 140 l0 -105 -110 0 -110 0
0 105 0 105 110 0 110 0 0 -105z"/>
<path d="M2457 2953 c-4 -3 -7 -181 -7 -395 l0 -388 75 0 74 0 3 143 3 142
188 3 187 2 -2 248 -3 247 -256 3 c-140 1 -258 -1 -262 -5z m371 -245 l3 -98
-116 0 -115 0 0 93 c0 52 3 97 7 101 4 3 54 5 112 4 l106 -3 3 -97z"/>
<path d="M3100 2560 l0 -390 75 0 75 0 0 390 0 390 -75 0 -75 0 0 -390z"/>
<path d="M530 1321 l0 -609 -37 -12 c-90 -29 -163 -93 -214 -190 -21 -39 -24
-59 -24 -150 0 -96 2 -110 28 -158 38 -72 100 -132 173 -168 52 -26 70 -29
149 -29 76 0 99 4 146 27 76 35 130 85 169 160 28 53 35 76 38 143 2 44 -1 98
-7 120 -28 104 -121 205 -223 242 l-48 17 0 533 c0 467 2 533 15 533 12 0 15
15 15 75 l0 75 -90 0 -90 0 0 -609z m169 -777 c34 -17 62 -41 79 -67 23 -35
27 -51 27 -117 0 -66 -4 -82 -27 -117 -33 -50 -113 -93 -173 -93 -58 0 -137
42 -171 91 -32 47 -44 134 -25 191 24 72 117 137 197 138 24 0 61 -11 93 -26z"/>
<path d="M3130 500 l0 -230 459 0 458 0 17 -44 c54 -142 214 -238 368 -222
122 12 235 91 288 200 108 224 -42 489 -291 512 -161 16 -318 -87 -370 -240
l-18 -51 -380 -3 -381 -2 0 155 0 155 -75 0 -75 0 0 -230z m1361 43 c165 -84
147 -322 -30 -382 -132 -44 -271 59 -271 199 0 114 95 208 211 210 20 0 59
-12 90 -27z"/>
</g>
</svg>
