<svg width="52" height="52" viewBox="0 0 52 52" fill="none" xmlns="http://www.w3.org/2000/svg">
<g clip-path="url(#clip0)">
<path d="M35.2588 16.0511C34.7079 16.0511 34.2607 16.4963 34.2607 17.0469C34.2607 17.597 34.7079 18.0429 35.2588 18.0429C35.8108 18.0429 36.2568 17.597 36.2568 17.0469C36.2568 16.4963 35.8108 16.0511 35.2588 16.0511Z" fill="#333333"/>
<path d="M17.1248 34.1494C16.5727 34.1494 16.1267 34.5957 16.1267 35.1455C16.1267 35.6965 16.5727 36.1416 17.1248 36.1416C17.6756 36.1416 18.1228 35.6965 18.1228 35.1455C18.1228 34.5957 17.6756 34.1494 17.1248 34.1494Z" fill="#333333"/>
<path d="M50.4963 6.72482C50.1594 6.64661 49.8055 6.74817 49.5622 6.9933L45.4246 11.1555H43.441L41.2574 8.89755V6.89019L45.3357 2.75912C45.577 2.51477 45.6753 2.16341 45.5954 1.82917C45.5158 1.49533 45.2694 1.22607 44.9435 1.11634C43.919 0.771602 42.8468 0.596896 41.7564 0.596896C38.5057 0.596896 35.5525 2.10971 33.6539 4.74742C31.8769 7.21664 31.3292 10.2427 32.114 13.1387L24.7624 20.476L12.5145 8.22402V5.81939C12.5145 5.46959 12.3305 5.14508 12.0299 4.96532L4.97304 0.738918C4.58006 0.503512 4.07753 0.565379 3.75395 0.888721L0.931359 3.70541C0.607774 4.02875 0.545787 4.5303 0.781262 4.92251L5.01515 11.9656C5.19526 12.2656 5.52002 12.4489 5.8705 12.4493L8.27906 12.45L20.5281 24.702L13.2046 32.0112C10.3028 31.2284 7.26932 31.7758 4.7941 33.5505C2.15279 35.4443 0.638184 38.3909 0.638184 41.6352C0.638184 42.7231 0.813231 43.7935 1.15865 44.8157C1.26898 45.1429 1.54149 45.39 1.87833 45.4678C2.21556 45.546 2.56916 45.4445 2.81283 45.1994L6.95003 41.0376H8.94455L11.2171 43.3056V45.2962L7.0471 49.4254C6.80149 49.6686 6.69974 50.0215 6.7781 50.358C6.85607 50.6942 7.10363 50.9662 7.4315 51.0763C8.45567 51.4211 9.52818 51.5958 10.6182 51.5958C13.8689 51.5958 16.8209 50.0837 18.7187 47.4476C20.4969 44.9772 21.0454 41.95 20.261 39.0539L26.1429 33.1836L27.4902 34.6443L26.8719 35.261C26.482 35.6501 26.482 36.2808 26.8719 36.6699C27.2618 37.0586 27.8933 37.0586 28.2836 36.6699L28.8434 36.1112L41.4851 49.816C41.4944 49.8261 41.5042 49.8359 41.5139 49.8456C43.8531 52.1802 47.6429 52.181 49.9832 49.8452C52.3169 47.5149 52.3169 43.7231 49.9832 41.3928C49.9731 41.3827 49.9626 41.373 49.952 41.3632L36.1989 28.7704L36.7525 28.2179C37.1424 27.8292 37.1424 27.1985 36.7525 26.8094C36.3627 26.4203 35.7311 26.4203 35.3408 26.8094L34.7268 27.4226L33.2606 26.0794L39.1708 20.1807C40.011 20.4048 40.878 20.5184 41.7564 20.5184C47.2597 20.5184 51.7364 16.05 51.7364 10.5578C51.7364 9.46953 51.5614 8.39951 51.216 7.37695C51.1056 7.04972 50.8331 6.80264 50.4963 6.72482V6.72482ZM9.39952 10.7504C9.21239 10.5633 8.95859 10.468 8.69348 10.468L6.43619 10.4672L2.89392 4.56454L4.61437 2.84745L10.5184 6.38358V8.63647C10.5184 8.90028 10.6233 9.15319 10.81 9.33996L23.3511 21.8849L21.9394 23.2935L9.39952 10.7504ZM34.7861 30.1805L48.586 42.8157C50.1275 44.3706 50.1228 46.8881 48.5715 48.4371C47.0168 49.9888 44.4998 49.9935 42.9388 48.4507L30.2559 34.7011L34.7861 30.1805ZM33.314 28.8323L28.9027 33.2342L27.5553 31.7735L31.8477 27.4891L33.314 28.8323ZM41.7564 18.5262C40.8835 18.5262 40.025 18.3865 39.2055 18.111C38.8465 17.9908 38.4496 18.0834 38.1814 18.3507C33.1779 23.3444 22.3967 34.1042 18.4267 38.0668C18.1585 38.3345 18.0653 38.7306 18.1866 39.0893C19.0162 41.5481 18.6193 44.1706 17.0973 46.2853C15.5796 48.3939 13.2178 49.6036 10.6182 49.6036C10.3262 49.6036 10.0358 49.5876 9.74806 49.5569L12.918 46.4176C13.1067 46.2309 13.2131 45.9764 13.2131 45.7106V42.8928C13.2131 42.6286 13.1079 42.3753 12.9207 42.1885L10.0635 39.3368C9.87632 39.15 9.62252 39.045 9.35781 39.045H6.53444C6.26816 39.045 6.01319 39.1512 5.82567 39.3395L2.68066 42.5033C2.64947 42.2161 2.63388 41.9263 2.63388 41.6348C2.63388 39.0399 3.84557 36.6831 5.95861 35.1684C8.07711 33.6493 10.7052 33.2528 13.1691 34.0812C13.5281 34.2022 13.925 34.1093 14.1932 33.8415C14.2482 33.7871 33.9338 14.1395 33.9479 14.1255C34.2161 13.8578 34.3089 13.4621 34.188 13.1033C33.358 10.6446 33.7541 8.02286 35.275 5.90966C36.7939 3.79918 39.156 2.58909 41.756 2.58909C42.057 2.58909 42.356 2.60582 42.6523 2.6385L39.5482 5.78281C39.3642 5.96919 39.2613 6.22016 39.2613 6.48164V9.29949C39.2613 9.55786 39.3615 9.80571 39.5412 9.99131L42.2987 12.843C42.4866 13.0376 42.7459 13.1473 43.0168 13.1473H45.8402C46.1061 13.1473 46.361 13.0415 46.5486 12.8527L49.6936 9.68937C49.7248 9.97653 49.7403 10.2664 49.7403 10.5578C49.7403 14.9516 46.1587 18.5262 41.7564 18.5262V18.5262Z" fill="#333333"/>
<path d="M31.7305 19.1597L19.2413 31.6245C18.8519 32.0132 18.8519 32.644 19.2413 33.0331C19.6312 33.4222 20.2631 33.4222 20.653 33.0331L33.1422 20.5683C33.532 20.1796 33.532 19.5488 33.1422 19.1597C32.7523 18.7706 32.1204 18.7706 31.7305 19.1597V19.1597Z" fill="#333333"/>
<path d="M44.3426 45.6203C44.7325 46.0082 45.3644 46.0082 45.7543 45.618C46.1434 45.2285 46.1422 44.5977 45.752 44.2094L36.7559 35.2598C36.3657 34.8714 35.7333 34.8726 35.3446 35.2621C34.9552 35.652 34.9563 36.2823 35.3466 36.6706L44.3426 45.6203Z" fill="#333333"/>
</g>
<defs>
<clipPath id="clip0">
<rect width="51" height="51" fill="white" transform="translate(0.592773 0.596924)"/>
</clipPath>
</defs>
</svg>
