<svg width="50" height="52" viewBox="0 0 50 52" fill="none" xmlns="http://www.w3.org/2000/svg">
<g clip-path="url(#clip0)">
<path d="M46.3867 0H7.51953C4.82715 0 2.63672 2.23805 2.63672 4.98896V9.9447C2.63672 10.4957 3.07393 10.9425 3.61328 10.9425C4.15264 10.9425 4.58984 10.4957 4.58984 9.9447V4.98896C4.58984 3.33841 5.9041 1.99558 7.51953 1.99558H8.88672V34.6566C8.88672 35.2076 9.32393 35.6544 9.86328 35.6544C10.4026 35.6544 10.8398 35.2076 10.8398 34.6566V1.99558H45.4102V41.109H7.51953C6.42109 41.109 5.40654 41.4817 4.58984 42.1095V19.0578C4.58984 18.5068 4.15264 18.06 3.61328 18.06C3.07393 18.06 2.63672 18.5068 2.63672 19.0578V46.098C2.63672 48.8489 4.82715 51.087 7.51953 51.087H46.3867C46.9261 51.087 47.3633 50.6401 47.3633 50.0892V0.997792C47.3633 0.446811 46.9261 0 46.3867 0ZM45.4102 45.1002H36.9258C36.3864 45.1002 35.9492 45.547 35.9492 46.098C35.9492 46.649 36.3864 47.0958 36.9258 47.0958H45.4102V49.0914H7.51953C5.9041 49.0914 4.58984 47.7485 4.58984 46.098C4.58984 44.4475 5.9041 43.1046 7.51953 43.1046H45.4102V45.1002Z" fill="#333333"/>
<path d="M4.30371 14.1616C4.12207 13.976 3.87012 13.8693 3.61328 13.8693C3.35645 13.8693 3.10449 13.9759 2.92285 14.1616C2.74121 14.3472 2.63672 14.6046 2.63672 14.8671C2.63672 15.1295 2.74121 15.3869 2.92285 15.5724C3.10449 15.7581 3.35645 15.8648 3.61328 15.8648C3.87012 15.8648 4.12207 15.7581 4.30371 15.5724C4.48535 15.3869 4.58984 15.1295 4.58984 14.8671C4.58984 14.6046 4.48535 14.3472 4.30371 14.1616Z" fill="#333333"/>
<path d="M10.5537 37.6198C10.3721 37.4333 10.1201 37.3274 9.86328 37.3274C9.60645 37.3274 9.35449 37.4333 9.17285 37.6198C8.99121 37.8053 8.88672 38.0618 8.88672 38.3252C8.88672 38.5876 8.99121 38.844 9.17285 39.0306C9.35449 39.2162 9.60645 39.323 9.86328 39.323C10.1201 39.323 10.3721 39.2162 10.5537 39.0306C10.7354 38.845 10.8398 38.5876 10.8398 38.3252C10.8398 38.0618 10.7354 37.8043 10.5537 37.6198Z" fill="#333333"/>
<path d="M42.5692 17.9149H42.0737C41.1982 17.9149 40.4128 17.3695 40.0739 16.5285L40.0554 16.4826C39.7104 15.6348 39.8872 14.6785 40.5058 14.0465L40.8559 13.6888C41.2372 13.2992 41.2372 12.6674 40.8559 12.2776L37.2021 8.54448C37.019 8.3574 36.7706 8.25223 36.5116 8.25223C36.2526 8.25223 36.0042 8.3574 35.8211 8.54448L35.4711 8.90219C34.8525 9.53429 33.9165 9.71479 33.0871 9.36267L33.0449 9.34481C32.2187 8.99738 31.6849 8.19486 31.6849 7.30024V6.79406C31.6849 6.24308 31.2477 5.79626 30.7083 5.79626H25.5412C25.0019 5.79626 24.5646 6.24308 24.5646 6.79406V7.31021C24.5646 8.20184 24.0331 9.00187 23.2126 9.34771L23.1659 9.36736C22.3375 9.72028 21.403 9.54028 20.7854 8.90928L20.4284 8.54448C20.2453 8.3574 19.9969 8.25223 19.7379 8.25223C19.4789 8.25223 19.2305 8.3574 19.0474 8.54448L15.3937 12.2776C15.2105 12.4648 15.1076 12.7185 15.1076 12.9832C15.1076 13.2478 15.2105 13.5016 15.3937 13.6887L15.7581 14.0611C16.3741 14.6905 16.5504 15.6428 16.2081 16.485L16.1904 16.5296C15.8518 17.3712 15.0691 17.9148 14.1966 17.9148H13.6807C13.1413 17.9148 12.7041 18.3617 12.7041 18.9126V24.192C12.7041 24.7429 13.1413 25.1898 13.6807 25.1898H14.2053C15.0754 25.1898 15.8562 25.7316 16.1945 26.5702L16.212 26.6133C16.5558 27.4568 16.3802 28.4082 15.7647 29.0371L15.394 29.4159C15.2109 29.603 15.108 29.8568 15.108 30.1214C15.108 30.3861 15.2109 30.6398 15.394 30.827L19.0478 34.5601C19.2309 34.7472 19.4793 34.8524 19.7384 34.8524C19.9975 34.8524 20.2458 34.7472 20.4289 34.56L20.7995 34.1813C21.4151 33.5523 22.3462 33.3731 23.1708 33.7238L23.2141 33.7421C24.0347 34.0878 24.5649 34.8856 24.5649 35.7745V36.3105C24.5649 36.8615 25.0021 37.3083 25.5415 37.3083H30.7086C31.2479 37.3083 31.6852 36.8615 31.6852 36.3105V35.7835C31.6852 34.892 32.2173 34.0924 33.0448 33.7446L33.0823 33.7288C33.9086 33.3782 34.8407 33.5581 35.4567 34.1877L35.8213 34.5601C36.2026 34.9497 36.821 34.9497 37.2023 34.5601L40.8561 30.827C41.0392 30.6398 41.1421 30.386 41.1421 30.1213C41.1421 29.8567 41.0392 29.603 40.856 29.4158L40.499 29.0512C39.8813 28.4201 39.7054 27.4653 40.0508 26.6188L40.0691 26.5735C40.4085 25.733 41.1915 25.1899 42.0641 25.1899H42.5692C43.1086 25.1899 43.5458 24.743 43.5458 24.1921V18.9127C43.5458 18.3618 43.1086 17.9149 42.5692 17.9149ZM21.458 31.6285C21.4529 31.6337 21.4486 31.6394 21.4437 31.6447C20.834 31.7787 20.2554 32.0534 19.7559 32.4616L17.4479 30.1034C17.8209 29.6269 18.0786 29.0796 18.218 28.5021C18.2371 28.4854 18.2562 28.4686 18.2744 28.45L22.1086 24.5324C22.3682 24.2672 22.4603 23.8757 22.347 23.5189C21.6398 21.2917 22.2063 18.8803 23.8254 17.2261C25.1696 15.8525 27.0311 15.2251 28.8577 15.4583L25.9983 18.3797C25.7559 18.6276 25.6583 18.9873 25.7415 19.3273L26.5211 22.5138C26.6086 22.8712 26.8817 23.1504 27.2316 23.2397L30.3503 24.0363C30.6833 24.1215 31.0352 24.0217 31.2777 23.7739L34.1259 20.8638C34.345 22.7221 33.73 24.614 32.3931 25.9799C30.7775 27.6305 28.4218 28.2107 26.2452 27.4943C25.8627 27.3685 25.4514 27.4975 25.1998 27.8054L21.458 31.6285ZM41.5927 23.2219C40.1206 23.3954 38.8443 24.3737 38.2638 25.8121L38.2478 25.8513C37.6589 27.2951 37.8822 28.914 38.8036 30.1021L36.4935 32.4625C35.3325 31.5175 33.747 31.2863 32.3312 31.8868L32.298 31.9009C30.8844 32.4948 29.9243 33.8036 29.7578 35.313H26.4932C26.3296 33.8036 25.3717 32.4935 23.9576 31.8971L26.2405 29.5646C28.9457 30.2297 31.7844 29.4243 33.7742 27.3914C36.0449 25.0712 36.7407 21.6034 35.5467 18.5566C35.4247 18.2454 35.1578 18.0175 34.8363 17.9502C34.5147 17.8824 34.1817 17.9851 33.9496 18.2221L30.2877 21.9636L28.2738 21.4492L27.7704 19.3917L31.4384 15.644C31.6701 15.4072 31.7701 15.0675 31.7048 14.7395C31.6395 14.4114 31.4174 14.1387 31.1136 14.0133C28.1255 12.7802 24.7228 13.4873 22.4442 15.8153C20.4481 17.8549 19.6619 20.7645 20.3227 23.5354L18.0275 25.8804C18.0228 25.8685 18.0191 25.8564 18.0143 25.8444L18.0003 25.8099C17.4181 24.3665 16.1353 23.387 14.6573 23.2199V19.8843C16.1346 19.714 17.4154 18.7329 17.9971 17.2879L18.0114 17.2526C18.5985 15.8081 18.3721 14.1883 17.4473 13.0019L19.7574 10.6415C20.92 11.583 22.5047 11.8114 23.9187 11.209L23.9555 11.1934C25.3638 10.6 26.3213 9.29602 26.491 7.79195H29.7602C29.9331 9.29542 30.8925 10.5976 32.3038 11.1911L32.3371 11.2053C33.7478 11.8045 35.3295 11.5775 36.4918 10.6408L38.8044 13.0038C37.8876 14.1913 37.6654 15.8072 38.2517 17.2481C38.2518 17.2482 38.2555 17.2574 38.2556 17.2576L38.2666 17.2849C38.8468 18.7251 40.1213 19.7051 41.5927 19.8818V23.2219Z" fill="#333333"/>
<path d="M33.9541 45.3926C33.7715 45.2069 33.5205 45.1002 33.2627 45.1002C33.0059 45.1002 32.7549 45.2069 32.5723 45.3926C32.3906 45.5782 32.2861 45.8356 32.2861 46.098C32.2861 46.3604 32.3906 46.6179 32.5723 46.8033C32.7549 46.9889 33.0059 47.0958 33.2627 47.0958C33.5205 47.0958 33.7725 46.989 33.9541 46.8033C34.1357 46.6179 34.2402 46.3604 34.2402 46.098C34.2402 45.8356 34.1357 45.5782 33.9541 45.3926Z" fill="#333333"/>
</g>
<defs>
<clipPath id="clip0">
<rect width="50" height="51.087" fill="white"/>
</clipPath>
</defs>
</svg>
