<svg width="58" height="57" viewBox="0 0 58 57" fill="none" xmlns="http://www.w3.org/2000/svg">
<g clip-path="url(#clip0)">
<path d="M23.9182 12.8157C23.6887 12.2453 23.0315 11.9652 22.4497 12.1905C19.1663 13.4615 16.3639 15.6428 14.346 18.4988C12.2796 21.423 11.1875 24.856 11.1875 28.4263C11.1875 29.0395 11.6944 29.5365 12.3194 29.5365C12.9444 29.5365 13.4513 29.0394 13.4513 28.4263C13.4513 22.1295 17.3096 16.5673 23.2808 14.2561C23.8624 14.0309 24.1477 13.3862 23.9182 12.8157Z" fill="#333333"/>
<path d="M36.4366 27.3266C35.8115 27.3266 35.3047 27.8237 35.3047 28.4368C35.3047 31.8648 32.461 34.6539 28.9657 34.6539C25.4703 34.6539 22.6266 31.8649 22.6266 28.4368C22.6266 25.0087 25.4703 22.2196 28.9657 22.2196C29.5908 22.2196 30.0976 21.7226 30.0976 21.1095C30.0976 20.4963 29.5907 19.9993 28.9657 19.9993C24.222 19.9993 20.3628 23.7843 20.3628 28.4368C20.3628 33.0892 24.2221 36.8742 28.9657 36.8742C33.7092 36.8742 37.5685 33.0892 37.5685 28.4368C37.5685 27.8237 37.0617 27.3266 36.4366 27.3266Z" fill="#333333"/>
<path d="M40.6328 27.2847C40.0077 27.2847 39.5009 27.7817 39.5009 28.3948V28.4367C39.5009 29.0499 40.0078 29.5468 40.6328 29.5468C41.2578 29.5468 41.7647 29.0498 41.7647 28.4367V28.3948C41.7647 27.7817 41.2578 27.2847 40.6328 27.2847Z" fill="#333333"/>
<path d="M36.0523 37.4097C35.8418 37.2021 35.5497 37.0844 35.252 37.0844C34.9543 37.0845 34.6624 37.2022 34.4517 37.4097C34.2411 37.6162 34.12 37.9016 34.12 38.1947C34.12 38.4867 34.241 38.7731 34.4517 38.9796C34.6624 39.1861 34.9532 39.3038 35.252 39.3038C35.5497 39.3038 35.8418 39.1861 36.0523 38.9796C36.2628 38.7731 36.3841 38.4867 36.3841 38.1947C36.3841 37.9015 36.2629 37.6162 36.0523 37.4097Z" fill="#333333"/>
<path d="M54.1097 40.2547C53.4594 40.2547 52.8468 40.4142 52.3091 40.6947L48.9592 37.4092C48.7468 37.201 48.4589 37.084 48.1587 37.084H39.9046C39.2795 37.084 38.7727 37.5811 38.7727 38.1941C38.7727 38.8073 39.2796 39.3043 39.9046 39.3043H47.6897L50.7085 42.265C50.4232 42.792 50.2609 43.3922 50.2609 44.0291C50.2609 46.1105 51.9874 47.8038 54.1096 47.8038C56.2318 47.8038 57.9582 46.1105 57.9582 44.0291C57.9584 41.9478 56.2318 40.2547 54.1097 40.2547ZM54.1097 45.5836C53.2358 45.5836 52.525 44.8864 52.525 44.0294C52.525 43.1722 53.2359 42.4751 54.1097 42.4751C54.9835 42.4751 55.6944 43.1723 55.6944 44.0294C55.6944 44.8864 54.9834 45.5836 54.1097 45.5836Z" fill="#333333"/>
<path d="M54.1099 9.04497C51.9877 9.04497 50.2613 10.7382 50.2613 12.8196C50.2613 13.4567 50.4236 14.0569 50.709 14.5838L47.6902 17.5446H35.3038C33.7302 16.6621 31.963 16.1015 30.1103 15.9366V13.9298H42.0465C42.4588 13.9298 42.8385 13.71 43.0376 13.356L46.4775 7.2419C46.9442 7.43931 47.4578 7.54922 47.9975 7.54922C50.1197 7.54922 51.8462 5.85596 51.8462 3.77456C51.8462 1.69326 50.1197 0 47.9975 0C45.8753 0 44.1488 1.69326 44.1488 3.77467C44.1488 4.50255 44.3605 5.18237 44.7258 5.75948L41.3783 11.7094H30.1103V1.11481C30.1103 0.501616 29.6034 0.0046631 28.9784 0.0046631H23.9026C23.2775 0.0046631 22.7706 0.501727 22.7706 1.11481V4.5503C20.4319 5.13141 18.205 6.03638 16.1299 7.24945L13.6625 4.82964C13.4502 4.62146 13.1622 4.50444 12.8618 4.50444C12.5616 4.50444 12.2736 4.62157 12.0614 4.82997L4.90661 11.8524C4.46477 12.286 4.46489 12.9886 4.90683 13.4221L7.37138 15.8393C6.13463 17.8748 5.21191 20.0586 4.61952 22.3523H1.13399C0.508886 22.3523 0.0020752 22.8494 0.0020752 23.4625V33.3901C0.0020752 34.0033 0.508999 34.5003 1.13399 34.5003H4.61975C5.21203 36.794 6.13475 38.9778 7.37161 41.0132L4.90706 43.4304C4.46511 43.8639 4.465 44.5665 4.90683 45.0001L12.0616 52.0225C12.2739 52.2308 12.5619 52.3479 12.8621 52.3481C12.8622 52.3481 12.8622 52.3481 12.8623 52.3481C13.1625 52.3481 13.4504 52.231 13.6628 52.0229L16.13 49.6031C18.2054 50.8161 20.4321 51.7212 22.7706 52.3023V55.7324C22.7706 56.3453 23.2771 56.8422 23.9019 56.8425H28.9776H28.9783C29.2784 56.8425 29.5662 56.7284 29.7785 56.5203C29.9909 56.312 30.1103 56.0296 30.1103 55.735V45.0888H41.3763L44.7272 51.0837C44.3611 51.6612 44.149 52.3418 44.149 53.0705C44.149 55.1519 45.8754 56.8452 47.9976 56.8452C50.1199 56.8452 51.8463 55.1519 51.8463 53.0705C51.8463 50.9891 50.1197 49.2958 47.9975 49.2958C47.4591 49.2958 46.9464 49.4052 46.4807 49.6019L43.0392 43.4449C42.8406 43.0894 42.46 42.8683 42.0467 42.8683H30.1101V39.8794C30.1101 39.2662 29.6031 38.7692 28.9781 38.7692C23.1631 38.7692 18.4324 34.1294 18.4324 28.4262C18.4324 22.7921 23.0496 18.1964 28.7677 18.0859C28.8321 18.0972 28.8981 18.104 28.9659 18.104C33.347 18.104 37.3165 20.8086 38.8435 24.8339C39.013 25.281 39.445 25.5573 39.9044 25.5573C40.0355 25.5573 40.169 25.5348 40.299 25.4874C40.885 25.2735 41.1833 24.6345 40.9652 24.0598C40.3463 22.4283 39.3959 20.9768 38.2081 19.7649H48.159C48.4592 19.7649 48.747 19.6479 48.9594 19.4397L52.3093 16.1542C52.847 16.4346 53.4597 16.5942 54.1099 16.5942C56.2322 16.5942 57.9586 14.9009 57.9586 12.8195C57.9586 10.7382 56.232 9.04497 54.1099 9.04497ZM47.9975 2.22041C48.8715 2.22041 49.5823 2.91766 49.5823 3.77467C49.5823 4.63168 48.8713 5.32892 47.9975 5.32892C47.1237 5.32892 46.4128 4.63168 46.4128 3.77467C46.4128 2.91766 47.1236 2.22041 47.9975 2.22041ZM47.9975 51.5165C48.8715 51.5165 49.5823 52.2137 49.5823 53.0707C49.5823 53.9277 48.8712 54.625 47.9975 54.625C47.1236 54.625 46.4128 53.9277 46.4128 53.0707C46.4128 52.2137 47.1236 51.5165 47.9975 51.5165ZM27.8463 15.9116C21.3115 16.4756 16.1684 21.8731 16.1684 28.4264C16.1684 34.9796 21.3112 40.3771 27.8462 40.9411V54.6244L25.0344 54.6229V51.4222C25.0344 50.8989 24.6618 50.4467 24.1402 50.3368C21.4434 49.7686 18.8993 48.7346 16.5783 47.2635C16.1303 46.9796 15.5409 47.0409 15.1635 47.4109L12.8624 49.6679L7.30787 44.2161L9.60703 41.9611C9.98422 41.5911 10.0469 41.0131 9.75725 40.5735C8.25742 38.2971 7.20316 35.802 6.62401 33.1572C6.51194 32.6456 6.05086 32.2802 5.51734 32.2802H2.26591V24.573H5.51722C6.05086 24.573 6.51183 24.2075 6.6239 23.696C7.20316 21.0511 8.25731 18.556 9.75714 16.2797C10.0468 15.8402 9.98411 15.2621 9.60692 14.892L7.30776 12.6371L12.8623 7.18528L15.1634 9.44222C15.5408 9.81238 16.1301 9.87356 16.5782 9.58966C18.8991 8.11868 21.4432 7.08458 24.1401 6.51635C24.6617 6.40643 25.0343 5.95422 25.0343 5.43095V2.22508H27.8461V15.9116H27.8463ZM54.1099 14.3738C53.236 14.3738 52.5252 13.6765 52.5252 12.8195C52.5252 11.9625 53.2361 11.2653 54.1099 11.2653C54.9838 11.2653 55.6947 11.9625 55.6947 12.8195C55.6947 13.6765 54.9838 14.3738 54.1099 14.3738Z" fill="#333333"/>
<path d="M54.1096 24.6656C52.3813 24.6656 50.9156 25.7888 50.4311 27.3301H47.0914C46.4663 27.3301 45.9595 27.8272 45.9595 28.4403C45.9595 29.0533 46.4664 29.5504 47.0914 29.5504H50.431C50.9155 31.0916 52.3811 32.2149 54.1095 32.2149C56.2318 32.2149 57.9582 30.5217 57.9582 28.4403C57.9583 26.3588 56.2318 24.6656 54.1096 24.6656ZM54.1096 29.9945C53.2357 29.9945 52.5249 29.2973 52.5249 28.4403C52.5249 27.5832 53.2358 26.886 54.1096 26.886C54.9835 26.886 55.6944 27.5832 55.6944 28.4403C55.6944 29.2973 54.9834 29.9945 54.1096 29.9945Z" fill="#333333"/>
</g>
<defs>
<clipPath id="clip0">
<rect width="57.96" height="56.8454" fill="white"/>
</clipPath>
</defs>
</svg>
