<?xml version="1.0" encoding="UTF-8" standalone="no"?><!DOCTYPE svg PUBLIC "-//W3C//DTD SVG 1.1//EN" "http://www.w3.org/Graphics/SVG/1.1/DTD/svg11.dtd"><svg viewBox="0 0 537 66" xmlns="http://www.w3.org/2000/svg" xml:space="preserve" style="fill-rule:evenodd;clip-rule:evenodd;stroke-linejoin:round;stroke-miterlimit:2"><path d="M201 280v3l2 3v1l-1 1-2 1-1 1-1-1-2-2-1-2c-3 3-7 5-12 5-2 1-5 0-7-2s-3-5-3-8 1-6 3-8c3-2 6-3 10-3h4l4 1v-3c0-2 0-4-2-6l-6-2-4 1-4 1-2 1-1-1v-3l1-1 5-2 6-1c4 0 8 1 10 3 3 3 4 6 4 10v13Zm-16 6 4-1 4-3 1-2v-5l-3-1h-4l-6 2c-1 1-2 2-1 4-1 1 0 3 1 4l4 2Zm31 4-1-1-1-1-9-30v-3h4l2 1 1 1 6 26 6-26 1-1 2-1h3l2 1v1l7 26 6-26 1-1 2-1h3l1 1v2l-9 30-1 1-2 1h-3l-2-1-1-1-6-26-6 26-1 1-1 1h-4Zm51 1a24 24 0 0 1-11-3l-1-2v-3h1l1 1 4 1 5 1 6-2 2-3-1-3-4-2-6-2c-2 0-4-2-6-4l-2-5a9 9 0 0 1 4-8l4-2 5-1h2l3 1 2 1h2l1 1v3l-1 1h-1l-8-2-5 1-2 4 1 3 5 2 5 2c3 0 5 1 6 3l2 6a10 10 0 0 1-4 8l-4 2-5 1Z" style="fill:#fff;fill-rule:nonzero" transform="translate(-86 -239)"/><path d="M201 280v3l2 3v1l-1 1-2 1-1 1-1-1-2-2-1-2c-3 3-7 5-12 5-2 1-5 0-7-2s-3-5-3-8 1-6 3-8c3-2 6-3 10-3h4l4 1v-3c0-2 0-4-2-6l-6-2-4 1-4 1-2 1-1-1v-3l1-1 5-2 6-1c4 0 8 1 10 3 3 3 4 6 4 10v13Zm-16 6 4-1 4-3 1-2v-5l-3-1h-4l-6 2c-1 1-2 2-1 4-1 1 0 3 1 4l4 2Zm31 4-1-1-1-1-9-30v-3h4l2 1 1 1 6 26 6-26 1-1 2-1h3l2 1v1l7 26 6-26 1-1 2-1h3l1 1v2l-9 30-1 1-2 1h-3l-2-1-1-1-6-26-6 26-1 1-1 1h-4Zm51 1a24 24 0 0 1-11-3l-1-2v-3h1l1 1 4 1 5 1 6-2 2-3-1-3-4-2-6-2c-2 0-4-2-6-4l-2-5a9 9 0 0 1 4-8l4-2 5-1h2l3 1 2 1h2l1 1v3l-1 1h-1l-8-2-5 1-2 4 1 3 5 2 5 2c3 0 5 1 6 3l2 6a10 10 0 0 1-4 8l-4 2-5 1Zm31-1-1-1v-33l1-1h1l1 1v3l6-4 6-1c5 0 7 2 9 6 2-2 4-4 6-4l7-2c3 0 5 1 7 3l2 8v24l-1 1h-2l-1-1v-23l-1-6c-1-2-3-2-5-2-4 0-8 1-12 4l1 3v24l-1 1h-2l-1-1v-23l-2-6c-1-2-2-2-4-2-4 0-8 1-12 4v27l-1 1h-1Zm61 1c-3 0-5-1-7-3s-3-4-3-7c0-4 1-6 4-8 2-2 5-3 8-3l10 1v-5l-2-6c-1-2-4-2-6-2-3 0-6 0-10 2h-1v-4l11-2c4 0 7 1 9 3l2 7v25l-1 1h-1l-1-1v-3c-4 3-8 5-12 5Zm1-4 5-1 6-3v-8l-9-2c-6 0-9 3-9 8l2 5 5 1Zm24 3-1-1v-33l1-1h1l1 1 1 4 4-4a11 11 0 0 1 7-1l1 1v3h-3l-5 1-4 4v25l-1 1h-2Zm22 0-1-1v-49l1-1h1l1 1v31l16-15 1-1h3v2l-16 15 17 16 1 1-1 1h-3l-1-1-17-16v16l-1 1h-1Zm41 1c-5 0-9-1-12-5-2-3-4-7-4-13s2-11 4-14c3-3 7-5 11-5s7 1 9 4c2 2 3 6 3 10v4l-1 1h-22c0 5 1 9 3 11s5 4 9 4l9-2h2v1l-1 2-10 2Zm8-21v-2l-2-8-7-2c-7 0-10 4-11 12h20Zm21 21c-3 0-5-1-6-3l-2-6v-23h-5l-1-1v-2h1l5-1 1-9 1-1h1l1 1v9h9l1 1v2l-1 1h-9v23l1 4 4 1h4l1-1v4l-6 1Zm13 13-1-1v-47l1-1h1l1 1 1 3 5-3 6-2c4 0 8 2 10 5 3 3 4 8 4 13 0 6-1 11-4 14-2 3-6 5-10 5s-8-1-11-5v18l-1 1h-2v-1Zm13-17c4 0 6-1 8-3 2-3 3-7 3-11 0-10-3-15-10-15-4 0-8 1-11 4v21l5 3 5 1Zm27 3-4-1-1-5v-44l1-1h2l1 1v46l2 1h2l1 1v1l-1 1h-3Zm18 1c-3 0-6-1-7-3-2-2-3-4-3-7 0-4 1-6 3-8 3-2 5-3 9-3l9 1v-5c0-3 0-5-2-6-1-2-3-2-6-2s-6 0-9 2h-1l-1-1v-2l1-1 11-2c4 0 7 1 8 3 2 1 3 4 3 7v25l-1 1h-1l-1-1-1-3c-3 3-7 5-11 5Zm0-4 6-1 5-3v-8l-8-2c-6 0-9 3-9 8l1 5 5 1Zm37 4c-5 0-8-2-11-5s-4-7-4-13 1-11 4-14 7-5 11-5l7 2 1 1v1l-1 1h-1l-5-1c-4 0-7 1-9 4-2 2-3 5-3 10v1c0 5 1 9 3 11s5 3 9 3l5-1h2v4l-8 1Zm27 0c-5 0-9-1-11-5-3-3-4-7-4-13s1-11 4-14c2-3 6-5 11-5 4 0 7 1 9 4 2 2 3 6 3 10v4l-1 1h-22c0 5 1 9 3 11s5 4 9 4l9-2h2v1l-1 2-11 2Zm8-21v-2c0-4 0-6-2-8l-6-2c-7 0-11 4-11 12h19Z" style="fill:#fff;fill-rule:nonzero" transform="translate(-86 -239)"/><g transform="translate(-86 -239)"><circle cx="101.3" cy="297.2" r="4.7" style="fill:#fff"/><circle cx="128.2" cy="297.2" r="4.7" style="fill:#fff"/><path d="M159 254h-21l-8 28H99l-5-16h-8l8 24h41l9-30h15v-6Z" style="fill:#fff;fill-rule:nonzero"/><path d="m116 259 9 4 9-14h-18v10Z" style="fill:#00a4ca;fill-rule:nonzero"/><path d="m134 259-9 4v-14h9v10Z" style="fill:#038db9;fill-rule:nonzero"/><path d="m125 244-9 5 9 4 9-4-9-5Z" style="fill:#34c1da;fill-rule:nonzero"/><path d="m95 259 9 4 9-14H95v10Z" style="fill:#ef7c22;fill-rule:nonzero"/><path d="m113 259-9 4v-14h9v10Z" style="fill:#e46025;fill-rule:nonzero"/><path d="m104 244-9 5 9 4 9-4-9-5Z" style="fill:#f7972c;fill-rule:nonzero"/><path d="m105 276 9 4 9-15h-18v11Z" style="fill:#1f66af;fill-rule:nonzero"/><path d="m123 276-9 4v-15h9v11Z" style="fill:#13519d;fill-rule:nonzero"/><path d="m114 261 9 4-9 5-9-5 9-4Z" style="fill:#187ebb;fill-rule:nonzero"/></g></svg>