<svg xmlns="http://www.w3.org/2000/svg" xmlns:xlink="http://www.w3.org/1999/xlink" viewBox="1.1 -1.9 359.4 361.7"><defs><linearGradient id="linear-gradient" x1="264.8" x2="267.3" y1="952.4" y2="952.4" gradientTransform="matrix(30.43 0 0 -30.43 -7955.2 29285.8)" gradientUnits="userSpaceOnUse"><stop offset="0" stop-color="#60b932"/><stop offset=".3" stop-color="#60b932"/><stop offset="1" stop-color="#367c34"/></linearGradient><linearGradient id="linear-gradient-2" x1="263.8" x2="266.3" y1="955.6" y2="955.6" gradientTransform="matrix(27.21 0 0 -27.21 -7073.9 26169.4)" xlink:href="#linear-gradient"/><linearGradient id="linear-gradient-3" x1="263.3" x2="265.8" y1="953.7" y2="953.7" gradientTransform="matrix(25.75 0 0 -25.75 -6671.1 24812.2)" xlink:href="#linear-gradient"/><linearGradient id="linear-gradient-4" x1="263.8" x2="266.3" y1="953.2" y2="953.2" gradientTransform="matrix(27.1 0 0 -27.1 -7040.9 26102.5)" xlink:href="#linear-gradient"/><linearGradient id="linear-gradient-5" x1="262.7" x2="265.2" y1="954.3" y2="954.3" gradientTransform="matrix(24.4 0 0 -24.4 -6301.4 23522)" xlink:href="#linear-gradient"/><linearGradient id="linear-gradient-6" x1="272.1" x2="274.6" y1="955.1" y2="955.1" gradientTransform="scale(66.09 -66.09) rotate(36.5 1588.2 68.1)" gradientUnits="userSpaceOnUse"><stop offset="0" stop-color="#4596d8"/><stop offset=".2" stop-color="#4596d8"/><stop offset="1" stop-color="#fff"/></linearGradient><linearGradient id="linear-gradient-7" x1="270.6" x2="273.1" y1="952.4" y2="952.4" gradientTransform="scale(77.8 -77.8) rotate(-11.5 -4587.2 1803.3)" gradientUnits="userSpaceOnUse"><stop offset="0" stop-color="#4194d7"/><stop offset=".2" stop-color="#4194d7"/><stop offset="1" stop-color="#fff"/></linearGradient><linearGradient id="linear-gradient-8" x1="271" x2="273.4" y1="953.8" y2="953.8" gradientTransform="scale(71.35 -71.35) rotate(10.2 5477.4 -1024.6)" gradientUnits="userSpaceOnUse"><stop offset="0" stop-color="#4194d7"/><stop offset=".3" stop-color="#4496d8"/><stop offset="1" stop-color="#fff"/></linearGradient><clipPath id="clip-path"><path d="m174.4 302.5-68.7-30.2-3.8 43.2 75.5 24-3-37z" class="cls-1"/></clipPath><clipPath id="clip-path-2"><path d="M119.2 135.4h38.5v32.9h-9.1v-14a10.1 10.1 0 1 0-20.3 0v14h-9.1zm-7.7 72 57.2 25.2-4-48.2h7.5v-16.1h-5.5v-33h5.5V126l-30.8-30.2v-2a3 3 0 0 0-5.8 0v2L104.7 126v9.5h5.6v32.9h-5.6v16h8.8z" class="cls-1"/></clipPath><clipPath id="clip-path-3"><path d="m108.1 245.3 64 28.1-1-11.7-62-27.3-1 10.9z" class="cls-1"/></clipPath><clipPath id="clip-path-4"><path d="m106.5 264.2 67.2 29.6-1-11.7-65.3-28.8-1 11z" class="cls-1"/></clipPath><clipPath id="clip-path-5"><path d="m110.8 215.5-1 10.8 60.6 26.7-1-11.7-58.6-25.8z" class="cls-1"/></clipPath><clipPath id="clip-path-6"><path d="M313.1 67.6a175.3 175.3 0 0 0-29.7-28.1l-4.8-3.5L256 59.5l-82.3 85.6L287 86.5l29-15-3-4z" class="cls-1"/></clipPath><clipPath id="clip-path-7"><path d="m353.6 177.6-.2-6-32.2-2.2-147.5-10.6L318.4 209l30.4 10.6c0-.4.2-.8.3-1.1a173.7 173.7 0 0 0 4.5-39.5v-1.4z" class="cls-1"/></clipPath><clipPath id="clip-path-8"><path d="M348.8 138.6A172.6 172.6 0 0 0 335 101l-31 10-128 41 142-4.8 32.4-1.1-1.6-7.5z" class="cls-1"/></clipPath><style>.cls-1{fill:none}.cls-13{fill:#696566}</style></defs><g id="g12"><path id="path14" fill="#fff" d="M30.9 179a148.9 148.9 0 1 1 148.9 148.8A148.9 148.9 0 0 1 30.8 179"/><g id="g30" clip-path="url(#clip-path)"><g id="g32"><path id="path46" fill="url(#linear-gradient)" d="m174.4 302.5-68.7-30.2-3.8 43.2 75.5 24-3-37"/></g></g><g id="g48" clip-path="url(#clip-path-2)"><g id="g50"><path id="path64" fill="url(#linear-gradient-2)" d="M119.2 135.4h38.5v32.9h-9.1v-14a10.1 10.1 0 1 0-20.3 0v14h-9.1zm-7.7 72 57.2 25.2-4-48.2h7.5v-16.1h-5.5v-33h5.5V126l-30.8-30.2v-2a3 3 0 0 0-5.8 0v2L104.7 126v9.5h5.6v32.9h-5.6v16h8.8l-2 23"/></g></g><g id="g66" clip-path="url(#clip-path-3)"><g id="g68"><path id="path82" fill="url(#linear-gradient-3)" d="m108.1 245.3 63.9 28.1-1-11.7-62-27.3-1 10.9"/></g></g><g id="g84" clip-path="url(#clip-path-4)"><g id="g86"><path id="path100" fill="url(#linear-gradient-4)" d="m106.5 264.2 67.2 29.6-1-11.7-65.3-28.8-1 11"/></g></g><g id="g102" clip-path="url(#clip-path-5)"><g id="g104"><path id="path118" fill="url(#linear-gradient-5)" d="m110.8 215.5-1 10.9 60.5 26.6-1-11.7-58.6-25.9"/></g></g><path id="path120" d="m304 110.8 31-9.9-.3-.7A174.4 174.4 0 0 0 316 71.5l-29 15a142.7 142.7 0 0 1 16.7 23.9c0 .2.2.3.3.5" class="cls-13"/><path id="path122" d="m321.1 169.4 32.3 2.3a172.9 172.9 0 0 0-3-25.6l-32.5 1.1a141 141 0 0 1 3.2 22.2" class="cls-13"/><path id="path124" d="M182 320.8c-78.2 0-141.8-63.6-141.8-141.8S103.8 37.2 182 37.2a141 141 0 0 1 76.3 22.3L280.9 36A172.9 172.9 0 0 0 182 5.1C86.2 5.1 8.2 83.1 8.2 179s78 173.8 173.8 173.8c81.9 0 150.7-57 169-133.3L320.6 209A142 142 0 0 1 182 320.8" class="cls-13"/><g id="g126" clip-path="url(#clip-path-6)"><g id="g128"><path id="path142" fill="url(#linear-gradient-6)" d="M313.1 67.6a175.3 175.3 0 0 0-29.7-28.1l-4.8-3.5L256 59.5l-82.3 85.6L287 86.5l29-15-3-3.9"/></g></g><g id="g144" clip-path="url(#clip-path-7)"><g id="g146"><path id="path160" fill="url(#linear-gradient-7)" d="m353.6 177.6-.2-6-32.2-2.2-147.5-10.6L318.4 209l30.4 10.6c0-.4.2-.8.3-1.1a173.7 173.7 0 0 0 4.5-39.5v-1.4"/></g></g><g id="g162" clip-path="url(#clip-path-8)"><g id="g164"><path id="path178" fill="url(#linear-gradient-8)" d="M348.8 138.6A172.6 172.6 0 0 0 335 101l-31 10-128 41 142-4.8 32.4-1.1-1.5-7.5"/></g></g></g></svg>
