<svg width="18" height="18" viewBox="0 0 18 18" fill="none" xmlns="http://www.w3.org/2000/svg">
<path d="M5.01736 10.3059L1.71267 6.523L5.01736 2.74012C5.28441 2.43408 5.25326 1.96935 4.94722 1.70206C4.64119 1.43501 4.1767 1.46641 3.90916 1.7722L0.181723 6.03915C-0.0605742 6.31625 -0.0605742 6.72997 0.181723 7.00707L3.9092 11.2741C4.05485 11.4403 4.25865 11.5257 4.46365 11.5257C4.63532 11.5257 4.80769 11.4658 4.94722 11.3439C5.25329 11.0767 5.28465 10.6119 5.01736 10.3059Z" fill="#333333"/>
<path d="M12.6538 5.78735H0.73568C0.329344 5.78735 0 6.11666 0 6.52303C0 6.92937 0.329344 7.25871 0.73568 7.25871H12.6538C14.7904 7.25871 16.5286 8.99687 16.5286 11.1333C16.5286 13.2698 14.7904 15.0079 12.6538 15.0079H1.71661C1.31027 15.0079 0.98093 15.3373 0.98093 15.7436C0.98093 16.1499 1.31027 16.4793 1.71661 16.4793H12.6538C15.6014 16.4793 18 14.081 18 11.1333C18 8.18568 15.6017 5.78735 12.6538 5.78735Z" fill="#333333"/>
</svg>
