<?xml version="1.0" encoding="UTF-8" standalone="no"?>
<svg
   xmlns:osb="http://www.openswatchbook.org/uri/2009/osb"
   xmlns:dc="http://purl.org/dc/elements/1.1/"
   xmlns:cc="http://creativecommons.org/ns#"
   xmlns:rdf="http://www.w3.org/1999/02/22-rdf-syntax-ns#"
   xmlns:svg="http://www.w3.org/2000/svg"
   xmlns="http://www.w3.org/2000/svg"
   xmlns:sodipodi="http://sodipodi.sourceforge.net/DTD/sodipodi-0.dtd"
   xmlns:inkscape="http://www.inkscape.org/namespaces/inkscape"
   sodipodi:docname="user-registrator.svg"
   inkscape:version="1.0 (4035a4f, 2020-05-01)"
   id="svg8"
   version="1.1"
   viewBox="0 0 210 297"
   height="1122.5197"
   width="793.70081"
   inkscape:export-filename="/Users/vadim/Downloads/test.png"
   inkscape:export-xdpi="102.655"
   inkscape:export-ydpi="102.655">
  <defs
     id="defs2">
    <linearGradient
       id="linearGradient2822"
       osb:paint="solid">
      <stop
         style="stop-color:#000000;stop-opacity:1;"
         offset="0"
         id="stop2820" />
    </linearGradient>
    <linearGradient
       osb:paint="solid"
       id="linearGradient961">
      <stop
         id="stop959"
         offset="0"
         style="stop-color:#000000;stop-opacity:1;" />
    </linearGradient>
  </defs>
  <sodipodi:namedview
     showguides="true"
     units="px"
     inkscape:pagecheckerboard="false"
     inkscape:snap-global="false"
     inkscape:window-maximized="1"
     inkscape:window-y="23"
     inkscape:window-x="1280"
     inkscape:window-height="980"
     inkscape:window-width="1920"
     inkscape:snap-to-guides="false"
     inkscape:snap-grids="false"
     showgrid="false"
     inkscape:document-rotation="0"
     inkscape:current-layer="use90"
     inkscape:document-units="px"
     inkscape:cy="561.25983"
     inkscape:cx="395.47139"
     inkscape:zoom="0.72515434"
     inkscape:pageshadow="2"
     inkscape:pageopacity="0.0"
     borderopacity="1.0"
     bordercolor="#666666"
     pagecolor="#ffffff"
     id="base">
    <inkscape:grid
       type="xygrid"
       id="grid2806"
       dotted="true"
       enabled="true"
       spacingx="0.26458333"
       spacingy="0.26458333"
       empspacing="10"
       originx="105"
       originy="148.5" />
    <inkscape:grid
       type="axonomgrid"
       id="grid2808"
       originx="105"
       originy="148.5"
       enabled="false" />
  </sodipodi:namedview>
  <metadata
     id="metadata5">
    <rdf:RDF>
      <cc:Work
         rdf:about="">
        <dc:format>image/svg+xml</dc:format>
        <dc:type
           rdf:resource="http://purl.org/dc/dcmitype/StillImage" />
        <dc:title></dc:title>
      </cc:Work>
    </rdf:RDF>
  </metadata>
  <g
     style="mix-blend-mode:normal"
     inkscape:label="export"
     id="layer3"
     inkscape:groupmode="layer">
    <rect
       inkscape:export-ydpi="128"
       inkscape:export-xdpi="128"
       inkscape:export-filename="/Users/vadim/Downloads/container-registry-white-square-800.png"
       y="69.257072"
       x="25.757074"
       height="158.48586"
       width="158.48586"
       id="rect954"
       style="opacity:0.08;fill:none;fill-opacity:1;stroke:#000000;stroke-width:0.264143;stroke-miterlimit:4;stroke-dasharray:none;stroke-opacity:0.5;paint-order:stroke fill markers" />
    <rect
       style="opacity:0.08;mix-blend-mode:normal;fill:none;fill-opacity:1;stroke:none;stroke-width:0;stroke-miterlimit:4;stroke-dasharray:none;stroke-opacity:1;paint-order:stroke fill markers"
       id="rect954-4"
       width="174.33395"
       height="174.33395"
       x="17.833025"
       y="61.333019"
       inkscape:export-filename="/Users/vadim/Downloads/container-registry-square-800-padding.png"
       inkscape:export-xdpi="116.56"
       inkscape:export-ydpi="116.56" />
    <rect
       style="opacity:0.08;mix-blend-mode:normal;fill:none;fill-opacity:1;stroke:#000000;stroke-width:0.316971;stroke-miterlimit:4;stroke-dasharray:none;stroke-opacity:0.5;paint-order:stroke fill markers"
       id="rect954-3"
       width="190.18303"
       height="190.18303"
       x="9.9084883"
       y="53.408482"
       inkscape:export-filename="/Users/vadim/Downloads/container-registry-square-800.png"
       inkscape:export-xdpi="128"
       inkscape:export-ydpi="128" />
  </g>
  <g
     style="display:inline"
     id="layer1"
     inkscape:groupmode="layer"
     inkscape:label="Cross">
    <g
       transform="matrix(0.26458333,0,0,0.26458333,14.879034,-0.84477577)"
       id="g32" />
  </g>
  <g
     inkscape:label="Cube"
     id="layer2"
     inkscape:groupmode="layer">
    <g
       style="display:inline;fill:#d03808;fill-opacity:1"
       transform="matrix(0.28303503,0,0,0.28292475,229.01566,7.1120519)"
       id="g220"
       inkscape:export-filename="/Users/vadim/Downloads/container-registry-square-800-padding.png"
       inkscape:export-xdpi="116.56"
       inkscape:export-ydpi="116.56">
      <g
         style="fill:#d03808;fill-opacity:1"
         transform="translate(-682.16362,218.92657)"
         id="g250">
        <polygon
           style="fill:#d03808;fill-opacity:1"
           id="polygon200"
           points="204.1,305 203.9,310.3 165.4,332.6 160.9,324.9 199.4,302.6 "
           class="st0" />
        <polygon
           style="fill:#d03808;fill-opacity:1"
           id="polygon202"
           points="80.3,381.5 75.9,373.8 35.1,397.3 39.5,405 "
           class="st0" />
        <polygon
           style="fill:#d03808;fill-opacity:1"
           id="polygon204"
           points="142.1,346.1 137.7,338.4 99.2,360.7 103.7,368.4 "
           class="st0" />
        <polygon
           style="fill:#d03808;fill-opacity:1"
           id="polygon206"
           points="322.6,332.6 327.1,324.9 288.6,302.6 283.9,305 284.1,310.3 "
           class="st0" />
        <polygon
           style="fill:#d03808;fill-opacity:1"
           id="polygon208"
           points="452.9,397.3 448.5,405 407.7,381.5 412.1,373.8 "
           class="st0" />
        <polygon
           style="fill:#d03808;fill-opacity:1"
           id="polygon210"
           points="388.8,360.7 384.3,368.4 345.8,346.1 350.3,338.4 "
           class="st0" />
        <polygon
           style="fill:#d03808;fill-opacity:1"
           id="polygon212"
           points="239,118.2 247.9,118.2 247.9,162.7 239,162.7 "
           class="st1" />
        <polygon
           style="fill:#d03808;fill-opacity:1"
           id="polygon214"
           points="243.5,235.7 239,233.9 239,189.4 247.9,189.4 247.9,233.9 "
           class="st1" />
        <polygon
           style="fill:#d03808;fill-opacity:1"
           id="polygon216"
           points="247.9,91.5 239,91.5 239,44.4 247.9,44.4 "
           class="st1" />
      </g>
    </g>
    <g
       style="fill:#3b3b3b;fill-opacity:1"
       transform="matrix(0.28316648,0,0,0.28292475,68.548497,67.877305)"
       id="g173"
       inkscape:export-filename="/Users/vadim/Downloads/container-registry-square-800-padding.png"
       inkscape:export-xdpi="116.56"
       inkscape:export-ydpi="116.56">
      <path
         sodipodi:nodetypes="ccccccccccccccccccccccccccccccccccccccccccccccccccccccccccccccccccccccsccccccccccccc"
         class="st0"
         d="m 138.57361,10.009976 223.19634,128.900004 7.49652,4.3 2.39889,1.4 v 2.7 8.6 128.9 129 8.6 2.7 l -2.39889,1.4 -7.49652,4.3 -111.64814,64.5 -94.55549,54.70326 -7.19665,4.1 v -8.3 -34.4 -2.8 l 2.39889,-1.4 79.56244,-46.00326 79.66299,-46 v 0 l 22.08975,-12.7 v -22.1 -95.5 -94.8 l -183.71468,106.1 6.1e-4,220.68925 v 8.6 25.91401 2.7 l -2.39889,1.4 -7.49652,4.3 -7.49652,4.3 -2.39888,1.4 -2.39888,-1.4 -7.49652,-4.3 -7.49652,-4.3 -2.39888,-1.4 v -2.7 -25.91401 -8.6 l -6.2e-4,-220.68925 -183.614728,-106.2 v 94.8 101 11.5 0 5.3 l 14.293363,8.2 124.442817,72.00326 42.480268,24.5 2.3989,1.4 v 2.7 34.4 8.3 l -7.19666,-4.1 -94.5567024,-54.70326 v 0 l -111.4482376,-64.5 -7.49652,-4.3 -2.29894,-1.4 v -2.7 -8.6 -128.9 -128.9 -8.6 -2.7 l 2.39889,-1.4 7.49652,-4.3 C -29.94813,96.009976 44.517289,53.009976 118.88276,10.109976 v 0 l 7.49651,-4.3000004 2.39889,-1.4 2.39888,1.4 z m -193.809995,146.000004 183.914585,106.2 183.91459,-106.2 -168.52174,-97.300004 -15.39285,-9 -30.385872,17.6 -2.099038,1.2 c -50.476561,29.1 -100.9531186,58.300004 -151.429675,87.500004 z"
         id="path171"
         style="fill:#3b3b3b;fill-opacity:1;stroke-width:0.999774"
         inkscape:export-filename="/Users/vadim/Downloads/path171.png"
         inkscape:export-xdpi="102.66752"
         inkscape:export-ydpi="102.66752" />
      <path
         transform="translate(-228.66884,-55.178552)"
         id="path33"
         d=""
         style="fill:#3b3b3b;fill-opacity:1;stroke:none;stroke-width:1.35803" />
      <path
         transform="translate(-228.66884,-55.178552)"
         id="path35"
         d=""
         style="fill:#3b3b3b;fill-opacity:1;stroke:none;stroke-width:1.35803" />
      <path
         transform="matrix(0.93437378,0,0,0.93517211,-242.07843,-239.91293)"
         id="path44"
         d="M 351.96317,834.83515 C 327.92089,820.92103 269.91214,787.39069 223.05483,760.32327 l -85.19511,-49.21349 -0.0207,-149.81644 -0.0207,-149.81646 129.26522,-74.59198 c 122.45743,-70.66358 129.40951,-74.52709 132.00493,-73.35966 1.50685,0.67777 60.06358,34.3006 130.12608,74.7174 l 127.38635,73.48508 -0.25151,149.5575 -0.25151,149.5575 -72.28231,41.72558 c -39.75527,22.94907 -97.99073,56.5743 -129.41213,74.72273 -31.4214,18.14843 -57.48917,32.96234 -57.92838,32.91982 -0.43921,-0.0425 -20.46952,-11.46159 -44.51181,-25.3757 z m 23.72027,-148.1032 V 572.64202 l -97.51562,-56.36304 c -53.63358,-30.99968 -97.92573,-56.51684 -98.42697,-56.70481 -0.52823,-0.19808 -0.91137,47.66785 -0.91137,113.8565 v 114.19825 l 97.65802,56.52023 c 53.71191,31.08613 98.00405,56.55454 98.42698,56.59648 0.42293,0.0419 0.76896,-51.26422 0.76896,-114.01368 z m 141.3041,57.22287 97.58638,-56.3544 V 573.42355 459.24669 l -6.99806,3.9231 c -3.84893,2.15771 -48.14107,27.67348 -98.42697,56.70172 l -91.42893,52.77863 v 114.17131 c 0,62.79422 0.37827,114.01751 0.8406,113.82954 0.46233,-0.18797 44.75447,-25.70124 98.42698,-56.69617 z M 495.716,480.67787 c 54.06574,-31.15573 98.3128,-56.90374 98.32681,-57.21781 0.0507,-1.13691 -195.34457,-113.2346 -197.34111,-113.21398 -3.05967,0.0316 -197.46181,112.562 -196.36005,113.66374 1.27096,1.27097 195.12059,113.25432 196.2039,113.34337 0.47802,0.0393 45.10473,-25.41959 99.17045,-56.57532 z"
         style="opacity:0.08;fill:none;stroke-width:0;paint-order:stroke fill markers" />
    </g>
    <g
       style="fill:none;fill-opacity:1"
       id="use90">
      <g
         style="display:inline;fill:#d03808;fill-opacity:1"
         transform="matrix(0.28303503,0,0,0.28292475,229.01566,7.1120519)"
         id="g951"
         inkscape:export-filename="/Users/vadim/Downloads/container-registry-square-800-padding.png"
         inkscape:export-xdpi="116.56"
         inkscape:export-ydpi="116.56">
        <g
           style="fill:#d03808;fill-opacity:1"
           transform="translate(-682.16362,218.92657)"
           id="g949">
          <polygon
             style="fill:#d03808;fill-opacity:1"
             id="polygon931"
             points="203.9,310.3 165.4,332.6 160.9,324.9 199.4,302.6 204.1,305 "
             class="st0" />
          <polygon
             style="fill:#d03808;fill-opacity:1"
             id="polygon933"
             points="75.9,373.8 35.1,397.3 39.5,405 80.3,381.5 "
             class="st0" />
          <polygon
             style="fill:#d03808;fill-opacity:1"
             id="polygon935"
             points="137.7,338.4 99.2,360.7 103.7,368.4 142.1,346.1 "
             class="st0" />
          <polygon
             style="fill:#d03808;fill-opacity:1"
             id="polygon937"
             points="327.1,324.9 288.6,302.6 283.9,305 284.1,310.3 322.6,332.6 "
             class="st0" />
          <polygon
             style="fill:#d03808;fill-opacity:1"
             id="polygon939"
             points="448.5,405 407.7,381.5 412.1,373.8 452.9,397.3 "
             class="st0" />
          <polygon
             style="fill:#d03808;fill-opacity:1"
             id="polygon941"
             points="384.3,368.4 345.8,346.1 350.3,338.4 388.8,360.7 "
             class="st0" />
          <polygon
             style="fill:#d03808;fill-opacity:1"
             id="polygon943"
             points="247.9,118.2 247.9,162.7 239,162.7 239,118.2 "
             class="st1" />
          <polygon
             style="fill:#d03808;fill-opacity:1"
             id="polygon945"
             points="239,233.9 239,189.4 247.9,189.4 247.9,233.9 243.5,235.7 "
             class="st1" />
          <polygon
             style="fill:#d03808;fill-opacity:1"
             id="polygon947"
             points="239,91.5 239,44.4 247.9,44.4 247.9,91.5 "
             class="st1" />
        </g>
      </g>
      <g
         style="fill:#ffffff;fill-opacity:1"
         transform="matrix(0.28316648,0,0,0.28292475,68.548497,67.877305)"
         id="g961"
         inkscape:export-filename="/Users/vadim/Downloads/container-registry-square-800-padding.png"
         inkscape:export-xdpi="116.56"
         inkscape:export-ydpi="116.56">
        <path
           sodipodi:nodetypes="ccccccccccccccccccccccccccccccccccccccccccccccccccccccccccccccccccccccsccccccccccccc"
           class="st0"
           d="m 138.57361,10.009976 223.19634,128.900004 7.49652,4.3 2.39889,1.4 v 2.7 8.6 128.9 129 8.6 2.7 l -2.39889,1.4 -7.49652,4.3 -111.64814,64.5 -94.55549,54.70326 -7.19665,4.1 v -8.3 -34.4 -2.8 l 2.39889,-1.4 79.56244,-46.00326 79.66299,-46 v 0 l 22.08975,-12.7 v -22.1 -95.5 -94.8 l -183.71468,106.1 6.1e-4,220.68925 v 8.6 25.91401 2.7 l -2.39889,1.4 -7.49652,4.3 -7.49652,4.3 -2.39888,1.4 -2.39888,-1.4 -7.49652,-4.3 -7.49652,-4.3 -2.39888,-1.4 v -2.7 -25.91401 -8.6 l -6.2e-4,-220.68925 -183.614728,-106.2 v 94.8 101 11.5 0 5.3 l 14.293363,8.2 124.442817,72.00326 42.480268,24.5 2.3989,1.4 v 2.7 34.4 8.3 l -7.19666,-4.1 -94.5567024,-54.70326 v 0 l -111.4482376,-64.5 -7.49652,-4.3 -2.29894,-1.4 v -2.7 -8.6 -128.9 -128.9 -8.6 -2.7 l 2.39889,-1.4 7.49652,-4.3 C -29.94813,96.009976 44.517289,53.009976 118.88276,10.109976 v 0 l 7.49651,-4.3000004 2.39889,-1.4 2.39888,1.4 z m -193.809995,146.000004 183.914585,106.2 183.91459,-106.2 -168.52174,-97.300004 -15.39285,-9 -30.385872,17.6 -2.099038,1.2 c -50.476561,29.1 -100.9531186,58.300004 -151.429675,87.500004 z"
           id="path953"
           style="fill:#ffffff;fill-opacity:1;stroke-width:0.999774"
           inkscape:export-filename="/Users/vadim/Downloads/path171.png"
           inkscape:export-xdpi="102.66752"
           inkscape:export-ydpi="102.66752" />
        <path
           transform="translate(-228.66884,-55.178552)"
           id="path955"
           d=""
           style="fill:#ffffff;fill-opacity:1;stroke:none;stroke-width:1.35803" />
        <path
           transform="translate(-228.66884,-55.178552)"
           id="path957"
           d=""
           style="fill:#ffffff;fill-opacity:1;stroke:none;stroke-width:1.35803" />
        <path
           transform="matrix(0.93437378,0,0,0.93517211,-242.07843,-239.91293)"
           id="path959"
           d="M 351.96317,834.83515 C 327.92089,820.92103 269.91214,787.39069 223.05483,760.32327 l -85.19511,-49.21349 -0.0207,-149.81644 -0.0207,-149.81646 129.26522,-74.59198 c 122.45743,-70.66358 129.40951,-74.52709 132.00493,-73.35966 1.50685,0.67777 60.06358,34.3006 130.12608,74.7174 l 127.38635,73.48508 -0.25151,149.5575 -0.25151,149.5575 -72.28231,41.72558 c -39.75527,22.94907 -97.99073,56.5743 -129.41213,74.72273 -31.4214,18.14843 -57.48917,32.96234 -57.92838,32.91982 -0.43921,-0.0425 -20.46952,-11.46159 -44.51181,-25.3757 z m 23.72027,-148.1032 V 572.64202 l -97.51562,-56.36304 c -53.63358,-30.99968 -97.92573,-56.51684 -98.42697,-56.70481 -0.52823,-0.19808 -0.91137,47.66785 -0.91137,113.8565 v 114.19825 l 97.65802,56.52023 c 53.71191,31.08613 98.00405,56.55454 98.42698,56.59648 0.42293,0.0419 0.76896,-51.26422 0.76896,-114.01368 z m 141.3041,57.22287 97.58638,-56.3544 V 573.42355 459.24669 l -6.99806,3.9231 c -3.84893,2.15771 -48.14107,27.67348 -98.42697,56.70172 l -91.42893,52.77863 v 114.17131 c 0,62.79422 0.37827,114.01751 0.8406,113.82954 0.46233,-0.18797 44.75447,-25.70124 98.42698,-56.69617 z M 495.716,480.67787 c 54.06574,-31.15573 98.3128,-56.90374 98.32681,-57.21781 0.0507,-1.13691 -195.34457,-113.2346 -197.34111,-113.21398 -3.05967,0.0316 -197.46181,112.562 -196.36005,113.66374 1.27096,1.27097 195.12059,113.25432 196.2039,113.34337 0.47802,0.0393 45.10473,-25.41959 99.17045,-56.57532 z"
           style="opacity:0.08;fill:#ffffff;stroke-width:0;paint-order:stroke fill markers;fill-opacity:1" />
      </g>
    </g>
  </g>
  <style
     type="text/css"
     id="style10">
	.st0{fill:#000D29;}
	.st1{fill-rule:evenodd;clip-rule:evenodd;fill:#000D29;}
</style>
  <style
     type="text/css"
     id="style151">
	.st0{fill:#000D29;}
	.st1{fill-rule:evenodd;clip-rule:evenodd;fill:#000D29;}
</style>
  <style
     type="text/css"
     id="style198">
	.st0{fill:#000D29;}
	.st1{fill-rule:evenodd;clip-rule:evenodd;fill:#000D29;}
</style>
</svg>
