<?xml version="1.0" encoding="UTF-8" standalone="no"?>
<svg
   xmlns:osb="http://www.openswatchbook.org/uri/2009/osb"
   xmlns:dc="http://purl.org/dc/elements/1.1/"
   xmlns:cc="http://creativecommons.org/ns#"
   xmlns:rdf="http://www.w3.org/1999/02/22-rdf-syntax-ns#"
   xmlns:svg="http://www.w3.org/2000/svg"
   xmlns="http://www.w3.org/2000/svg"
   xmlns:sodipodi="http://sodipodi.sourceforge.net/DTD/sodipodi-0.dtd"
   xmlns:inkscape="http://www.inkscape.org/namespaces/inkscape"
   inkscape:export-ydpi="102.6549"
   inkscape:export-xdpi="102.6549"
   inkscape:export-filename="/Users/vadim/Downloads/export.png"
   width="793.70081"
   height="1122.5197"
   viewBox="0 0 210 297"
   version="1.1"
   id="svg8"
   inkscape:version="1.0 (4035a4f, 2020-05-01)"
   sodipodi:docname="user-registrator.svg">
  <defs
     id="defs2">
    <linearGradient
       osb:paint="solid"
       id="linearGradient2822">
      <stop
         id="stop2820"
         offset="0"
         style="stop-color:#000000;stop-opacity:1;" />
    </linearGradient>
    <linearGradient
       id="linearGradient961"
       osb:paint="solid">
      <stop
         style="stop-color:#000000;stop-opacity:1;"
         offset="0"
         id="stop959" />
    </linearGradient>
  </defs>
  <sodipodi:namedview
     id="base"
     pagecolor="#ffffff"
     bordercolor="#666666"
     borderopacity="1.0"
     inkscape:pageopacity="0.0"
     inkscape:pageshadow="2"
     inkscape:zoom="1"
     inkscape:cx="146.02049"
     inkscape:cy="541.93841"
     inkscape:document-units="px"
     inkscape:current-layer="layer3"
     inkscape:document-rotation="0"
     showgrid="false"
     inkscape:snap-grids="false"
     inkscape:snap-to-guides="false"
     inkscape:window-width="1680"
     inkscape:window-height="950"
     inkscape:window-x="1280"
     inkscape:window-y="413"
     inkscape:window-maximized="0"
     inkscape:snap-global="false"
     inkscape:pagecheckerboard="false"
     units="px"
     showguides="true">
    <inkscape:grid
       originy="148.5"
       originx="105"
       empspacing="10"
       spacingy="0.26458333"
       spacingx="0.26458333"
       enabled="true"
       dotted="true"
       id="grid2806"
       type="xygrid" />
    <inkscape:grid
       enabled="false"
       originy="148.5"
       originx="105"
       id="grid2808"
       type="axonomgrid" />
  </sodipodi:namedview>
  <metadata
     id="metadata5">
    <rdf:RDF>
      <cc:Work
         rdf:about="">
        <dc:format>image/svg+xml</dc:format>
        <dc:type
           rdf:resource="http://purl.org/dc/dcmitype/StillImage" />
        <dc:title />
      </cc:Work>
    </rdf:RDF>
  </metadata>
  <g
     inkscape:groupmode="layer"
     id="layer3"
     inkscape:label="export"
     style="display:inline;mix-blend-mode:normal">
    <rect
       inkscape:export-ydpi="116.56"
       inkscape:export-xdpi="116.56"
       inkscape:export-filename="/Users/vadim/Downloads/container-registry-square-800-padding.png"
       y="69.125"
       x="25.625002"
       height="158.75"
       width="158.75"
       id="rect954-4"
       style="display:none;opacity:0;mix-blend-mode:normal;fill:none;fill-opacity:1;stroke:none;stroke-width:0;stroke-miterlimit:4;stroke-dasharray:none;stroke-opacity:1;paint-order:stroke fill markers"
       inkscape:label="FRAME 100%" />
    <rect
       style="display:none;opacity:0;mix-blend-mode:normal;fill:none;fill-opacity:1;stroke:none;stroke-width:0;stroke-miterlimit:4;stroke-dasharray:none;stroke-opacity:1;paint-order:stroke fill markers"
       id="rect954-4-9"
       width="174.625"
       height="174.625"
       x="17.687502"
       y="61.187496"
       inkscape:export-filename="/Users/vadim/Downloads/container-registry-square-800-padding-10%.png"
       inkscape:export-xdpi="116.36364"
       inkscape:export-ydpi="116.36364"
       inkscape:label="FRAME-SPACING +10%" />
    <rect
       inkscape:label="FRAME-SPACING +15%"
       inkscape:export-ydpi="111.3"
       inkscape:export-xdpi="111.3"
       inkscape:export-filename="/Users/vadim/Downloads/container-registry-square-800-padding-15%.png"
       y="57.218746"
       x="13.718753"
       height="182.5625"
       width="182.5625"
       id="rect44"
       style="display:inline;opacity:0;mix-blend-mode:normal;fill:none;fill-opacity:1;stroke:none;stroke-width:0;stroke-miterlimit:4;stroke-dasharray:none;stroke-opacity:1;paint-order:stroke fill markers" />
  </g>
  <g
     inkscape:label="Cross"
     inkscape:groupmode="layer"
     id="layer1"
     style="display:inline;opacity:1"
     sodipodi:insensitive="true">
    <g
       id="g32"
       transform="matrix(0.26458333,0,0,0.26458333,14.879034,-0.84477577)" />
    <g
       inkscape:export-ydpi="116.56"
       inkscape:export-xdpi="116.56"
       inkscape:export-filename="/Users/vadim/Downloads/container-registry-square-800-padding.png"
       id="g220"
       transform="matrix(0.28303503,0,0,0.28292475,229.01566,7.1120518)"
       style="fill:#d03808;fill-opacity:1">
      <g
         id="g250"
         transform="translate(-682.16362,218.92657)"
         style="fill:#d03808;fill-opacity:1">
        <polygon
           class="st0"
           points="204.1,305 203.9,310.3 165.4,332.6 160.9,324.9 199.4,302.6 "
           id="polygon200"
           style="fill:#d03808;fill-opacity:1" />
        <polygon
           class="st0"
           points="35.1,397.3 39.5,405 80.3,381.5 75.9,373.8 "
           id="polygon202"
           style="fill:#d03808;fill-opacity:1" />
        <polygon
           class="st0"
           points="99.2,360.7 103.7,368.4 142.1,346.1 137.7,338.4 "
           id="polygon204"
           style="fill:#d03808;fill-opacity:1" />
        <polygon
           class="st0"
           points="322.6,332.6 327.1,324.9 288.6,302.6 283.9,305 284.1,310.3 "
           id="polygon206"
           style="fill:#d03808;fill-opacity:1" />
        <polygon
           class="st0"
           points="407.7,381.5 412.1,373.8 452.9,397.3 448.5,405 "
           id="polygon208"
           style="fill:#d03808;fill-opacity:1" />
        <polygon
           class="st0"
           points="345.8,346.1 350.3,338.4 388.8,360.7 384.3,368.4 "
           id="polygon210"
           style="fill:#d03808;fill-opacity:1" />
        <polygon
           class="st1"
           points="247.9,162.7 239,162.7 239,118.2 247.9,118.2 "
           id="polygon212"
           style="fill:#d03808;fill-opacity:1" />
        <polygon
           class="st1"
           points="243.5,235.7 239,233.9 239,189.4 247.9,189.4 247.9,233.9 "
           id="polygon214"
           style="fill:#d03808;fill-opacity:1" />
        <polygon
           class="st1"
           points="239,44.4 247.9,44.4 247.9,91.5 239,91.5 "
           id="polygon216"
           style="fill:#d03808;fill-opacity:1" />
      </g>
    </g>
  </g>
  <g
     sodipodi:insensitive="true"
     inkscape:groupmode="layer"
     id="layer2"
     inkscape:label="Cube"
     style="display:inline">
    <g
       sodipodi:insensitive="true"
       inkscape:export-ydpi="116.56"
       inkscape:export-xdpi="116.56"
       inkscape:export-filename="/Users/vadim/Downloads/container-registry-square-800-padding.png"
       id="g173"
       transform="matrix(0.28316648,0,0,0.28292475,68.548497,67.877305)"
       style="display:inline;fill:#3b3b3b;fill-opacity:1">
      <path
         inkscape:export-ydpi="102.66752"
         inkscape:export-xdpi="102.66752"
         inkscape:export-filename="/Users/vadim/Downloads/path171.png"
         style="fill:#3b3b3b;fill-opacity:1;stroke-width:0.999774"
         id="path171"
         d="m 138.57361,10.009976 223.19634,128.900004 7.49652,4.3 2.39889,1.4 v 2.7 8.6 128.9 129 8.6 2.7 l -2.39889,1.4 -7.49652,4.3 -111.64814,64.5 -94.55549,54.70326 -7.19665,4.1 v -8.3 -34.4 -2.8 l 2.39889,-1.4 79.56244,-46.00326 79.66299,-46 v 0 l 22.08975,-12.7 v -22.1 -95.5 -94.8 l -183.71468,106.1 6.1e-4,220.68925 v 8.6 25.91401 2.7 l -2.39889,1.4 -7.49652,4.3 -7.49652,4.3 -2.39888,1.4 -2.39888,-1.4 -7.49652,-4.3 -7.49652,-4.3 -2.39888,-1.4 v -2.7 -25.91401 -8.6 l -6.2e-4,-220.68925 -183.614728,-106.2 v 94.8 101 11.5 0 5.3 l 14.293363,8.2 124.442817,72.00326 42.480268,24.5 2.3989,1.4 v 2.7 34.4 8.3 l -7.19666,-4.1 -94.5567024,-54.70326 v 0 l -111.4482376,-64.5 -7.49652,-4.3 -2.29894,-1.4 v -2.7 -8.6 -128.9 -128.9 -8.6 -2.7 l 2.39889,-1.4 7.49652,-4.3 C -29.94813,96.009976 44.517289,53.009976 118.88276,10.109976 v 0 l 7.49651,-4.3000004 2.39889,-1.4 2.39888,1.4 z m -193.809995,146.000004 183.914585,106.2 183.91459,-106.2 -168.52174,-97.300004 -15.39285,-9 -30.385872,17.6 -2.099038,1.2 c -50.476561,29.1 -100.9531186,58.300004 -151.429675,87.500004 z"
         class="st0"
         sodipodi:nodetypes="ccccccccccccccccccccccccccccccccccccccccccccccccccccccccccccccccccccccsccccccccccccc" />
      <path
         style="fill:#3b3b3b;fill-opacity:1;stroke:none;stroke-width:1.35803"
         d=""
         id="path33"
         transform="translate(-228.66884,-55.178552)" />
      <path
         style="fill:#3b3b3b;fill-opacity:1;stroke:none;stroke-width:1.35803"
         d=""
         id="path35"
         transform="translate(-228.66884,-55.178552)" />
    </g>
  </g>
  <style
     id="style10"
     type="text/css">
	.st0{fill:#000D29;}
	.st1{fill-rule:evenodd;clip-rule:evenodd;fill:#000D29;}
</style>
  <style
     id="style151"
     type="text/css">
	.st0{fill:#000D29;}
	.st1{fill-rule:evenodd;clip-rule:evenodd;fill:#000D29;}
</style>
  <style
     id="style198"
     type="text/css">
	.st0{fill:#000D29;}
	.st1{fill-rule:evenodd;clip-rule:evenodd;fill:#000D29;}
</style>
</svg>
